999
DXF created by Inkscape
  0
SECTION
  2
HEADER
  9
$ACADVER
  1
AC1014
  9
$HANDSEED
  5
FFFF
  9
$MEASUREMENT
 70
     1
  0
ENDSEC
  0
SECTION
  2
TABLES
  0
TABLE
  2
VPORT
  5
8
330
0
100
AcDbSymbolTable
 70
     4
  0
VPORT
  5
2E
330
8
100
AcDbSymbolTableRecord
100
AcDbViewportTableRecord
  2
*ACTIVE
 70
     0
 10
0.0
 20
0.0
 11
1.0
 21
1.0
 12
210.0
 22
148.5
 13
0.0
 23
0.0
 14
10.0
 24
10.0
 15
10.0
 25
10.0
 16
0.0
 26
0.0
 36
1.0
 17
0.0
 27
0.0
 37
0.0
 40
341.0
 41
1.24
 42
50.0
 43
0.0
 44
0.0
 50
0.0
 51
0.0
 71
     0
 72
   100
 73
     1
 74
     3
 75
     0
 76
     0
 77
     0
 78
     0
  0
ENDTAB
  0
TABLE
  2
LTYPE
  5
5
330
0
100
AcDbSymbolTable
 70
     1
  0
LTYPE
  5
14
330
5
100
AcDbSymbolTableRecord
100
AcDbLinetypeTableRecord
  2
BYBLOCK
 70
     0
  3

 72
    65
 73
     0
 40
0.0
  0
LTYPE
  5
15
330
5
100
AcDbSymbolTableRecord
100
AcDbLinetypeTableRecord
  2
BYLAYER
 70
     0
  3

 72
    65
 73
     0
 40
0.0
  0
LTYPE
  5
16
330
5
100
AcDbSymbolTableRecord
100
AcDbLinetypeTableRecord
  2
CONTINUOUS
 70
     0
  3
Solid line
 72
    65
 73
     0
 40
0.0
  0
ENDTAB
  0
TABLE
  2
LAYER
  5
2
100
AcDbSymbolTable
 70
1
  0
LAYER
  5
50
100
AcDbSymbolTableRecord
100
AcDbLayerTableRecord
  2
0
 70
0
  6
CONTINUOUS
  0
ENDTAB
  0
TABLE
  2
STYLE
  5
3
330
0
100
AcDbSymbolTable
 70
     1
  0
STYLE
  5
11
330
3
100
AcDbSymbolTableRecord
100
AcDbTextStyleTableRecord
  2
STANDARD
 70
     0
 40
0.0
 41
1.0
 50
0.0
 71
     0
 42
2.5
  3
txt
  4

  0
ENDTAB
  0
TABLE
  2
VIEW
  5
6
330
0
100
AcDbSymbolTable
 70
     0
  0
ENDTAB
  0
TABLE
  2
UCS
  5
7
330
0
100
AcDbSymbolTable
 70
     0
  0
ENDTAB
  0
TABLE
  2
APPID
  5
9
330
0
100
AcDbSymbolTable
 70
     2
  0
APPID
  5
12
330
9
100
AcDbSymbolTableRecord
100
AcDbRegAppTableRecord
  2
ACAD
 70
     0
  0
ENDTAB
  0
TABLE
  2
DIMSTYLE
  5
A
330
0
100
AcDbSymbolTable
 70
     1
  0
DIMSTYLE
105
27
330
A
100
AcDbSymbolTableRecord
100
AcDbDimStyleTableRecord
  2
ISO-25
 70
     0
  3

  4

  5

  6

  7

 40
1.0
 41
2.5
 42
0.625
 43
3.75
 44
1.25
 45
0.0
 46
0.0
 47
0.0
 48
0.0
140
2.5
141
2.5
142
0.0
143
0.03937007874016
144
1.0
145
0.0
146
1.0
147
0.625
 71
     0
 72
     0
 73
     0
 74
     0
 75
     0
 76
     0
 77
     1
 78
     8
170
     0
171
     3
172
     1
173
     0
174
     0
175
     0
176
     0
177
     0
178
     0
270
     2
271
     2
272
     2
273
     2
274
     3
340
11
275
     0
280
     0
281
     0
282
     0
283
     0
284
     8
285
     0
286
     0
287
     3
288
     0
  0
ENDTAB
  0
TABLE
  2
BLOCK_RECORD
  5
1
330
0
100
AcDbSymbolTable
 70
     1
  0
BLOCK_RECORD
  5
1F
330
1
100
AcDbSymbolTableRecord
100
AcDbBlockTableRecord
  2
*MODEL_SPACE
  0
BLOCK_RECORD
  5
1B
330
1
100
AcDbSymbolTableRecord
100
AcDbBlockTableRecord
  2
*PAPER_SPACE
  0
ENDTAB
  0
ENDSEC
  0
SECTION
  2
BLOCKS
  0
BLOCK
  5
20
330
1F
100
AcDbEntity
  8
0
100
AcDbBlockBegin
  2
*MODEL_SPACE
 70
     0
 10
0.0
 20
0.0
 30
0.0
  3
*MODEL_SPACE
  1

  0
ENDBLK
  5
21
330
1F
100
AcDbEntity
  8
0
100
AcDbBlockEnd
  0
BLOCK
  5
1C
330
1B
100
AcDbEntity
 67
     1
  8
0
100
AcDbBlockBegin
  2
*PAPER_SPACE
  1

  0
ENDBLK
  5
1D
330
1B
100
AcDbEntity
 67
     1
  8
0
100
AcDbBlockEnd
  0
ENDSEC
  0
SECTION
  2
ENTITIES
  0
LWPOLYLINE
  5
100
100
AcDbEntity
  8
0
 62
7
100
AcDbPolyline
 90
33
 70
0
 10
0.000000
 20
8.466667
 30
0.0
 10
0.000000
 20
10.583334
 30
0.0
 10
0.000000
 20
12.700000
 30
0.0
 10
0.000000
 20
14.816668
 30
0.0
 10
0.000000
 20
16.933334
 30
0.0
 10
11.500556
 20
16.933334
 30
0.0
 10
23.001111
 20
16.933334
 30
0.0
 10
34.501667
 20
16.933334
 30
0.0
 10
46.002222
 20
16.933334
 30
0.0
 10
57.502778
 20
16.933334
 30
0.0
 10
69.003333
 20
16.933334
 30
0.0
 10
80.503889
 20
16.933334
 30
0.0
 10
92.004444
 20
16.933334
 30
0.0
 10
92.004444
 20
14.816668
 30
0.0
 10
92.004444
 20
12.700000
 30
0.0
 10
92.004444
 20
10.583334
 30
0.0
 10
92.004444
 20
8.466667
 30
0.0
 10
92.004444
 20
6.350000
 30
0.0
 10
92.004444
 20
4.233334
 30
0.0
 10
92.004444
 20
2.116667
 30
0.0
 10
92.004444
 20
0.000000
 30
0.0
 10
80.503889
 20
0.000000
 30
0.0
 10
69.003333
 20
0.000000
 30
0.0
 10
57.502778
 20
0.000000
 30
0.0
 10
46.002222
 20
0.000000
 30
0.0
 10
34.501667
 20
0.000000
 30
0.0
 10
23.001111
 20
0.000000
 30
0.0
 10
11.500556
 20
0.000000
 30
0.0
 10
0.000000
 20
0.000000
 30
0.0
 10
0.000000
 20
2.116667
 30
0.0
 10
0.000000
 20
4.233334
 30
0.0
 10
0.000000
 20
6.350000
 30
0.0
 10
0.000000
 20
8.466667
 30
0.0
  0
LWPOLYLINE
  5
101
100
AcDbEntity
  8
0
 62
7
100
AcDbPolyline
 90
129
 70
0
 10
4.852933
 20
3.342288
 30
0.0
 10
4.833211
 20
4.245684
 30
0.0
 10
4.861551
 20
4.858287
 30
0.0
 10
4.938498
 20
5.184976
 30
0.0
 10
5.064600
 20
5.230631
 30
0.0
 10
5.180161
 20
5.049179
 30
0.0
 10
5.274796
 20
4.691101
 30
0.0
 10
5.338738
 20
4.208190
 30
0.0
 10
5.362222
 20
3.652235
 30
0.0
 10
5.380019
 20
2.886222
 30
0.0
 10
5.468477
 20
2.467780
 30
0.0
 10
5.680196
 20
2.292951
 30
0.0
 10
6.067777
 20
2.257778
 30
0.0
 10
6.455359
 20
2.292951
 30
0.0
 10
6.667078
 20
2.467780
 30
0.0
 10
6.755536
 20
2.886222
 30
0.0
 10
6.773333
 20
3.652235
 30
0.0
 10
6.798002
 20
4.208921
 30
0.0
 10
6.865169
 20
4.693827
 30
0.0
 10
6.964575
 20
5.054851
 30
0.0
 10
7.085964
 20
5.239905
 30
0.0
 10
7.222383
 20
5.209588
 30
0.0
 10
7.301516
 20
4.899186
 30
0.0
 10
7.325790
 20
4.287057
 30
0.0
 10
7.297630
 20
3.351561
 30
0.0
 10
7.272388
 20
2.831172
 30
0.0
 10
7.247146
 20
2.310782
 30
0.0
 10
7.221904
 20
1.790390
 30
0.0
 10
7.196662
 20
1.270000
 30
0.0
 10
7.435505
 20
1.247169
 30
0.0
 10
7.674347
 20
1.224337
 30
0.0
 10
7.913190
 20
1.201505
 30
0.0
 10
8.152032
 20
1.178673
 30
0.0
 10
8.646248
 20
1.147801
 30
0.0
 10
8.903184
 20
1.191531
 30
0.0
 10
8.965176
 20
1.334666
 30
0.0
 10
8.874564
 20
1.602007
 30
0.0
 10
8.771682
 20
2.006778
 30
0.0
 10
8.663682
 20
2.728457
 30
0.0
 10
8.563392
 20
3.664927
 30
0.0
 10
8.483638
 20
4.714077
 30
0.0
 10
8.351828
 20
6.314960
 30
0.0
 10
8.146426
 20
7.258728
 30
0.0
 10
7.787887
 20
7.747443
 30
0.0
 10
7.196662
 20
7.983158
 30
0.0
 10
7.077710
 20
8.039964
 30
0.0
 10
7.171085
 20
8.094272
 30
0.0
 10
7.453638
 20
8.139921
 30
0.0
 10
7.902217
 20
8.170763
 30
0.0
 10
8.558014
 20
8.207838
 30
0.0
 10
8.855806
 20
8.264858
 30
0.0
 10
8.835554
 20
8.364350
 30
0.0
 10
8.537217
 20
8.528852
 30
0.0
 10
8.098789
 20
8.805320
 30
0.0
 10
7.923847
 20
9.057889
 30
0.0
 10
8.020313
 20
9.242442
 30
0.0
 10
8.396106
 20
9.314863
 30
0.0
 10
9.188770
 20
9.413689
 30
0.0
 10
10.098178
 20
9.668609
 30
0.0
 10
10.962004
 20
10.023777
 30
0.0
 10
11.617924
 20
10.423339
 30
0.0
 10
11.782032
 20
10.556226
 30
0.0
 10
11.946139
 20
10.689111
 30
0.0
 10
12.110247
 20
10.821998
 30
0.0
 10
12.274355
 20
10.954885
 30
0.0
 10
12.091751
 20
10.919977
 30
0.0
 10
11.909148
 20
10.885072
 30
0.0
 10
11.726545
 20
10.850163
 30
0.0
 10
11.543941
 20
10.815258
 30
0.0
 10
10.854353
 20
10.837977
 30
0.0
 10
10.333426
 20
11.129490
 30
0.0
 10
10.074393
 20
11.598854
 30
0.0
 10
10.170484
 20
12.155117
 30
0.0
 10
10.306503
 20
12.366670
 30
0.0
 10
10.461299
 20
12.539913
 30
0.0
 10
10.615823
 20
12.656970
 30
0.0
 10
10.751025
 20
12.699961
 30
0.0
 10
10.994093
 20
12.793932
 30
0.0
 10
10.768581
 20
13.033680
 30
0.0
 10
10.167514
 20
13.355958
 30
0.0
 10
9.283912
 20
13.697509
 30
0.0
 10
8.532059
 20
13.989580
 30
0.0
 10
7.968942
 20
14.332307
 30
0.0
 10
7.499696
 20
14.800176
 30
0.0
 10
7.029454
 20
15.467676
 30
0.0
 10
6.474384
 20
16.288449
 30
0.0
 10
6.238559
 20
16.516874
 30
0.0
 10
6.334150
 20
16.163771
 30
0.0
 10
6.773328
 20
15.239962
 30
0.0
 10
7.171325
 20
14.352412
 30
0.0
 10
7.303990
 20
13.684578
 30
0.0
 10
7.171325
 20
13.108133
 30
0.0
 10
6.773328
 20
12.494749
 30
0.0
 10
6.399049
 20
11.884324
 30
0.0
 10
6.237760
 20
11.238631
 30
0.0
 10
6.284363
 20
10.495927
 30
0.0
 10
6.533758
 20
9.594478
 30
0.0
 10
6.685493
 20
9.094953
 30
0.0
 10
6.710887
 20
8.759038
 30
0.0
 10
6.598954
 20
8.512816
 30
0.0
 10
6.338705
 20
8.282365
 30
0.0
 10
6.077003
 20
8.134748
 30
0.0
 10
5.748795
 20
8.013861
 30
0.0
 10
5.396017
 20
7.932183
 30
0.0
 10
5.060609
 20
7.902183
 30
0.0
 10
4.742949
 20
7.874130
 30
0.0
 10
4.438495
 20
7.797764
 30
0.0
 10
4.181806
 20
7.684739
 30
0.0
 10
4.007438
 20
7.546721
 30
0.0
 10
3.884823
 20
7.208495
 30
0.0
 10
3.769047
 20
6.550341
 30
0.0
 10
3.673146
 20
5.667186
 30
0.0
 10
3.610155
 20
4.653944
 30
0.0
 10
3.551515
 20
3.628142
 30
0.0
 10
3.467459
 20
2.710793
 30
0.0
 10
3.369215
 20
2.002034
 30
0.0
 10
3.268009
 20
1.602007
 30
0.0
 10
3.173189
 20
1.334158
 30
0.0
 10
3.232588
 20
1.191029
 30
0.0
 10
3.488574
 20
1.147558
 30
0.0
 10
3.983512
 20
1.178673
 30
0.0
 10
4.222355
 20
1.201505
 30
0.0
 10
4.461198
 20
1.224337
 30
0.0
 10
4.700040
 20
1.247169
 30
0.0
 10
4.938883
 20
1.270000
 30
0.0
 10
4.917394
 20
1.788073
 30
0.0
 10
4.895906
 20
2.306142
 30
0.0
 10
4.874417
 20
2.824215
 30
0.0
 10
4.852933
 20
3.342288
 30
0.0
  0
LWPOLYLINE
  5
102
100
AcDbEntity
  8
0
 62
7
100
AcDbPolyline
 90
45
 70
0
 10
90.522778
 20
3.533990
 30
0.0
 10
90.862822
 20
4.012783
 30
0.0
 10
91.054343
 20
4.623184
 30
0.0
 10
91.138835
 20
5.604428
 30
0.0
 10
91.157772
 20
7.195750
 30
0.0
 10
91.101331
 20
9.037569
 30
0.0
 10
90.924473
 20
10.106993
 30
0.0
 10
90.615905
 20
10.436578
 30
0.0
 10
90.164333
 20
10.058877
 30
0.0
 10
89.970968
 20
9.823038
 30
0.0
 10
89.819203
 20
9.739024
 30
0.0
 10
89.665677
 20
9.804158
 30
0.0
 10
89.467035
 20
10.015759
 30
0.0
 10
88.910801
 20
10.388947
 30
0.0
 10
88.214996
 20
10.428518
 30
0.0
 10
87.480552
 20
10.151246
 30
0.0
 10
86.808414
 20
9.573904
 30
0.0
 10
86.233793
 20
8.562527
 30
0.0
 10
86.040671
 20
7.443623
 30
0.0
 10
86.229337
 20
6.361617
 30
0.0
 10
86.800089
 20
5.460933
 30
0.0
 10
87.354119
 20
5.041570
 30
0.0
 10
87.964281
 20
4.862960
 30
0.0
 10
88.676079
 20
4.920948
 30
0.0
 10
89.535008
 20
5.211392
 30
0.0
 10
89.903946
 20
5.243494
 30
0.0
 10
90.032403
 20
4.994315
 30
0.0
 10
89.918097
 20
4.572254
 30
0.0
 10
89.558743
 20
4.085714
 30
0.0
 10
89.260739
 20
3.861836
 30
0.0
 10
88.881475
 20
3.747243
 30
0.0
 10
88.346957
 20
3.731353
 30
0.0
 10
87.583188
 20
3.803631
 30
0.0
 10
86.673267
 20
3.866803
 30
0.0
 10
86.174159
 20
3.780116
 30
0.0
 10
86.091412
 20
3.546616
 30
0.0
 10
86.430570
 20
3.169361
 30
0.0
 10
87.387159
 20
2.723295
 30
0.0
 10
88.536230
 20
2.648577
 30
0.0
 10
89.655526
 20
2.925406
 30
0.0
 10
90.522792
 20
3.533978
 30
0.0
 10
90.522786
 20
3.533978
 30
0.0
 10
90.522781
 20
3.533978
 30
0.0
 10
90.522778
 20
3.533978
 30
0.0
 10
90.522778
 20
3.533990
 30
0.0
  0
LWPOLYLINE
  5
103
100
AcDbEntity
  8
0
 62
7
100
AcDbPolyline
 90
17
 70
0
 10
87.665179
 20
6.355142
 30
0.0
 10
87.225183
 20
7.256995
 30
0.0
 10
87.329391
 20
8.251854
 30
0.0
 10
87.863717
 20
9.024019
 30
0.0
 10
88.714080
 20
9.257798
 30
0.0
 10
88.977464
 20
9.163330
 30
0.0
 10
89.258168
 20
8.969378
 30
0.0
 10
89.522616
 20
8.704213
 30
0.0
 10
89.737235
 20
8.396111
 30
0.0
 10
89.955974
 20
7.957434
 30
0.0
 10
90.028889
 20
7.620000
 30
0.0
 10
89.955974
 20
7.282567
 30
0.0
 10
89.737235
 20
6.843889
 30
0.0
 10
89.288597
 20
6.290880
 30
0.0
 10
88.751021
 20
6.015017
 30
0.0
 10
88.188538
 20
6.031414
 30
0.0
 10
87.665179
 20
6.355142
 30
0.0
  0
LWPOLYLINE
  5
104
100
AcDbEntity
  8
0
 62
7
100
AcDbPolyline
 90
37
 70
0
 10
49.611684
 20
5.194735
 30
0.0
 10
50.421611
 20
4.782177
 30
0.0
 10
51.356277
 20
4.964521
 30
0.0
 10
52.214444
 20
5.644927
 30
0.0
 10
52.794885
 20
6.726558
 30
0.0
 10
52.880249
 20
8.285427
 30
0.0
 10
52.298174
 20
9.554456
 30
0.0
 10
51.249092
 20
10.287618
 30
0.0
 10
49.933439
 20
10.238881
 30
0.0
 10
49.726746
 20
10.160864
 30
0.0
 10
49.520052
 20
10.082844
 30
0.0
 10
49.313361
 20
10.004826
 30
0.0
 10
49.106667
 20
9.926809
 30
0.0
 10
49.106667
 20
10.224068
 30
0.0
 10
49.106667
 20
10.521329
 30
0.0
 10
49.106667
 20
10.818588
 30
0.0
 10
49.106667
 20
11.115850
 30
0.0
 10
49.027055
 20
11.998859
 30
0.0
 10
48.807912
 20
12.579621
 30
0.0
 10
48.478770
 20
12.814218
 30
0.0
 10
48.069159
 20
12.658731
 30
0.0
 10
47.895795
 20
12.330444
 30
0.0
 10
47.780146
 20
11.640719
 30
0.0
 10
47.715602
 20
10.523291
 30
0.0
 10
47.695564
 20
8.911889
 30
0.0
 10
47.748043
 20
6.685825
 30
0.0
 10
47.928090
 20
5.400472
 30
0.0
 10
48.269601
 20
4.942502
 30
0.0
 10
48.806489
 20
5.198587
 30
0.0
 10
49.047725
 20
5.387504
 30
0.0
 10
49.233904
 20
5.449968
 30
0.0
 10
49.407676
 20
5.385777
 30
0.0
 10
49.611692
 20
5.194721
 30
0.0
 10
49.611692
 20
5.194724
 30
0.0
 10
49.611692
 20
5.194726
 30
0.0
 10
49.611692
 20
5.194732
 30
0.0
 10
49.611684
 20
5.194735
 30
0.0
  0
LWPOLYLINE
  5
105
100
AcDbEntity
  8
0
 62
7
100
AcDbPolyline
 90
21
 70
0
 10
49.398817
 20
6.472558
 30
0.0
 10
49.181165
 20
7.115997
 30
0.0
 10
49.118164
 20
7.844059
 30
0.0
 10
49.207118
 20
8.511899
 30
0.0
 10
49.445333
 20
8.974667
 30
0.0
 10
49.623596
 20
9.106166
 30
0.0
 10
49.858611
 20
9.213850
 30
0.0
 10
50.119822
 20
9.286610
 30
0.0
 10
50.376667
 20
9.313336
 30
0.0
 10
50.939615
 20
9.210757
 30
0.0
 10
51.335675
 20
8.898681
 30
0.0
 10
51.569733
 20
8.370599
 30
0.0
 10
51.646667
 20
7.620003
 30
0.0
 10
51.619940
 20
7.198786
 30
0.0
 10
51.547181
 20
6.802970
 30
0.0
 10
51.439496
 20
6.477003
 30
0.0
 10
51.307997
 20
6.265336
 30
0.0
 10
50.836878
 20
5.993175
 30
0.0
 10
50.281439
 20
5.945697
 30
0.0
 10
49.761984
 20
6.109843
 30
0.0
 10
49.398817
 20
6.472558
 30
0.0
  0
LWPOLYLINE
  5
106
100
AcDbEntity
  8
0
 62
7
100
AcDbPolyline
 90
17
 70
0
 10
57.877264
 20
5.622736
 30
0.0
 10
58.279115
 20
6.078466
 30
0.0
 10
58.532367
 20
6.519212
 30
0.0
 10
58.664306
 20
7.011035
 30
0.0
 10
58.702222
 20
7.620000
 30
0.0
 10
58.279826
 20
9.164264
 30
0.0
 10
57.234703
 20
10.151988
 30
0.0
 10
55.899947
 20
10.408963
 30
0.0
 10
54.608648
 20
9.760975
 30
0.0
 10
53.897141
 20
8.736167
 30
0.0
 10
53.659969
 20
7.620003
 30
0.0
 10
53.897141
 20
6.503837
 30
0.0
 10
54.608648
 20
5.479029
 30
0.0
 10
55.376750
 20
4.949498
 30
0.0
 10
56.209870
 20
4.798362
 30
0.0
 10
57.059534
 20
5.023485
 30
0.0
 10
57.877264
 20
5.622736
 30
0.0
  0
LWPOLYLINE
  5
107
100
AcDbEntity
  8
0
 62
7
100
AcDbPolyline
 90
13
 70
0
 10
55.201733
 20
6.537797
 30
0.0
 10
55.026763
 20
6.822226
 30
0.0
 10
54.883482
 20
7.121077
 30
0.0
 10
54.786668
 20
7.398840
 30
0.0
 10
54.751111
 20
7.620000
 30
0.0
 10
55.093591
 20
8.641845
 30
0.0
 10
55.886045
 20
9.180379
 30
0.0
 10
56.775993
 20
9.132751
 30
0.0
 10
57.410954
 20
8.396111
 30
0.0
 10
57.485669
 20
7.116595
 30
0.0
 10
56.942547
 20
6.212284
 30
0.0
 10
56.081323
 20
5.935309
 30
0.0
 10
55.201733
 20
6.537797
 30
0.0
  0
LWPOLYLINE
  5
108
100
AcDbEntity
  8
0
 62
7
100
AcDbPolyline
 90
33
 70
0
 10
62.938152
 20
5.224241
 30
0.0
 10
63.136794
 20
5.435843
 30
0.0
 10
63.290320
 20
5.500977
 30
0.0
 10
63.442088
 20
5.416965
 30
0.0
 10
63.635450
 20
5.181126
 30
0.0
 10
64.074144
 20
4.813340
 30
0.0
 10
64.384143
 20
5.092788
 30
0.0
 10
64.568155
 20
6.026122
 30
0.0
 10
64.628889
 20
7.620000
 30
0.0
 10
64.568155
 20
9.213879
 30
0.0
 10
64.384143
 20
10.147216
 30
0.0
 10
64.074144
 20
10.426664
 30
0.0
 10
63.635450
 20
10.058877
 30
0.0
 10
63.442085
 20
9.823038
 30
0.0
 10
63.290320
 20
9.739024
 30
0.0
 10
63.136794
 20
9.804158
 30
0.0
 10
62.938152
 20
10.015759
 30
0.0
 10
62.428061
 20
10.365009
 30
0.0
 10
61.784233
 20
10.407797
 30
0.0
 10
61.076287
 20
10.154943
 30
0.0
 10
60.373847
 20
9.617267
 30
0.0
 10
59.971996
 20
9.161535
 30
0.0
 10
59.718744
 20
8.720791
 30
0.0
 10
59.586805
 20
8.228965
 30
0.0
 10
59.548889
 20
7.620000
 30
0.0
 10
59.586805
 20
7.011035
 30
0.0
 10
59.718744
 20
6.519212
 30
0.0
 10
59.971996
 20
6.078466
 30
0.0
 10
60.373847
 20
5.622736
 30
0.0
 10
61.076287
 20
5.085058
 30
0.0
 10
61.784233
 20
4.832204
 30
0.0
 10
62.428061
 20
4.874991
 30
0.0
 10
62.938152
 20
5.224241
 30
0.0
  0
LWPOLYLINE
  5
109
100
AcDbEntity
  8
0
 62
7
100
AcDbPolyline
 90
17
 70
0
 10
61.156096
 20
6.430355
 30
0.0
 10
60.803395
 20
7.022922
 30
0.0
 10
60.698267
 20
7.686534
 30
0.0
 10
60.838334
 20
8.332216
 30
0.0
 10
61.221225
 20
8.870998
 30
0.0
 10
61.760230
 20
9.204785
 30
0.0
 10
62.284808
 20
9.233264
 30
0.0
 10
62.774305
 20
8.961388
 30
0.0
 10
63.208078
 20
8.394116
 30
0.0
 10
63.426978
 20
7.956497
 30
0.0
 10
63.499977
 20
7.619676
 30
0.0
 10
63.427094
 20
7.282519
 30
0.0
 10
63.208346
 20
6.843889
 30
0.0
 10
62.755447
 20
6.280006
 30
0.0
 10
62.225459
 20
6.015671
 30
0.0
 10
61.673850
 20
6.062060
 30
0.0
 10
61.156096
 20
6.430355
 30
0.0
  0
LWPOLYLINE
  5
10a
100
AcDbEntity
  8
0
 62
7
100
AcDbPolyline
 90
33
 70
0
 10
66.547817
 20
6.742913
 30
0.0
 10
66.616944
 20
7.735836
 30
0.0
 10
66.760163
 20
8.331818
 30
0.0
 10
67.061794
 20
8.716803
 30
0.0
 10
67.606150
 20
9.076724
 30
0.0
 10
67.984277
 20
9.320592
 30
0.0
 10
68.293931
 20
9.559841
 30
0.0
 10
68.503157
 20
9.766978
 30
0.0
 10
68.580000
 20
9.914512
 30
0.0
 10
68.443009
 20
10.193678
 30
0.0
 10
68.108562
 20
10.341720
 30
0.0
 10
67.691432
 20
10.336781
 30
0.0
 10
67.306407
 20
10.157014
 30
0.0
 10
67.083249
 20
10.003313
 30
0.0
 10
66.888479
 20
9.951023
 30
0.0
 10
66.694995
 20
9.999910
 30
0.0
 10
66.475695
 20
10.149733
 30
0.0
 10
66.292880
 20
10.267801
 30
0.0
 10
66.098914
 20
10.337137
 30
0.0
 10
65.916951
 20
10.352518
 30
0.0
 10
65.770139
 20
10.308740
 30
0.0
 10
65.572922
 20
9.435711
 30
0.0
 10
65.479682
 20
7.687302
 30
0.0
 10
65.506521
 20
5.917435
 30
0.0
 10
65.669572
 20
4.980034
 30
0.0
 10
66.001034
 20
4.822707
 30
0.0
 10
66.261911
 20
5.072143
 30
0.0
 10
66.446180
 20
5.716242
 30
0.0
 10
66.547805
 20
6.742902
 30
0.0
 10
66.547805
 20
6.742902
 30
0.0
 10
66.547805
 20
6.742902
 30
0.0
 10
66.547805
 20
6.742904
 30
0.0
 10
66.547817
 20
6.742913
 30
0.0
  0
LWPOLYLINE
  5
10b
100
AcDbEntity
  8
0
 62
7
100
AcDbPolyline
 90
37
 70
0
 10
72.157455
 20
5.217056
 30
0.0
 10
72.477853
 20
5.424210
 30
0.0
 10
72.680954
 20
5.493865
 30
0.0
 10
72.811722
 20
5.426310
 30
0.0
 10
72.915122
 20
5.221825
 30
0.0
 10
73.011233
 20
5.070715
 30
0.0
 10
73.153239
 20
4.974367
 30
0.0
 10
73.324458
 20
4.939753
 30
0.0
 10
73.508207
 20
4.973854
 30
0.0
 10
73.850980
 20
6.202782
 30
0.0
 10
73.980390
 20
8.720427
 30
0.0
 10
73.887525
 20
11.287074
 30
0.0
 10
73.563477
 20
12.663007
 30
0.0
 10
73.209263
 20
12.851342
 30
0.0
 10
72.977736
 20
12.694610
 30
0.0
 10
72.851543
 20
12.159243
 30
0.0
 10
72.813333
 20
11.211670
 30
0.0
 10
72.796936
 20
10.486054
 30
0.0
 10
72.728466
 20
10.093255
 30
0.0
 10
72.578951
 20
9.963901
 30
0.0
 10
72.319436
 20
10.028620
 30
0.0
 10
72.067750
 20
10.120952
 30
0.0
 10
71.747563
 20
10.216208
 30
0.0
 10
71.400001
 20
10.303169
 30
0.0
 10
71.066183
 20
10.370611
 30
0.0
 10
69.763688
 20
9.989812
 30
0.0
 10
68.976006
 20
8.693605
 30
0.0
 10
68.868431
 20
7.028705
 30
0.0
 10
69.606253
 20
5.541832
 30
0.0
 10
70.234048
 20
5.050745
 30
0.0
 10
70.864784
 20
4.833397
 30
0.0
 10
71.504051
 20
4.889077
 30
0.0
 10
72.157446
 20
5.217067
 30
0.0
 10
72.157446
 20
5.217064
 30
0.0
 10
72.157446
 20
5.217062
 30
0.0
 10
72.157446
 20
5.217059
 30
0.0
 10
72.157455
 20
5.217056
 30
0.0
  0
LWPOLYLINE
  5
10c
100
AcDbEntity
  8
0
 62
7
100
AcDbPolyline
 90
21
 70
0
 10
70.292316
 20
6.455645
 30
0.0
 10
70.067864
 20
7.067610
 30
0.0
 10
70.005493
 20
7.716204
 30
0.0
 10
70.103382
 20
8.336325
 30
0.0
 10
70.359702
 20
8.862862
 30
0.0
 10
70.844176
 20
9.223626
 30
0.0
 10
71.439950
 20
9.250127
 30
0.0
 10
72.036093
 20
8.966308
 30
0.0
 10
72.521679
 20
8.396114
 30
0.0
 10
72.740334
 20
7.957527
 30
0.0
 10
72.813288
 20
7.620003
 30
0.0
 10
72.740579
 20
7.282477
 30
0.0
 10
72.522244
 20
6.843892
 30
0.0
 10
72.003567
 20
6.253063
 30
0.0
 10
71.364864
 20
5.975017
 30
0.0
 10
70.747379
 20
6.034349
 30
0.0
 10
70.292349
 20
6.455647
 30
0.0
 10
70.292341
 20
6.455647
 30
0.0
 10
70.292333
 20
6.455647
 30
0.0
 10
70.292324
 20
6.455647
 30
0.0
 10
70.292316
 20
6.455645
 30
0.0
  0
LWPOLYLINE
  5
10d
100
AcDbEntity
  8
0
 62
7
100
AcDbPolyline
 90
13
 70
0
 10
76.105221
 20
5.240082
 30
0.0
 10
76.146841
 20
5.436103
 30
0.0
 10
76.134705
 20
5.642856
 30
0.0
 10
76.073319
 20
5.835732
 30
0.0
 10
75.967223
 20
5.990122
 30
0.0
 10
75.610328
 20
6.117511
 30
0.0
 10
75.238593
 20
5.958411
 30
0.0
 10
74.983614
 20
5.617758
 30
0.0
 10
74.976982
 20
5.200478
 30
0.0
 10
75.210543
 20
4.901972
 30
0.0
 10
75.538993
 20
4.811268
 30
0.0
 10
75.868502
 20
4.925069
 30
0.0
 10
76.105221
 20
5.240082
 30
0.0
  0
LWPOLYLINE
  5
10e
100
AcDbEntity
  8
0
 62
7
100
AcDbPolyline
 90
17
 70
0
 10
81.019486
 20
5.622736
 30
0.0
 10
81.421337
 20
6.078466
 30
0.0
 10
81.674589
 20
6.519212
 30
0.0
 10
81.806528
 20
7.011035
 30
0.0
 10
81.844444
 20
7.620000
 30
0.0
 10
81.470435
 20
9.061112
 30
0.0
 10
80.526300
 20
10.054551
 30
0.0
 10
79.278884
 20
10.433245
 30
0.0
 10
77.995024
 20
10.030130
 30
0.0
 10
77.165652
 20
9.026480
 30
0.0
 10
76.848784
 20
7.723339
 30
0.0
 10
77.056471
 20
6.409676
 30
0.0
 10
77.800776
 20
5.374451
 30
0.0
 10
78.610457
 20
4.923438
 30
0.0
 10
79.435523
 20
4.815925
 30
0.0
 10
80.247891
 20
5.049746
 30
0.0
 10
81.019486
 20
5.622736
 30
0.0
  0
LWPOLYLINE
  5
10f
100
AcDbEntity
  8
0
 62
7
100
AcDbPolyline
 90
13
 70
0
 10
78.343955
 20
6.537797
 30
0.0
 10
78.168988
 20
6.822226
 30
0.0
 10
78.025704
 20
7.121077
 30
0.0
 10
77.928891
 20
7.398840
 30
0.0
 10
77.893333
 20
7.620000
 30
0.0
 10
78.235813
 20
8.641845
 30
0.0
 10
79.028267
 20
9.180379
 30
0.0
 10
79.918216
 20
9.132751
 30
0.0
 10
80.553176
 20
8.396111
 30
0.0
 10
80.627892
 20
7.116595
 30
0.0
 10
80.084769
 20
6.212284
 30
0.0
 10
79.223545
 20
5.935309
 30
0.0
 10
78.343955
 20
6.537797
 30
0.0
  0
LWPOLYLINE
  5
110
100
AcDbEntity
  8
0
 62
7
100
AcDbPolyline
 90
33
 70
0
 10
83.820000
 20
6.799510
 30
0.0
 10
83.840179
 20
7.762712
 30
0.0
 10
83.956776
 20
8.334708
 30
0.0
 10
84.253843
 20
8.707487
 30
0.0
 10
84.815437
 20
9.073030
 30
0.0
 10
85.288377
 20
9.377957
 30
0.0
 10
85.543026
 20
9.619144
 30
0.0
 10
85.602863
 20
9.830356
 30
0.0
 10
85.491357
 20
10.045359
 30
0.0
 10
85.311403
 20
10.212829
 30
0.0
 10
85.118493
 20
10.281060
 30
0.0
 10
84.890858
 20
10.252081
 30
0.0
 10
84.606725
 20
10.127926
 30
0.0
 10
84.339709
 20
10.011904
 30
0.0
 10
84.110319
 20
9.970573
 30
0.0
 10
83.916277
 20
10.003889
 30
0.0
 10
83.755303
 20
10.111811
 30
0.0
 10
83.613442
 20
10.211204
 30
0.0
 10
83.438839
 20
10.270177
 30
0.0
 10
83.253656
 20
10.284232
 30
0.0
 10
83.080044
 20
10.248872
 30
0.0
 10
82.777725
 20
9.369823
 30
0.0
 10
82.666911
 20
7.619368
 30
0.0
 10
82.753621
 20
5.871572
 30
0.0
 10
83.043880
 20
5.000501
 30
0.0
 10
83.434194
 20
4.945036
 30
0.0
 10
83.671088
 20
5.174085
 30
0.0
 10
83.788405
 20
5.766097
 30
0.0
 10
83.819992
 20
6.799518
 30
0.0
 10
83.819992
 20
6.799515
 30
0.0
 10
83.819992
 20
6.799513
 30
0.0
 10
83.819992
 20
6.799513
 30
0.0
 10
83.820000
 20
6.799510
 30
0.0
  0
LWPOLYLINE
  5
111
100
AcDbEntity
  8
0
 62
7
100
AcDbPolyline
 90
17
 70
0
 10
1.299398
 20
8.108010
 30
0.0
 10
1.100236
 20
8.200427
 30
0.0
 10
0.959444
 20
8.095469
 30
0.0
 10
0.916576
 20
7.865311
 30
0.0
 10
1.011188
 20
7.582123
 30
0.0
 10
1.125865
 20
7.420241
 30
0.0
 10
1.211959
 20
7.366122
 30
0.0
 10
1.282637
 20
7.419721
 30
0.0
 10
1.351069
 20
7.580994
 30
0.0
 10
1.383757
 20
7.732875
 30
0.0
 10
1.384912
 20
7.882871
 30
0.0
 10
1.356227
 20
8.013683
 30
0.0
 10
1.299398
 20
8.108019
 30
0.0
 10
1.299398
 20
8.108016
 30
0.0
 10
1.299398
 20
8.108013
 30
0.0
 10
1.299398
 20
8.108013
 30
0.0
 10
1.299398
 20
8.108010
 30
0.0
  0
LWPOLYLINE
  5
112
100
AcDbEntity
  8
0
 62
7
100
AcDbPolyline
 90
17
 70
0
 10
11.571111
 20
12.306862
 30
0.0
 10
11.537708
 20
12.349929
 30
0.0
 10
11.446757
 20
12.385196
 30
0.0
 10
11.312150
 20
12.409015
 30
0.0
 10
11.147778
 20
12.417764
 30
0.0
 10
10.983406
 20
12.396202
 30
0.0
 10
10.848799
 20
12.337472
 30
0.0
 10
10.757848
 20
12.250553
 30
0.0
 10
10.724445
 20
12.144409
 30
0.0
 10
10.757848
 20
12.051084
 30
0.0
 10
10.848799
 20
11.999065
 30
0.0
 10
10.983406
 20
11.991981
 30
0.0
 10
11.147778
 20
12.033487
 30
0.0
 10
11.312150
 20
12.105316
 30
0.0
 10
11.446757
 20
12.180799
 30
0.0
 10
11.537708
 20
12.250968
 30
0.0
 10
11.571111
 20
12.306862
 30
0.0
  0
ENDSEC
  0
SECTION
  2
OBJECTS
  0
DICTIONARY
  5
C
330
0
100
AcDbDictionary
  3
ACAD_GROUP
350
D
  3
ACAD_MLINESTYLE
350
17
  0
DICTIONARY
  5
D
330
C
100
AcDbDictionary
  0
DICTIONARY
  5
1A
330
C
100
AcDbDictionary
  0
DICTIONARY
  5
17
330
C
100
AcDbDictionary
  3
STANDARD
350
18
  0
DICTIONARY
  5
19
330
C
100
AcDbDictionary
  0
ENDSEC
  0
EOF
