999
DXF created by Inkscape
  0
SECTION
  2
HEADER
  9
$ACADVER
  1
AC1014
  9
$HANDSEED
  5
FFFF
  9
$MEASUREMENT
 70
     1
  0
ENDSEC
  0
SECTION
  2
TABLES
  0
TABLE
  2
VPORT
  5
8
330
0
100
AcDbSymbolTable
 70
     4
  0
VPORT
  5
2E
330
8
100
AcDbSymbolTableRecord
100
AcDbViewportTableRecord
  2
*ACTIVE
 70
     0
 10
0.0
 20
0.0
 11
1.0
 21
1.0
 12
210.0
 22
148.5
 13
0.0
 23
0.0
 14
10.0
 24
10.0
 15
10.0
 25
10.0
 16
0.0
 26
0.0
 36
1.0
 17
0.0
 27
0.0
 37
0.0
 40
341.0
 41
1.24
 42
50.0
 43
0.0
 44
0.0
 50
0.0
 51
0.0
 71
     0
 72
   100
 73
     1
 74
     3
 75
     0
 76
     0
 77
     0
 78
     0
  0
ENDTAB
  0
TABLE
  2
LTYPE
  5
5
330
0
100
AcDbSymbolTable
 70
     1
  0
LTYPE
  5
14
330
5
100
AcDbSymbolTableRecord
100
AcDbLinetypeTableRecord
  2
BYBLOCK
 70
     0
  3

 72
    65
 73
     0
 40
0.0
  0
LTYPE
  5
15
330
5
100
AcDbSymbolTableRecord
100
AcDbLinetypeTableRecord
  2
BYLAYER
 70
     0
  3

 72
    65
 73
     0
 40
0.0
  0
LTYPE
  5
16
330
5
100
AcDbSymbolTableRecord
100
AcDbLinetypeTableRecord
  2
CONTINUOUS
 70
     0
  3
Solid line
 72
    65
 73
     0
 40
0.0
  0
ENDTAB
  0
TABLE
  2
LAYER
  5
2
100
AcDbSymbolTable
 70
1
  0
LAYER
  5
50
100
AcDbSymbolTableRecord
100
AcDbLayerTableRecord
  2
0
 70
0
  6
CONTINUOUS
  0
ENDTAB
  0
TABLE
  2
STYLE
  5
3
330
0
100
AcDbSymbolTable
 70
     1
  0
STYLE
  5
11
330
3
100
AcDbSymbolTableRecord
100
AcDbTextStyleTableRecord
  2
STANDARD
 70
     0
 40
0.0
 41
1.0
 50
0.0
 71
     0
 42
2.5
  3
txt
  4

  0
ENDTAB
  0
TABLE
  2
VIEW
  5
6
330
0
100
AcDbSymbolTable
 70
     0
  0
ENDTAB
  0
TABLE
  2
UCS
  5
7
330
0
100
AcDbSymbolTable
 70
     0
  0
ENDTAB
  0
TABLE
  2
APPID
  5
9
330
0
100
AcDbSymbolTable
 70
     2
  0
APPID
  5
12
330
9
100
AcDbSymbolTableRecord
100
AcDbRegAppTableRecord
  2
ACAD
 70
     0
  0
ENDTAB
  0
TABLE
  2
DIMSTYLE
  5
A
330
0
100
AcDbSymbolTable
 70
     1
  0
DIMSTYLE
105
27
330
A
100
AcDbSymbolTableRecord
100
AcDbDimStyleTableRecord
  2
ISO-25
 70
     0
  3

  4

  5

  6

  7

 40
1.0
 41
2.5
 42
0.625
 43
3.75
 44
1.25
 45
0.0
 46
0.0
 47
0.0
 48
0.0
140
2.5
141
2.5
142
0.0
143
0.03937007874016
144
1.0
145
0.0
146
1.0
147
0.625
 71
     0
 72
     0
 73
     0
 74
     0
 75
     0
 76
     0
 77
     1
 78
     8
170
     0
171
     3
172
     1
173
     0
174
     0
175
     0
176
     0
177
     0
178
     0
270
     2
271
     2
272
     2
273
     2
274
     3
340
11
275
     0
280
     0
281
     0
282
     0
283
     0
284
     8
285
     0
286
     0
287
     3
288
     0
  0
ENDTAB
  0
TABLE
  2
BLOCK_RECORD
  5
1
330
0
100
AcDbSymbolTable
 70
     1
  0
BLOCK_RECORD
  5
1F
330
1
100
AcDbSymbolTableRecord
100
AcDbBlockTableRecord
  2
*MODEL_SPACE
  0
BLOCK_RECORD
  5
1B
330
1
100
AcDbSymbolTableRecord
100
AcDbBlockTableRecord
  2
*PAPER_SPACE
  0
ENDTAB
  0
ENDSEC
  0
SECTION
  2
BLOCKS
  0
BLOCK
  5
20
330
1F
100
AcDbEntity
  8
0
100
AcDbBlockBegin
  2
*MODEL_SPACE
 70
     0
 10
0.0
 20
0.0
 30
0.0
  3
*MODEL_SPACE
  1

  0
ENDBLK
  5
21
330
1F
100
AcDbEntity
  8
0
100
AcDbBlockEnd
  0
BLOCK
  5
1C
330
1B
100
AcDbEntity
 67
     1
  8
0
100
AcDbBlockBegin
  2
*PAPER_SPACE
  1

  0
ENDBLK
  5
1D
330
1B
100
AcDbEntity
 67
     1
  8
0
100
AcDbBlockEnd
  0
ENDSEC
  0
SECTION
  2
ENTITIES
  0
LWPOLYLINE
  5
100
100
AcDbEntity
  8
0
 62
7
100
AcDbPolyline
 90
81
 70
0
 10
1.839745
 20
0.852570
 30
0.0
 10
1.365710
 20
1.358431
 30
0.0
 10
1.169632
 20
1.707683
 30
0.0
 10
1.219094
 20
2.054165
 30
0.0
 10
1.481675
 20
2.551714
 30
0.0
 10
1.741180
 20
3.058793
 30
0.0
 10
1.788974
 20
3.480005
 30
0.0
 10
1.593600
 20
4.020304
 30
0.0
 10
1.123598
 20
4.884647
 30
0.0
 10
0.609359
 20
6.011693
 30
0.0
 10
0.322941
 20
7.070780
 30
0.0
 10
0.298875
 20
7.856711
 30
0.0
 10
0.571693
 20
8.164287
 30
0.0
 10
0.654352
 20
8.227272
 30
0.0
 10
0.655913
 20
8.401633
 30
0.0
 10
0.580086
 20
8.665484
 30
0.0
 10
0.430581
 20
8.996939
 30
0.0
 10
0.263394
 20
9.360961
 30
0.0
 10
0.126483
 20
9.736587
 30
0.0
 10
0.033976
 20
10.079563
 30
0.0
 10
0.000000
 20
10.345635
 30
0.0
 10
0.232440
 20
11.262766
 30
0.0
 10
0.783889
 20
12.706022
 30
0.0
 10
1.435542
 20
14.150262
 30
0.0
 10
1.968592
 20
15.070341
 30
0.0
 10
2.663027
 20
15.660034
 30
0.0
 10
3.625487
 20
16.158067
 30
0.0
 10
4.705516
 20
16.502390
 30
0.0
 10
5.752659
 20
16.630954
 30
0.0
 10
6.768748
 20
16.471286
 30
0.0
 10
7.705142
 20
16.039145
 30
0.0
 10
8.450961
 20
15.404825
 30
0.0
 10
8.895325
 20
14.638620
 30
0.0
 10
9.084767
 20
14.345248
 30
0.0
 10
9.470023
 20
13.957797
 30
0.0
 10
9.995033
 20
13.526677
 30
0.0
 10
10.603743
 20
13.102298
 30
0.0
 10
10.986696
 20
12.857326
 30
0.0
 10
11.369649
 20
12.612354
 30
0.0
 10
11.752602
 20
12.367382
 30
0.0
 10
12.135556
 20
12.122409
 30
0.0
 10
12.135556
 20
11.594849
 30
0.0
 10
12.135556
 20
11.067288
 30
0.0
 10
12.135556
 20
10.539727
 30
0.0
 10
12.135556
 20
10.012167
 30
0.0
 10
12.115111
 20
8.940559
 30
0.0
 10
12.039274
 20
8.255792
 30
0.0
 10
11.886283
 20
7.854597
 30
0.0
 10
11.634378
 20
7.633703
 30
0.0
 10
11.394264
 20
7.540747
 30
0.0
 10
11.143709
 20
7.508084
 30
0.0
 10
10.897608
 20
7.535860
 30
0.0
 10
10.670855
 20
7.624223
 30
0.0
 10
10.074200
 20
7.827749
 30
0.0
 10
9.705642
 20
7.580862
 30
0.0
 10
9.526658
 20
6.812105
 30
0.0
 10
9.498727
 20
5.450025
 30
0.0
 10
9.540263
 20
4.593262
 30
0.0
 10
9.620622
 20
3.845303
 30
0.0
 10
9.728228
 20
3.286617
 30
0.0
 10
9.851507
 20
2.997670
 30
0.0
 10
10.144154
 20
2.460728
 30
0.0
 10
10.139193
 20
1.814612
 30
0.0
 10
9.858701
 20
1.159948
 30
0.0
 10
9.324763
 20
0.597362
 30
0.0
 10
8.519343
 20
0.142328
 30
0.0
 10
7.776052
 20
0.005669
 30
0.0
 10
7.111310
 20
0.186865
 30
0.0
 10
6.541535
 20
0.685398
 30
0.0
 10
6.309532
 20
0.959352
 30
0.0
 10
6.088109
 20
1.183697
 30
0.0
 10
5.902340
 20
1.335281
 30
0.0
 10
5.777303
 20
1.390954
 30
0.0
 10
5.644462
 20
1.335281
 30
0.0
 10
5.437446
 20
1.183697
 30
0.0
 10
5.184576
 20
0.959352
 30
0.0
 10
4.914174
 20
0.685398
 30
0.0
 10
4.202651
 20
0.149766
 30
0.0
 10
3.436213
 20
0.000000
 30
0.0
 10
2.640149
 20
0.234727
 30
0.0
 10
1.839745
 20
0.852570
 30
0.0
  0
LWPOLYLINE
  5
101
100
AcDbEntity
  8
0
 62
7
100
AcDbPolyline
 90
129
 70
0
 10
4.570711
 20
3.039905
 30
0.0
 10
4.550990
 20
3.943301
 30
0.0
 10
4.579329
 20
4.555905
 30
0.0
 10
4.656276
 20
4.882595
 30
0.0
 10
4.782378
 20
4.928250
 30
0.0
 10
4.897939
 20
4.746798
 30
0.0
 10
4.992574
 20
4.388720
 30
0.0
 10
5.056517
 20
3.905808
 30
0.0
 10
5.080000
 20
3.349852
 30
0.0
 10
5.097797
 20
2.583840
 30
0.0
 10
5.186255
 20
2.165399
 30
0.0
 10
5.397974
 20
1.990572
 30
0.0
 10
5.785556
 20
1.955398
 30
0.0
 10
6.173137
 20
1.990572
 30
0.0
 10
6.384857
 20
2.165399
 30
0.0
 10
6.473314
 20
2.583840
 30
0.0
 10
6.491111
 20
3.349852
 30
0.0
 10
6.515780
 20
3.906540
 30
0.0
 10
6.582947
 20
4.391445
 30
0.0
 10
6.682354
 20
4.752472
 30
0.0
 10
6.803742
 20
4.937525
 30
0.0
 10
6.940161
 20
4.907208
 30
0.0
 10
7.019294
 20
4.596805
 30
0.0
 10
7.043568
 20
3.984676
 30
0.0
 10
7.015408
 20
3.049181
 30
0.0
 10
6.990166
 20
2.528791
 30
0.0
 10
6.964924
 20
2.008401
 30
0.0
 10
6.939682
 20
1.488011
 30
0.0
 10
6.914440
 20
0.967620
 30
0.0
 10
7.153283
 20
0.944800
 30
0.0
 10
7.392125
 20
0.921979
 30
0.0
 10
7.630967
 20
0.899159
 30
0.0
 10
7.869810
 20
0.876338
 30
0.0
 10
8.364026
 20
0.845467
 30
0.0
 10
8.620967
 20
0.889196
 30
0.0
 10
8.682960
 20
1.032330
 30
0.0
 10
8.592347
 20
1.299672
 30
0.0
 10
8.489466
 20
1.704442
 30
0.0
 10
8.381466
 20
2.426121
 30
0.0
 10
8.281176
 20
3.362592
 30
0.0
 10
8.201421
 20
4.411742
 30
0.0
 10
8.069611
 20
6.012624
 30
0.0
 10
7.864210
 20
6.956393
 30
0.0
 10
7.505670
 20
7.445106
 30
0.0
 10
6.914445
 20
7.680822
 30
0.0
 10
6.795493
 20
7.737628
 30
0.0
 10
6.888869
 20
7.791935
 30
0.0
 10
7.171422
 20
7.837587
 30
0.0
 10
7.620001
 20
7.868428
 30
0.0
 10
8.275797
 20
7.905505
 30
0.0
 10
8.573590
 20
7.962523
 30
0.0
 10
8.553337
 20
8.062015
 30
0.0
 10
8.255001
 20
8.226516
 30
0.0
 10
7.816572
 20
8.502983
 30
0.0
 10
7.641631
 20
8.755552
 30
0.0
 10
7.738096
 20
8.940105
 30
0.0
 10
8.113889
 20
9.012528
 30
0.0
 10
8.906553
 20
9.111358
 30
0.0
 10
9.815961
 20
9.366279
 30
0.0
 10
10.679788
 20
9.721444
 30
0.0
 10
11.335707
 20
10.121003
 30
0.0
 10
11.499815
 20
10.253890
 30
0.0
 10
11.663923
 20
10.386776
 30
0.0
 10
11.828030
 20
10.519663
 30
0.0
 10
11.992138
 20
10.652549
 30
0.0
 10
11.809535
 20
10.617642
 30
0.0
 10
11.626931
 20
10.582735
 30
0.0
 10
11.444328
 20
10.547828
 30
0.0
 10
11.261725
 20
10.512921
 30
0.0
 10
10.572136
 20
10.535635
 30
0.0
 10
10.051210
 20
10.827148
 30
0.0
 10
9.792176
 20
11.296512
 30
0.0
 10
9.888267
 20
11.852775
 30
0.0
 10
10.024287
 20
12.064328
 30
0.0
 10
10.179083
 20
12.237572
 30
0.0
 10
10.333606
 20
12.354628
 30
0.0
 10
10.468808
 20
12.397620
 30
0.0
 10
10.711877
 20
12.491592
 30
0.0
 10
10.486365
 20
12.731340
 30
0.0
 10
9.885297
 20
13.053616
 30
0.0
 10
9.001695
 20
13.395168
 30
0.0
 10
8.249842
 20
13.687240
 30
0.0
 10
7.686726
 20
14.029966
 30
0.0
 10
7.217479
 20
14.497835
 30
0.0
 10
6.747237
 20
15.165334
 30
0.0
 10
6.192168
 20
15.986107
 30
0.0
 10
5.956343
 20
16.214532
 30
0.0
 10
6.051934
 20
15.861429
 30
0.0
 10
6.491112
 20
14.937620
 30
0.0
 10
6.889108
 20
14.050070
 30
0.0
 10
7.021773
 20
13.382236
 30
0.0
 10
6.889108
 20
12.805791
 30
0.0
 10
6.491112
 20
12.192408
 30
0.0
 10
6.116832
 20
11.581984
 30
0.0
 10
5.955543
 20
10.936289
 30
0.0
 10
6.002146
 20
10.193586
 30
0.0
 10
6.251541
 20
9.292136
 30
0.0
 10
6.403277
 20
8.792610
 30
0.0
 10
6.428671
 20
8.456695
 30
0.0
 10
6.316738
 20
8.210472
 30
0.0
 10
6.056488
 20
7.980022
 30
0.0
 10
5.794786
 20
7.832405
 30
0.0
 10
5.466578
 20
7.711520
 30
0.0
 10
5.113801
 20
7.629841
 30
0.0
 10
4.778393
 20
7.599842
 30
0.0
 10
4.460733
 20
7.571795
 30
0.0
 10
4.156279
 20
7.495427
 30
0.0
 10
3.899590
 20
7.382403
 30
0.0
 10
3.725221
 20
7.244386
 30
0.0
 10
3.602607
 20
6.906159
 30
0.0
 10
3.486831
 20
6.248007
 30
0.0
 10
3.390930
 20
5.364851
 30
0.0
 10
3.327939
 20
4.351608
 30
0.0
 10
3.269298
 20
3.325808
 30
0.0
 10
3.185243
 20
2.408457
 30
0.0
 10
3.086999
 20
1.699697
 30
0.0
 10
2.985793
 20
1.299672
 30
0.0
 10
2.890972
 20
1.031823
 30
0.0
 10
2.950371
 20
0.888695
 30
0.0
 10
3.206357
 20
0.845223
 30
0.0
 10
3.701296
 20
0.876338
 30
0.0
 10
3.940139
 20
0.899159
 30
0.0
 10
4.178981
 20
0.921979
 30
0.0
 10
4.417824
 20
0.944800
 30
0.0
 10
4.656666
 20
0.967620
 30
0.0
 10
4.635178
 20
1.485691
 30
0.0
 10
4.613690
 20
2.003763
 30
0.0
 10
4.592201
 20
2.521834
 30
0.0
 10
4.570711
 20
3.039905
 30
0.0
  0
LWPOLYLINE
  5
102
100
AcDbEntity
  8
0
 62
7
100
AcDbPolyline
 90
21
 70
0
 10
1.975556
 20
7.146315
 30
0.0
 10
1.945701
 20
7.420002
 30
0.0
 10
1.864410
 20
7.665939
 30
0.0
 10
1.744100
 20
7.857204
 30
0.0
 10
1.597186
 20
7.966870
 30
0.0
 10
1.188128
 20
8.012883
 30
0.0
 10
0.849346
 20
7.874051
 30
0.0
 10
0.664708
 20
7.614249
 30
0.0
 10
0.718084
 20
7.297351
 30
0.0
 10
0.835296
 20
7.151579
 30
0.0
 10
0.938649
 20
7.130094
 30
0.0
 10
1.038507
 20
7.237265
 30
0.0
 10
1.145236
 20
7.477465
 30
0.0
 10
1.258352
 20
7.742226
 30
0.0
 10
1.346913
 20
7.801566
 30
0.0
 10
1.435947
 20
7.641256
 30
0.0
 10
1.550481
 20
7.247065
 30
0.0
 10
1.722886
 20
6.702181
 30
0.0
 10
1.857229
 20
6.502332
 30
0.0
 10
1.944467
 20
6.649662
 30
0.0
 10
1.975556
 20
7.146315
 30
0.0
  0
LWPOLYLINE
  5
103
100
AcDbEntity
  8
0
 62
7
100
AcDbPolyline
 90
13
 70
0
 10
11.571112
 20
8.728732
 30
0.0
 10
11.529140
 20
9.089383
 30
0.0
 10
11.391498
 20
9.256708
 30
0.0
 10
11.140596
 20
9.237410
 30
0.0
 10
10.758844
 20
9.038187
 30
0.0
 10
10.547261
 20
8.779967
 30
0.0
 10
10.569932
 20
8.493083
 30
0.0
 10
10.788457
 20
8.260277
 30
0.0
 10
11.164434
 20
8.164288
 30
0.0
 10
11.322339
 20
8.208827
 30
0.0
 10
11.451650
 20
8.330094
 30
0.0
 10
11.539022
 20
8.509570
 30
0.0
 10
11.571112
 20
8.728732
 30
0.0
  0
LWPOLYLINE
  5
104
100
AcDbEntity
  8
0
 62
7
100
AcDbPolyline
 90
17
 70
0
 10
11.288890
 20
12.004482
 30
0.0
 10
11.255486
 20
12.047549
 30
0.0
 10
11.164536
 20
12.082817
 30
0.0
 10
11.029929
 20
12.106648
 30
0.0
 10
10.865556
 20
12.115399
 30
0.0
 10
10.701184
 20
12.093829
 30
0.0
 10
10.566577
 20
12.035098
 30
0.0
 10
10.475627
 20
11.948177
 30
0.0
 10
10.442223
 20
11.842035
 30
0.0
 10
10.475627
 20
11.748710
 30
0.0
 10
10.566577
 20
11.696690
 30
0.0
 10
10.701184
 20
11.689612
 30
0.0
 10
10.865556
 20
11.731117
 30
0.0
 10
11.029929
 20
11.802945
 30
0.0
 10
11.164536
 20
11.878428
 30
0.0
 10
11.255486
 20
11.948597
 30
0.0
 10
11.288890
 20
12.004482
 30
0.0
  0
LWPOLYLINE
  5
105
100
AcDbEntity
  8
0
 62
7
100
AcDbPolyline
 90
437
 70
0
 10
33.568648
 20
2.475884
 30
0.0
 10
33.185887
 20
2.932482
 30
0.0
 10
33.100083
 20
3.400779
 30
0.0
 10
33.303862
 20
3.825007
 30
0.0
 10
33.789854
 20
4.149401
 30
0.0
 10
34.052078
 20
4.276233
 30
0.0
 10
34.131535
 20
4.407589
 30
0.0
 10
34.022984
 20
4.602184
 30
0.0
 10
33.721184
 20
4.918732
 30
0.0
 10
33.505453
 20
5.129400
 30
0.0
 10
33.338550
 20
5.285745
 30
0.0
 10
33.237012
 20
5.372779
 30
0.0
 10
33.217369
 20
5.375516
 30
0.0
 10
33.219063
 20
5.289883
 30
0.0
 10
33.175863
 20
5.136312
 30
0.0
 10
33.095303
 20
4.936562
 30
0.0
 10
32.985007
 20
4.712391
 30
0.0
 10
32.807535
 20
4.462294
 30
0.0
 10
32.588144
 20
4.314687
 30
0.0
 10
32.308656
 20
4.262281
 30
0.0
 10
31.950889
 20
4.297786
 30
0.0
 10
31.612487
 20
4.332594
 30
0.0
 10
31.235800
 20
4.323244
 30
0.0
 10
30.866746
 20
4.273381
 30
0.0
 10
30.551258
 20
4.186653
 30
0.0
 10
29.817150
 20
4.121661
 30
0.0
 10
28.956200
 20
4.324399
 30
0.0
 10
28.194662
 20
4.712482
 30
0.0
 10
27.758772
 20
5.203524
 30
0.0
 10
27.647049
 20
5.421382
 30
0.0
 10
27.508139
 20
5.476778
 30
0.0
 10
27.295169
 20
5.361769
 30
0.0
 10
26.961263
 20
5.068416
 30
0.0
 10
25.757233
 20
4.342933
 30
0.0
 10
24.389382
 20
4.132043
 30
0.0
 10
23.078186
 20
4.428690
 30
0.0
 10
22.044120
 20
5.225816
 30
0.0
 10
21.904308
 20
5.403559
 30
0.0
 10
21.764495
 20
5.581302
 30
0.0
 10
21.624682
 20
5.759045
 30
0.0
 10
21.484870
 20
5.936788
 30
0.0
 10
21.404127
 20
5.785920
 30
0.0
 10
21.323385
 20
5.635051
 30
0.0
 10
21.242643
 20
5.484183
 30
0.0
 10
21.161900
 20
5.333314
 30
0.0
 10
20.637402
 20
4.750751
 30
0.0
 10
19.861224
 20
4.322042
 30
0.0
 10
19.006669
 20
4.114773
 30
0.0
 10
18.247040
 20
4.196532
 30
0.0
 10
17.929347
 20
4.285067
 30
0.0
 10
17.573499
 20
4.332549
 30
0.0
 10
17.222996
 20
4.335848
 30
0.0
 10
16.921338
 20
4.291838
 30
0.0
 10
16.224280
 20
4.306454
 30
0.0
 10
15.796832
 20
4.909836
 30
0.0
 10
15.582918
 20
6.274012
 30
0.0
 10
15.526463
 20
8.571010
 30
0.0
 10
15.546918
 20
9.922060
 30
0.0
 10
15.599418
 20
11.084844
 30
0.0
 10
15.676013
 20
11.935376
 30
0.0
 10
15.768753
 20
12.349669
 30
0.0
 10
15.925284
 20
12.491154
 30
0.0
 10
16.172631
 20
12.590575
 30
0.0
 10
16.481542
 20
12.640098
 30
0.0
 10
16.822765
 20
12.631891
 30
0.0
 10
17.251966
 20
12.549236
 30
0.0
 10
17.511031
 20
12.381512
 30
0.0
 10
17.650916
 20
12.067140
 30
0.0
 10
17.722576
 20
11.544544
 30
0.0
 10
17.793184
 20
10.983619
 30
0.0
 10
17.953089
 20
10.686931
 30
0.0
 10
18.306671
 20
10.570500
 30
0.0
 10
18.958309
 20
10.550353
 30
0.0
 10
19.569142
 20
10.514107
 30
0.0
 10
20.033565
 20
10.378818
 30
0.0
 10
20.435887
 20
10.104658
 30
0.0
 10
20.860418
 20
9.651800
 30
0.0
 10
21.286445
 20
9.162764
 30
0.0
 10
21.551783
 20
8.959538
 30
0.0
 10
21.743800
 20
9.013633
 30
0.0
 10
21.949866
 20
9.296559
 30
0.0
 10
22.152283
 20
9.544062
 30
0.0
 10
22.452594
 20
9.816324
 30
0.0
 10
22.810277
 20
10.080319
 30
0.0
 10
23.184812
 20
10.303024
 30
0.0
 10
23.681418
 20
10.524928
 30
0.0
 10
24.115987
 20
10.617692
 30
0.0
 10
24.579930
 20
10.587701
 30
0.0
 10
25.164661
 20
10.441343
 30
0.0
 10
25.621364
 20
10.260690
 30
0.0
 10
26.063381
 20
10.008944
 30
0.0
 10
26.440281
 20
9.719438
 30
0.0
 10
26.701631
 20
9.425502
 30
0.0
 10
26.814822
 20
9.252750
 30
0.0
 10
26.928013
 20
9.079999
 30
0.0
 10
27.041204
 20
8.907248
 30
0.0
 10
27.154395
 20
8.734497
 30
0.0
 10
27.347673
 20
8.941402
 30
0.0
 10
27.540953
 20
9.148308
 30
0.0
 10
27.734230
 20
9.355213
 30
0.0
 10
27.927510
 20
9.562119
 30
0.0
 10
28.624152
 20
10.162432
 30
0.0
 10
29.347394
 20
10.525598
 30
0.0
 10
30.045891
 20
10.634567
 30
0.0
 10
30.668301
 20
10.472290
 30
0.0
 10
30.930475
 20
10.374858
 30
0.0
 10
31.257559
 20
10.316553
 30
0.0
 10
31.607842
 20
10.301872
 30
0.0
 10
31.939608
 20
10.335307
 30
0.0
 10
32.304076
 20
10.372555
 30
0.0
 10
32.586495
 20
10.321478
 30
0.0
 10
32.806821
 20
10.174204
 30
0.0
 10
32.985007
 20
9.922859
 30
0.0
 10
33.084626
 20
9.687553
 30
0.0
 10
33.136109
 20
9.457486
 30
0.0
 10
33.136281
 20
9.259046
 30
0.0
 10
33.081953
 20
9.118622
 30
0.0
 10
33.075349
 20
9.086410
 30
0.0
 10
33.205499
 20
9.182605
 30
0.0
 10
33.449350
 20
9.388597
 30
0.0
 10
33.783874
 20
9.685778
 30
0.0
 10
34.409857
 20
10.173797
 30
0.0
 10
35.080344
 20
10.421132
 30
0.0
 10
36.054947
 20
10.475375
 30
0.0
 10
37.593287
 20
10.384121
 30
0.0
 10
37.925242
 20
10.358331
 30
0.0
 10
38.257201
 20
10.332542
 30
0.0
 10
38.589156
 20
10.306752
 30
0.0
 10
38.921111
 20
10.280963
 30
0.0
 10
38.941939
 20
10.563185
 30
0.0
 10
38.962767
 20
10.845407
 30
0.0
 10
38.983595
 20
11.127630
 30
0.0
 10
39.004423
 20
11.409852
 30
0.0
 10
39.073686
 20
12.029084
 30
0.0
 10
39.213911
 20
12.379324
 30
0.0
 10
39.497096
 20
12.548980
 30
0.0
 10
39.995246
 20
12.626455
 30
0.0
 10
40.471350
 20
12.645268
 30
0.0
 10
40.773488
 20
12.566013
 30
0.0
 10
40.959792
 20
12.354030
 30
0.0
 10
41.088389
 20
11.974658
 30
0.0
 10
41.149383
 20
11.589287
 30
0.0
 10
41.178254
 20
11.086678
 30
0.0
 10
41.173513
 20
10.531946
 30
0.0
 10
41.133674
 20
9.990206
 30
0.0
 10
41.098594
 20
9.678971
 30
0.0
 10
41.063514
 20
9.367735
 30
0.0
 10
41.028431
 20
9.056499
 30
0.0
 10
40.993351
 20
8.745264
 30
0.0
 10
41.180760
 20
8.945886
 30
0.0
 10
41.368170
 20
9.146508
 30
0.0
 10
41.555577
 20
9.347130
 30
0.0
 10
41.742987
 20
9.547752
 30
0.0
 10
43.009820
 20
10.408527
 30
0.0
 10
44.372646
 20
10.536197
 30
0.0
 10
45.644074
 20
9.962492
 30
0.0
 10
46.636717
 20
8.719139
 30
0.0
 10
46.760079
 20
8.474595
 30
0.0
 10
46.883441
 20
8.230050
 30
0.0
 10
47.006804
 20
7.985506
 30
0.0
 10
47.130166
 20
7.740962
 30
0.0
 10
47.130307
 20
8.358323
 30
0.0
 10
47.130448
 20
8.975684
 30
0.0
 10
47.130589
 20
9.593045
 30
0.0
 10
47.130730
 20
10.210406
 30
0.0
 10
47.147522
 20
11.497324
 30
0.0
 10
47.215326
 20
12.246077
 30
0.0
 10
47.360882
 20
12.594356
 30
0.0
 10
47.610940
 20
12.679851
 30
0.0
 10
47.827458
 20
12.663976
 30
0.0
 10
47.920207
 20
12.609295
 30
0.0
 10
47.893594
 20
12.505226
 30
0.0
 10
47.752042
 20
12.341184
 30
0.0
 10
47.473187
 20
11.010076
 30
0.0
 10
47.392912
 20
8.544405
 30
0.0
 10
47.504006
 20
6.094003
 30
0.0
 10
47.799264
 20
4.808705
 30
0.0
 10
48.000426
 20
4.676709
 30
0.0
 10
48.176939
 20
4.647435
 30
0.0
 10
48.348008
 20
4.723468
 30
0.0
 10
48.532847
 20
4.907392
 30
0.0
 10
48.729798
 20
5.114994
 30
0.0
 10
48.892048
 20
5.184635
 30
0.0
 10
49.065488
 20
5.116525
 30
0.0
 10
49.296007
 20
4.910872
 30
0.0
 10
50.143980
 20
4.493063
 30
0.0
 10
51.084745
 20
4.663404
 30
0.0
 10
51.935315
 20
5.335807
 30
0.0
 10
52.512705
 20
6.424185
 30
0.0
 10
52.598069
 20
7.983054
 30
0.0
 10
52.015994
 20
9.252083
 30
0.0
 10
50.966912
 20
9.985244
 30
0.0
 10
49.651260
 20
9.936508
 30
0.0
 10
49.444535
 20
9.858490
 30
0.0
 10
49.237813
 20
9.780472
 30
0.0
 10
49.031088
 20
9.702454
 30
0.0
 10
48.824363
 20
9.624436
 30
0.0
 10
48.824363
 20
9.921696
 30
0.0
 10
48.824363
 20
10.218957
 30
0.0
 10
48.824363
 20
10.516217
 30
0.0
 10
48.824363
 20
10.813477
 30
0.0
 10
48.797636
 20
11.301882
 30
0.0
 10
48.724876
 20
11.752720
 30
0.0
 10
48.617192
 20
12.115863
 30
0.0
 10
48.485693
 20
12.341184
 30
0.0
 10
48.344142
 20
12.505225
 30
0.0
 10
48.317528
 20
12.609295
 30
0.0
 10
48.410278
 20
12.663976
 30
0.0
 10
48.626796
 20
12.679851
 30
0.0
 10
48.857411
 20
12.627280
 30
0.0
 10
49.005038
 20
12.448602
 30
0.0
 10
49.083491
 20
12.112371
 30
0.0
 10
49.106576
 20
11.587138
 30
0.0
 10
49.106576
 20
11.313960
 30
0.0
 10
49.106576
 20
11.040782
 30
0.0
 10
49.106576
 20
10.767604
 30
0.0
 10
49.106576
 20
10.494426
 30
0.0
 10
49.395496
 20
10.502001
 30
0.0
 10
49.684418
 20
10.509576
 30
0.0
 10
49.973337
 20
10.517151
 30
0.0
 10
50.262257
 20
10.524725
 30
0.0
 10
50.884288
 20
10.504662
 30
0.0
 10
51.358453
 20
10.376871
 30
0.0
 10
51.781924
 20
10.097250
 30
0.0
 10
52.251872
 20
9.621696
 30
0.0
 10
52.460356
 20
9.388363
 30
0.0
 10
52.668839
 20
9.155030
 30
0.0
 10
52.877322
 20
8.921696
 30
0.0
 10
53.085805
 20
8.688363
 30
0.0
 10
53.221009
 20
8.860248
 30
0.0
 10
53.356216
 20
9.032133
 30
0.0
 10
53.491421
 20
9.204019
 30
0.0
 10
53.626625
 20
9.375904
 30
0.0
 10
54.755113
 20
10.284212
 30
0.0
 10
56.067793
 20
10.568134
 30
0.0
 10
57.339193
 20
10.232206
 30
0.0
 10
58.343842
 20
9.280966
 30
0.0
 10
58.474695
 20
9.074299
 30
0.0
 10
58.605547
 20
8.867631
 30
0.0
 10
58.736399
 20
8.660964
 30
0.0
 10
58.867252
 20
8.454296
 30
0.0
 10
58.988664
 20
8.659829
 30
0.0
 10
59.110076
 20
8.865361
 30
0.0
 10
59.231485
 20
9.070893
 30
0.0
 10
59.352897
 20
9.276426
 30
0.0
 10
59.939877
 20
9.923729
 30
0.0
 10
60.739441
 20
10.385846
 30
0.0
 10
61.579167
 20
10.592443
 30
0.0
 10
62.286645
 20
10.473187
 30
0.0
 10
62.556153
 20
10.380994
 30
0.0
 10
62.914649
 20
10.326431
 30
0.0
 10
63.315376
 20
10.313643
 30
0.0
 10
63.711576
 20
10.346781
 30
0.0
 10
64.114443
 20
10.386388
 30
0.0
 10
64.400898
 20
10.364841
 30
0.0
 10
64.571999
 20
10.281899
 30
0.0
 10
64.628799
 20
10.137322
 30
0.0
 10
64.648949
 20
9.995710
 30
0.0
 10
64.711944
 20
9.939203
 30
0.0
 10
64.821556
 20
9.967177
 30
0.0
 10
64.981568
 20
10.079006
 30
0.0
 10
65.744127
 20
10.330249
 30
0.0
 10
66.878417
 20
10.386768
 30
0.0
 10
67.941060
 20
10.262282
 30
0.0
 10
68.488673
 20
9.970508
 30
0.0
 10
68.591769
 20
9.771654
 30
0.0
 10
68.719802
 20
9.715902
 30
0.0
 10
68.910541
 20
9.807500
 30
0.0
 10
69.201758
 20
10.050693
 30
0.0
 10
69.505912
 20
10.254076
 30
0.0
 10
69.903777
 20
10.411910
 30
0.0
 10
70.361943
 20
10.514050
 30
0.0
 10
70.847009
 20
10.550352
 30
0.0
 10
71.459118
 20
10.571987
 30
0.0
 10
71.796142
 20
10.689076
 30
0.0
 10
71.952826
 20
10.979897
 30
0.0
 10
72.023910
 20
11.522729
 30
0.0
 10
72.185886
 20
12.406682
 30
0.0
 10
72.393212
 20
12.585885
 30
0.0
 10
72.553483
 20
12.129907
 30
0.0
 10
72.574311
 20
11.108320
 30
0.0
 10
72.506812
 20
10.306296
 30
0.0
 10
72.409620
 20
9.857450
 30
0.0
 10
72.253661
 20
9.691133
 30
0.0
 10
72.009866
 20
9.736696
 30
0.0
 10
70.612500
 20
10.059114
 30
0.0
 10
69.529167
 20
9.740285
 30
0.0
 10
68.828694
 20
8.827722
 30
0.0
 10
68.579907
 20
7.368938
 30
0.0
 10
68.875738
 20
5.882317
 30
0.0
 10
69.643396
 20
4.888478
 30
0.0
 10
70.703115
 20
4.521304
 30
0.0
 10
71.875139
 20
4.914681
 30
0.0
 10
72.195538
 20
5.121834
 30
0.0
 10
72.398639
 20
5.191489
 30
0.0
 10
72.529406
 20
5.123930
 30
0.0
 10
72.632807
 20
4.919439
 30
0.0
 10
72.728918
 20
4.768328
 30
0.0
 10
72.870924
 20
4.671979
 30
0.0
 10
73.042142
 20
4.637367
 30
0.0
 10
73.225891
 20
4.671467
 30
0.0
 10
73.445158
 20
4.898653
 30
0.0
 10
73.577523
 20
5.486376
 30
0.0
 10
73.642576
 20
6.603844
 30
0.0
 10
73.659904
 20
8.420264
 30
0.0
 10
73.639020
 20
10.017544
 30
0.0
 10
73.576002
 20
11.198997
 30
0.0
 10
73.470265
 20
11.971313
 30
0.0
 10
73.321232
 20
12.341181
 30
0.0
 10
73.180033
 20
12.505222
 30
0.0
 10
73.154661
 20
12.609292
 30
0.0
 10
73.249731
 20
12.663972
 30
0.0
 10
73.469901
 20
12.679847
 30
0.0
 10
73.730770
 20
12.561705
 30
0.0
 10
73.867312
 20
12.017904
 30
0.0
 10
73.907455
 20
10.764379
 30
0.0
 10
73.879123
 20
8.517070
 30
0.0
 10
73.859593
 20
7.476375
 30
0.0
 10
73.840063
 20
6.435681
 30
0.0
 10
73.820534
 20
5.394987
 30
0.0
 10
73.801004
 20
4.354292
 30
0.0
 10
73.543617
 20
4.346963
 30
0.0
 10
73.286231
 20
4.339633
 30
0.0
 10
73.028841
 20
4.332304
 30
0.0
 10
72.771454
 20
4.324975
 30
0.0
 10
72.334780
 20
4.299425
 30
0.0
 10
71.906892
 20
4.251529
 30
0.0
 10
71.536924
 20
4.188141
 30
0.0
 10
71.274011
 20
4.116113
 30
0.0
 10
70.575955
 20
4.091418
 30
0.0
 10
69.753703
 20
4.398958
 30
0.0
 10
68.980945
 20
4.945703
 30
0.0
 10
68.431370
 20
5.638624
 30
0.0
 10
68.250085
 20
6.081710
 30
0.0
 10
68.122777
 20
6.586313
 30
0.0
 10
68.057883
 20
7.107423
 30
0.0
 10
68.063838
 20
7.600032
 30
0.0
 10
68.105466
 20
8.180756
 30
0.0
 10
68.059433
 20
8.462108
 30
0.0
 10
67.884139
 20
8.505040
 30
0.0
 10
67.537988
 20
8.370499
 30
0.0
 10
67.213407
 20
8.160803
 30
0.0
 10
67.010799
 20
7.827384
 30
0.0
 10
66.894400
 20
7.270426
 30
0.0
 10
66.828444
 20
6.390113
 30
0.0
 10
66.674131
 20
5.181014
 30
0.0
 10
66.352764
 20
4.450140
 30
0.0
 10
65.863953
 20
4.197005
 30
0.0
 10
65.207289
 20
4.421126
 30
0.0
 10
64.947165
 20
4.559263
 30
0.0
 10
64.741733
 20
4.612038
 30
0.0
 10
64.584174
 20
4.579837
 30
0.0
 10
64.467675
 20
4.463046
 30
0.0
 10
64.337458
 20
4.356382
 30
0.0
 10
64.121343
 20
4.289961
 30
0.0
 10
63.849391
 20
4.269155
 30
0.0
 10
63.551655
 20
4.299336
 30
0.0
 10
63.216401
 20
4.333543
 30
0.0
 10
62.842287
 20
4.323702
 30
0.0
 10
62.474975
 20
4.273507
 30
0.0
 10
62.160125
 20
4.186656
 30
0.0
 10
61.404401
 20
4.103412
 30
0.0
 10
60.579934
 20
4.325246
 30
0.0
 10
59.828156
 20
4.790508
 30
0.0
 10
59.290498
 20
5.437545
 30
0.0
 10
59.190647
 20
5.624345
 30
0.0
 10
59.090797
 20
5.811145
 30
0.0
 10
58.990947
 20
5.997945
 30
0.0
 10
58.891097
 20
6.184745
 30
0.0
 10
58.765310
 20
5.977907
 30
0.0
 10
58.639527
 20
5.771070
 30
0.0
 10
58.513740
 20
5.564232
 30
0.0
 10
58.387954
 20
5.357394
 30
0.0
 10
57.356750
 20
4.409795
 30
0.0
 10
56.002298
 20
4.126640
 30
0.0
 10
54.593123
 20
4.499237
 30
0.0
 10
53.397754
 20
5.518898
 30
0.0
 10
53.133030
 20
5.845468
 30
0.0
 10
52.942439
 20
6.015440
 30
0.0
 10
52.826166
 20
6.028704
 30
0.0
 10
52.784392
 20
5.885154
 30
0.0
 10
52.727092
 20
5.661916
 30
0.0
 10
52.577678
 20
5.382822
 30
0.0
 10
52.358832
 20
5.083492
 30
0.0
 10
52.093233
 20
4.799549
 30
0.0
 10
51.594317
 20
4.423708
 30
0.0
 10
50.965185
 20
4.233014
 30
0.0
 10
49.977020
 20
4.195127
 30
0.0
 10
48.401007
 20
4.277707
 30
0.0
 10
48.118784
 20
4.296853
 30
0.0
 10
47.836562
 20
4.315999
 30
0.0
 10
47.554340
 20
4.335145
 30
0.0
 10
47.272118
 20
4.354291
 30
0.0
 10
47.250556
 20
4.691161
 30
0.0
 10
47.228994
 20
5.028030
 30
0.0
 10
47.207432
 20
5.364901
 30
0.0
 10
47.185842
 20
5.701771
 30
0.0
 10
47.132037
 20
6.212427
 30
0.0
 10
47.049329
 20
6.606728
 30
0.0
 10
46.948996
 20
6.845676
 30
0.0
 10
46.842307
 20
6.890272
 30
0.0
 10
46.755205
 20
6.764667
 30
0.0
 10
46.708198
 20
6.540193
 30
0.0
 10
46.704417
 20
6.248631
 30
0.0
 10
46.746984
 20
5.921759
 30
0.0
 10
46.643389
 20
5.102118
 30
0.0
 10
45.990702
 20
4.521766
 30
0.0
 10
44.835061
 20
4.203626
 30
0.0
 10
43.222596
 20
4.170620
 30
0.0
 10
42.896663
 20
4.259520
 30
0.0
 10
42.499243
 20
4.470112
 30
0.0
 10
42.080595
 20
4.770903
 30
0.0
 10
41.690970
 20
5.130402
 30
0.0
 10
41.367199
 20
5.449736
 30
0.0
 10
41.127852
 20
5.641168
 30
0.0
 10
40.995798
 20
5.689909
 30
0.0
 10
40.993822
 20
5.581167
 30
0.0
 10
41.029103
 20
5.036048
 30
0.0
 10
40.771894
 20
4.583361
 30
0.0
 10
40.301235
 20
4.302741
 30
0.0
 10
39.696173
 20
4.273820
 30
0.0
 10
39.355296
 20
4.315941
 30
0.0
 10
39.122454
 20
4.288224
 30
0.0
 10
38.989056
 20
4.187655
 30
0.0
 10
38.946500
 20
4.011224
 30
0.0
 10
38.881406
 20
3.788523
 30
0.0
 10
38.704170
 20
3.482221
 30
0.0
 10
38.441859
 20
3.132704
 30
0.0
 10
38.121542
 20
2.780360
 30
0.0
 10
37.638685
 20
2.351691
 30
0.0
 10
37.169553
 20
2.101420
 30
0.0
 10
36.584506
 20
1.984379
 30
0.0
 10
35.753921
 20
1.955402
 30
0.0
 10
35.020560
 20
1.985547
 30
0.0
 10
34.425227
 20
2.079161
 30
0.0
 10
33.947879
 20
2.241017
 30
0.0
 10
33.568648
 20
2.475884
 30
0.0
  0
LWPOLYLINE
  5
106
100
AcDbEntity
  8
0
 62
7
100
AcDbPolyline
 90
13
 70
0
 10
36.406667
 20
3.930954
 30
0.0
 10
36.543877
 20
4.057539
 30
0.0
 10
36.480866
 20
4.139509
 30
0.0
 10
36.204367
 20
4.181718
 30
0.0
 10
35.701111
 20
4.189019
 30
0.0
 10
35.176381
 20
4.170353
 30
0.0
 10
34.919991
 20
4.126877
 30
0.0
 10
34.913048
 20
4.049957
 30
0.0
 10
35.136664
 20
3.930955
 30
0.0
 10
35.578946
 20
3.751459
 30
0.0
 10
35.864969
 20
3.691627
 30
0.0
 10
36.104342
 20
3.751459
 30
0.0
 10
36.406667
 20
3.930954
 30
0.0
  0
LWPOLYLINE
  5
107
100
AcDbEntity
  8
0
 62
7
100
AcDbPolyline
 90
17
 70
0
 10
57.595042
 20
5.320356
 30
0.0
 10
57.996892
 20
5.776087
 30
0.0
 10
58.250145
 20
6.216831
 30
0.0
 10
58.382083
 20
6.708654
 30
0.0
 10
58.420000
 20
7.317621
 30
0.0
 10
57.997604
 20
8.861884
 30
0.0
 10
56.952481
 20
9.849608
 30
0.0
 10
55.617725
 20
10.106581
 30
0.0
 10
54.326426
 20
9.458593
 30
0.0
 10
53.614918
 20
8.433785
 30
0.0
 10
53.377747
 20
7.317621
 30
0.0
 10
53.614918
 20
6.201457
 30
0.0
 10
54.326426
 20
5.176648
 30
0.0
 10
55.094528
 20
4.647119
 30
0.0
 10
55.927648
 20
4.495981
 30
0.0
 10
56.777311
 20
4.721104
 30
0.0
 10
57.595042
 20
5.320356
 30
0.0
  0
LWPOLYLINE
  5
108
100
AcDbEntity
  8
0
 62
7
100
AcDbPolyline
 90
13
 70
0
 10
54.919510
 20
6.235415
 30
0.0
 10
54.744541
 20
6.519846
 30
0.0
 10
54.601260
 20
6.818696
 30
0.0
 10
54.504446
 20
7.096458
 30
0.0
 10
54.468889
 20
7.317621
 30
0.0
 10
54.811368
 20
8.339465
 30
0.0
 10
55.603823
 20
8.877998
 30
0.0
 10
56.493771
 20
8.830371
 30
0.0
 10
57.128732
 20
8.093732
 30
0.0
 10
57.203447
 20
6.814214
 30
0.0
 10
56.660328
 20
5.909904
 30
0.0
 10
55.799101
 20
5.632929
 30
0.0
 10
54.919510
 20
6.235415
 30
0.0
  0
LWPOLYLINE
  5
109
100
AcDbEntity
  8
0
 62
7
100
AcDbPolyline
 90
13
 70
0
 10
56.676504
 20
7.123020
 30
0.0
 10
56.654519
 20
7.831510
 30
0.0
 10
56.433610
 20
8.319657
 30
0.0
 10
56.057052
 20
8.536393
 30
0.0
 10
55.568133
 20
8.430649
 30
0.0
 10
55.233550
 20
8.046776
 30
0.0
 10
55.045669
 20
7.447663
 30
0.0
 10
55.035340
 20
6.823625
 30
0.0
 10
55.233387
 20
6.364975
 30
0.0
 10
55.648298
 20
6.172210
 30
0.0
 10
56.101051
 20
6.273130
 30
0.0
 10
56.480750
 20
6.609484
 30
0.0
 10
56.676504
 20
7.123020
 30
0.0
  0
LWPOLYLINE
  5
10a
100
AcDbEntity
  8
0
 62
7
100
AcDbPolyline
 90
33
 70
0
 10
62.655930
 20
4.921862
 30
0.0
 10
62.854572
 20
5.133462
 30
0.0
 10
63.008098
 20
5.198597
 30
0.0
 10
63.159866
 20
5.114585
 30
0.0
 10
63.353228
 20
4.878745
 30
0.0
 10
63.791922
 20
4.510958
 30
0.0
 10
64.101921
 20
4.790406
 30
0.0
 10
64.285932
 20
5.723743
 30
0.0
 10
64.346667
 20
7.317621
 30
0.0
 10
64.285932
 20
8.911498
 30
0.0
 10
64.101921
 20
9.844835
 30
0.0
 10
63.791922
 20
10.124283
 30
0.0
 10
63.353228
 20
9.756496
 30
0.0
 10
63.159863
 20
9.520656
 30
0.0
 10
63.008098
 20
9.436644
 30
0.0
 10
62.854572
 20
9.501779
 30
0.0
 10
62.655930
 20
9.713380
 30
0.0
 10
62.145839
 20
10.062629
 30
0.0
 10
61.502011
 20
10.105417
 30
0.0
 10
60.794065
 20
9.852563
 30
0.0
 10
60.091625
 20
9.314886
 30
0.0
 10
59.689774
 20
8.859155
 30
0.0
 10
59.436522
 20
8.418410
 30
0.0
 10
59.304583
 20
7.926587
 30
0.0
 10
59.266667
 20
7.317621
 30
0.0
 10
59.304583
 20
6.708654
 30
0.0
 10
59.436522
 20
6.216831
 30
0.0
 10
59.689774
 20
5.776087
 30
0.0
 10
60.091625
 20
5.320356
 30
0.0
 10
60.794067
 20
4.782679
 30
0.0
 10
61.502011
 20
4.529824
 30
0.0
 10
62.145839
 20
4.572612
 30
0.0
 10
62.655930
 20
4.921862
 30
0.0
  0
LWPOLYLINE
  5
10b
100
AcDbEntity
  8
0
 62
7
100
AcDbPolyline
 90
17
 70
0
 10
60.873874
 20
6.127975
 30
0.0
 10
60.521173
 20
6.720541
 30
0.0
 10
60.416045
 20
7.384154
 30
0.0
 10
60.556112
 20
8.029837
 30
0.0
 10
60.939003
 20
8.568617
 30
0.0
 10
61.478008
 20
8.902405
 30
0.0
 10
62.002585
 20
8.930882
 30
0.0
 10
62.492083
 20
8.659008
 30
0.0
 10
62.925856
 20
8.091735
 30
0.0
 10
63.144756
 20
7.654114
 30
0.0
 10
63.217752
 20
7.317295
 30
0.0
 10
63.144871
 20
6.980140
 30
0.0
 10
62.926124
 20
6.541510
 30
0.0
 10
62.473225
 20
5.977626
 30
0.0
 10
61.943234
 20
5.713291
 30
0.0
 10
61.391628
 20
5.759681
 30
0.0
 10
60.873874
 20
6.127975
 30
0.0
  0
LWPOLYLINE
  5
10c
100
AcDbEntity
  8
0
 62
7
100
AcDbPolyline
 90
17
 70
0
 10
62.597191
 20
7.200548
 30
0.0
 10
62.542936
 20
7.929267
 30
0.0
 10
62.271760
 20
8.431958
 30
0.0
 10
61.859837
 20
8.630434
 30
0.0
 10
61.383333
 20
8.446510
 30
0.0
 10
61.114878
 20
8.019413
 30
0.0
 10
60.974709
 20
7.404569
 30
0.0
 10
60.983035
 20
6.790312
 30
0.0
 10
61.160053
 20
6.364975
 30
0.0
 10
61.283184
 20
6.293804
 30
0.0
 10
61.470557
 20
6.247910
 30
0.0
 10
61.696707
 20
6.231149
 30
0.0
 10
61.936164
 20
6.247382
 30
0.0
 10
62.205653
 20
6.333268
 30
0.0
 10
62.399136
 20
6.511361
 30
0.0
 10
62.526390
 20
6.795754
 30
0.0
 10
62.597191
 20
7.200548
 30
0.0
  0
LWPOLYLINE
  5
10d
100
AcDbEntity
  8
0
 62
7
100
AcDbPolyline
 90
29
 70
0
 10
66.265594
 20
6.440534
 30
0.0
 10
66.334722
 20
7.433455
 30
0.0
 10
66.477941
 20
8.029440
 30
0.0
 10
66.779572
 20
8.414424
 30
0.0
 10
67.323928
 20
8.774344
 30
0.0
 10
67.702055
 20
9.018213
 30
0.0
 10
68.011709
 20
9.257461
 30
0.0
 10
68.220934
 20
9.464597
 30
0.0
 10
68.297778
 20
9.612133
 30
0.0
 10
68.160787
 20
9.891297
 30
0.0
 10
67.826340
 20
10.039340
 30
0.0
 10
67.409210
 20
10.034404
 30
0.0
 10
67.024185
 20
9.854636
 30
0.0
 10
66.801024
 20
9.700935
 30
0.0
 10
66.606256
 20
9.648646
 30
0.0
 10
66.412773
 20
9.697533
 30
0.0
 10
66.193472
 20
9.847358
 30
0.0
 10
66.010657
 20
9.965424
 30
0.0
 10
65.816692
 20
10.034761
 30
0.0
 10
65.634729
 20
10.050147
 30
0.0
 10
65.487917
 20
10.006369
 30
0.0
 10
65.290700
 20
9.133341
 30
0.0
 10
65.197459
 20
7.384931
 30
0.0
 10
65.224299
 20
5.615063
 30
0.0
 10
65.387350
 20
4.677663
 30
0.0
 10
65.718811
 20
4.520336
 30
0.0
 10
65.979692
 20
4.769773
 30
0.0
 10
66.163958
 20
5.413872
 30
0.0
 10
66.265594
 20
6.440534
 30
0.0
  0
LWPOLYLINE
  5
10e
100
AcDbEntity
  8
0
 62
7
100
AcDbPolyline
 90
17
 70
0
 10
25.400001
 20
6.188732
 30
0.0
 10
25.538325
 20
6.316521
 30
0.0
 10
25.476123
 20
6.401115
 30
0.0
 10
25.199472
 20
6.447912
 30
0.0
 10
24.694445
 20
6.462311
 30
0.0
 10
24.189419
 20
6.447912
 30
0.0
 10
23.912767
 20
6.401115
 30
0.0
 10
23.850566
 20
6.316521
 30
0.0
 10
23.988890
 20
6.188732
 30
0.0
 10
24.175531
 20
6.082506
 30
0.0
 10
24.370772
 20
5.995517
 30
0.0
 10
24.551460
 20
5.936740
 30
0.0
 10
24.694445
 20
5.915153
 30
0.0
 10
24.837431
 20
5.936740
 30
0.0
 10
25.018119
 20
5.995517
 30
0.0
 10
25.213359
 20
6.082506
 30
0.0
 10
25.400001
 20
6.188732
 30
0.0
  0
LWPOLYLINE
  5
10f
100
AcDbEntity
  8
0
 62
7
100
AcDbPolyline
 90
21
 70
0
 10
31.044444
 20
7.317621
 30
0.0
 10
31.008069
 20
7.691213
 30
0.0
 10
30.901205
 20
8.007626
 30
0.0
 10
30.727261
 20
8.259969
 30
0.0
 10
30.489635
 20
8.441354
 30
0.0
 10
30.190852
 20
8.562871
 30
0.0
 10
29.951810
 20
8.546872
 30
0.0
 10
29.726622
 20
8.374763
 30
0.0
 10
29.469399
 20
8.027950
 30
0.0
 10
29.226163
 20
7.620358
 30
0.0
 10
29.145083
 20
7.317620
 30
0.0
 10
29.226163
 20
7.014881
 30
0.0
 10
29.469399
 20
6.607291
 30
0.0
 10
29.726622
 20
6.260479
 30
0.0
 10
29.951810
 20
6.088370
 30
0.0
 10
30.190852
 20
6.072370
 30
0.0
 10
30.489635
 20
6.193887
 30
0.0
 10
30.727261
 20
6.375271
 30
0.0
 10
30.901205
 20
6.627615
 30
0.0
 10
31.008069
 20
6.944028
 30
0.0
 10
31.044444
 20
7.317621
 30
0.0
  0
LWPOLYLINE
  5
110
100
AcDbEntity
  8
0
 62
7
100
AcDbPolyline
 90
13
 70
0
 10
36.838275
 20
6.779248
 30
0.0
 10
36.914080
 20
7.323009
 30
0.0
 10
36.826128
 20
7.852668
 30
0.0
 10
36.600426
 20
8.288195
 30
0.0
 10
36.262979
 20
8.549557
 30
0.0
 10
35.849789
 20
8.536860
 30
0.0
 10
35.438018
 20
8.266261
 30
0.0
 10
35.121873
 20
7.829325
 30
0.0
 10
34.995556
 20
7.317619
 30
0.0
 10
35.232128
 20
6.541287
 30
0.0
 10
35.779972
 20
6.145489
 30
0.0
 10
36.396289
 20
6.201163
 30
0.0
 10
36.838275
 20
6.779248
 30
0.0
  0
LWPOLYLINE
  5
111
100
AcDbEntity
  8
0
 62
7
100
AcDbPolyline
 90
17
 70
0
 10
44.873333
 20
6.188732
 30
0.0
 10
45.011656
 20
6.316521
 30
0.0
 10
44.949454
 20
6.401115
 30
0.0
 10
44.672803
 20
6.447912
 30
0.0
 10
44.167778
 20
6.462311
 30
0.0
 10
43.662752
 20
6.447912
 30
0.0
 10
43.386101
 20
6.401115
 30
0.0
 10
43.323899
 20
6.316521
 30
0.0
 10
43.462222
 20
6.188732
 30
0.0
 10
43.648864
 20
6.082506
 30
0.0
 10
43.844103
 20
5.995516
 30
0.0
 10
44.024793
 20
5.936740
 30
0.0
 10
44.167778
 20
5.915153
 30
0.0
 10
44.310763
 20
5.936740
 30
0.0
 10
44.491453
 20
5.995516
 30
0.0
 10
44.686691
 20
6.082506
 30
0.0
 10
44.873333
 20
6.188732
 30
0.0
  0
LWPOLYLINE
  5
112
100
AcDbEntity
  8
0
 62
7
100
AcDbPolyline
 90
17
 70
0
 10
19.417190
 20
7.200548
 30
0.0
 10
19.362936
 20
7.929267
 30
0.0
 10
19.091761
 20
8.431958
 30
0.0
 10
18.679837
 20
8.630434
 30
0.0
 10
18.203334
 20
8.446510
 30
0.0
 10
17.934877
 20
8.019412
 30
0.0
 10
17.794710
 20
7.404569
 30
0.0
 10
17.803036
 20
6.790312
 30
0.0
 10
17.980054
 20
6.364975
 30
0.0
 10
18.103186
 20
6.293805
 30
0.0
 10
18.290559
 20
6.247910
 30
0.0
 10
18.516708
 20
6.231149
 30
0.0
 10
18.756165
 20
6.247383
 30
0.0
 10
19.025652
 20
6.333269
 30
0.0
 10
19.219135
 20
6.511361
 30
0.0
 10
19.346389
 20
6.795755
 30
0.0
 10
19.417190
 20
7.200548
 30
0.0
  0
LWPOLYLINE
  5
113
100
AcDbEntity
  8
0
 62
7
100
AcDbPolyline
 90
17
 70
0
 10
24.976668
 20
8.446510
 30
0.0
 10
24.878167
 20
8.556091
 30
0.0
 10
24.738913
 20
8.645829
 30
0.0
 10
24.577424
 20
8.706463
 30
0.0
 10
24.412223
 20
8.728733
 30
0.0
 10
24.247022
 20
8.706463
 30
0.0
 10
24.085534
 20
8.645829
 30
0.0
 10
23.946279
 20
8.556091
 30
0.0
 10
23.847779
 20
8.446510
 30
0.0
 10
23.834912
 20
8.334618
 30
0.0
 10
23.934991
 20
8.245137
 30
0.0
 10
24.132575
 20
8.185786
 30
0.0
 10
24.412224
 20
8.164287
 30
0.0
 10
24.691873
 20
8.185786
 30
0.0
 10
24.889457
 20
8.245137
 30
0.0
 10
24.989536
 20
8.334618
 30
0.0
 10
24.976668
 20
8.446510
 30
0.0
  0
LWPOLYLINE
  5
114
100
AcDbEntity
  8
0
 62
7
100
AcDbPolyline
 90
17
 70
0
 10
44.732222
 20
8.446510
 30
0.0
 10
44.622587
 20
8.556091
 30
0.0
 10
44.453014
 20
8.645829
 30
0.0
 10
44.246659
 20
8.706463
 30
0.0
 10
44.026667
 20
8.728733
 30
0.0
 10
43.806674
 20
8.706463
 30
0.0
 10
43.600316
 20
8.645829
 30
0.0
 10
43.430746
 20
8.556091
 30
0.0
 10
43.321111
 20
8.446510
 30
0.0
 10
43.315918
 20
8.332761
 30
0.0
 10
43.442582
 20
8.243486
 30
0.0
 10
43.684901
 20
8.185167
 30
0.0
 10
44.026669
 20
8.164286
 30
0.0
 10
44.368438
 20
8.185167
 30
0.0
 10
44.610757
 20
8.243486
 30
0.0
 10
44.737421
 20
8.332761
 30
0.0
 10
44.732222
 20
8.446510
 30
0.0
  0
LWPOLYLINE
  5
115
100
AcDbEntity
  8
0
 62
7
100
AcDbPolyline
 90
113
 70
0
 10
86.218889
 20
2.292640
 30
0.0
 10
85.984577
 20
2.439892
 30
0.0
 10
85.763856
 20
2.604214
 30
0.0
 10
85.581549
 20
2.765553
 30
0.0
 10
85.462471
 20
2.903851
 30
0.0
 10
85.399838
 20
3.277299
 30
0.0
 10
85.556558
 20
3.708616
 30
0.0
 10
85.855694
 20
4.064883
 30
0.0
 10
86.220314
 20
4.213176
 30
0.0
 10
86.369305
 20
4.270027
 30
0.0
 10
86.369587
 20
4.452973
 30
0.0
 10
86.215852
 20
4.780604
 30
0.0
 10
85.902385
 20
5.271510
 30
0.0
 10
85.553039
 20
5.843949
 30
0.0
 10
85.351928
 20
6.353709
 30
0.0
 10
85.277746
 20
6.881056
 30
0.0
 10
85.309182
 20
7.506259
 30
0.0
 10
85.370314
 20
8.169701
 30
0.0
 10
85.332336
 20
8.485286
 30
0.0
 10
85.148079
 20
8.529339
 30
0.0
 10
84.770381
 20
8.378180
 30
0.0
 10
84.417933
 20
8.165805
 30
0.0
 10
84.215766
 20
7.854745
 30
0.0
 10
84.123832
 20
7.331381
 30
0.0
 10
84.102101
 20
6.482097
 30
0.0
 10
84.075374
 20
5.837391
 30
0.0
 10
84.002615
 20
5.258555
 30
0.0
 10
83.894930
 20
4.808927
 30
0.0
 10
83.763431
 20
4.551843
 30
0.0
 10
83.313098
 20
4.268585
 30
0.0
 10
82.839252
 20
4.244322
 30
0.0
 10
82.405567
 20
4.465257
 30
0.0
 10
82.075711
 20
4.917592
 30
0.0
 10
81.886250
 20
5.306321
 30
0.0
 10
81.745867
 20
5.452490
 30
0.0
 10
81.593447
 20
5.369231
 30
0.0
 10
81.367884
 20
5.069672
 30
0.0
 10
80.755309
 20
4.536234
 30
0.0
 10
79.896595
 20
4.214862
 30
0.0
 10
78.939184
 20
4.137898
 30
0.0
 10
78.030533
 20
4.337681
 30
0.0
 10
77.660159
 20
4.510514
 30
0.0
 10
77.328172
 20
4.698456
 30
0.0
 10
77.070867
 20
4.878824
 30
0.0
 10
76.924532
 20
5.028936
 30
0.0
 10
76.800834
 20
5.109716
 30
0.0
 10
76.616171
 20
5.061779
 30
0.0
 10
76.378520
 20
4.889287
 30
0.0
 10
76.095854
 20
4.596403
 30
0.0
 10
75.742292
 20
4.221747
 30
0.0
 10
75.461766
 20
4.043536
 30
0.0
 10
75.184624
 20
4.038935
 30
0.0
 10
74.841207
 20
4.185110
 30
0.0
 10
74.463216
 20
4.458627
 30
0.0
 10
74.268000
 20
4.791700
 30
0.0
 10
74.247990
 20
5.210780
 30
0.0
 10
74.395624
 20
5.742317
 30
0.0
 10
74.687365
 20
6.051485
 30
0.0
 10
75.167340
 20
6.174839
 30
0.0
 10
75.702849
 20
6.105342
 30
0.0
 10
76.161183
 20
5.835955
 30
0.0
 10
76.324500
 20
5.696550
 30
0.0
 10
76.385242
 20
5.716560
 30
0.0
 10
76.345153
 20
5.914357
 30
0.0
 10
76.205972
 20
6.308318
 30
0.0
 10
76.066726
 20
7.603421
 30
0.0
 10
76.479465
 20
8.904664
 30
0.0
 10
77.316973
 20
9.971141
 30
0.0
 10
78.452051
 20
10.561948
 30
0.0
 10
79.280091
 20
10.561854
 30
0.0
 10
80.189095
 20
10.303201
 30
0.0
 10
80.969945
 20
9.871429
 30
0.0
 10
81.413517
 20
9.351980
 30
0.0
 10
81.516999
 20
9.145333
 30
0.0
 10
81.622635
 20
9.108187
 30
0.0
 10
81.754548
 20
9.251304
 30
0.0
 10
81.936861
 20
9.585445
 30
0.0
 10
82.173101
 20
9.951518
 30
0.0
 10
82.505463
 20
10.171211
 30
0.0
 10
83.046652
 20
10.287930
 30
0.0
 10
83.909380
 20
10.345080
 30
0.0
 10
84.668868
 20
10.353244
 30
0.0
 10
85.199076
 20
10.304467
 30
0.0
 10
85.528912
 20
10.193373
 30
0.0
 10
85.687284
 20
10.014591
 30
0.0
 10
85.805117
 20
9.843198
 30
0.0
 10
86.005619
 20
9.813502
 30
0.0
 10
86.335131
 20
9.933388
 30
0.0
 10
86.839989
 20
10.210743
 30
0.0
 10
87.386764
 20
10.503035
 30
0.0
 10
87.814359
 20
10.636038
 30
0.0
 10
88.218309
 20
10.623603
 30
0.0
 10
88.694147
 20
10.479582
 30
0.0
 10
89.045579
 20
10.367112
 30
0.0
 10
89.371963
 20
10.298861
 30
0.0
 10
89.636888
 20
10.280184
 30
0.0
 10
89.803938
 20
10.316432
 30
0.0
 10
89.958096
 20
10.364426
 30
0.0
 10
90.187921
 20
10.377733
 30
0.0
 10
90.462360
 20
10.356817
 30
0.0
 10
90.750359
 20
10.302151
 30
0.0
 10
91.143636
 20
10.149087
 30
0.0
 10
91.348930
 20
9.758215
 30
0.0
 10
91.427317
 20
8.849805
 30
0.0
 10
91.439876
 20
7.144126
 30
0.0
 10
91.365917
 20
5.088845
 30
0.0
 10
91.108310
 20
3.698235
 30
0.0
 10
90.613447
 20
2.809957
 30
0.0
 10
89.827732
 20
2.261672
 30
0.0
 10
88.998620
 20
2.041723
 30
0.0
 10
87.968204
 20
1.974879
 30
0.0
 10
86.965310
 20
2.059173
 30
0.0
 10
86.218889
 20
2.292640
 30
0.0
  0
LWPOLYLINE
  5
116
100
AcDbEntity
  8
0
 62
7
100
AcDbPolyline
 90
45
 70
0
 10
90.240556
 20
3.231607
 30
0.0
 10
90.580599
 20
3.710402
 30
0.0
 10
90.772121
 20
4.320804
 30
0.0
 10
90.856613
 20
5.302048
 30
0.0
 10
90.875550
 20
6.893369
 30
0.0
 10
90.819108
 20
8.735188
 30
0.0
 10
90.642251
 20
9.804613
 30
0.0
 10
90.333683
 20
10.134199
 30
0.0
 10
89.882111
 20
9.756496
 30
0.0
 10
89.688746
 20
9.520657
 30
0.0
 10
89.536981
 20
9.436644
 30
0.0
 10
89.383455
 20
9.501779
 30
0.0
 10
89.184813
 20
9.713380
 30
0.0
 10
88.628578
 20
10.086568
 30
0.0
 10
87.932774
 20
10.126138
 30
0.0
 10
87.198330
 20
9.848864
 30
0.0
 10
86.526192
 20
9.271523
 30
0.0
 10
85.951571
 20
8.260146
 30
0.0
 10
85.758449
 20
7.141242
 30
0.0
 10
85.947115
 20
6.059235
 30
0.0
 10
86.517867
 20
5.158551
 30
0.0
 10
87.071894
 20
4.739190
 30
0.0
 10
87.682059
 20
4.560579
 30
0.0
 10
88.393857
 20
4.618570
 30
0.0
 10
89.252786
 20
4.909012
 30
0.0
 10
89.621724
 20
4.941115
 30
0.0
 10
89.750180
 20
4.691935
 30
0.0
 10
89.635875
 20
4.269873
 30
0.0
 10
89.276521
 20
3.783334
 30
0.0
 10
88.978517
 20
3.559455
 30
0.0
 10
88.599253
 20
3.444861
 30
0.0
 10
88.064735
 20
3.428986
 30
0.0
 10
87.300966
 20
3.501263
 30
0.0
 10
86.391044
 20
3.564436
 30
0.0
 10
85.891937
 20
3.477747
 30
0.0
 10
85.809190
 20
3.244248
 30
0.0
 10
86.148347
 20
2.866991
 30
0.0
 10
87.104937
 20
2.420924
 30
0.0
 10
88.254007
 20
2.346207
 30
0.0
 10
89.373304
 20
2.623036
 30
0.0
 10
90.240570
 20
3.231608
 30
0.0
 10
90.240564
 20
3.231608
 30
0.0
 10
90.240558
 20
3.231608
 30
0.0
 10
90.240556
 20
3.231608
 30
0.0
 10
90.240556
 20
3.231607
 30
0.0
  0
LWPOLYLINE
  5
117
100
AcDbEntity
  8
0
 62
7
100
AcDbPolyline
 90
17
 70
0
 10
87.382957
 20
6.052760
 30
0.0
 10
86.942961
 20
6.954615
 30
0.0
 10
87.047169
 20
7.949473
 30
0.0
 10
87.581494
 20
8.721640
 30
0.0
 10
88.431858
 20
8.955417
 30
0.0
 10
88.695242
 20
8.860951
 30
0.0
 10
88.975946
 20
8.666998
 30
0.0
 10
89.240394
 20
8.401833
 30
0.0
 10
89.455013
 20
8.093732
 30
0.0
 10
89.673752
 20
7.655055
 30
0.0
 10
89.746667
 20
7.317621
 30
0.0
 10
89.673752
 20
6.980186
 30
0.0
 10
89.455013
 20
6.541510
 30
0.0
 10
89.006375
 20
5.988500
 30
0.0
 10
88.468798
 20
5.712637
 30
0.0
 10
87.906315
 20
5.729022
 30
0.0
 10
87.382957
 20
6.052760
 30
0.0
  0
LWPOLYLINE
  5
118
100
AcDbEntity
  8
0
 62
7
100
AcDbPolyline
 90
13
 70
0
 10
89.182222
 20
7.292994
 30
0.0
 10
89.067900
 20
7.981664
 30
0.0
 10
88.771527
 20
8.445797
 30
0.0
 10
88.363004
 20
8.621907
 30
0.0
 10
87.912222
 20
8.446510
 30
0.0
 10
87.620529
 20
7.994093
 30
0.0
 10
87.502114
 20
7.369687
 30
0.0
 10
87.564285
 20
6.736661
 30
0.0
 10
87.814348
 20
6.258385
 30
0.0
 10
88.251276
 20
6.066174
 30
0.0
 10
88.696681
 20
6.228833
 30
0.0
 10
89.042892
 20
6.664921
 30
0.0
 10
89.182222
 20
7.292994
 30
0.0
  0
LWPOLYLINE
  5
119
100
AcDbEntity
  8
0
 62
7
100
AcDbPolyline
 90
13
 70
0
 10
88.758889
 20
3.930954
 30
0.0
 10
88.753894
 20
4.045525
 30
0.0
 10
88.591514
 20
4.130540
 30
0.0
 10
88.287685
 20
4.181358
 30
0.0
 10
87.858335
 20
4.193342
 30
0.0
 10
87.353024
 20
4.172897
 30
0.0
 10
87.112119
 20
4.128841
 30
0.0
 10
87.116691
 20
4.051437
 30
0.0
 10
87.347792
 20
3.930954
 30
0.0
 10
87.866550
 20
3.743461
 30
0.0
 10
88.266976
 20
3.680963
 30
0.0
 10
88.560588
 20
3.743461
 30
0.0
 10
88.758889
 20
3.930954
 30
0.0
  0
LWPOLYLINE
  5
11a
100
AcDbEntity
  8
0
 62
7
100
AcDbPolyline
 90
13
 70
0
 10
75.822999
 20
4.937702
 30
0.0
 10
75.864618
 20
5.133722
 30
0.0
 10
75.852483
 20
5.340476
 30
0.0
 10
75.791097
 20
5.533353
 30
0.0
 10
75.685001
 20
5.687741
 30
0.0
 10
75.328105
 20
5.815132
 30
0.0
 10
74.956371
 20
5.656032
 30
0.0
 10
74.701392
 20
5.315376
 30
0.0
 10
74.694759
 20
4.898098
 30
0.0
 10
74.928321
 20
4.599592
 30
0.0
 10
75.256771
 20
4.508887
 30
0.0
 10
75.586277
 20
4.622688
 30
0.0
 10
75.822999
 20
4.937702
 30
0.0
  0
LWPOLYLINE
  5
11b
100
AcDbEntity
  8
0
 62
7
100
AcDbPolyline
 90
17
 70
0
 10
80.737264
 20
5.320356
 30
0.0
 10
81.139115
 20
5.776087
 30
0.0
 10
81.392367
 20
6.216831
 30
0.0
 10
81.524306
 20
6.708654
 30
0.0
 10
81.562222
 20
7.317621
 30
0.0
 10
81.188213
 20
8.758732
 30
0.0
 10
80.244078
 20
9.752170
 30
0.0
 10
78.996661
 20
10.130866
 30
0.0
 10
77.712801
 20
9.727750
 30
0.0
 10
76.883429
 20
8.724099
 30
0.0
 10
76.566559
 20
7.420959
 30
0.0
 10
76.774249
 20
6.107295
 30
0.0
 10
77.518554
 20
5.072072
 30
0.0
 10
78.328238
 20
4.621058
 30
0.0
 10
79.153300
 20
4.513545
 30
0.0
 10
79.965669
 20
4.747366
 30
0.0
 10
80.737264
 20
5.320356
 30
0.0
  0
LWPOLYLINE
  5
11c
100
AcDbEntity
  8
0
 62
7
100
AcDbPolyline
 90
13
 70
0
 10
78.061733
 20
6.235415
 30
0.0
 10
77.886766
 20
6.519846
 30
0.0
 10
77.743482
 20
6.818696
 30
0.0
 10
77.646668
 20
7.096458
 30
0.0
 10
77.611111
 20
7.317621
 30
0.0
 10
77.953591
 20
8.339465
 30
0.0
 10
78.746045
 20
8.877998
 30
0.0
 10
79.635993
 20
8.830371
 30
0.0
 10
80.270954
 20
8.093732
 30
0.0
 10
80.345669
 20
6.814214
 30
0.0
 10
79.802550
 20
5.909904
 30
0.0
 10
78.941323
 20
5.632929
 30
0.0
 10
78.061733
 20
6.235415
 30
0.0
  0
LWPOLYLINE
  5
11d
100
AcDbEntity
  8
0
 62
7
100
AcDbPolyline
 90
13
 70
0
 10
79.857947
 20
6.732731
 30
0.0
 10
80.030503
 20
7.490737
 30
0.0
 10
79.814462
 20
8.136074
 30
0.0
 10
79.326839
 20
8.500778
 30
0.0
 10
78.684651
 20
8.416888
 30
0.0
 10
78.368559
 20
8.041021
 30
0.0
 10
78.189105
 20
7.444793
 30
0.0
 10
78.177195
 20
6.824611
 30
0.0
 10
78.363713
 20
6.376880
 30
0.0
 10
78.715260
 20
6.199613
 30
0.0
 10
79.144642
 20
6.214873
 30
0.0
 10
79.557118
 20
6.400099
 30
0.0
 10
79.857947
 20
6.732731
 30
0.0
  0
LWPOLYLINE
  5
11e
100
AcDbEntity
  8
0
 62
7
100
AcDbPolyline
 90
29
 70
0
 10
83.537778
 20
6.497128
 30
0.0
 10
83.557957
 20
7.460329
 30
0.0
 10
83.674554
 20
8.032328
 30
0.0
 10
83.971621
 20
8.405108
 30
0.0
 10
84.533215
 20
8.770650
 30
0.0
 10
85.006155
 20
9.075577
 30
0.0
 10
85.260804
 20
9.316763
 30
0.0
 10
85.320640
 20
9.527975
 30
0.0
 10
85.209134
 20
9.742979
 30
0.0
 10
85.029181
 20
9.910449
 30
0.0
 10
84.836271
 20
9.978679
 30
0.0
 10
84.608636
 20
9.949700
 30
0.0
 10
84.324503
 20
9.825545
 30
0.0
 10
84.057487
 20
9.709524
 30
0.0
 10
83.828097
 20
9.668192
 30
0.0
 10
83.634055
 20
9.701506
 30
0.0
 10
83.473081
 20
9.809422
 30
0.0
 10
83.331219
 20
9.908815
 30
0.0
 10
83.156620
 20
9.967788
 30
0.0
 10
82.971434
 20
9.981843
 30
0.0
 10
82.797822
 20
9.946483
 30
0.0
 10
82.495503
 20
9.067437
 30
0.0
 10
82.384686
 20
7.316980
 30
0.0
 10
82.471398
 20
5.569182
 30
0.0
 10
82.761658
 20
4.698113
 30
0.0
 10
83.151972
 20
4.642648
 30
0.0
 10
83.388866
 20
4.871697
 30
0.0
 10
83.506183
 20
5.463708
 30
0.0
 10
83.537778
 20
6.497128
 30
0.0
  0
LWPOLYLINE
  5
11f
100
AcDbEntity
  8
0
 62
7
100
AcDbPolyline
 90
21
 70
0
 10
49.116595
 20
6.170178
 30
0.0
 10
48.898943
 20
6.813617
 30
0.0
 10
48.835942
 20
7.541680
 30
0.0
 10
48.924896
 20
8.209519
 30
0.0
 10
49.163111
 20
8.672287
 30
0.0
 10
49.341374
 20
8.803785
 30
0.0
 10
49.576389
 20
8.911471
 30
0.0
 10
49.837600
 20
8.984231
 30
0.0
 10
50.094444
 20
9.010955
 30
0.0
 10
50.657393
 20
8.908376
 30
0.0
 10
51.053452
 20
8.596299
 30
0.0
 10
51.287511
 20
8.068217
 30
0.0
 10
51.364444
 20
7.317621
 30
0.0
 10
51.337718
 20
6.896405
 30
0.0
 10
51.264958
 20
6.500588
 30
0.0
 10
51.157274
 20
6.174621
 30
0.0
 10
51.025775
 20
5.962955
 30
0.0
 10
50.554656
 20
5.690793
 30
0.0
 10
49.999217
 20
5.643314
 30
0.0
 10
49.479762
 20
5.807462
 30
0.0
 10
49.116595
 20
6.170178
 30
0.0
  0
LWPOLYLINE
  5
120
100
AcDbEntity
  8
0
 62
7
100
AcDbPolyline
 90
13
 70
0
 10
50.949386
 20
6.779248
 30
0.0
 10
51.025191
 20
7.323009
 30
0.0
 10
50.937239
 20
7.852668
 30
0.0
 10
50.711537
 20
8.288195
 30
0.0
 10
50.374090
 20
8.549557
 30
0.0
 10
49.960900
 20
8.536860
 30
0.0
 10
49.549129
 20
8.266261
 30
0.0
 10
49.232984
 20
7.829325
 30
0.0
 10
49.106667
 20
7.317619
 30
0.0
 10
49.343239
 20
6.541287
 30
0.0
 10
49.891084
 20
6.145489
 30
0.0
 10
50.507400
 20
6.201163
 30
0.0
 10
50.949386
 20
6.779248
 30
0.0
  0
LWPOLYLINE
  5
121
100
AcDbEntity
  8
0
 62
7
100
AcDbPolyline
 90
21
 70
0
 10
70.010093
 20
6.153264
 30
0.0
 10
69.785642
 20
6.765229
 30
0.0
 10
69.723271
 20
7.413825
 30
0.0
 10
69.821160
 20
8.033945
 30
0.0
 10
70.077480
 20
8.560482
 30
0.0
 10
70.561954
 20
8.921247
 30
0.0
 10
71.157725
 20
8.947745
 30
0.0
 10
71.753871
 20
8.663924
 30
0.0
 10
72.239457
 20
8.093732
 30
0.0
 10
72.458112
 20
7.655145
 30
0.0
 10
72.531066
 20
7.317620
 30
0.0
 10
72.458357
 20
6.980096
 30
0.0
 10
72.240021
 20
6.541510
 30
0.0
 10
71.721345
 20
5.950679
 30
0.0
 10
71.082642
 20
5.672634
 30
0.0
 10
70.465157
 20
5.731965
 30
0.0
 10
70.010127
 20
6.153264
 30
0.0
 10
70.010119
 20
6.153264
 30
0.0
 10
70.010110
 20
6.153264
 30
0.0
 10
70.010102
 20
6.153264
 30
0.0
 10
70.010093
 20
6.153264
 30
0.0
  0
LWPOLYLINE
  5
122
100
AcDbEntity
  8
0
 62
7
100
AcDbPolyline
 90
17
 70
0
 10
71.795361
 20
6.635147
 30
0.0
 10
71.946835
 20
7.218739
 30
0.0
 10
71.935546
 20
7.729061
 30
0.0
 10
71.766684
 20
8.139481
 30
0.0
 10
71.445470
 20
8.423371
 30
0.0
 10
71.193381
 20
8.528557
 30
0.0
 10
70.971630
 20
8.556054
 30
0.0
 10
70.775133
 20
8.505580
 30
0.0
 10
70.598803
 20
8.376857
 30
0.0
 10
70.385867
 20
7.959086
 30
0.0
 10
70.283313
 20
7.359921
 30
0.0
 10
70.304169
 20
6.769230
 30
0.0
 10
70.461485
 20
6.376881
 30
0.0
 10
70.792806
 20
6.206801
 30
0.0
 10
71.194518
 20
6.206491
 30
0.0
 10
71.563182
 20
6.355949
 30
0.0
 10
71.795361
 20
6.635147
 30
0.0
  0
ENDSEC
  0
SECTION
  2
OBJECTS
  0
DICTIONARY
  5
C
330
0
100
AcDbDictionary
  3
ACAD_GROUP
350
D
  3
ACAD_MLINESTYLE
350
17
  0
DICTIONARY
  5
D
330
C
100
AcDbDictionary
  0
DICTIONARY
  5
1A
330
C
100
AcDbDictionary
  0
DICTIONARY
  5
17
330
C
100
AcDbDictionary
  3
STANDARD
350
18
  0
DICTIONARY
  5
19
330
C
100
AcDbDictionary
  0
ENDSEC
  0
EOF
