999
DXF created by Inkscape
  0
SECTION
  2
HEADER
  9
$ACADVER
  1
AC1014
  9
$HANDSEED
  5
FFFF
  9
$MEASUREMENT
 70
     1
  0
ENDSEC
  0
SECTION
  2
TABLES
  0
TABLE
  2
VPORT
  5
8
330
0
100
AcDbSymbolTable
 70
     4
  0
VPORT
  5
2E
330
8
100
AcDbSymbolTableRecord
100
AcDbViewportTableRecord
  2
*ACTIVE
 70
     0
 10
0.0
 20
0.0
 11
1.0
 21
1.0
 12
210.0
 22
148.5
 13
0.0
 23
0.0
 14
10.0
 24
10.0
 15
10.0
 25
10.0
 16
0.0
 26
0.0
 36
1.0
 17
0.0
 27
0.0
 37
0.0
 40
341.0
 41
1.24
 42
50.0
 43
0.0
 44
0.0
 50
0.0
 51
0.0
 71
     0
 72
   100
 73
     1
 74
     3
 75
     0
 76
     0
 77
     0
 78
     0
  0
ENDTAB
  0
TABLE
  2
LTYPE
  5
5
330
0
100
AcDbSymbolTable
 70
     1
  0
LTYPE
  5
14
330
5
100
AcDbSymbolTableRecord
100
AcDbLinetypeTableRecord
  2
BYBLOCK
 70
     0
  3

 72
    65
 73
     0
 40
0.0
  0
LTYPE
  5
15
330
5
100
AcDbSymbolTableRecord
100
AcDbLinetypeTableRecord
  2
BYLAYER
 70
     0
  3

 72
    65
 73
     0
 40
0.0
  0
LTYPE
  5
16
330
5
100
AcDbSymbolTableRecord
100
AcDbLinetypeTableRecord
  2
CONTINUOUS
 70
     0
  3
Solid line
 72
    65
 73
     0
 40
0.0
  0
ENDTAB
  0
TABLE
  2
LAYER
  5
2
100
AcDbSymbolTable
 70
1
  0
LAYER
  5
50
100
AcDbSymbolTableRecord
100
AcDbLayerTableRecord
  2
0
 70
0
  6
CONTINUOUS
  0
ENDTAB
  0
TABLE
  2
STYLE
  5
3
330
0
100
AcDbSymbolTable
 70
     1
  0
STYLE
  5
11
330
3
100
AcDbSymbolTableRecord
100
AcDbTextStyleTableRecord
  2
STANDARD
 70
     0
 40
0.0
 41
1.0
 50
0.0
 71
     0
 42
2.5
  3
txt
  4

  0
ENDTAB
  0
TABLE
  2
VIEW
  5
6
330
0
100
AcDbSymbolTable
 70
     0
  0
ENDTAB
  0
TABLE
  2
UCS
  5
7
330
0
100
AcDbSymbolTable
 70
     0
  0
ENDTAB
  0
TABLE
  2
APPID
  5
9
330
0
100
AcDbSymbolTable
 70
     2
  0
APPID
  5
12
330
9
100
AcDbSymbolTableRecord
100
AcDbRegAppTableRecord
  2
ACAD
 70
     0
  0
ENDTAB
  0
TABLE
  2
DIMSTYLE
  5
A
330
0
100
AcDbSymbolTable
 70
     1
  0
DIMSTYLE
105
27
330
A
100
AcDbSymbolTableRecord
100
AcDbDimStyleTableRecord
  2
ISO-25
 70
     0
  3

  4

  5

  6

  7

 40
1.0
 41
2.5
 42
0.625
 43
3.75
 44
1.25
 45
0.0
 46
0.0
 47
0.0
 48
0.0
140
2.5
141
2.5
142
0.0
143
0.03937007874016
144
1.0
145
0.0
146
1.0
147
0.625
 71
     0
 72
     0
 73
     0
 74
     0
 75
     0
 76
     0
 77
     1
 78
     8
170
     0
171
     3
172
     1
173
     0
174
     0
175
     0
176
     0
177
     0
178
     0
270
     2
271
     2
272
     2
273
     2
274
     3
340
11
275
     0
280
     0
281
     0
282
     0
283
     0
284
     8
285
     0
286
     0
287
     3
288
     0
  0
ENDTAB
  0
TABLE
  2
BLOCK_RECORD
  5
1
330
0
100
AcDbSymbolTable
 70
     1
  0
BLOCK_RECORD
  5
1F
330
1
100
AcDbSymbolTableRecord
100
AcDbBlockTableRecord
  2
*MODEL_SPACE
  0
BLOCK_RECORD
  5
1B
330
1
100
AcDbSymbolTableRecord
100
AcDbBlockTableRecord
  2
*PAPER_SPACE
  0
ENDTAB
  0
ENDSEC
  0
SECTION
  2
BLOCKS
  0
BLOCK
  5
20
330
1F
100
AcDbEntity
  8
0
100
AcDbBlockBegin
  2
*MODEL_SPACE
 70
     0
 10
0.0
 20
0.0
 30
0.0
  3
*MODEL_SPACE
  1

  0
ENDBLK
  5
21
330
1F
100
AcDbEntity
  8
0
100
AcDbBlockEnd
  0
BLOCK
  5
1C
330
1B
100
AcDbEntity
 67
     1
  8
0
100
AcDbBlockBegin
  2
*PAPER_SPACE
  1

  0
ENDBLK
  5
1D
330
1B
100
AcDbEntity
 67
     1
  8
0
100
AcDbBlockEnd
  0
ENDSEC
  0
SECTION
  2
ENTITIES
  0
LWPOLYLINE
  5
100
100
AcDbEntity
  8
0
 62
7
100
AcDbPolyline
 90
93
 70
0
 10
1.911353
 20
0.854718
 30
0.0
 10
1.672018
 20
1.068397
 30
0.0
 10
1.432682
 20
1.282075
 30
0.0
 10
1.193347
 20
1.495753
 30
0.0
 10
0.954011
 20
1.709431
 30
0.0
 10
1.085851
 20
1.954242
 30
0.0
 10
1.217690
 20
2.199054
 30
0.0
 10
1.349530
 20
2.443866
 30
0.0
 10
1.481369
 20
2.688677
 30
0.0
 10
1.757138
 20
3.236467
 30
0.0
 10
1.857431
 20
3.594966
 30
0.0
 10
1.787345
 20
3.871307
 30
0.0
 10
1.551977
 20
4.172624
 30
0.0
 10
1.077077
 20
4.863195
 30
0.0
 10
0.651392
 20
5.765433
 30
0.0
 10
0.344764
 20
6.703797
 30
0.0
 10
0.227034
 20
7.502745
 30
0.0
 10
0.250588
 20
7.870814
 30
0.0
 10
0.337187
 20
8.076529
 30
0.0
 10
0.510736
 20
8.145096
 30
0.0
 10
0.795139
 20
8.101716
 30
0.0
 10
1.082785
 20
8.044859
 30
0.0
 10
1.161652
 20
8.109624
 30
0.0
 10
1.021985
 20
8.344009
 30
0.0
 10
0.654028
 20
8.796011
 30
0.0
 10
0.145568
 20
9.529231
 30
0.0
 10
0.000000
 20
10.277539
 30
0.0
 10
0.230029
 20
11.308541
 30
0.0
 10
0.848359
 20
12.889843
 30
0.0
 10
1.360455
 20
14.028910
 30
0.0
 10
1.817803
 20
14.798849
 30
0.0
 10
2.333409
 20
15.353508
 30
0.0
 10
3.020279
 20
15.846736
 30
0.0
 10
4.716888
 20
16.536647
 30
0.0
 10
6.371403
 20
16.543153
 30
0.0
 10
7.777630
 20
15.908565
 30
0.0
 10
8.729375
 20
14.675197
 30
0.0
 10
8.967856
 20
14.262811
 30
0.0
 10
9.311778
 20
13.865943
 30
0.0
 10
9.738573
 20
13.506735
 30
0.0
 10
10.225669
 20
13.207327
 30
0.0
 10
10.502828
 20
13.064796
 30
0.0
 10
10.779987
 20
12.922267
 30
0.0
 10
11.057146
 20
12.779737
 30
0.0
 10
11.334305
 20
12.637207
 30
0.0
 10
11.162980
 20
12.505514
 30
0.0
 10
10.991654
 20
12.373822
 30
0.0
 10
10.820328
 20
12.242129
 30
0.0
 10
10.649003
 20
12.110437
 30
0.0
 10
10.337965
 20
11.854179
 30
0.0
 10
10.203577
 20
11.691389
 30
0.0
 10
10.239008
 20
11.604861
 30
0.0
 10
10.437430
 20
11.577390
 30
0.0
 10
10.654946
 20
11.608531
 30
0.0
 10
10.896993
 20
11.697951
 30
0.0
 10
11.134066
 20
11.831897
 30
0.0
 10
11.336659
 20
11.996614
 30
0.0
 10
11.701197
 20
12.248707
 30
0.0
 10
11.919921
 20
12.061057
 30
0.0
 10
12.020118
 20
11.357397
 30
0.0
 10
12.029078
 20
10.061461
 30
0.0
 10
11.939318
 20
8.801316
 30
0.0
 10
11.700174
 20
8.025957
 30
0.0
 10
11.279097
 20
7.680111
 30
0.0
 10
10.643539
 20
7.708501
 30
0.0
 10
10.387534
 20
7.758861
 30
0.0
 10
10.128981
 20
7.781312
 30
0.0
 10
9.898026
 20
7.774866
 30
0.0
 10
9.724814
 20
7.738540
 30
0.0
 10
9.480398
 20
6.952470
 30
0.0
 10
9.410499
 20
5.356073
 30
0.0
 10
9.508544
 20
3.707267
 30
0.0
 10
9.767959
 20
2.763966
 30
0.0
 10
10.048505
 20
2.310560
 30
0.0
 10
10.064955
 20
1.797483
 30
0.0
 10
9.823094
 20
1.251891
 30
0.0
 10
9.328701
 20
0.700939
 30
0.0
 10
8.558580
 20
0.182866
 30
0.0
 10
7.831363
 20
0.044504
 30
0.0
 10
7.111729
 20
0.288431
 30
0.0
 10
6.364360
 20
0.917223
 30
0.0
 10
5.979231
 20
1.295356
 30
0.0
 10
5.686024
 20
1.512863
 30
0.0
 10
5.484812
 20
1.569702
 30
0.0
 10
5.375667
 20
1.465835
 30
0.0
 10
5.071570
 20
0.963176
 30
0.0
 10
4.572528
 20
0.489698
 30
0.0
 10
3.998689
 20
0.137830
 30
0.0
 10
3.470204
 20
0.000001
 30
0.0
 10
3.161109
 20
0.067443
 30
0.0
 10
2.764169
 20
0.251074
 30
0.0
 10
2.330534
 20
0.522847
 30
0.0
 10
1.911353
 20
0.854718
 30
0.0
  0
LWPOLYLINE
  5
101
100
AcDbEntity
  8
0
 62
7
100
AcDbPolyline
 90
197
 70
0
 10
4.309883
 20
0.946028
 30
0.0
 10
4.574412
 20
1.205850
 30
0.0
 10
4.706760
 20
1.570261
 30
0.0
 10
4.725400
 20
2.155459
 30
0.0
 10
4.648811
 20
3.077642
 30
0.0
 10
4.588786
 20
3.815892
 30
0.0
 10
4.585261
 20
4.331298
 30
0.0
 10
4.637648
 20
4.614206
 30
0.0
 10
4.745353
 20
4.654962
 30
0.0
 10
4.853861
 20
4.489003
 30
0.0
 10
4.942719
 20
4.164813
 30
0.0
 10
5.002759
 20
3.729182
 30
0.0
 10
5.024809
 20
3.228904
 30
0.0
 10
5.044113
 20
2.548439
 30
0.0
 10
5.135083
 20
2.171449
 30
0.0
 10
5.347305
 20
2.009850
 30
0.0
 10
5.730364
 20
1.975558
 30
0.0
 10
6.096045
 20
2.008493
 30
0.0
 10
6.313118
 20
2.139820
 30
0.0
 10
6.420161
 20
2.418322
 30
0.0
 10
6.455756
 20
2.892780
 30
0.0
 10
6.483213
 20
3.293459
 30
0.0
 10
6.543314
 20
3.706374
 30
0.0
 10
6.627189
 20
4.082909
 30
0.0
 10
6.725973
 20
4.374447
 30
0.0
 10
6.820762
 20
4.486001
 30
0.0
 10
6.866722
 20
4.292700
 30
0.0
 10
6.863076
 20
3.807020
 30
0.0
 10
6.809047
 20
3.041432
 30
0.0
 10
6.726346
 20
1.946808
 30
0.0
 10
6.764696
 20
1.349181
 30
0.0
 10
6.980823
 20
1.048252
 30
0.0
 10
7.431452
 20
0.843723
 30
0.0
 10
8.100353
 20
0.691466
 30
0.0
 10
8.509956
 20
0.821460
 30
0.0
 10
8.637510
 20
1.211672
 30
0.0
 10
8.460262
 20
1.840072
 30
0.0
 10
8.334899
 20
2.271424
 30
0.0
 10
8.238256
 20
2.908849
 30
0.0
 10
8.179881
 20
3.666440
 30
0.0
 10
8.169320
 20
4.458284
 30
0.0
 10
8.179336
 20
4.931214
 30
0.0
 10
8.189352
 20
5.404143
 30
0.0
 10
8.199368
 20
5.877073
 30
0.0
 10
8.209384
 20
6.350003
 30
0.0
 10
8.257970
 20
5.891391
 30
0.0
 10
8.306554
 20
5.432780
 30
0.0
 10
8.355139
 20
4.974169
 30
0.0
 10
8.403724
 20
4.515558
 30
0.0
 10
8.583530
 20
3.128740
 30
0.0
 10
8.786898
 20
2.161782
 30
0.0
 10
9.019250
 20
1.595600
 30
0.0
 10
9.286012
 20
1.411114
 30
0.0
 10
9.603621
 20
1.561512
 30
0.0
 10
9.740761
 20
1.919831
 30
0.0
 10
9.683297
 20
2.346755
 30
0.0
 10
9.417093
 20
2.702966
 30
0.0
 10
9.179881
 20
2.932686
 30
0.0
 10
9.057897
 20
3.223131
 30
0.0
 10
9.039693
 20
3.631347
 30
0.0
 10
9.113823
 20
4.214376
 30
0.0
 10
9.174072
 20
4.749141
 30
0.0
 10
9.194759
 20
5.356655
 30
0.0
 10
9.175780
 20
5.962215
 30
0.0
 10
9.117027
 20
6.491114
 30
0.0
 10
8.985364
 20
7.140663
 30
0.0
 10
8.782278
 20
7.481162
 30
0.0
 10
8.369949
 20
7.619944
 30
0.0
 10
7.610554
 20
7.664342
 30
0.0
 10
7.281617
 20
7.675428
 30
0.0
 10
6.952679
 20
7.686511
 30
0.0
 10
6.623742
 20
7.697597
 30
0.0
 10
6.294805
 20
7.708680
 30
0.0
 10
6.647583
 20
7.750857
 30
0.0
 10
7.000361
 20
7.793034
 30
0.0
 10
7.353138
 20
7.835212
 30
0.0
 10
7.705916
 20
7.877389
 30
0.0
 10
8.433997
 20
7.973911
 30
0.0
 10
8.755612
 20
8.053856
 30
0.0
 10
8.711130
 20
8.141660
 30
0.0
 10
8.340916
 20
8.261759
 30
0.0
 10
7.805297
 20
8.489626
 30
0.0
 10
7.586863
 20
8.742130
 30
0.0
 10
7.701991
 20
8.946787
 30
0.0
 10
8.167062
 20
9.031114
 30
0.0
 10
9.048957
 20
9.138727
 30
0.0
 10
10.004037
 20
9.418891
 30
0.0
 10
10.859067
 20
9.807594
 30
0.0
 10
11.440815
 20
10.240823
 30
0.0
 10
11.709461
 20
10.552417
 30
0.0
 10
11.782498
 20
10.695519
 30
0.0
 10
11.647166
 20
10.700450
 30
0.0
 10
11.290706
 20
10.597529
 30
0.0
 10
10.471713
 20
10.630558
 30
0.0
 10
9.938751
 20
11.119074
 30
0.0
 10
9.838207
 20
11.794187
 30
0.0
 10
10.316472
 20
12.387010
 30
0.0
 10
10.513070
 20
12.554642
 30
0.0
 10
10.446016
 20
12.735025
 30
0.0
 10
10.066267
 20
12.974213
 30
0.0
 10
9.324782
 20
13.318257
 30
0.0
 10
8.558936
 20
13.679020
 30
0.0
 10
8.129571
 20
13.967167
 30
0.0
 10
7.964064
 20
14.252736
 30
0.0
 10
7.989795
 20
14.605766
 30
0.0
 10
8.020126
 20
14.940717
 30
0.0
 10
7.918107
 20
15.226383
 30
0.0
 10
7.658881
 20
15.501338
 30
0.0
 10
7.217595
 20
15.804155
 30
0.0
 10
6.487596
 20
16.170966
 30
0.0
 10
5.799224
 20
16.337598
 30
0.0
 10
5.098778
 20
16.309401
 30
0.0
 10
4.332561
 20
16.091731
 30
0.0
 10
4.150314
 20
16.022440
 30
0.0
 10
3.968066
 20
15.953150
 30
0.0
 10
3.785819
 20
15.883860
 30
0.0
 10
3.603572
 20
15.814569
 30
0.0
 10
3.745948
 20
15.672193
 30
0.0
 10
3.888325
 20
15.529817
 30
0.0
 10
4.030701
 20
15.387440
 30
0.0
 10
4.173077
 20
15.245064
 30
0.0
 10
4.394206
 20
14.994243
 30
0.0
 10
4.575291
 20
14.732314
 30
0.0
 10
4.697645
 20
14.490309
 30
0.0
 10
4.742583
 20
14.299262
 30
0.0
 10
4.775007
 20
14.153153
 30
0.0
 10
4.863290
 20
14.033503
 30
0.0
 10
4.993950
 20
13.952658
 30
0.0
 10
5.153502
 20
13.922966
 30
0.0
 10
5.300261
 20
13.943664
 30
0.0
 10
5.396090
 20
14.000021
 30
0.0
 10
5.432825
 20
14.083429
 30
0.0
 10
5.402301
 20
14.185281
 30
0.0
 10
5.380962
 20
14.279121
 30
0.0
 10
5.442702
 20
14.340711
 30
0.0
 10
5.575541
 20
14.364779
 30
0.0
 10
5.767494
 20
14.346048
 30
0.0
 10
6.181027
 20
14.136874
 30
0.0
 10
6.290086
 20
13.821744
 30
0.0
 10
6.110928
 20
13.539247
 30
0.0
 10
5.659806
 20
13.427969
 30
0.0
 10
5.233432
 20
13.433224
 30
0.0
 10
5.074455
 20
13.275049
 30
0.0
 10
5.161708
 20
12.752578
 30
0.0
 10
5.474027
 20
11.664946
 30
0.0
 10
5.719360
 20
10.127774
 30
0.0
 10
5.446510
 20
8.980530
 30
0.0
 10
4.653744
 20
8.220111
 30
0.0
 10
3.339328
 20
7.843412
 30
0.0
 10
2.975617
 20
7.752178
 30
0.0
 10
2.726059
 20
7.539496
 30
0.0
 10
2.546604
 20
7.142801
 30
0.0
 10
2.393207
 20
6.499526
 30
0.0
 10
2.245839
 20
5.813851
 30
0.0
 10
2.120829
 20
5.504213
 30
0.0
 10
1.966913
 20
5.515843
 30
0.0
 10
1.732833
 20
5.793968
 30
0.0
 10
1.560342
 20
6.071106
 30
0.0
 10
1.395221
 20
6.414650
 30
0.0
 10
1.256200
 20
6.780890
 30
0.0
 10
1.162010
 20
7.126114
 30
0.0
 10
1.080840
 20
7.427463
 30
0.0
 10
0.977271
 20
7.674242
 30
0.0
 10
0.864620
 20
7.840985
 30
0.0
 10
0.756200
 20
7.902225
 30
0.0
 10
0.540440
 20
7.768714
 30
0.0
 10
0.597819
 20
7.322807
 30
0.0
 10
0.950261
 20
6.496442
 30
0.0
 10
1.619690
 20
5.221557
 30
0.0
 10
2.241859
 20
4.060834
 30
0.0
 10
2.510232
 20
3.404819
 30
0.0
 10
2.474445
 20
3.034483
 30
0.0
 10
2.184134
 20
2.730796
 30
0.0
 10
1.823888
 20
2.361708
 30
0.0
 10
1.664322
 20
2.041611
 30
0.0
 10
1.704868
 20
1.767664
 30
0.0
 10
1.944958
 20
1.537027
 30
0.0
 10
2.335015
 20
1.485993
 30
0.0
 10
2.647097
 20
1.873964
 30
0.0
 10
2.886877
 20
2.713556
 30
0.0
 10
3.060026
 20
4.017385
 30
0.0
 10
3.107195
 20
4.529984
 30
0.0
 10
3.154364
 20
5.042583
 30
0.0
 10
3.201533
 20
5.555182
 30
0.0
 10
3.248702
 20
6.067780
 30
0.0
 10
3.259048
 20
5.631401
 30
0.0
 10
3.269395
 20
5.195022
 30
0.0
 10
3.279741
 20
4.758643
 30
0.0
 10
3.290087
 20
4.322264
 30
0.0
 10
3.283729
 20
3.585523
 30
0.0
 10
3.235822
 20
2.869884
 30
0.0
 10
3.154334
 20
2.257154
 30
0.0
 10
3.047234
 20
1.829138
 30
0.0
 10
2.899858
 20
1.070553
 30
0.0
 10
3.104503
 20
0.640202
 30
0.0
 10
3.596174
 20
0.583541
 30
0.0
 10
4.309883
 20
0.946028
 30
0.0
  0
LWPOLYLINE
  5
102
100
AcDbEntity
  8
0
 62
7
100
AcDbPolyline
 90
17
 70
0
 10
2.182753
 20
7.690558
 30
0.0
 10
2.157051
 20
7.772744
 30
0.0
 10
2.072408
 20
7.840048
 30
0.0
 10
1.942062
 20
7.885523
 30
0.0
 10
1.779255
 20
7.902225
 30
0.0
 10
1.506221
 20
7.850122
 30
0.0
 10
1.379859
 20
7.678732
 30
0.0
 10
1.394978
 20
7.365435
 30
0.0
 10
1.546385
 20
6.887610
 30
0.0
 10
1.656194
 20
6.629756
 30
0.0
 10
1.740278
 20
6.549391
 30
0.0
 10
1.828290
 20
6.650003
 30
0.0
 10
1.949882
 20
6.935083
 30
0.0
 10
2.034164
 20
7.162936
 30
0.0
 10
2.106164
 20
7.381326
 30
0.0
 10
2.158241
 20
7.565462
 30
0.0
 10
2.182753
 20
7.690558
 30
0.0
  0
LWPOLYLINE
  5
103
100
AcDbEntity
  8
0
 62
7
100
AcDbPolyline
 90
21
 70
0
 10
4.813145
 20
8.955732
 30
0.0
 10
5.157694
 20
9.409081
 30
0.0
 10
5.280662
 20
10.020331
 30
0.0
 10
5.183980
 20
10.899071
 30
0.0
 10
4.869584
 20
12.154890
 30
0.0
 10
4.378317
 20
13.779138
 30
0.0
 10
3.995246
 20
14.712734
 30
0.0
 10
3.618029
 20
15.138688
 30
0.0
 10
3.144324
 20
15.240004
 30
0.0
 10
2.763654
 20
15.166161
 30
0.0
 10
2.429036
 20
14.884340
 30
0.0
 10
2.067426
 20
14.304101
 30
0.0
 10
1.605784
 20
13.335004
 30
0.0
 10
0.922607
 20
11.714754
 30
0.0
 10
0.623866
 20
10.646726
 30
0.0
 10
0.678954
 20
9.903390
 30
0.0
 10
1.057266
 20
9.257219
 30
0.0
 10
1.868608
 20
8.593441
 30
0.0
 10
2.863655
 20
8.314018
 30
0.0
 10
3.894476
 20
8.430823
 30
0.0
 10
4.813145
 20
8.955732
 30
0.0
  0
LWPOLYLINE
  5
104
100
AcDbEntity
  8
0
 62
7
100
AcDbPolyline
 90
13
 70
0
 10
11.515923
 20
8.748891
 30
0.0
 10
11.473951
 20
9.109544
 30
0.0
 10
11.336309
 20
9.276870
 30
0.0
 10
11.085406
 20
9.257571
 30
0.0
 10
10.703655
 20
9.058349
 30
0.0
 10
10.492071
 20
8.800128
 30
0.0
 10
10.514742
 20
8.513244
 30
0.0
 10
10.733268
 20
8.280437
 30
0.0
 10
11.109244
 20
8.184448
 30
0.0
 10
11.267150
 20
8.228986
 30
0.0
 10
11.396460
 20
8.350253
 30
0.0
 10
11.483832
 20
8.529729
 30
0.0
 10
11.515923
 20
8.748891
 30
0.0
  0
LWPOLYLINE
  5
105
100
AcDbEntity
  8
0
 62
7
100
AcDbPolyline
 90
197
 70
0
 10
34.047419
 20
2.295488
 30
0.0
 10
33.467932
 20
2.614082
 30
0.0
 10
33.147480
 20
3.022501
 30
0.0
 10
33.106981
 20
3.471081
 30
0.0
 10
33.367351
 20
3.910160
 30
0.0
 10
33.609209
 20
4.107459
 30
0.0
 10
33.850377
 20
4.185903
 30
0.0
 10
34.138167
 20
4.149226
 30
0.0
 10
34.519887
 20
4.001166
 30
0.0
 10
35.199636
 20
3.756700
 30
0.0
 10
35.779213
 20
3.686352
 30
0.0
 10
36.252393
 20
3.789925
 30
0.0
 10
36.612949
 20
4.067223
 30
0.0
 10
36.738851
 20
4.265080
 30
0.0
 10
36.672890
 20
4.363955
 30
0.0
 10
36.375450
 20
4.375932
 30
0.0
 10
35.806911
 20
4.313100
 30
0.0
 10
35.177911
 20
4.260435
 30
0.0
 10
34.721140
 20
4.335639
 30
0.0
 10
34.314813
 20
4.584429
 30
0.0
 10
33.837149
 20
5.052522
 30
0.0
 10
33.628866
 20
5.275491
 30
0.0
 10
33.420581
 20
5.498460
 30
0.0
 10
33.212298
 20
5.721429
 30
0.0
 10
33.004015
 20
5.944398
 30
0.0
 10
32.981465
 20
5.748154
 30
0.0
 10
32.958916
 20
5.551910
 30
0.0
 10
32.936366
 20
5.355666
 30
0.0
 10
32.913817
 20
5.159422
 30
0.0
 10
32.825416
 20
4.710629
 30
0.0
 10
32.568035
 20
4.469638
 30
0.0
 10
31.954343
 20
4.361329
 30
0.0
 10
30.797009
 20
4.310582
 30
0.0
 10
29.643558
 20
4.292932
 30
0.0
 10
28.952207
 20
4.376017
 30
0.0
 10
28.495337
 20
4.625826
 30
0.0
 10
28.045343
 20
5.108348
 30
0.0
 10
27.763835
 20
5.474598
 30
0.0
 10
27.533301
 20
5.834867
 30
0.0
 10
27.377537
 20
6.147704
 30
0.0
 10
27.320328
 20
6.371657
 30
0.0
 10
27.282471
 20
6.527621
 30
0.0
 10
27.179392
 20
6.655342
 30
0.0
 10
27.026840
 20
6.741640
 30
0.0
 10
26.840550
 20
6.773335
 30
0.0
 10
26.624033
 20
6.757460
 30
0.0
 10
26.531282
 20
6.702780
 30
0.0
 10
26.557887
 20
6.598711
 30
0.0
 10
26.699439
 20
6.434668
 30
0.0
 10
26.989200
 20
5.403132
 30
0.0
 10
26.083396
 20
4.600171
 30
0.0
 10
24.513442
 20
4.269186
 30
0.0
 10
22.810757
 20
4.653575
 30
0.0
 10
22.481009
 20
4.861524
 30
0.0
 10
22.183915
 20
5.117067
 30
0.0
 10
21.952051
 20
5.387795
 30
0.0
 10
21.817993
 20
5.641299
 30
0.0
 10
21.695529
 20
5.926426
 30
0.0
 10
21.524784
 20
5.973164
 30
0.0
 10
21.225249
 20
5.751582
 30
0.0
 10
20.716414
 20
5.231747
 30
0.0
 10
20.156622
 20
4.680485
 30
0.0
 10
19.654464
 20
4.396020
 30
0.0
 10
18.964836
 20
4.300126
 30
0.0
 10
17.842638
 20
4.314578
 30
0.0
 10
17.354560
 20
4.329545
 30
0.0
 10
16.866482
 20
4.344511
 30
0.0
 10
16.378405
 20
4.359477
 30
0.0
 10
15.890327
 20
4.374443
 30
0.0
 10
15.870803
 20
5.415138
 30
0.0
 10
15.851279
 20
6.455832
 30
0.0
 10
15.831755
 20
7.496527
 30
0.0
 10
15.812231
 20
8.537221
 30
0.0
 10
15.792707
 20
9.577916
 30
0.0
 10
15.773182
 20
10.618611
 30
0.0
 10
15.753658
 20
11.659305
 30
0.0
 10
15.734134
 20
12.700000
 30
0.0
 10
15.940138
 20
12.700000
 30
0.0
 10
16.146142
 20
12.700000
 30
0.0
 10
16.352147
 20
12.700000
 30
0.0
 10
16.558151
 20
12.700000
 30
0.0
 10
17.107306
 20
12.618987
 30
0.0
 10
17.467572
 20
12.352691
 30
0.0
 10
17.664783
 20
11.866223
 30
0.0
 10
17.724779
 20
11.124697
 30
0.0
 10
17.759542
 20
10.765107
 30
0.0
 10
17.905675
 20
10.557341
 30
0.0
 10
18.225944
 20
10.460389
 30
0.0
 10
18.783112
 20
10.433245
 30
0.0
 10
19.566537
 20
10.356025
 30
0.0
 10
20.181321
 20
10.120097
 30
0.0
 10
20.676080
 20
9.696565
 30
0.0
 10
21.099428
 20
9.056537
 30
0.0
 10
21.307991
 20
8.689131
 30
0.0
 10
21.450752
 20
8.550696
 30
0.0
 10
21.579679
 20
8.629904
 30
0.0
 10
21.746738
 20
8.915426
 30
0.0
 10
22.203458
 20
9.554148
 30
0.0
 10
22.800858
 20
10.030643
 30
0.0
 10
23.513181
 20
10.329660
 30
0.0
 10
24.314668
 20
10.435946
 30
0.0
 10
24.886956
 20
10.397428
 30
0.0
 10
25.363872
 20
10.253614
 30
0.0
 10
25.813740
 20
9.973229
 30
0.0
 10
26.304884
 20
9.524997
 30
0.0
 10
26.530800
 20
9.295692
 30
0.0
 10
26.756713
 20
9.066386
 30
0.0
 10
26.982629
 20
8.837081
 30
0.0
 10
27.208545
 20
8.607775
 30
0.0
 10
27.404379
 20
8.835390
 30
0.0
 10
27.600213
 20
9.063004
 30
0.0
 10
27.796047
 20
9.290618
 30
0.0
 10
27.991881
 20
9.518233
 30
0.0
 10
28.475006
 20
10.031849
 30
0.0
 10
28.944231
 20
10.295992
 30
0.0
 10
29.639170
 20
10.382922
 30
0.0
 10
30.799442
 20
10.364899
 30
0.0
 10
31.955286
 20
10.314186
 30
0.0
 10
32.568269
 20
10.205876
 30
0.0
 10
32.825433
 20
9.964887
 30
0.0
 10
32.913822
 20
9.516136
 30
0.0
 10
32.936372
 20
9.319892
 30
0.0
 10
32.958921
 20
9.123648
 30
0.0
 10
32.981471
 20
8.927404
 30
0.0
 10
33.004021
 20
8.731160
 30
0.0
 10
33.202403
 20
8.943529
 30
0.0
 10
33.400783
 20
9.155897
 30
0.0
 10
33.599165
 20
9.368266
 30
0.0
 10
33.797548
 20
9.580635
 30
0.0
 10
34.281468
 20
10.047719
 30
0.0
 10
34.754066
 20
10.295468
 30
0.0
 10
35.419208
 20
10.384169
 30
0.0
 10
36.480753
 20
10.374108
 30
0.0
 10
37.229471
 20
10.329424
 30
0.0
 10
37.871146
 20
10.249158
 30
0.0
 10
38.337535
 20
10.144687
 30
0.0
 10
38.560403
 20
10.027387
 30
0.0
 10
38.645298
 20
10.025863
 30
0.0
 10
38.736022
 20
10.236591
 30
0.0
 10
38.821704
 20
10.622819
 30
0.0
 10
38.891484
 20
11.147787
 30
0.0
 10
38.988938
 20
11.937128
 30
0.0
 10
39.132550
 20
12.358992
 30
0.0
 10
39.402571
 20
12.528032
 30
0.0
 10
39.879262
 20
12.558900
 30
0.0
 10
40.090928
 20
12.558900
 30
0.0
 10
40.302595
 20
12.558900
 30
0.0
 10
40.514262
 20
12.558900
 30
0.0
 10
40.725928
 20
12.558900
 30
0.0
 10
40.746700
 20
12.045662
 30
0.0
 10
40.767471
 20
11.532424
 30
0.0
 10
40.788243
 20
11.019187
 30
0.0
 10
40.809014
 20
10.505949
 30
0.0
 10
40.829786
 20
9.992712
 30
0.0
 10
40.850558
 20
9.479474
 30
0.0
 10
40.871329
 20
8.966237
 30
0.0
 10
40.892101
 20
8.453000
 30
0.0
 10
41.126610
 20
8.701654
 30
0.0
 10
41.361123
 20
8.950308
 30
0.0
 10
41.595633
 20
9.198962
 30
0.0
 10
41.830145
 20
9.447616
 30
0.0
 10
42.347072
 20
9.946751
 30
0.0
 10
42.804218
 20
10.250458
 30
0.0
 10
43.290067
 20
10.401398
 30
0.0
 10
43.893097
 20
10.442232
 30
0.0
 10
45.223221
 20
10.094176
 30
0.0
 10
46.242337
 20
9.226469
 30
0.0
 10
46.747718
 20
8.103799
 30
0.0
 10
46.536624
 20
6.990854
 30
0.0
 10
46.387326
 20
6.705645
 30
0.0
 10
46.340460
 20
6.469550
 30
0.0
 10
46.396698
 20
6.249732
 30
0.0
 10
46.556718
 20
6.013350
 30
0.0
 10
46.647391
 20
5.429770
 30
0.0
 10
46.139758
 20
4.851832
 30
0.0
 10
45.216343
 20
4.409651
 30
0.0
 10
44.059681
 20
4.233343
 30
0.0
 10
43.354278
 20
4.268427
 30
0.0
 10
42.828250
 20
4.410889
 30
0.0
 10
42.357427
 20
4.716547
 30
0.0
 10
41.817643
 20
5.241218
 30
0.0
 10
41.279995
 20
5.797611
 30
0.0
 10
40.996481
 20
6.017833
 30
0.0
 10
40.885912
 20
5.928943
 30
0.0
 10
40.867087
 20
5.557995
 30
0.0
 10
40.742588
 20
4.928142
 30
0.0
 10
40.419497
 20
4.490223
 30
0.0
 10
39.973436
 20
4.305457
 30
0.0
 10
39.480016
 20
4.435058
 30
0.0
 10
39.212441
 20
4.558949
 30
0.0
 10
39.011880
 20
4.513754
 30
0.0
 10
38.834639
 20
4.265540
 30
0.0
 10
38.637021
 20
3.780373
 30
0.0
 10
37.963052
 20
2.781954
 30
0.0
 10
36.883399
 20
2.172526
 30
0.0
 10
35.533172
 20
1.995802
 30
0.0
 10
34.047419
 20
2.295488
 30
0.0
  0
LWPOLYLINE
  5
106
100
AcDbEntity
  8
0
 62
7
100
AcDbPolyline
 90
41
 70
0
 10
37.692034
 20
3.190683
 30
0.0
 10
38.037414
 20
3.586435
 30
0.0
 10
38.228346
 20
4.149914
 30
0.0
 10
38.309869
 20
5.137576
 30
0.0
 10
38.327028
 20
6.805876
 30
0.0
 10
38.279169
 20
8.647666
 30
0.0
 10
38.132218
 20
9.728271
 30
0.0
 10
37.881128
 20
10.065691
 30
0.0
 10
37.520846
 20
9.677925
 30
0.0
 10
37.353915
 20
9.415407
 30
0.0
 10
37.200998
 20
9.331040
 30
0.0
 10
36.994846
 20
9.426994
 30
0.0
 10
36.668205
 20
9.705441
 30
0.0
 10
36.091083
 20
10.027462
 30
0.0
 10
35.437530
 20
10.054174
 30
0.0
 10
34.757639
 20
9.794337
 30
0.0
 10
34.101507
 20
9.256708
 30
0.0
 10
33.627430
 20
8.362561
 30
0.0
 10
33.494258
 20
7.229334
 30
0.0
 10
33.694827
 20
6.097688
 30
0.0
 10
34.221979
 20
5.208289
 30
0.0
 10
34.800283
 20
4.745513
 30
0.0
 10
35.361166
 20
4.549178
 30
0.0
 10
35.935054
 20
4.615807
 30
0.0
 10
36.552372
 20
4.941922
 30
0.0
 10
37.064606
 20
5.177661
 30
0.0
 10
37.342637
 20
5.063396
 30
0.0
 10
37.350370
 20
4.664026
 30
0.0
 10
37.051680
 20
4.044450
 30
0.0
 10
36.751060
 20
3.648751
 30
0.0
 10
36.416959
 20
3.452578
 30
0.0
 10
35.900247
 20
3.414948
 30
0.0
 10
35.051797
 20
3.494881
 30
0.0
 10
34.141500
 20
3.555053
 30
0.0
 10
33.643042
 20
3.473234
 30
0.0
 10
33.556519
 20
3.249476
 30
0.0
 10
33.882034
 20
2.883828
 30
0.0
 10
34.719757
 20
2.493500
 30
0.0
 10
35.756627
 20
2.424411
 30
0.0
 10
36.808701
 20
2.661743
 30
0.0
 10
37.692034
 20
3.190683
 30
0.0
  0
LWPOLYLINE
  5
107
100
AcDbEntity
  8
0
 62
7
100
AcDbPolyline
 90
17
 70
0
 10
34.826544
 20
6.255577
 30
0.0
 10
34.651577
 20
6.540007
 30
0.0
 10
34.508293
 20
6.838857
 30
0.0
 10
34.411480
 20
7.116618
 30
0.0
 10
34.375923
 20
7.337780
 30
0.0
 10
34.411480
 20
7.558944
 30
0.0
 10
34.508293
 20
7.836706
 30
0.0
 10
34.651577
 20
8.135557
 30
0.0
 10
34.826544
 20
8.419987
 30
0.0
 10
35.772031
 20
8.997365
 30
0.0
 10
36.739980
 20
8.654776
 30
0.0
 10
37.334616
 20
7.716609
 30
0.0
 10
37.160166
 20
6.507257
 30
0.0
 10
36.649214
 20
5.935149
 30
0.0
 10
36.012930
 20
5.694192
 30
0.0
 10
35.366856
 20
5.796847
 30
0.0
 10
34.826544
 20
6.255577
 30
0.0
  0
LWPOLYLINE
  5
108
100
AcDbEntity
  8
0
 62
7
100
AcDbPolyline
 90
13
 70
0
 10
36.619536
 20
6.332937
 30
0.0
 10
36.843521
 20
6.860674
 30
0.0
 10
36.850436
 20
7.516224
 30
0.0
 10
36.663162
 20
8.137632
 30
0.0
 10
36.304570
 20
8.562949
 30
0.0
 10
35.818253
 20
8.683209
 30
0.0
 10
35.379657
 20
8.479421
 30
0.0
 10
35.062465
 20
8.016577
 30
0.0
 10
34.940359
 20
7.359669
 30
0.0
 10
35.105221
 20
6.550426
 30
0.0
 10
35.519924
 20
6.060709
 30
0.0
 10
36.064636
 20
5.963789
 30
0.0
 10
36.619536
 20
6.332937
 30
0.0
  0
LWPOLYLINE
  5
109
100
AcDbEntity
  8
0
 62
7
100
AcDbPolyline
 90
37
 70
0
 10
20.286521
 20
5.340516
 30
0.0
 10
20.945408
 20
6.297534
 30
0.0
 10
21.159397
 20
7.346469
 30
0.0
 10
20.929172
 20
8.398837
 30
0.0
 10
20.255416
 20
9.366151
 30
0.0
 10
19.671487
 20
9.859118
 30
0.0
 10
19.118266
 20
10.075358
 30
0.0
 10
18.483330
 20
10.031149
 30
0.0
 10
17.654256
 20
9.742768
 30
0.0
 10
17.394192
 20
9.681425
 30
0.0
 10
17.244739
 20
9.820390
 30
0.0
 10
17.176572
 20
10.234144
 30
0.0
 10
17.160367
 20
10.997170
 30
0.0
 10
17.142119
 20
11.745365
 30
0.0
 10
17.070548
 20
12.176063
 30
0.0
 10
16.920414
 20
12.359136
 30
0.0
 10
16.666478
 20
12.364459
 30
0.0
 10
16.403417
 20
12.197405
 30
0.0
 10
16.243142
 20
11.673548
 30
0.0
 10
16.151306
 20
10.571350
 30
0.0
 10
16.093560
 20
8.669272
 30
0.0
 10
16.068284
 20
6.786422
 30
0.0
 10
16.109212
 20
5.669876
 30
0.0
 10
16.237628
 20
5.108750
 30
0.0
 10
16.474820
 20
4.892162
 30
0.0
 10
16.671543
 20
4.852706
 30
0.0
 10
16.866913
 20
4.875845
 30
0.0
 10
17.038341
 20
4.955266
 30
0.0
 10
17.163238
 20
5.084651
 30
0.0
 10
17.296337
 20
5.245928
 30
0.0
 10
17.439744
 20
5.285483
 30
0.0
 10
17.619206
 20
5.199626
 30
0.0
 10
17.860469
 20
4.984663
 30
0.0
 10
18.400641
 20
4.617738
 30
0.0
 10
18.984319
 20
4.554633
 30
0.0
 10
19.612585
 20
4.795507
 30
0.0
 10
20.286521
 20
5.340516
 30
0.0
  0
LWPOLYLINE
  5
10a
100
AcDbEntity
  8
0
 62
7
100
AcDbPolyline
 90
13
 70
0
 10
17.603859
 20
6.087939
 30
0.0
 10
17.162952
 20
6.954605
 30
0.0
 10
17.228055
 20
7.921122
 30
0.0
 10
17.711337
 20
8.706841
 30
0.0
 10
18.524963
 20
9.031114
 30
0.0
 10
19.173918
 20
8.942053
 30
0.0
 10
19.628177
 20
8.669777
 30
0.0
 10
19.895236
 20
8.206642
 30
0.0
 10
19.982589
 20
7.545005
 30
0.0
 10
19.760744
 20
6.442679
 30
0.0
 10
19.192775
 20
5.772630
 30
0.0
 10
18.425030
 20
5.624502
 30
0.0
 10
17.603859
 20
6.087939
 30
0.0
  0
LWPOLYLINE
  5
10b
100
AcDbEntity
  8
0
 62
7
100
AcDbPolyline
 90
17
 70
0
 10
19.256875
 20
6.370162
 30
0.0
 10
19.570179
 20
6.811244
 30
0.0
 10
19.680900
 20
7.296206
 30
0.0
 10
19.588781
 20
7.811149
 30
0.0
 10
19.293563
 20
8.342173
 30
0.0
 10
19.070533
 20
8.598630
 30
0.0
 10
18.865974
 20
8.717782
 30
0.0
 10
18.645903
 20
8.708415
 30
0.0
 10
18.376341
 20
8.579315
 30
0.0
 10
17.995516
 20
8.149446
 30
0.0
 10
17.792783
 20
7.526754
 30
0.0
 10
17.793043
 20
6.868747
 30
0.0
 10
18.021198
 20
6.332937
 30
0.0
 10
18.318973
 20
6.042330
 30
0.0
 10
18.594823
 20
5.950780
 30
0.0
 10
18.892779
 20
6.059615
 30
0.0
 10
19.256875
 20
6.370162
 30
0.0
  0
LWPOLYLINE
  5
10c
100
AcDbEntity
  8
0
 62
7
100
AcDbPolyline
 90
41
 70
0
 10
25.777209
 20
4.924492
 30
0.0
 10
26.348632
 20
5.205505
 30
0.0
 10
26.669699
 20
5.471074
 30
0.0
 10
26.748168
 20
5.731410
 30
0.0
 10
26.591793
 20
5.996725
 30
0.0
 10
26.451430
 20
6.028433
 30
0.0
 10
26.190585
 20
5.993437
 30
0.0
 10
25.846511
 20
5.899669
 30
0.0
 10
25.456459
 20
5.755061
 30
0.0
 10
24.728361
 20
5.560692
 30
0.0
 10
24.057519
 20
5.595507
 30
0.0
 10
23.477232
 20
5.851758
 30
0.0
 10
23.020800
 20
6.321698
 30
0.0
 10
22.846346
 20
6.702349
 30
0.0
 10
23.017959
 20
6.925059
 30
0.0
 10
23.630884
 20
7.029554
 30
0.0
 10
24.780367
 20
7.055558
 30
0.0
 10
25.893603
 20
7.069697
 30
0.0
 10
26.483305
 20
7.150749
 30
0.0
 10
26.715427
 20
7.356660
 30
0.0
 10
26.755923
 20
7.745376
 30
0.0
 10
26.570283
 20
8.472792
 30
0.0
 10
26.081606
 20
9.171936
 30
0.0
 10
25.392257
 20
9.733280
 30
0.0
 10
24.604600
 20
10.047291
 30
0.0
 10
24.124978
 20
10.096109
 30
0.0
 10
23.710513
 20
10.018098
 30
0.0
 10
23.286084
 20
9.785438
 30
0.0
 10
22.776569
 20
9.370316
 30
0.0
 10
22.300833
 20
8.898901
 30
0.0
 10
22.011827
 20
8.468820
 30
0.0
 10
21.868514
 20
7.994209
 30
0.0
 10
21.829862
 20
7.389203
 30
0.0
 10
21.945407
 20
6.538354
 30
0.0
 10
22.278023
 20
5.798519
 30
0.0
 10
22.806685
 20
5.202315
 30
0.0
 10
23.510367
 20
4.782359
 30
0.0
 10
24.057515
 20
4.598647
 30
0.0
 10
24.542450
 20
4.556380
 30
0.0
 10
25.078054
 20
4.662636
 30
0.0
 10
25.777209
 20
4.924492
 30
0.0
  0
LWPOLYLINE
  5
10d
100
AcDbEntity
  8
0
 62
7
100
AcDbPolyline
 90
21
 70
0
 10
22.804811
 20
7.870960
 30
0.0
 10
22.847019
 20
8.020526
 30
0.0
 10
22.961940
 20
8.242243
 30
0.0
 10
23.132023
 20
8.506203
 30
0.0
 10
23.339716
 20
8.782496
 30
0.0
 10
23.645806
 20
9.115388
 30
0.0
 10
23.922686
 20
9.275703
 30
0.0
 10
24.243220
 20
9.284006
 30
0.0
 10
24.680272
 20
9.160861
 30
0.0
 10
25.025462
 20
8.999265
 30
0.0
 10
25.296463
 20
8.786730
 30
0.0
 10
25.483327
 20
8.533376
 30
0.0
 10
25.576107
 20
8.249325
 30
0.0
 10
25.587159
 20
7.906286
 30
0.0
 10
25.431521
 20
7.717146
 30
0.0
 10
25.013038
 20
7.636766
 30
0.0
 10
24.235552
 20
7.620005
 30
0.0
 10
23.680023
 20
7.639808
 30
0.0
 10
23.225092
 20
7.693725
 30
0.0
 10
22.917707
 20
7.773522
 30
0.0
 10
22.804811
 20
7.870960
 30
0.0
  0
LWPOLYLINE
  5
10e
100
AcDbEntity
  8
0
 62
7
100
AcDbPolyline
 90
13
 70
0
 10
25.006941
 20
8.344038
 30
0.0
 10
25.004232
 20
8.453896
 30
0.0
 10
24.933711
 20
8.558044
 30
0.0
 10
24.807483
 20
8.644732
 30
0.0
 10
24.637665
 20
8.702206
 30
0.0
 10
24.180120
 20
8.723311
 30
0.0
 10
23.765747
 20
8.628050
 30
0.0
 10
23.495875
 20
8.456010
 30
0.0
 10
23.471835
 20
8.246777
 30
0.0
 10
23.776934
 20
8.086559
 30
0.0
 10
24.270973
 20
8.058012
 30
0.0
 10
24.749217
 20
8.148163
 30
0.0
 10
25.006941
 20
8.344038
 30
0.0
  0
LWPOLYLINE
  5
10f
100
AcDbEntity
  8
0
 62
7
100
AcDbPolyline
 90
33
 70
0
 10
30.853597
 20
4.984662
 30
0.0
 10
31.094861
 20
5.199625
 30
0.0
 10
31.274323
 20
5.285483
 30
0.0
 10
31.417728
 20
5.245927
 30
0.0
 10
31.550830
 20
5.084651
 30
0.0
 10
31.675059
 20
4.955009
 30
0.0
 10
31.844666
 20
4.874890
 30
0.0
 10
32.037342
 20
4.850715
 30
0.0
 10
32.230774
 20
4.888908
 30
0.0
 10
32.590074
 20
5.697068
 30
0.0
 10
32.718211
 20
7.277870
 30
0.0
 10
32.610583
 20
8.910715
 30
0.0
 10
32.262595
 20
9.875007
 30
0.0
 10
32.046218
 20
10.029349
 30
0.0
 10
31.891114
 20
10.066457
 30
0.0
 10
31.773481
 20
9.982215
 30
0.0
 10
31.669513
 20
9.772510
 30
0.0
 10
31.558888
 20
9.545196
 30
0.0
 10
31.426012
 20
9.465470
 30
0.0
 10
31.221962
 20
9.531319
 30
0.0
 10
30.897822
 20
9.740726
 30
0.0
 10
30.266121
 20
10.069383
 30
0.0
 10
29.674202
 20
10.116307
 30
0.0
 10
29.076526
 20
9.874021
 30
0.0
 10
28.427547
 20
9.335046
 30
0.0
 10
27.774102
 20
8.384177
 30
0.0
 10
27.556286
 20
7.337780
 30
0.0
 10
27.774102
 20
6.291384
 30
0.0
 10
28.427547
 20
5.340515
 30
0.0
 10
29.101483
 20
4.795505
 30
0.0
 10
29.729749
 20
4.554632
 30
0.0
 10
30.313424
 20
4.617737
 30
0.0
 10
30.853597
 20
4.984662
 30
0.0
  0
LWPOLYLINE
  5
110
100
AcDbEntity
  8
0
 62
7
100
AcDbPolyline
 90
21
 70
0
 10
29.082275
 20
5.970987
 30
0.0
 10
28.817957
 20
6.547684
 30
0.0
 10
28.743015
 20
7.378429
 30
0.0
 10
28.851953
 20
8.196707
 30
0.0
 10
29.139278
 20
8.736000
 30
0.0
 10
29.672266
 20
8.981422
 30
0.0
 10
30.260626
 20
8.942868
 30
0.0
 10
30.819005
 20
8.645353
 30
0.0
 10
31.262046
 20
8.113891
 30
0.0
 10
31.480701
 20
7.675305
 30
0.0
 10
31.553655
 20
7.337781
 30
0.0
 10
31.480946
 20
7.000256
 30
0.0
 10
31.262611
 20
6.561669
 30
0.0
 10
30.801666
 20
6.029375
 30
0.0
 10
30.208025
 20
5.732742
 30
0.0
 10
29.596602
 20
5.702902
 30
0.0
 10
29.082309
 20
5.970987
 30
0.0
 10
29.082300
 20
5.970987
 30
0.0
 10
29.082292
 20
5.970987
 30
0.0
 10
29.082283
 20
5.970987
 30
0.0
 10
29.082275
 20
5.970987
 30
0.0
  0
LWPOLYLINE
  5
111
100
AcDbEntity
  8
0
 62
7
100
AcDbPolyline
 90
13
 70
0
 10
30.650589
 20
6.265336
 30
0.0
 10
30.982068
 20
6.963200
 30
0.0
 10
30.924463
 20
7.782499
 30
0.0
 10
30.552017
 20
8.464105
 30
0.0
 10
29.938983
 20
8.748891
 30
0.0
 10
29.510138
 20
8.532297
 30
0.0
 10
29.214578
 20
7.994917
 30
0.0
 10
29.107618
 20
7.305358
 30
0.0
 10
29.244572
 20
6.632225
 30
0.0
 10
29.536161
 20
6.176866
 30
0.0
 10
29.877808
 20
5.961292
 30
0.0
 10
30.254344
 20
5.989463
 30
0.0
 10
30.650589
 20
6.265336
 30
0.0
  0
LWPOLYLINE
  5
112
100
AcDbEntity
  8
0
 62
7
100
AcDbPolyline
 90
37
 70
0
 10
45.250543
 20
4.924492
 30
0.0
 10
45.823872
 20
5.206405
 30
0.0
 10
46.144118
 20
5.472482
 30
0.0
 10
46.219790
 20
5.734058
 30
0.0
 10
46.059386
 20
6.002466
 30
0.0
 10
45.919139
 20
6.032994
 30
0.0
 10
45.662844
 20
5.990547
 30
0.0
 10
45.326977
 20
5.884280
 30
0.0
 10
44.947998
 20
5.723353
 30
0.0
 10
44.415758
 20
5.491439
 30
0.0
 10
44.040267
 20
5.417083
 30
0.0
 10
43.702498
 20
5.502057
 30
0.0
 10
43.283423
 20
5.748133
 30
0.0
 10
42.615953
 20
6.314776
 30
0.0
 10
42.577913
 20
6.723939
 30
0.0
 10
43.166309
 20
6.972054
 30
0.0
 10
44.378155
 20
7.055552
 30
0.0
 10
45.098561
 20
7.079166
 30
0.0
 10
45.716297
 20
7.143460
 30
0.0
 10
46.165646
 20
7.238614
 30
0.0
 10
46.380894
 20
7.354810
 30
0.0
 10
46.428220
 20
7.889452
 30
0.0
 10
46.153550
 20
8.590358
 30
0.0
 10
45.657333
 20
9.276755
 30
0.0
 10
45.040017
 20
9.767875
 30
0.0
 10
43.333551
 20
9.958343
 30
0.0
 10
41.992234
 20
9.022633
 30
0.0
 10
41.386054
 20
7.439319
 30
0.0
 10
41.885009
 20
5.686975
 30
0.0
 10
42.538709
 20
4.998199
 30
0.0
 10
43.308493
 20
4.643573
 30
0.0
 10
44.207918
 20
4.620027
 30
0.0
 10
45.250543
 20
4.924488
 30
0.0
 10
45.250543
 20
4.924489
 30
0.0
 10
45.250543
 20
4.924491
 30
0.0
 10
45.250543
 20
4.924492
 30
0.0
 10
45.250543
 20
4.924492
 30
0.0
  0
LWPOLYLINE
  5
113
100
AcDbEntity
  8
0
 62
7
100
AcDbPolyline
 90
13
 70
0
 10
42.611294
 20
8.249324
 30
0.0
 10
42.906391
 20
8.839764
 30
0.0
 10
43.480984
 20
9.177046
 30
0.0
 10
44.170306
 20
9.212570
 30
0.0
 10
44.809599
 20
8.897738
 30
0.0
 10
45.314164
 20
8.321807
 30
0.0
 10
45.344444
 20
7.924395
 30
0.0
 10
44.892863
 20
7.694220
 30
0.0
 10
43.951850
 20
7.620003
 30
0.0
 10
43.174364
 20
7.636764
 30
0.0
 10
42.755882
 20
7.717144
 30
0.0
 10
42.600242
 20
7.906284
 30
0.0
 10
42.611294
 20
8.249324
 30
0.0
  0
LWPOLYLINE
  5
114
100
AcDbEntity
  8
0
 62
7
100
AcDbPolyline
 90
13
 70
0
 10
44.725110
 20
8.325558
 30
0.0
 10
44.411200
 20
8.596365
 30
0.0
 10
43.868193
 20
8.702865
 30
0.0
 10
43.353569
 20
8.635524
 30
0.0
 10
43.124811
 20
8.384811
 30
0.0
 10
43.178592
 20
8.212323
 30
0.0
 10
43.338719
 20
8.092375
 30
0.0
 10
43.603381
 20
8.025764
 30
0.0
 10
43.970764
 20
8.013284
 30
0.0
 10
44.292004
 20
8.047226
 30
0.0
 10
44.541307
 20
8.117414
 30
0.0
 10
44.693927
 20
8.213606
 30
0.0
 10
44.725110
 20
8.325558
 30
0.0
  0
LWPOLYLINE
  5
115
100
AcDbEntity
  8
0
 62
7
100
AcDbPolyline
 90
17
 70
0
 10
40.443700
 20
8.607780
 30
0.0
 10
40.428404
 20
10.559121
 30
0.0
 10
40.361780
 20
11.677548
 30
0.0
 10
40.212634
 20
12.200161
 30
0.0
 10
39.949797
 20
12.364054
 30
0.0
 10
39.682409
 20
12.308216
 30
0.0
 10
39.533768
 20
11.837007
 30
0.0
 10
39.469672
 20
10.690252
 30
0.0
 10
39.455900
 20
8.607780
 30
0.0
 10
39.469672
 20
6.525308
 30
0.0
 10
39.533768
 20
5.378554
 30
0.0
 10
39.682409
 20
4.907346
 30
0.0
 10
39.949797
 20
4.851510
 30
0.0
 10
40.212634
 20
5.015404
 30
0.0
 10
40.361780
 20
5.538015
 30
0.0
 10
40.428404
 20
6.656442
 30
0.0
 10
40.443700
 20
8.607780
 30
0.0
  0
LWPOLYLINE
  5
116
100
AcDbEntity
  8
0
 62
7
100
AcDbPolyline
 90
17
 70
0
 10
25.462840
 20
6.097975
 30
0.0
 10
25.863299
 20
6.336546
 30
0.0
 10
25.857485
 20
6.553918
 30
0.0
 10
25.483730
 20
6.712159
 30
0.0
 10
24.780368
 20
6.773336
 30
0.0
 10
24.125145
 20
6.731781
 30
0.0
 10
23.749190
 20
6.607646
 30
0.0
 10
23.653638
 20
6.401726
 30
0.0
 10
23.839627
 20
6.114818
 30
0.0
 10
24.109396
 20
5.981348
 30
0.0
 10
24.518222
 20
5.933548
 30
0.0
 10
24.993555
 20
5.972172
 30
0.0
 10
25.462841
 20
6.097970
 30
0.0
 10
25.462841
 20
6.097971
 30
0.0
 10
25.462841
 20
6.097972
 30
0.0
 10
25.462841
 20
6.097974
 30
0.0
 10
25.462840
 20
6.097975
 30
0.0
  0
LWPOLYLINE
  5
117
100
AcDbEntity
  8
0
 62
7
100
AcDbPolyline
 90
13
 70
0
 10
45.258093
 20
6.341028
 30
0.0
 10
45.522408
 20
6.567711
 30
0.0
 10
45.516792
 20
6.693319
 30
0.0
 10
45.183648
 20
6.748614
 30
0.0
 10
44.465364
 20
6.764362
 30
0.0
 10
43.695061
 20
6.730378
 30
0.0
 10
43.250753
 20
6.613346
 30
0.0
 10
43.125652
 20
6.409436
 30
0.0
 10
43.312958
 20
6.114819
 30
0.0
 10
43.674541
 20
5.951892
 30
0.0
 10
44.194445
 20
5.944030
 30
0.0
 10
44.759886
 20
6.078114
 30
0.0
 10
45.258093
 20
6.341028
 30
0.0
  0
LWPOLYLINE
  5
118
100
AcDbEntity
  8
0
 62
7
100
AcDbPolyline
 90
165
 70
0
 10
86.304811
 20
2.339563
 30
0.0
 10
85.800108
 20
2.745564
 30
0.0
 10
85.536411
 20
3.255209
 30
0.0
 10
85.547954
 20
3.734237
 30
0.0
 10
85.868995
 20
4.048387
 30
0.0
 10
86.100291
 20
4.091172
 30
0.0
 10
86.404272
 20
4.082652
 30
0.0
 10
86.741452
 20
4.026788
 30
0.0
 10
87.072346
 20
3.927547
 30
0.0
 10
87.720655
 20
3.787233
 30
0.0
 10
88.390589
 20
3.795253
 30
0.0
 10
88.915068
 20
3.931439
 30
0.0
 10
89.127022
 20
4.175616
 30
0.0
 10
89.039158
 20
4.250231
 30
0.0
 10
88.799921
 20
4.295382
 30
0.0
 10
88.445851
 20
4.307537
 30
0.0
 10
88.013484
 20
4.283170
 30
0.0
 10
87.428716
 20
4.260919
 30
0.0
 10
86.977107
 20
4.339518
 30
0.0
 10
86.585075
 20
4.543620
 30
0.0
 10
86.179039
 20
4.897883
 30
0.0
 10
85.900537
 20
5.228914
 30
0.0
 10
85.675154
 20
5.597322
 30
0.0
 10
85.525960
 20
5.958194
 30
0.0
 10
85.476024
 20
6.266618
 30
0.0
 10
85.490925
 20
6.627899
 30
0.0
 10
85.527182
 20
6.742857
 30
0.0
 10
85.612131
 20
6.606714
 30
0.0
 10
85.773105
 20
6.214695
 30
0.0
 10
85.917191
 20
5.903565
 30
0.0
 10
86.103121
 20
5.573710
 30
0.0
 10
86.306894
 20
5.264486
 30
0.0
 10
86.504512
 20
5.015250
 30
0.0
 10
87.050917
 20
4.679184
 30
0.0
 10
87.789614
 20
4.531150
 30
0.0
 10
88.526101
 20
4.583734
 30
0.0
 10
89.065873
 20
4.849521
 30
0.0
 10
89.373120
 20
5.075174
 30
0.0
 10
89.526844
 20
5.020220
 30
0.0
 10
89.511717
 20
4.723507
 30
0.0
 10
89.312454
 20
4.223885
 30
0.0
 10
88.990568
 20
3.804916
 30
0.0
 10
88.493544
 20
3.589798
 30
0.0
 10
87.727508
 20
3.560354
 30
0.0
 10
86.598579
 20
3.698407
 30
0.0
 10
86.029890
 20
3.651973
 30
0.0
 10
85.803373
 20
3.364240
 30
0.0
 10
85.936859
 20
2.966568
 30
0.0
 10
86.448175
 20
2.590315
 30
0.0
 10
87.660446
 20
2.305232
 30
0.0
 10
88.936776
 20
2.407668
 30
0.0
 10
90.018021
 20
2.838955
 30
0.0
 10
90.645034
 20
3.540425
 30
0.0
 10
90.713103
 20
3.950515
 30
0.0
 10
90.768847
 20
4.729378
 30
0.0
 10
90.806510
 20
5.765254
 30
0.0
 10
90.820339
 20
6.946387
 30
0.0
 10
90.802389
 20
8.445013
 30
0.0
 10
90.734823
 20
9.370147
 30
0.0
 10
90.597061
 20
9.864022
 30
0.0
 10
90.368521
 20
10.068874
 30
0.0
 10
90.173993
 20
10.105298
 30
0.0
 10
89.978340
 20
10.076304
 30
0.0
 10
89.804327
 20
9.989054
 30
0.0
 10
89.674717
 20
9.850708
 30
0.0
 10
89.540094
 20
9.673484
 30
0.0
 10
89.410898
 20
9.608556
 30
0.0
 10
89.265509
 20
9.654422
 30
0.0
 10
89.082310
 20
9.809582
 30
0.0
 10
88.304647
 20
10.182082
 30
0.0
 10
87.380194
 20
10.067414
 30
0.0
 10
86.503603
 20
9.535464
 30
0.0
 10
85.869526
 20
8.656115
 30
0.0
 10
85.711400
 20
8.330839
 30
0.0
 10
85.586014
 20
8.149603
 30
0.0
 10
85.502296
 20
8.121344
 30
0.0
 10
85.469160
 20
8.255001
 30
0.0
 10
85.431545
 20
8.584240
 30
0.0
 10
85.305443
 20
8.720131
 30
0.0
 10
85.042135
 20
8.673892
 30
0.0
 10
84.592894
 20
8.456739
 30
0.0
 10
84.324602
 20
8.246909
 30
0.0
 10
84.157287
 20
7.922925
 30
0.0
 10
84.071299
 20
7.420723
 30
0.0
 10
84.047000
 20
6.676235
 30
0.0
 10
83.960081
 20
5.574722
 30
0.0
 10
83.707825
 20
4.791586
 30
0.0
 10
83.302994
 20
4.350594
 30
0.0
 10
82.758345
 20
4.275512
 30
0.0
 10
82.506924
 20
4.375289
 30
0.0
 10
82.321279
 20
4.572233
 30
0.0
 10
82.195591
 20
4.875697
 30
0.0
 10
82.124039
 20
5.295031
 30
0.0
 10
82.101913
 20
5.524022
 30
0.0
 10
82.079787
 20
5.753013
 30
0.0
 10
82.057661
 20
5.982004
 30
0.0
 10
82.035534
 20
6.210995
 30
0.0
 10
81.802388
 20
5.963787
 30
0.0
 10
81.569241
 20
5.716580
 30
0.0
 10
81.336094
 20
5.469372
 30
0.0
 10
81.102948
 20
5.222164
 30
0.0
 10
80.598622
 20
4.736963
 30
0.0
 10
80.147863
 20
4.433797
 30
0.0
 10
79.680610
 20
4.277607
 30
0.0
 10
79.126797
 20
4.233334
 30
0.0
 10
78.237718
 20
4.308337
 30
0.0
 10
77.546527
 20
4.550463
 30
0.0
 10
77.006532
 20
4.985391
 30
0.0
 10
76.571040
 20
5.638798
 30
0.0
 10
76.207660
 20
6.897527
 30
0.0
 10
76.279804
 20
8.216993
 30
0.0
 10
76.739871
 20
9.375570
 30
0.0
 10
77.540265
 20
10.151635
 30
0.0
 10
77.833434
 20
10.264465
 30
0.0
 10
78.230284
 20
10.356863
 30
0.0
 10
78.678758
 20
10.419294
 30
0.0
 10
79.126797
 20
10.442221
 30
0.0
 10
79.680610
 20
10.397949
 30
0.0
 10
80.147863
 20
10.241760
 30
0.0
 10
80.598622
 20
9.938594
 30
0.0
 10
81.102948
 20
9.453394
 30
0.0
 10
81.336094
 20
9.206186
 30
0.0
 10
81.569241
 20
8.958978
 30
0.0
 10
81.802388
 20
8.711771
 30
0.0
 10
82.035534
 20
8.464563
 30
0.0
 10
82.057661
 20
8.694132
 30
0.0
 10
82.079787
 20
8.923701
 30
0.0
 10
82.101913
 20
9.153270
 30
0.0
 10
82.124039
 20
9.382838
 30
0.0
 10
82.202003
 20
9.912747
 30
0.0
 10
82.410938
 20
10.192181
 30
0.0
 10
82.911555
 20
10.311447
 30
0.0
 10
83.864583
 20
10.360857
 30
0.0
 10
84.737408
 20
10.373368
 30
0.0
 10
85.258154
 20
10.312635
 30
0.0
 10
85.532273
 20
10.148874
 30
0.0
 10
85.665223
 20
9.852299
 30
0.0
 10
85.702377
 20
9.710224
 30
0.0
 10
85.739532
 20
9.568148
 30
0.0
 10
85.776683
 20
9.426072
 30
0.0
 10
85.813838
 20
9.283997
 30
0.0
 10
85.964863
 20
9.425878
 30
0.0
 10
86.115889
 20
9.567760
 30
0.0
 10
86.266915
 20
9.709641
 30
0.0
 10
86.417940
 20
9.851523
 30
0.0
 10
86.796200
 20
10.131896
 30
0.0
 10
87.263653
 20
10.299878
 30
0.0
 10
87.916422
 20
10.376452
 30
0.0
 10
88.850634
 20
10.382605
 30
0.0
 10
89.588475
 20
10.347249
 30
0.0
 10
90.245703
 20
10.277923
 30
0.0
 10
90.750737
 20
10.184640
 30
0.0
 10
91.032000
 20
10.077415
 30
0.0
 10
91.187643
 20
9.795832
 30
0.0
 10
91.297740
 20
9.218552
 30
0.0
 10
91.363162
 20
8.338374
 30
0.0
 10
91.384780
 20
7.148095
 30
0.0
 10
91.314293
 20
5.317255
 30
0.0
 10
91.074119
 20
4.010558
 30
0.0
 10
90.621203
 20
3.089611
 30
0.0
 10
89.912486
 20
2.416022
 30
0.0
 10
89.167524
 20
2.111731
 30
0.0
 10
88.191602
 20
1.994880
 30
0.0
 10
87.174200
 20
2.069484
 30
0.0
 10
86.304811
 20
2.339563
 30
0.0
  0
LWPOLYLINE
  5
119
100
AcDbEntity
  8
0
 62
7
100
AcDbPolyline
 90
13
 70
0
 10
80.393777
 20
4.806148
 30
0.0
 10
81.275468
 20
5.690854
 30
0.0
 10
81.652389
 20
6.952708
 30
0.0
 10
81.500461
 20
8.311241
 30
0.0
 10
80.795602
 20
9.485980
 30
0.0
 10
79.415547
 20
10.190133
 30
0.0
 10
77.991349
 20
9.941155
 30
0.0
 10
76.877133
 20
8.916699
 30
0.0
 10
76.427034
 20
7.294420
 30
0.0
 10
76.797527
 20
5.902748
 30
0.0
 10
77.745573
 20
4.921631
 30
0.0
 10
79.026038
 20
4.504840
 30
0.0
 10
80.393777
 20
4.806148
 30
0.0
  0
LWPOLYLINE
  5
11a
100
AcDbEntity
  8
0
 62
7
100
AcDbPolyline
 90
17
 70
0
 10
78.332034
 20
5.945485
 30
0.0
 10
78.114130
 20
6.140262
 30
0.0
 10
77.959991
 20
6.431558
 30
0.0
 10
77.868405
 20
6.822758
 30
0.0
 10
77.838145
 20
7.317249
 30
0.0
 10
78.069657
 20
8.424686
 30
0.0
 10
78.642851
 20
8.969165
 30
0.0
 10
79.375708
 20
8.886348
 30
0.0
 10
80.086223
 20
8.111896
 30
0.0
 10
80.305165
 20
7.674289
 30
0.0
 10
80.378145
 20
7.337782
 30
0.0
 10
80.305165
 20
7.001275
 30
0.0
 10
80.086223
 20
6.563667
 30
0.0
 10
79.711708
 20
6.041415
 30
0.0
 10
79.303894
 20
5.767609
 30
0.0
 10
78.848698
 20
5.737287
 30
0.0
 10
78.332034
 20
5.945485
 30
0.0
  0
LWPOLYLINE
  5
11b
100
AcDbEntity
  8
0
 62
7
100
AcDbPolyline
 90
13
 70
0
 10
79.865051
 20
6.632225
 30
0.0
 10
80.000323
 20
7.001155
 30
0.0
 10
80.045413
 20
7.337781
 30
0.0
 10
80.000323
 20
7.674407
 30
0.0
 10
79.865051
 20
8.043336
 30
0.0
 10
79.362664
 20
8.636474
 30
0.0
 10
78.788460
 20
8.669699
 30
0.0
 10
78.316382
 20
8.213354
 30
0.0
 10
78.120367
 20
7.337780
 30
0.0
 10
78.316382
 20
6.462207
 30
0.0
 10
78.788460
 20
6.005862
 30
0.0
 10
79.362664
 20
6.039087
 30
0.0
 10
79.865051
 20
6.632225
 30
0.0
  0
LWPOLYLINE
  5
11c
100
AcDbEntity
  8
0
 62
7
100
AcDbPolyline
 90
41
 70
0
 10
83.492662
 20
5.098824
 30
0.0
 10
83.610029
 20
5.396185
 30
0.0
 10
83.698845
 20
5.774661
 30
0.0
 10
83.750458
 20
6.185635
 30
0.0
 10
83.756215
 20
6.580491
 30
0.0
 10
83.732452
 20
7.545360
 30
0.0
 10
83.829147
 20
8.132218
 30
0.0
 10
84.103185
 20
8.485313
 30
0.0
 10
84.611464
 20
8.748891
 30
0.0
 10
84.940211
 20
8.916463
 30
0.0
 10
85.209422
 20
9.113472
 30
0.0
 10
85.391323
 20
9.315355
 30
0.0
 10
85.458131
 20
9.497545
 30
0.0
 10
85.328472
 20
9.855575
 30
0.0
 10
85.004447
 20
10.052843
 30
0.0
 10
84.583490
 20
10.062312
 30
0.0
 10
84.163027
 20
9.856945
 30
0.0
 10
83.931774
 20
9.688212
 30
0.0
 10
83.761936
 20
9.633282
 30
0.0
 10
83.624273
 20
9.692569
 30
0.0
 10
83.489549
 20
9.866484
 30
0.0
 10
83.363729
 20
9.998703
 30
0.0
 10
83.192815
 20
10.080932
 30
0.0
 10
82.999258
 20
10.106533
 30
0.0
 10
82.805501
 20
10.068863
 30
0.0
 10
82.579969
 20
9.877383
 30
0.0
 10
82.441872
 20
9.441012
 30
0.0
 10
82.372637
 20
8.649767
 30
0.0
 10
82.353672
 20
7.393665
 30
0.0
 10
82.368517
 20
6.407408
 30
0.0
 10
82.408940
 20
5.571484
 30
0.0
 10
82.468765
 20
4.974158
 30
0.0
 10
82.541821
 20
4.703694
 30
0.0
 10
82.784250
 20
4.542075
 30
0.0
 10
83.020408
 20
4.552757
 30
0.0
 10
83.254977
 20
4.737688
 30
0.0
 10
83.492634
 20
5.098810
 30
0.0
 10
83.492634
 20
5.098813
 30
0.0
 10
83.492634
 20
5.098816
 30
0.0
 10
83.492634
 20
5.098819
 30
0.0
 10
83.492662
 20
5.098824
 30
0.0
  0
LWPOLYLINE
  5
11d
100
AcDbEntity
  8
0
 62
7
100
AcDbPolyline
 90
193
 70
0
 10
47.353022
 20
4.633569
 30
0.0
 10
47.162661
 20
5.973058
 30
0.0
 10
47.080926
 20
8.621411
 30
0.0
 10
47.118885
 20
11.246432
 30
0.0
 10
47.287589
 20
12.515923
 30
0.0
 10
47.363030
 20
12.257026
 30
0.0
 10
47.411973
 20
11.454932
 30
0.0
 10
47.430261
 20
10.234215
 30
0.0
 10
47.413779
 20
8.719444
 30
0.0
 10
47.385557
 20
6.683616
 30
0.0
 10
47.422999
 20
5.466393
 30
0.0
 10
47.544919
 20
4.851324
 30
0.0
 10
47.770147
 20
4.621962
 30
0.0
 10
47.972845
 20
4.581969
 30
0.0
 10
48.198114
 20
4.598417
 30
0.0
 10
48.418519
 20
4.666125
 30
0.0
 10
48.606603
 20
4.779913
 30
0.0
 10
48.793214
 20
4.907940
 30
0.0
 10
48.949717
 20
4.955771
 30
0.0
 10
49.079040
 20
4.923566
 30
0.0
 10
49.184108
 20
4.811485
 30
0.0
 10
49.329769
 20
4.696583
 30
0.0
 10
49.591172
 20
4.602487
 30
0.0
 10
49.931275
 20
4.538909
 30
0.0
 10
50.313034
 20
4.515558
 30
0.0
 10
51.179854
 20
4.740348
 30
0.0
 10
51.952852
 20
5.327124
 30
0.0
 10
52.507772
 20
6.144498
 30
0.0
 10
52.720356
 20
7.061081
 30
0.0
 10
52.883379
 20
7.890520
 30
0.0
 10
53.297328
 20
8.821394
 30
0.0
 10
53.849532
 20
9.648664
 30
0.0
 10
54.427315
 20
10.167295
 30
0.0
 10
55.588106
 20
10.447844
 30
0.0
 10
56.825831
 20
10.238842
 30
0.0
 10
57.886792
 20
9.630498
 30
0.0
 10
58.517296
 20
8.713018
 30
0.0
 10
58.632570
 20
8.411036
 30
0.0
 10
58.753014
 20
8.341873
 30
0.0
 10
58.932380
 20
8.526176
 30
0.0
 10
59.224432
 20
8.984589
 30
0.0
 10
59.468845
 20
9.339896
 30
0.0
 10
59.748987
 20
9.673669
 30
0.0
 10
60.030278
 20
9.948431
 30
0.0
 10
60.278145
 20
10.126709
 30
0.0
 10
61.177170
 20
10.320655
 30
0.0
 10
62.534845
 20
10.380128
 30
0.0
 10
63.811088
 20
10.307769
 30
0.0
 10
64.465815
 20
10.106219
 30
0.0
 10
64.554052
 20
10.020191
 30
0.0
 10
64.670706
 20
9.991498
 30
0.0
 10
64.806359
 20
10.020143
 30
0.0
 10
64.951593
 20
10.106126
 30
0.0
 10
65.701528
 20
10.344414
 30
0.0
 10
66.802364
 20
10.393546
 30
0.0
 10
67.829345
 20
10.268648
 30
0.0
 10
68.357702
 20
9.984844
 30
0.0
 10
68.463959
 20
9.774335
 30
0.0
 10
68.599092
 20
9.706247
 30
0.0
 10
68.811580
 20
9.781592
 30
0.0
 10
69.149900
 20
10.001382
 30
0.0
 10
69.477055
 20
10.172549
 30
0.0
 10
69.902561
 20
10.312721
 30
0.0
 10
70.371346
 20
10.407431
 30
0.0
 10
70.828337
 20
10.442216
 30
0.0
 10
71.417823
 20
10.464636
 30
0.0
 10
71.741817
 20
10.588376
 30
0.0
 10
71.893235
 20
10.898167
 30
0.0
 10
71.964985
 20
11.478735
 30
0.0
 10
72.031352
 20
11.910681
 30
0.0
 10
72.145373
 20
12.264052
 30
0.0
 10
72.296929
 20
12.515806
 30
0.0
 10
72.475911
 20
12.642902
 30
0.0
 10
72.671102
 20
12.690318
 30
0.0
 10
72.746068
 20
12.671556
 30
0.0
 10
72.703594
 20
12.576893
 30
0.0
 10
72.546467
 20
12.396606
 30
0.0
 10
72.409490
 20
12.169523
 30
0.0
 10
72.297318
 20
11.827661
 30
0.0
 10
72.221525
 20
11.417341
 30
0.0
 10
72.193698
 20
10.984885
 30
0.0
 10
72.193698
 20
10.725441
 30
0.0
 10
72.193698
 20
10.465997
 30
0.0
 10
72.193698
 20
10.206553
 30
0.0
 10
72.193698
 20
9.947109
 30
0.0
 10
71.887532
 20
9.981618
 30
0.0
 10
71.581366
 20
10.016128
 30
0.0
 10
71.275200
 20
10.050637
 30
0.0
 10
70.969034
 20
10.085147
 30
0.0
 10
70.303032
 20
10.133233
 30
0.0
 10
69.849935
 20
10.069860
 30
0.0
 10
69.499632
 20
9.857195
 30
0.0
 10
69.142006
 20
9.457403
 30
0.0
 10
68.403800
 20
7.821878
 30
0.0
 10
68.522997
 20
6.219045
 30
0.0
 10
69.378373
 20
4.999928
 30
0.0
 10
70.848700
 20
4.515550
 30
0.0
 10
71.135593
 20
4.543200
 30
0.0
 10
71.423174
 20
4.618485
 30
0.0
 10
71.678038
 20
4.729908
 30
0.0
 10
71.866783
 20
4.865971
 30
0.0
 10
72.049979
 20
5.021132
 30
0.0
 10
72.195368
 20
5.066998
 30
0.0
 10
72.324567
 20
5.002069
 30
0.0
 10
72.459190
 20
4.824845
 30
0.0
 10
72.590587
 20
4.683761
 30
0.0
 10
72.765782
 20
4.597346
 30
0.0
 10
72.964861
 20
4.571570
 30
0.0
 10
73.167906
 20
4.612403
 30
0.0
 10
73.410600
 20
4.836196
 30
0.0
 10
73.540041
 20
5.433700
 30
0.0
 10
73.578728
 20
6.647313
 30
0.0
 10
73.549166
 20
8.719436
 30
0.0
 10
73.532684
 20
10.234207
 30
0.0
 10
73.551000
 20
11.454924
 30
0.0
 10
73.599940
 20
12.257018
 30
0.0
 10
73.675378
 20
12.515915
 30
0.0
 10
73.801323
 20
11.221852
 30
0.0
 10
73.883893
 20
8.482923
 30
0.0
 10
73.897496
 20
5.754873
 30
0.0
 10
73.816501
 20
4.493447
 30
0.0
 10
73.632085
 20
4.475195
 30
0.0
 10
73.182119
 20
4.441848
 30
0.0
 10
72.534216
 20
4.398148
 30
0.0
 10
71.755985
 20
4.348839
 30
0.0
 10
70.616682
 20
4.297399
 30
0.0
 10
69.925249
 20
4.362657
 30
0.0
 10
69.443628
 20
4.607553
 30
0.0
 10
68.933763
 20
5.095029
 30
0.0
 10
68.511900
 20
5.590186
 30
0.0
 10
68.258236
 20
6.062385
 30
0.0
 10
68.134267
 20
6.616225
 30
0.0
 10
68.101501
 20
7.356306
 30
0.0
 10
68.094473
 20
7.897018
 30
0.0
 10
68.075339
 20
8.339814
 30
0.0
 10
68.047006
 20
8.639001
 30
0.0
 10
68.012406
 20
8.748884
 30
0.0
 10
67.934733
 20
8.725832
 30
0.0
 10
67.789117
 20
8.663065
 30
0.0
 10
67.596396
 20
8.570170
 30
0.0
 10
67.377406
 20
8.456734
 30
0.0
 10
67.111276
 20
8.249241
 30
0.0
 10
66.943718
 20
7.932817
 30
0.0
 10
66.856531
 20
7.450379
 30
0.0
 10
66.831526
 20
6.744847
 30
0.0
 10
66.808469
 20
6.150516
 30
0.0
 10
66.745702
 20
5.581804
 30
0.0
 10
66.652806
 20
5.103206
 30
0.0
 10
66.539370
 20
4.779220
 30
0.0
 10
66.207177
 20
4.424818
 30
0.0
 10
65.759243
 20
4.252332
 30
0.0
 10
65.313681
 20
4.280798
 30
0.0
 10
64.988607
 20
4.529256
 30
0.0
 10
64.890232
 20
4.632224
 30
0.0
 10
64.765823
 20
4.674873
 30
0.0
 10
64.625169
 20
4.656314
 30
0.0
 10
64.478061
 20
4.575657
 30
0.0
 10
63.717988
 20
4.378183
 30
0.0
 10
62.441602
 20
4.307075
 30
0.0
 10
61.131111
 20
4.364825
 30
0.0
 10
60.268731
 20
4.553926
 30
0.0
 10
60.024541
 20
4.730235
 30
0.0
 10
59.746258
 20
5.003386
 30
0.0
 10
59.468154
 20
5.336070
 30
0.0
 10
59.224486
 20
5.690976
 30
0.0
 10
58.932434
 20
6.149389
 30
0.0
 10
58.753067
 20
6.333693
 30
0.0
 10
58.632623
 20
6.264530
 30
0.0
 10
58.517350
 20
5.962548
 30
0.0
 10
57.766035
 20
4.916236
 30
0.0
 10
56.535760
 20
4.332602
 30
0.0
 10
55.171761
 20
4.294399
 30
0.0
 10
54.019272
 20
4.884377
 30
0.0
 10
53.752064
 20
5.169300
 30
0.0
 10
53.505780
 20
5.463814
 30
0.0
 10
53.307784
 20
5.733193
 30
0.0
 10
53.185435
 20
5.942710
 30
0.0
 10
53.083508
 20
6.142350
 30
0.0
 10
53.002632
 20
6.208896
 30
0.0
 10
52.921755
 20
6.142350
 30
0.0
 10
52.819828
 20
5.942710
 30
0.0
 10
52.697990
 20
5.733705
 30
0.0
 10
52.501385
 20
5.465717
 30
0.0
 10
52.257161
 20
5.173263
 30
0.0
 10
51.992468
 20
4.890854
 30
0.0
 10
51.592243
 20
4.557779
 30
0.0
 10
51.133110
 20
4.370057
 30
0.0
 10
50.477798
 20
4.295367
 30
0.0
 10
49.489038
 20
4.301384
 30
0.0
 10
48.745408
 20
4.344638
 30
0.0
 10
48.094813
 20
4.421687
 30
0.0
 10
47.607333
 20
4.521631
 30
0.0
 10
47.353022
 20
4.633569
 30
0.0
  0
LWPOLYLINE
  5
11e
100
AcDbEntity
  8
0
 62
7
100
AcDbPolyline
 90
13
 70
0
 10
57.660608
 20
5.196809
 30
0.0
 10
58.372115
 20
6.221617
 30
0.0
 10
58.609284
 20
7.337782
 30
0.0
 10
58.372115
 20
8.453946
 30
0.0
 10
57.660608
 20
9.478755
 30
0.0
 10
56.296224
 20
10.162795
 30
0.0
 10
54.867675
 20
9.914374
 30
0.0
 10
53.741642
 20
8.912898
 30
0.0
 10
53.284811
 20
7.337780
 30
0.0
 10
53.741642
 20
5.762664
 30
0.0
 10
54.867672
 20
4.761189
 30
0.0
 10
56.296224
 20
4.512767
 30
0.0
 10
57.660608
 20
5.196809
 30
0.0
  0
LWPOLYLINE
  5
11f
100
AcDbEntity
  8
0
 62
7
100
AcDbPolyline
 90
17
 70
0
 10
55.045404
 20
5.972299
 30
0.0
 10
54.909706
 20
6.189892
 30
0.0
 10
54.798581
 20
6.524000
 30
0.0
 10
54.723498
 20
6.929100
 30
0.0
 10
54.695925
 20
7.359669
 30
0.0
 10
54.928973
 20
8.441181
 30
0.0
 10
55.504723
 20
8.968343
 30
0.0
 10
56.238095
 20
8.879225
 30
0.0
 10
56.944003
 20
8.111896
 30
0.0
 10
57.162903
 20
7.674275
 30
0.0
 10
57.235900
 20
7.337456
 30
0.0
 10
57.163019
 20
7.000300
 30
0.0
 10
56.944271
 20
6.561669
 30
0.0
 10
56.522053
 20
6.032069
 30
0.0
 10
56.018441
 20
5.742908
 30
0.0
 10
55.503030
 20
5.715783
 30
0.0
 10
55.045404
 20
5.972299
 30
0.0
  0
LWPOLYLINE
  5
120
100
AcDbEntity
  8
0
 62
7
100
AcDbPolyline
 90
13
 70
0
 10
56.722828
 20
6.632225
 30
0.0
 10
56.858100
 20
7.001155
 30
0.0
 10
56.903191
 20
7.337781
 30
0.0
 10
56.858100
 20
7.674407
 30
0.0
 10
56.722828
 20
8.043336
 30
0.0
 10
56.220442
 20
8.636474
 30
0.0
 10
55.646238
 20
8.669699
 30
0.0
 10
55.174159
 20
8.213354
 30
0.0
 10
54.978145
 20
7.337780
 30
0.0
 10
55.174159
 20
6.462207
 30
0.0
 10
55.646238
 20
6.005862
 30
0.0
 10
56.220442
 20
6.039087
 30
0.0
 10
56.722828
 20
6.632225
 30
0.0
  0
LWPOLYLINE
  5
121
100
AcDbEntity
  8
0
 62
7
100
AcDbPolyline
 90
41
 70
0
 10
62.529740
 20
4.842264
 30
0.0
 10
62.706834
 20
4.979742
 30
0.0
 10
62.879896
 20
5.020397
 30
0.0
 10
63.068381
 20
4.963347
 30
0.0
 10
63.291740
 20
4.807709
 30
0.0
 10
63.525070
 20
4.644895
 30
0.0
 10
63.724638
 20
4.589216
 30
0.0
 10
63.922413
 20
4.640299
 30
0.0
 10
64.150367
 20
4.797775
 30
0.0
 10
64.346808
 20
5.076109
 30
0.0
 10
64.477082
 20
5.556089
 30
0.0
 10
64.548749
 20
6.282912
 30
0.0
 10
64.569380
 20
7.301774
 30
0.0
 10
64.512125
 20
8.857581
 30
0.0
 10
64.328607
 20
9.771629
 30
0.0
 10
63.989760
 20
10.113834
 30
0.0
 10
63.466506
 20
9.954110
 30
0.0
 10
63.218825
 20
9.826546
 30
0.0
 10
63.009303
 20
9.771768
 30
0.0
 10
62.845679
 20
9.790522
 30
0.0
 10
62.735683
 20
9.883554
 30
0.0
 10
62.314703
 20
10.106815
 30
0.0
 10
61.593479
 20
10.146608
 30
0.0
 10
60.792411
 20
10.016071
 30
0.0
 10
60.131909
 20
9.728343
 30
0.0
 10
59.596446
 20
9.133424
 30
0.0
 10
59.249505
 20
8.294892
 30
0.0
 10
59.122087
 20
7.330579
 30
0.0
 10
59.245195
 20
6.358317
 30
0.0
 10
59.398831
 20
5.943952
 30
0.0
 10
59.617226
 20
5.539778
 30
0.0
 10
59.871283
 20
5.192095
 30
0.0
 10
60.131909
 20
4.947205
 30
0.0
 10
60.749897
 20
4.650579
 30
0.0
 10
61.432327
 20
4.530852
 30
0.0
 10
62.064005
 20
4.593065
 30
0.0
 10
62.529740
 20
4.842258
 30
0.0
 10
62.529740
 20
4.842260
 30
0.0
 10
62.529740
 20
4.842261
 30
0.0
 10
62.529740
 20
4.842262
 30
0.0
 10
62.529740
 20
4.842264
 30
0.0
  0
LWPOLYLINE
  5
122
100
AcDbEntity
  8
0
 62
7
100
AcDbPolyline
 90
33
 70
0
 10
60.892332
 20
6.082820
 30
0.0
 10
60.534042
 20
6.952672
 30
0.0
 10
60.612201
 20
7.920683
 30
0.0
 10
61.045211
 20
8.706836
 30
0.0
 10
61.751478
 20
9.031114
 30
0.0
 10
62.125496
 20
8.956258
 30
0.0
 10
62.452614
 20
8.730324
 30
0.0
 10
62.734907
 20
8.351260
 30
0.0
 10
62.974434
 20
7.817013
 30
0.0
 10
63.028263
 20
7.622249
 30
0.0
 10
63.028827
 20
7.496833
 30
0.0
 10
62.977804
 20
7.447477
 30
0.0
 10
62.877271
 20
7.480890
 30
0.0
 10
62.768946
 20
7.577547
 30
0.0
 10
62.680235
 20
7.713258
 30
0.0
 10
62.620294
 20
7.870012
 30
0.0
 10
62.598280
 20
8.029798
 30
0.0
 10
62.354223
 20
8.519976
 30
0.0
 10
61.799112
 20
8.644223
 30
0.0
 10
61.198531
 20
8.424484
 30
0.0
 10
60.818068
 20
7.882703
 30
0.0
 10
60.782666
 20
6.905115
 30
0.0
 10
61.140111
 20
6.254445
 30
0.0
 10
61.728054
 20
6.073507
 30
0.0
 10
62.384141
 20
6.505112
 30
0.0
 10
62.599121
 20
6.745133
 30
0.0
 10
62.754476
 20
6.861363
 30
0.0
 10
62.848752
 20
6.853173
 30
0.0
 10
62.880502
 20
6.719936
 30
0.0
 10
62.661405
 20
6.091222
 30
0.0
 10
62.130573
 20
5.734937
 30
0.0
 10
61.477697
 20
5.711871
 30
0.0
 10
60.892332
 20
6.082820
 30
0.0
  0
LWPOLYLINE
  5
123
100
AcDbEntity
  8
0
 62
7
100
AcDbPolyline
 90
33
 70
0
 10
66.210589
 20
4.854225
 30
0.0
 10
66.342088
 20
5.112182
 30
0.0
 10
66.449773
 20
5.564187
 30
0.0
 10
66.522532
 20
6.146540
 30
0.0
 10
66.549259
 20
6.795541
 30
0.0
 10
66.569014
 20
7.693133
 30
0.0
 10
66.672516
 20
8.215916
 30
0.0
 10
66.926048
 20
8.516850
 30
0.0
 10
67.395914
 20
8.748891
 30
0.0
 10
67.724661
 20
8.916463
 30
0.0
 10
67.993872
 20
9.113472
 30
0.0
 10
68.175773
 20
9.315355
 30
0.0
 10
68.242581
 20
9.497545
 30
0.0
 10
68.112922
 20
9.855575
 30
0.0
 10
67.788897
 20
10.052843
 30
0.0
 10
67.367940
 20
10.062312
 30
0.0
 10
66.947477
 20
9.856945
 30
0.0
 10
66.714776
 20
9.688552
 30
0.0
 10
66.542166
 20
9.637760
 30
0.0
 10
66.398733
 20
9.706307
 30
0.0
 10
66.253549
 20
9.895929
 30
0.0
 10
66.107985
 20
10.075465
 30
0.0
 10
65.948029
 20
10.149089
 30
0.0
 10
65.752184
 20
10.119457
 30
0.0
 10
65.498949
 20
9.989228
 30
0.0
 10
65.249134
 20
9.738235
 30
0.0
 10
65.082112
 20
9.297114
 30
0.0
 10
64.977304
 20
8.578002
 30
0.0
 10
64.914117
 20
7.493032
 30
0.0
 10
64.946798
 20
5.864826
 30
0.0
 10
65.182671
 20
4.864170
 30
0.0
 10
65.608381
 20
4.518244
 30
0.0
 10
66.210589
 20
4.854225
 30
0.0
  0
LWPOLYLINE
  5
124
100
AcDbEntity
  8
0
 62
7
100
AcDbPolyline
 90
17
 70
0
 10
74.443147
 20
4.666708
 30
0.0
 10
74.238175
 20
5.146290
 30
0.0
 10
74.354958
 20
5.598946
 30
0.0
 10
74.737273
 20
5.935751
 30
0.0
 10
75.328904
 20
6.067780
 30
0.0
 10
75.671276
 20
6.034583
 30
0.0
 10
75.876912
 20
5.908699
 30
0.0
 10
75.977242
 20
5.650689
 30
0.0
 10
76.003686
 20
5.221114
 30
0.0
 10
75.974598
 20
4.813203
 30
0.0
 10
75.877022
 20
4.538383
 30
0.0
 10
75.695491
 20
4.372218
 30
0.0
 10
75.414545
 20
4.290274
 30
0.0
 10
75.155628
 20
4.293937
 30
0.0
 10
74.886174
 20
4.366131
 30
0.0
 10
74.638050
 20
4.494505
 30
0.0
 10
74.443147
 20
4.666708
 30
0.0
  0
LWPOLYLINE
  5
125
100
AcDbEntity
  8
0
 62
7
100
AcDbPolyline
 90
13
 70
0
 10
75.862589
 20
5.088861
 30
0.0
 10
75.739114
 20
5.527043
 30
0.0
 10
75.434540
 20
5.809113
 30
0.0
 10
75.047661
 20
5.884065
 30
0.0
 10
74.677256
 20
5.700891
 30
0.0
 10
74.494085
 20
5.330487
 30
0.0
 10
74.569035
 20
4.943606
 30
0.0
 10
74.851105
 20
4.639034
 30
0.0
 10
75.289289
 20
4.515558
 30
0.0
 10
75.542597
 20
4.550559
 30
0.0
 10
75.721478
 20
4.656670
 30
0.0
 10
75.827588
 20
4.835550
 30
0.0
 10
75.862589
 20
5.088861
 30
0.0
  0
LWPOLYLINE
  5
126
100
AcDbEntity
  8
0
 62
7
100
AcDbPolyline
 90
21
 70
0
 10
49.236331
 20
6.160561
 30
0.0
 10
48.902470
 20
6.733527
 30
0.0
 10
48.786545
 20
7.401800
 30
0.0
 10
48.889612
 20
8.056218
 30
0.0
 10
49.212737
 20
8.587624
 30
0.0
 10
49.632091
 20
8.910581
 30
0.0
 10
50.030710
 20
9.006697
 30
0.0
 10
50.427704
 20
8.875121
 30
0.0
 10
50.842170
 20
8.515003
 30
0.0
 10
51.185109
 20
7.933685
 30
0.0
 10
51.289955
 20
7.275744
 30
0.0
 10
51.158645
 20
6.636562
 30
0.0
 10
50.793134
 20
6.111522
 30
0.0
 10
50.351986
 20
5.776997
 30
0.0
 10
49.983071
 20
5.672477
 30
0.0
 10
49.629986
 20
5.799739
 30
0.0
 10
49.236320
 20
6.160561
 30
0.0
 10
49.236322
 20
6.160561
 30
0.0
 10
49.236325
 20
6.160561
 30
0.0
 10
49.236328
 20
6.160561
 30
0.0
 10
49.236331
 20
6.160561
 30
0.0
  0
LWPOLYLINE
  5
127
100
AcDbEntity
  8
0
 62
7
100
AcDbPolyline
 90
13
 70
0
 10
50.730647
 20
6.332937
 30
0.0
 10
50.954632
 20
6.860674
 30
0.0
 10
50.961547
 20
7.516224
 30
0.0
 10
50.774273
 20
8.137632
 30
0.0
 10
50.415681
 20
8.562949
 30
0.0
 10
49.929364
 20
8.683209
 30
0.0
 10
49.490768
 20
8.479421
 30
0.0
 10
49.173576
 20
8.016577
 30
0.0
 10
49.051470
 20
7.359669
 30
0.0
 10
49.216333
 20
6.550426
 30
0.0
 10
49.631036
 20
6.060709
 30
0.0
 10
50.175747
 20
5.963789
 30
0.0
 10
50.730647
 20
6.332937
 30
0.0
  0
LWPOLYLINE
  5
128
100
AcDbEntity
  8
0
 62
7
100
AcDbPolyline
 90
13
 70
0
 10
70.036752
 20
6.371875
 30
0.0
 10
69.760315
 20
7.398388
 30
0.0
 10
70.050033
 20
8.364832
 30
0.0
 10
70.713597
 20
8.956823
 30
0.0
 10
71.558700
 20
8.859977
 30
0.0
 10
71.957568
 20
8.335570
 30
0.0
 10
72.136491
 20
7.546910
 30
0.0
 10
72.078130
 20
6.725510
 30
0.0
 10
71.765152
 20
6.102883
 30
0.0
 10
71.297523
 20
5.752234
 30
0.0
 10
70.862647
 20
5.678773
 30
0.0
 10
70.446923
 20
5.884615
 30
0.0
 10
70.036752
 20
6.371875
 30
0.0
  0
LWPOLYLINE
  5
129
100
AcDbEntity
  8
0
 62
7
100
AcDbPolyline
 90
13
 70
0
 10
71.572811
 20
6.265336
 30
0.0
 10
71.904290
 20
6.963200
 30
0.0
 10
71.846686
 20
7.782499
 30
0.0
 10
71.474240
 20
8.464106
 30
0.0
 10
70.861205
 20
8.748891
 30
0.0
 10
70.432360
 20
8.532297
 30
0.0
 10
70.136800
 20
7.994917
 30
0.0
 10
70.029840
 20
7.305358
 30
0.0
 10
70.166794
 20
6.632225
 30
0.0
 10
70.458384
 20
6.176866
 30
0.0
 10
70.800031
 20
5.961292
 30
0.0
 10
71.176566
 20
5.989463
 30
0.0
 10
71.572811
 20
6.265336
 30
0.0
  0
LWPOLYLINE
  5
12a
100
AcDbEntity
  8
0
 62
7
100
AcDbPolyline
 90
13
 70
0
 10
87.252308
 20
6.371875
 30
0.0
 10
87.041519
 20
6.751334
 30
0.0
 10
86.938067
 20
7.098767
 30
0.0
 10
86.937221
 20
7.445863
 30
0.0
 10
87.034161
 20
7.824309
 30
0.0
 10
87.636624
 20
8.767042
 30
0.0
 10
88.369414
 20
9.007281
 30
0.0
 10
89.015274
 20
8.575248
 30
0.0
 10
89.356940
 20
7.501170
 30
0.0
 10
89.222704
 20
6.359153
 30
0.0
 10
88.708162
 20
5.726396
 30
0.0
 10
87.991860
 20
5.698701
 30
0.0
 10
87.252308
 20
6.371875
 30
0.0
  0
LWPOLYLINE
  5
12b
100
AcDbEntity
  8
0
 62
7
100
AcDbPolyline
 90
17
 70
0
 10
88.830647
 20
6.332937
 30
0.0
 10
89.058801
 20
6.868747
 30
0.0
 10
89.059063
 20
7.526754
 30
0.0
 10
88.856329
 20
8.149447
 30
0.0
 10
88.475504
 20
8.579315
 30
0.0
 10
88.205942
 20
8.708415
 30
0.0
 10
87.985871
 20
8.717782
 30
0.0
 10
87.781311
 20
8.598630
 30
0.0
 10
87.558282
 20
8.342173
 30
0.0
 10
87.263063
 20
7.811149
 30
0.0
 10
87.170946
 20
7.296206
 30
0.0
 10
87.281667
 20
6.811244
 30
0.0
 10
87.594971
 20
6.370162
 30
0.0
 10
87.959065
 20
6.059616
 30
0.0
 10
88.257022
 20
5.950781
 30
0.0
 10
88.532871
 20
6.042330
 30
0.0
 10
88.830647
 20
6.332937
 30
0.0
  0
LWPOLYLINE
  5
12c
100
AcDbEntity
  8
0
 62
7
100
AcDbPolyline
 90
33
 70
0
 10
51.896823
 20
9.381888
 30
0.0
 10
51.496626
 20
9.825046
 30
0.0
 10
51.128840
 20
10.060749
 30
0.0
 10
50.674973
 20
10.133475
 30
0.0
 10
50.016534
 20
10.087703
 30
0.0
 10
49.717071
 20
10.053949
 30
0.0
 10
49.417608
 20
10.020195
 30
0.0
 10
49.118145
 20
9.986442
 30
0.0
 10
48.818681
 20
9.952688
 30
0.0
 10
48.794862
 20
10.289467
 30
0.0
 10
48.771042
 20
10.626246
 30
0.0
 10
48.747223
 20
10.963026
 30
0.0
 10
48.723403
 20
11.299805
 30
0.0
 10
48.703111
 20
11.812511
 30
0.0
 10
48.718295
 20
12.212660
 30
0.0
 10
48.765130
 20
12.460353
 30
0.0
 10
48.839800
 20
12.515696
 30
0.0
 10
48.921986
 20
12.380070
 30
0.0
 10
48.989290
 20
12.107795
 30
0.0
 10
49.034765
 20
11.738391
 30
0.0
 10
49.051472
 20
11.311373
 30
0.0
 10
49.070014
 20
10.729453
 30
0.0
 10
49.159276
 20
10.424061
 30
0.0
 10
49.369720
 20
10.327520
 30
0.0
 10
49.751815
 20
10.372155
 30
0.0
 10
50.538685
 20
10.423630
 30
0.0
 10
51.254945
 20
10.276965
 30
0.0
 10
51.864610
 20
9.945146
 30
0.0
 10
52.331691
 20
9.441160
 30
0.0
 10
52.657756
 20
8.863957
 30
0.0
 10
52.666392
 20
8.657920
 30
0.0
 10
52.398961
 20
8.828685
 30
0.0
 10
51.896823
 20
9.381888
 30
0.0
  0
ENDSEC
  0
SECTION
  2
OBJECTS
  0
DICTIONARY
  5
C
330
0
100
AcDbDictionary
  3
ACAD_GROUP
350
D
  3
ACAD_MLINESTYLE
350
17
  0
DICTIONARY
  5
D
330
C
100
AcDbDictionary
  0
DICTIONARY
  5
1A
330
C
100
AcDbDictionary
  0
DICTIONARY
  5
17
330
C
100
AcDbDictionary
  3
STANDARD
350
18
  0
DICTIONARY
  5
19
330
C
100
AcDbDictionary
  0
ENDSEC
  0
EOF
