999
DXF created by Inkscape
  0
SECTION
  2
HEADER
  9
$ACADVER
  1
AC1014
  9
$HANDSEED
  5
FFFF
  9
$MEASUREMENT
 70
     1
  0
ENDSEC
  0
SECTION
  2
TABLES
  0
TABLE
  2
VPORT
  5
8
330
0
100
AcDbSymbolTable
 70
     4
  0
VPORT
  5
2E
330
8
100
AcDbSymbolTableRecord
100
AcDbViewportTableRecord
  2
*ACTIVE
 70
     0
 10
0.0
 20
0.0
 11
1.0
 21
1.0
 12
210.0
 22
148.5
 13
0.0
 23
0.0
 14
10.0
 24
10.0
 15
10.0
 25
10.0
 16
0.0
 26
0.0
 36
1.0
 17
0.0
 27
0.0
 37
0.0
 40
341.0
 41
1.24
 42
50.0
 43
0.0
 44
0.0
 50
0.0
 51
0.0
 71
     0
 72
   100
 73
     1
 74
     3
 75
     0
 76
     0
 77
     0
 78
     0
  0
ENDTAB
  0
TABLE
  2
LTYPE
  5
5
330
0
100
AcDbSymbolTable
 70
     1
  0
LTYPE
  5
14
330
5
100
AcDbSymbolTableRecord
100
AcDbLinetypeTableRecord
  2
BYBLOCK
 70
     0
  3

 72
    65
 73
     0
 40
0.0
  0
LTYPE
  5
15
330
5
100
AcDbSymbolTableRecord
100
AcDbLinetypeTableRecord
  2
BYLAYER
 70
     0
  3

 72
    65
 73
     0
 40
0.0
  0
LTYPE
  5
16
330
5
100
AcDbSymbolTableRecord
100
AcDbLinetypeTableRecord
  2
CONTINUOUS
 70
     0
  3
Solid line
 72
    65
 73
     0
 40
0.0
  0
ENDTAB
  0
TABLE
  2
LAYER
  5
2
100
AcDbSymbolTable
 70
2
  0
LAYER
  5
50
100
AcDbSymbolTableRecord
100
AcDbLayerTableRecord
  2
0
 70
0
  6
CONTINUOUS
  0
LAYER
  5
51
100
AcDbSymbolTableRecord
100
AcDbLayerTableRecord
  2
Layer_1
 70
0
  6
CONTINUOUS
  0
ENDTAB
  0
TABLE
  2
STYLE
  5
3
330
0
100
AcDbSymbolTable
 70
     1
  0
STYLE
  5
11
330
3
100
AcDbSymbolTableRecord
100
AcDbTextStyleTableRecord
  2
STANDARD
 70
     0
 40
0.0
 41
1.0
 50
0.0
 71
     0
 42
2.5
  3
txt
  4

  0
ENDTAB
  0
TABLE
  2
VIEW
  5
6
330
0
100
AcDbSymbolTable
 70
     0
  0
ENDTAB
  0
TABLE
  2
UCS
  5
7
330
0
100
AcDbSymbolTable
 70
     0
  0
ENDTAB
  0
TABLE
  2
APPID
  5
9
330
0
100
AcDbSymbolTable
 70
     2
  0
APPID
  5
12
330
9
100
AcDbSymbolTableRecord
100
AcDbRegAppTableRecord
  2
ACAD
 70
     0
  0
ENDTAB
  0
TABLE
  2
DIMSTYLE
  5
A
330
0
100
AcDbSymbolTable
 70
     1
  0
DIMSTYLE
105
27
330
A
100
AcDbSymbolTableRecord
100
AcDbDimStyleTableRecord
  2
ISO-25
 70
     0
  3

  4

  5

  6

  7

 40
1.0
 41
2.5
 42
0.625
 43
3.75
 44
1.25
 45
0.0
 46
0.0
 47
0.0
 48
0.0
140
2.5
141
2.5
142
0.0
143
0.03937007874016
144
1.0
145
0.0
146
1.0
147
0.625
 71
     0
 72
     0
 73
     0
 74
     0
 75
     0
 76
     0
 77
     1
 78
     8
170
     0
171
     3
172
     1
173
     0
174
     0
175
     0
176
     0
177
     0
178
     0
270
     2
271
     2
272
     2
273
     2
274
     3
340
11
275
     0
280
     0
281
     0
282
     0
283
     0
284
     8
285
     0
286
     0
287
     3
288
     0
  0
ENDTAB
  0
TABLE
  2
BLOCK_RECORD
  5
1
330
0
100
AcDbSymbolTable
 70
     1
  0
BLOCK_RECORD
  5
1F
330
1
100
AcDbSymbolTableRecord
100
AcDbBlockTableRecord
  2
*MODEL_SPACE
  0
BLOCK_RECORD
  5
1B
330
1
100
AcDbSymbolTableRecord
100
AcDbBlockTableRecord
  2
*PAPER_SPACE
  0
ENDTAB
  0
ENDSEC
  0
SECTION
  2
BLOCKS
  0
BLOCK
  5
20
330
1F
100
AcDbEntity
  8
0
100
AcDbBlockBegin
  2
*MODEL_SPACE
 70
     0
 10
0.0
 20
0.0
 30
0.0
  3
*MODEL_SPACE
  1

  0
ENDBLK
  5
21
330
1F
100
AcDbEntity
  8
0
100
AcDbBlockEnd
  0
BLOCK
  5
1C
330
1B
100
AcDbEntity
 67
     1
  8
0
100
AcDbBlockBegin
  2
*PAPER_SPACE
  1

  0
ENDBLK
  5
1D
330
1B
100
AcDbEntity
 67
     1
  8
0
100
AcDbBlockEnd
  0
ENDSEC
  0
SECTION
  2
ENTITIES
  0
LWPOLYLINE
  5
100
100
AcDbEntity
  8
Layer_1
 62
7
100
AcDbPolyline
 90
17
 70
0
 10
0.890552
 20
0.474187
 30
0.0
 10
0.443340
 20
0.971801
 30
0.0
 10
0.257830
 20
1.537770
 30
0.0
 10
0.336680
 20
2.142939
 30
0.0
 10
0.682543
 20
2.758183
 30
0.0
 10
0.949548
 20
3.049352
 30
0.0
 10
1.240482
 20
3.287801
 30
0.0
 10
1.520207
 20
3.448894
 30
0.0
 10
1.753579
 20
3.508076
 30
0.0
 10
2.390699
 20
3.364876
 30
0.0
 10
2.946668
 20
2.987404
 30
0.0
 10
3.340007
 20
2.453891
 30
0.0
 10
3.489226
 20
1.842485
 30
0.0
 10
3.232158
 20
0.924924
 30
0.0
 10
2.587154
 20
0.324581
 30
0.0
 10
1.743518
 20
0.141108
 30
0.0
 10
0.890552
 20
0.474187
 30
0.0
  0
LWPOLYLINE
  5
101
100
AcDbEntity
  8
Layer_1
 62
7
100
AcDbPolyline
 90
13
 70
0
 10
2.690893
 20
0.870709
 30
0.0
 10
3.079657
 20
1.371569
 30
0.0
 10
3.178895
 20
1.884734
 30
0.0
 10
2.991505
 20
2.377240
 30
0.0
 10
2.520374
 20
2.816067
 30
0.0
 10
1.830140
 20
3.082118
 30
0.0
 10
1.237561
 20
2.975748
 30
0.0
 10
0.823045
 20
2.540251
 30
0.0
 10
0.667004
 20
1.818835
 30
0.0
 10
0.854312
 20
1.022799
 30
0.0
 10
1.335148
 20
0.561450
 30
0.0
 10
1.987886
 20
0.491741
 30
0.0
 10
2.690893
 20
0.870709
 30
0.0
  0
LWPOLYLINE
  5
102
100
AcDbEntity
  8
Layer_1
 62
7
100
AcDbPolyline
 90
13
 70
0
 10
66.609635
 20
4.024176
 30
0.0
 10
66.139416
 20
5.203865
 30
0.0
 10
66.570815
 20
6.218002
 30
0.0
 10
67.564048
 20
6.707855
 30
0.0
 10
68.779325
 20
6.314748
 30
0.0
 10
69.277371
 20
5.817105
 30
0.0
 10
69.491925
 20
5.310601
 30
0.0
 10
69.427821
 20
4.761312
 30
0.0
 10
69.089891
 20
4.135315
 30
0.0
 10
68.565257
 20
3.689855
 30
0.0
 10
67.891000
 20
3.518998
 30
0.0
 10
67.196126
 20
3.628528
 30
0.0
 10
66.609635
 20
4.024176
 30
0.0
  0
LWPOLYLINE
  5
103
100
AcDbEntity
  8
Layer_1
 62
7
100
AcDbPolyline
 90
13
 70
0
 10
68.837223
 20
4.476917
 30
0.0
 10
69.105306
 20
5.170675
 30
0.0
 10
68.996549
 20
5.762862
 30
0.0
 10
68.553801
 20
6.175415
 30
0.0
 10
67.819913
 20
6.330298
 30
0.0
 10
67.070297
 20
6.139008
 30
0.0
 10
66.613690
 20
5.655674
 30
0.0
 10
66.516987
 20
5.016046
 30
0.0
 10
66.847077
 20
4.355900
 30
0.0
 10
67.371008
 20
3.937223
 30
0.0
 10
67.894815
 20
3.818915
 30
0.0
 10
68.392291
 20
3.999340
 30
0.0
 10
68.837223
 20
4.476917
 30
0.0
  0
LWPOLYLINE
  5
104
100
AcDbEntity
  8
Layer_1
 62
7
100
AcDbPolyline
 90
17
 70
0
 10
66.609635
 20
45.793076
 30
0.0
 10
66.266136
 20
46.332388
 30
0.0
 10
66.164612
 20
46.896031
 30
0.0
 10
66.303703
 20
47.443796
 30
0.0
 10
66.682047
 20
47.935490
 30
0.0
 10
67.331198
 20
48.289611
 30
0.0
 10
68.047867
 20
48.321203
 30
0.0
 10
68.716443
 20
48.050244
 30
0.0
 10
69.221313
 20
47.496705
 30
0.0
 10
69.428552
 20
47.077190
 30
0.0
 10
69.489199
 20
46.754023
 30
0.0
 10
69.398862
 20
46.431779
 30
0.0
 10
69.153154
 20
46.015041
 30
0.0
 10
68.609334
 20
45.497668
 30
0.0
 10
67.926438
 20
45.281435
 30
0.0
 10
67.221021
 20
45.376516
 30
0.0
 10
66.609635
 20
45.793076
 30
0.0
  0
LWPOLYLINE
  5
105
100
AcDbEntity
  8
Layer_1
 62
7
100
AcDbPolyline
 90
21
 70
0
 10
68.803512
 20
46.002677
 30
0.0
 10
68.975712
 20
46.205100
 30
0.0
 10
69.116727
 20
46.428406
 30
0.0
 10
69.212008
 20
46.645472
 30
0.0
 10
69.247004
 20
46.829184
 30
0.0
 10
69.107070
 20
47.281711
 30
0.0
 10
68.743647
 20
47.690044
 30
0.0
 10
68.241285
 20
47.985446
 30
0.0
 10
67.684554
 20
48.099184
 30
0.0
 10
67.224475
 20
47.980338
 30
0.0
 10
66.820677
 20
47.667898
 30
0.0
 10
66.533875
 20
47.227995
 30
0.0
 10
66.424782
 20
46.726785
 30
0.0
 10
66.566474
 20
46.348754
 30
0.0
 10
66.920217
 20
45.969129
 30
0.0
 10
67.379023
 20
45.676428
 30
0.0
 10
67.835893
 20
45.559184
 30
0.0
 10
68.074396
 20
45.594183
 30
0.0
 10
68.336332
 20
45.689464
 30
0.0
 10
68.589954
 20
45.830482
 30
0.0
 10
68.803512
 20
46.002677
 30
0.0
  0
LWPOLYLINE
  5
106
100
AcDbEntity
  8
Layer_1
 62
7
100
AcDbPolyline
 90
17
 70
0
 10
0.812814
 20
49.056606
 30
0.0
 10
0.337430
 20
49.608700
 30
0.0
 10
0.141111
 20
50.083968
 30
0.0
 10
0.212914
 20
50.566619
 30
0.0
 10
0.541895
 20
51.140834
 30
0.0
 10
1.355894
 20
51.701649
 30
0.0
 10
2.329764
 20
51.658850
 30
0.0
 10
3.146532
 20
51.116092
 30
0.0
 10
3.489226
 20
50.177017
 30
0.0
 10
3.390872
 20
49.643913
 30
0.0
 10
3.115623
 20
49.167912
 30
0.0
 10
2.693213
 20
48.785577
 30
0.0
 10
2.153370
 20
48.533487
 30
0.0
 10
1.822808
 20
48.484793
 30
0.0
 10
1.504958
 20
48.549597
 30
0.0
 10
1.176175
 20
48.737128
 30
0.0
 10
0.812814
 20
49.056606
 30
0.0
  0
LWPOLYLINE
  5
107
100
AcDbEntity
  8
Layer_1
 62
7
100
AcDbPolyline
 90
13
 70
0
 10
2.921739
 20
49.365521
 30
0.0
 10
3.158154
 20
50.226386
 30
0.0
 10
2.735724
 20
51.014574
 30
0.0
 10
1.947536
 20
51.437004
 30
0.0
 10
1.086671
 20
51.200589
 30
0.0
 10
0.795020
 20
50.790054
 30
0.0
 10
0.681211
 20
50.260718
 30
0.0
 10
0.749884
 20
49.722301
 30
0.0
 10
1.005671
 20
49.284517
 30
0.0
 10
1.443454
 20
49.028734
 30
0.0
 10
1.981869
 20
48.960061
 30
0.0
 10
2.511205
 20
49.073870
 30
0.0
 10
2.921739
 20
49.365521
 30
0.0
  0
ENDSEC
  0
SECTION
  2
OBJECTS
  0
DICTIONARY
  5
C
330
0
100
AcDbDictionary
  3
ACAD_GROUP
350
D
  3
ACAD_MLINESTYLE
350
17
  0
DICTIONARY
  5
D
330
C
100
AcDbDictionary
  0
DICTIONARY
  5
1A
330
C
100
AcDbDictionary
  0
DICTIONARY
  5
17
330
C
100
AcDbDictionary
  3
STANDARD
350
18
  0
DICTIONARY
  5
19
330
C
100
AcDbDictionary
  0
ENDSEC
  0
EOF
