999
DXF created by Inkscape
  0
SECTION
  2
HEADER
  9
$ACADVER
  1
AC1014
  9
$HANDSEED
  5
FFFF
  9
$MEASUREMENT
 70
     1
  0
ENDSEC
  0
SECTION
  2
TABLES
  0
TABLE
  2
VPORT
  5
8
330
0
100
AcDbSymbolTable
 70
     4
  0
VPORT
  5
2E
330
8
100
AcDbSymbolTableRecord
100
AcDbViewportTableRecord
  2
*ACTIVE
 70
     0
 10
0.0
 20
0.0
 11
1.0
 21
1.0
 12
210.0
 22
148.5
 13
0.0
 23
0.0
 14
10.0
 24
10.0
 15
10.0
 25
10.0
 16
0.0
 26
0.0
 36
1.0
 17
0.0
 27
0.0
 37
0.0
 40
341.0
 41
1.24
 42
50.0
 43
0.0
 44
0.0
 50
0.0
 51
0.0
 71
     0
 72
   100
 73
     1
 74
     3
 75
     0
 76
     0
 77
     0
 78
     0
  0
ENDTAB
  0
TABLE
  2
LTYPE
  5
5
330
0
100
AcDbSymbolTable
 70
     1
  0
LTYPE
  5
14
330
5
100
AcDbSymbolTableRecord
100
AcDbLinetypeTableRecord
  2
BYBLOCK
 70
     0
  3

 72
    65
 73
     0
 40
0.0
  0
LTYPE
  5
15
330
5
100
AcDbSymbolTableRecord
100
AcDbLinetypeTableRecord
  2
BYLAYER
 70
     0
  3

 72
    65
 73
     0
 40
0.0
  0
LTYPE
  5
16
330
5
100
AcDbSymbolTableRecord
100
AcDbLinetypeTableRecord
  2
CONTINUOUS
 70
     0
  3
Solid line
 72
    65
 73
     0
 40
0.0
  0
ENDTAB
  0
TABLE
  2
LAYER
  5
2
100
AcDbSymbolTable
 70
2
  0
LAYER
  5
50
100
AcDbSymbolTableRecord
100
AcDbLayerTableRecord
  2
0
 70
0
  6
CONTINUOUS
  0
LAYER
  5
51
100
AcDbSymbolTableRecord
100
AcDbLayerTableRecord
  2
Layer_1
 70
0
  6
CONTINUOUS
  0
ENDTAB
  0
TABLE
  2
STYLE
  5
3
330
0
100
AcDbSymbolTable
 70
     1
  0
STYLE
  5
11
330
3
100
AcDbSymbolTableRecord
100
AcDbTextStyleTableRecord
  2
STANDARD
 70
     0
 40
0.0
 41
1.0
 50
0.0
 71
     0
 42
2.5
  3
txt
  4

  0
ENDTAB
  0
TABLE
  2
VIEW
  5
6
330
0
100
AcDbSymbolTable
 70
     0
  0
ENDTAB
  0
TABLE
  2
UCS
  5
7
330
0
100
AcDbSymbolTable
 70
     0
  0
ENDTAB
  0
TABLE
  2
APPID
  5
9
330
0
100
AcDbSymbolTable
 70
     2
  0
APPID
  5
12
330
9
100
AcDbSymbolTableRecord
100
AcDbRegAppTableRecord
  2
ACAD
 70
     0
  0
ENDTAB
  0
TABLE
  2
DIMSTYLE
  5
A
330
0
100
AcDbSymbolTable
 70
     1
  0
DIMSTYLE
105
27
330
A
100
AcDbSymbolTableRecord
100
AcDbDimStyleTableRecord
  2
ISO-25
 70
     0
  3

  4

  5

  6

  7

 40
1.0
 41
2.5
 42
0.625
 43
3.75
 44
1.25
 45
0.0
 46
0.0
 47
0.0
 48
0.0
140
2.5
141
2.5
142
0.0
143
0.03937007874016
144
1.0
145
0.0
146
1.0
147
0.625
 71
     0
 72
     0
 73
     0
 74
     0
 75
     0
 76
     0
 77
     1
 78
     8
170
     0
171
     3
172
     1
173
     0
174
     0
175
     0
176
     0
177
     0
178
     0
270
     2
271
     2
272
     2
273
     2
274
     3
340
11
275
     0
280
     0
281
     0
282
     0
283
     0
284
     8
285
     0
286
     0
287
     3
288
     0
  0
ENDTAB
  0
TABLE
  2
BLOCK_RECORD
  5
1
330
0
100
AcDbSymbolTable
 70
     1
  0
BLOCK_RECORD
  5
1F
330
1
100
AcDbSymbolTableRecord
100
AcDbBlockTableRecord
  2
*MODEL_SPACE
  0
BLOCK_RECORD
  5
1B
330
1
100
AcDbSymbolTableRecord
100
AcDbBlockTableRecord
  2
*PAPER_SPACE
  0
ENDTAB
  0
ENDSEC
  0
SECTION
  2
BLOCKS
  0
BLOCK
  5
20
330
1F
100
AcDbEntity
  8
0
100
AcDbBlockBegin
  2
*MODEL_SPACE
 70
     0
 10
0.0
 20
0.0
 30
0.0
  3
*MODEL_SPACE
  1

  0
ENDBLK
  5
21
330
1F
100
AcDbEntity
  8
0
100
AcDbBlockEnd
  0
BLOCK
  5
1C
330
1B
100
AcDbEntity
 67
     1
  8
0
100
AcDbBlockBegin
  2
*PAPER_SPACE
  1

  0
ENDBLK
  5
1D
330
1B
100
AcDbEntity
 67
     1
  8
0
100
AcDbBlockEnd
  0
ENDSEC
  0
SECTION
  2
ENTITIES
  0
LWPOLYLINE
  5
100
100
AcDbEntity
  8
Layer_1
 62
7
100
AcDbPolyline
 90
37
 70
0
 10
2.769306
 20
0.110256
 30
0.0
 10
1.781528
 20
0.110256
 30
0.0
 10
0.793750
 20
0.110256
 30
0.0
 10
0.426641
 20
0.157661
 30
0.0
 10
0.180800
 20
0.299872
 30
0.0
 10
0.045201
 20
0.550124
 30
0.0
 10
0.000000
 20
0.912825
 30
0.0
 10
0.000000
 20
3.342584
 30
0.0
 10
0.000000
 20
5.772339
 30
0.0
 10
0.046301
 20
6.139442
 30
0.0
 10
0.185208
 20
6.385289
 30
0.0
 10
0.432153
 20
6.527498
 30
0.0
 10
0.793750
 20
6.574909
 30
0.0
 10
1.841060
 20
6.574909
 30
0.0
 10
2.888369
 20
6.574909
 30
0.0
 10
3.320519
 20
6.560572
 30
0.0
 10
3.690939
 20
6.517578
 30
0.0
 10
4.012844
 20
6.433789
 30
0.0
 10
4.299481
 20
6.297092
 30
0.0
 10
4.515553
 20
6.141647
 30
0.0
 10
4.705175
 20
5.948725
 30
0.0
 10
4.860612
 20
5.729337
 30
0.0
 10
4.974167
 20
5.485703
 30
0.0
 10
5.043616
 20
5.226629
 30
0.0
 10
5.066786
 20
4.952128
 30
0.0
 10
4.824247
 20
4.112074
 30
0.0
 10
4.096647
 20
3.532197
 30
0.0
 10
5.052449
 20
2.934676
 30
0.0
 10
5.371056
 20
1.953517
 30
0.0
 10
5.301598
 20
1.437578
 30
0.0
 10
5.093245
 20
0.974558
 30
0.0
 10
4.766920
 20
0.598627
 30
0.0
 10
4.343592
 20
0.335147
 30
0.0
 10
4.026086
 20
0.229314
 30
0.0
 10
3.664495
 20
0.158758
 30
0.0
 10
3.248874
 20
0.122380
 30
0.0
 10
2.769320
 20
0.110244
 30
0.0
  0
LWPOLYLINE
  5
101
100
AcDbEntity
  8
Layer_1
 62
7
100
AcDbPolyline
 90
13
 70
0
 10
2.672306
 20
2.980972
 30
0.0
 10
1.991004
 20
2.980972
 30
0.0
 10
1.309703
 20
2.980972
 30
0.0
 10
1.309703
 20
2.037292
 30
0.0
 10
1.309703
 20
1.093611
 30
0.0
 10
2.013052
 20
1.093611
 30
0.0
 10
2.716403
 20
1.093611
 30
0.0
 10
3.711894
 20
1.332840
 30
0.0
 10
4.043731
 20
2.050522
 30
0.0
 10
3.957738
 20
2.472752
 30
0.0
 10
3.699772
 20
2.760486
 30
0.0
 10
3.270922
 20
2.925849
 30
0.0
 10
2.672306
 20
2.980972
 30
0.0
  0
LWPOLYLINE
  5
102
100
AcDbEntity
  8
Layer_1
 62
7
100
AcDbPolyline
 90
17
 70
0
 10
1.309703
 20
5.591528
 30
0.0
 10
1.309703
 20
4.755885
 30
0.0
 10
1.309703
 20
3.920244
 30
0.0
 10
1.909425
 20
3.920244
 30
0.0
 10
2.509147
 20
3.920244
 30
0.0
 10
2.942401
 20
3.943387
 30
0.0
 10
3.263209
 20
4.012842
 30
0.0
 10
3.500227
 20
4.147335
 30
0.0
 10
3.673314
 20
4.365619
 30
0.0
 10
3.755994
 20
4.561848
 30
0.0
 10
3.783567
 20
4.780133
 30
0.0
 10
3.696473
 20
5.186926
 30
0.0
 10
3.435200
 20
5.428364
 30
0.0
 10
2.995326
 20
5.550727
 30
0.0
 10
2.372456
 20
5.591522
 30
0.0
 10
1.841085
 20
5.591522
 30
0.0
 10
1.309714
 20
5.591522
 30
0.0
  0
LWPOLYLINE
  5
103
100
AcDbEntity
  8
Layer_1
 62
7
100
AcDbPolyline
 90
21
 70
0
 10
6.416147
 20
0.732025
 30
0.0
 10
6.416147
 20
3.342581
 30
0.0
 10
6.416147
 20
5.953136
 30
0.0
 10
6.455833
 20
6.270633
 30
0.0
 10
6.574897
 20
6.499942
 30
0.0
 10
6.765617
 20
6.638843
 30
0.0
 10
7.011458
 20
6.685150
 30
0.0
 10
7.258403
 20
6.638843
 30
0.0
 10
7.452431
 20
6.499942
 30
0.0
 10
7.578107
 20
6.272838
 30
0.0
 10
7.620000
 20
5.953136
 30
0.0
 10
7.620000
 20
3.342581
 30
0.0
 10
7.620000
 20
0.732025
 30
0.0
 10
7.577003
 20
0.411220
 30
0.0
 10
7.448022
 20
0.180811
 30
0.0
 10
7.255095
 20
0.045212
 30
0.0
 10
7.011458
 20
0.000011
 30
0.0
 10
6.771129
 20
0.047416
 30
0.0
 10
6.579306
 20
0.189631
 30
0.0
 10
6.456937
 20
0.420037
 30
0.0
 10
6.416147
 20
0.732025
 30
0.0
  0
LWPOLYLINE
  5
104
100
AcDbEntity
  8
Layer_1
 62
7
100
AcDbPolyline
 90
59
 70
0
 10
11.994444
 20
0.679109
 30
0.0
 10
11.994444
 20
0.756279
 30
0.0
 10
11.994444
 20
0.833450
 30
0.0
 10
11.772852
 20
0.582095
 30
0.0
 10
11.540244
 20
0.374839
 30
0.0
 10
11.291093
 20
0.213885
 30
0.0
 10
11.019897
 20
0.101436
 30
0.0
 10
10.717829
 20
0.031981
 30
0.0
 10
10.376078
 20
0.008839
 30
0.0
 10
9.961561
 20
0.054040
 30
0.0
 10
9.591147
 20
0.189639
 30
0.0
 10
9.285772
 20
0.404614
 30
0.0
 10
9.057569
 20
0.687936
 30
0.0
 10
8.888899
 20
1.155367
 30
0.0
 10
8.832675
 20
1.790367
 30
0.0
 10
8.832675
 20
2.983196
 30
0.0
 10
8.832675
 20
4.176028
 30
0.0
 10
8.873465
 20
4.491318
 30
0.0
 10
8.995833
 20
4.714014
 30
0.0
 10
9.185453
 20
4.849608
 30
0.0
 10
9.427986
 20
4.894811
 30
0.0
 10
9.674931
 20
4.849608
 30
0.0
 10
9.868958
 20
4.714014
 30
0.0
 10
9.994635
 20
4.489114
 30
0.0
 10
10.036528
 20
4.176028
 30
0.0
 10
10.036528
 20
3.212502
 30
0.0
 10
10.036528
 20
2.248978
 30
0.0
 10
10.054167
 20
1.863127
 30
0.0
 10
10.107086
 20
1.543423
 30
0.0
 10
10.205201
 20
1.290966
 30
0.0
 10
10.358442
 20
1.098042
 30
0.0
 10
10.575617
 20
0.978978
 30
0.0
 10
10.856739
 20
0.939292
 30
0.0
 10
11.152189
 20
0.984490
 30
0.0
 10
11.430003
 20
1.120089
 30
0.0
 10
11.662613
 20
1.328448
 30
0.0
 10
11.822470
 20
1.591931
 30
0.0
 10
11.898534
 20
1.999827
 30
0.0
 10
11.923906
 20
2.712000
 30
0.0
 10
11.923906
 20
3.444014
 30
0.0
 10
11.923906
 20
4.176028
 30
0.0
 10
11.965796
 20
4.489114
 30
0.0
 10
12.091475
 20
4.714014
 30
0.0
 10
12.284400
 20
4.849608
 30
0.0
 10
12.528039
 20
4.894811
 30
0.0
 10
12.770570
 20
4.849608
 30
0.0
 10
12.960192
 20
4.714014
 30
0.0
 10
13.082558
 20
4.491318
 30
0.0
 10
13.123350
 20
4.176028
 30
0.0
 10
13.123350
 20
2.431982
 30
0.0
 10
13.123350
 20
0.687936
 30
0.0
 10
13.083659
 20
0.386975
 30
0.0
 10
12.964600
 20
0.172000
 30
0.0
 10
12.787108
 20
0.043016
 30
0.0
 10
12.563317
 20
0.000020
 30
0.0
 10
12.337313
 20
0.044117
 30
0.0
 10
12.153211
 20
0.176409
 30
0.0
 10
12.034147
 20
0.392484
 30
0.0
 10
11.994461
 20
0.679117
 30
0.0
  0
LWPOLYLINE
  5
105
100
AcDbEntity
  8
Layer_1
 62
7
100
AcDbPolyline
 90
53
 70
0
 10
17.678578
 20
2.151956
 30
0.0
 10
16.501181
 20
2.151956
 30
0.0
 10
15.323786
 20
2.151956
 30
0.0
 10
15.366777
 20
1.766104
 30
0.0
 10
15.486944
 20
1.428761
 30
0.0
 10
15.675458
 20
1.154255
 30
0.0
 10
15.914689
 20
0.956922
 30
0.0
 10
16.196908
 20
0.837859
 30
0.0
 10
16.505592
 20
0.798172
 30
0.0
 10
16.711744
 20
0.810308
 30
0.0
 10
16.898056
 20
0.846686
 30
0.0
 10
17.075545
 20
0.912834
 30
0.0
 10
17.246425
 20
1.005436
 30
0.0
 10
17.407376
 20
1.118989
 30
0.0
 10
17.555106
 20
1.239153
 30
0.0
 10
17.717160
 20
1.384673
 30
0.0
 10
17.921111
 20
1.574292
 30
0.0
 10
18.033557
 20
1.633821
 30
0.0
 10
18.185694
 20
1.653661
 30
0.0
 10
18.353261
 20
1.628290
 30
0.0
 10
18.485556
 20
1.552222
 30
0.0
 10
18.571543
 20
1.429851
 30
0.0
 10
18.600208
 20
1.265592
 30
0.0
 10
18.568235
 20
1.088099
 30
0.0
 10
18.472328
 20
0.881944
 30
0.0
 10
18.311371
 20
0.669174
 30
0.0
 10
18.084272
 20
0.463022
 30
0.0
 10
17.794328
 20
0.281122
 30
0.0
 10
17.436042
 20
0.132292
 30
0.0
 10
17.018217
 20
0.033074
 30
0.0
 10
16.540869
 20
0.000000
 30
0.0
 10
15.510095
 20
0.165365
 30
0.0
 10
14.737292
 20
0.661458
 30
0.0
 10
14.254426
 20
1.440877
 30
0.0
 10
14.093472
 20
2.456217
 30
0.0
 10
14.133161
 20
2.969946
 30
0.0
 10
14.252222
 20
3.443994
 30
0.0
 10
14.447353
 20
3.869529
 30
0.0
 10
14.715244
 20
4.228925
 30
0.0
 10
15.054792
 20
4.516656
 30
0.0
 10
15.464897
 20
4.727222
 30
0.0
 10
15.934529
 20
4.859511
 30
0.0
 10
16.452675
 20
4.903611
 30
0.0
 10
17.107515
 20
4.828644
 30
0.0
 10
17.660939
 20
4.603750
 30
0.0
 10
18.104112
 20
4.264200
 30
0.0
 10
18.419411
 20
3.836458
 30
0.0
 10
18.607921
 20
3.360206
 30
0.0
 10
18.670764
 20
2.875139
 30
0.0
 10
18.605717
 20
2.500311
 30
0.0
 10
18.410592
 20
2.284236
 30
0.0
 10
18.097497
 20
2.185015
 30
0.0
 10
17.678578
 20
2.151944
 30
0.0
  0
LWPOLYLINE
  5
106
100
AcDbEntity
  8
Layer_1
 62
7
100
AcDbPolyline
 90
11
 70
0
 10
15.323786
 20
2.835453
 30
0.0
 10
16.415193
 20
2.835453
 30
0.0
 10
17.506597
 20
2.835453
 30
0.0
 10
17.400761
 20
3.374537
 30
0.0
 10
17.171458
 20
3.757083
 30
0.0
 10
16.838524
 20
3.988593
 30
0.0
 10
16.412986
 20
4.065764
 30
0.0
 10
16.002881
 20
3.987490
 30
0.0
 10
15.672153
 20
3.752675
 30
0.0
 10
15.441744
 20
3.369028
 30
0.0
 10
15.323786
 20
2.835453
 30
0.0
  0
ENDSEC
  0
SECTION
  2
OBJECTS
  0
DICTIONARY
  5
C
330
0
100
AcDbDictionary
  3
ACAD_GROUP
350
D
  3
ACAD_MLINESTYLE
350
17
  0
DICTIONARY
  5
D
330
C
100
AcDbDictionary
  0
DICTIONARY
  5
1A
330
C
100
AcDbDictionary
  0
DICTIONARY
  5
17
330
C
100
AcDbDictionary
  3
STANDARD
350
18
  0
DICTIONARY
  5
19
330
C
100
AcDbDictionary
  0
ENDSEC
  0
EOF
