999
Inkscape export via "Better Better DXF Output" (http://tim.cexx.org/?p=590)
  0
SECTION
  2
HEADER
  9
$ACADVER
  1
AC1014
  9
$HANDSEED
  5
FFFF
  0
ENDSEC
  0
SECTION
  2
TABLES
  0
TABLE
  2
VPORT
  5
8
330
0
100
AcDbSymbolTable
 70
     4
  0
VPORT
  5
2E
330
8
100
AcDbSymbolTableRecord
100
AcDbViewportTableRecord
  2
*ACTIVE
 70
     0
 10
0.0
 20
0.0
 11
1.0
 21
1.0
 12
4.25
 22
5.5
 13
0.0
 23
0.0
 14
10.0
 24
10.0
 15
10.0
 25
10.0
 16
0.0
 26
0.0
 36
1.0
 17
0.0
 27
0.0
 37
0.0
 40
11
 41
1.24
 42
50.0
 43
0.0
 44
0.0
 50
0.0
 51
0.0
 71
     0
 72
   100
 73
     1
 74
     3
 75
     0
 76
     0
 77
     0
 78
     0
  0
ENDTAB
  0
TABLE
  2
LTYPE
  5
5
330
0
100
AcDbSymbolTable
 70
     1
  0
LTYPE
  5
14
330
5
100
AcDbSymbolTableRecord
100
AcDbLinetypeTableRecord
  2
BYBLOCK
 70
     0
  3

 72
    65
 73
     0
 40
0.0
  0
LTYPE
  5
15
330
5
100
AcDbSymbolTableRecord
100
AcDbLinetypeTableRecord
  2
BYLAYER
 70
     0
  3

 72
    65
 73
     0
 40
0.0
  0
LTYPE
  5
16
330
5
100
AcDbSymbolTableRecord
100
AcDbLinetypeTableRecord
  2
CONTINUOUS
 70
     0
  3
Solid line
 72
    65
 73
     0
 40
0.0
  0
ENDTAB
  0
TABLE
  2
STYLE
  5
3
330
0
100
AcDbSymbolTable
 70
     1
  0
STYLE
  5
11
330
3
100
AcDbSymbolTableRecord
100
AcDbTextStyleTableRecord
  2
STANDARD
 70
     0
 40
0.0
 41
1.0
 50
0.0
 71
     0
 42
2.5
  3
txt
  4

  0
ENDTAB
  0
TABLE
  2
VIEW
  5
6
330
0
100
AcDbSymbolTable
 70
     0
  0
ENDTAB
  0
TABLE
  2
UCS
  5
7
330
0
100
AcDbSymbolTable
 70
     0
  0
ENDTAB
  0
TABLE
  2
APPID
  5
9
330
0
100
AcDbSymbolTable
 70
     2
  0
APPID
  5
12
330
9
100
AcDbSymbolTableRecord
100
AcDbRegAppTableRecord
  2
ACAD
 70
     0
  0
ENDTAB
  0
TABLE
  2
DIMSTYLE
  5
A
330
0
100
AcDbSymbolTable
 70
     1
  0
DIMSTYLE
105
27
330
A
100
AcDbSymbolTableRecord
100
AcDbDimStyleTableRecord
  2
ISO-25
 70
     0
  3

  4

  5

  6

  7

 40
1.0
 41
2.5
 42
0.625
 43
3.75
 44
1.25
 45
0.0
 46
0.0
 47
0.0
 48
0.0
140
2.5
141
2.5
142
0.0
143
0.03937007874016
144
1.0
145
0.0
146
1.0
147
0.625
 71
     0
 72
     0
 73
     0
 74
     0
 75
     0
 76
     0
 77
     1
 78
     8
170
     0
171
     3
172
     1
173
     0
174
     0
175
     0
176
     0
177
     0
178
     0
270
     2
271
     2
272
     2
273
     2
274
     3
340
11
275
     0
280
     0
281
     0
282
     0
283
     0
284
     8
285
     0
286
     0
287
     3
288
     0
  0
ENDTAB
  0
TABLE
  2
BLOCK_RECORD
  5
1
330
0
100
AcDbSymbolTable
 70
     1
  0
BLOCK_RECORD
  5
1F
330
1
100
AcDbSymbolTableRecord
100
AcDbBlockTableRecord
  2
*MODEL_SPACE
  0
BLOCK_RECORD
  5
1B
330
1
100
AcDbSymbolTableRecord
100
AcDbBlockTableRecord
  2
*PAPER_SPACE
  0
ENDTAB
0
TABLE
2
LAYER
5
2
330
0
100
AcDbSymbolTable
70
1
0
LAYER
5
10
330
2
100
AcDbSymbolTableRecord
100
AcDbLayerTableRecord
2
Layer 1
70
0
62
7
6
CONTINUOUS
0
ENDTAB
0
ENDSEC
  0
SECTION
  2
BLOCKS
  0
BLOCK
  5
20
330
1F
100
AcDbEntity
  8
0
100
AcDbBlockBegin
  2
*MODEL_SPACE
 70
     0
 10
0.0
 20
0.0
 30
0.0
  3
*MODEL_SPACE
  1

  0
ENDBLK
  5
21
330
1F
100
AcDbEntity
  8
0
100
AcDbBlockEnd
  0
BLOCK
  5
1C
330
1B
100
AcDbEntity
 67
     1
  8
0
100
AcDbBlockBegin
  2
*PAPER_SPACE
  1

  0
ENDBLK
  5
1D
330
1B
100
AcDbEntity
 67
     1
  8
0
100
AcDbBlockEnd
  0
ENDSEC
  0
SECTION
  2
ENTITIES
0
LINE
8
Layer 1
62
4
5
100
100
AcDbEntity
100
AcDbLine
10
65.213492
20
-109.765702
30
0.0
11
65.213492
21
-108.072369
31
0.0
0
LINE
8
Layer 1
62
4
5
101
100
AcDbEntity
100
AcDbLine
10
65.213492
20
-108.072369
30
0.0
11
71.704604
21
-108.072369
31
0.0
0
LINE
8
Layer 1
62
4
5
102
100
AcDbEntity
100
AcDbLine
10
71.704604
20
-108.072369
30
0.0
11
78.195715
21
-108.072369
31
0.0
0
LINE
8
Layer 1
62
4
5
103
100
AcDbEntity
100
AcDbLine
10
78.195715
20
-108.072369
30
0.0
11
78.195715
21
-109.765702
31
0.0
0
LINE
8
Layer 1
62
4
5
104
100
AcDbEntity
100
AcDbLine
10
78.195715
20
-109.765702
30
0.0
11
78.195715
21
-111.459035
31
0.0
0
LINE
8
Layer 1
62
4
5
105
100
AcDbEntity
100
AcDbLine
10
78.195715
20
-111.459035
30
0.0
11
71.704604
21
-111.459035
31
0.0
0
LINE
8
Layer 1
62
4
5
106
100
AcDbEntity
100
AcDbLine
10
71.704604
20
-111.459035
30
0.0
11
65.213492
21
-111.459035
31
0.0
0
LINE
8
Layer 1
62
4
5
107
100
AcDbEntity
100
AcDbLine
10
65.213492
20
-111.459035
30
0.0
11
65.213492
21
-109.765702
31
0.0
0
LINE
8
Layer 1
62
4
5
108
100
AcDbEntity
100
AcDbLine
10
65.213492
20
-109.765702
30
0.0
11
65.213492
21
-109.765702
31
0.0
0
LINE
8
Layer 1
62
4
5
109
100
AcDbEntity
100
AcDbLine
10
77.913492
20
-109.906813
30
0.0
11
77.913492
21
-108.636813
31
0.0
0
LINE
8
Layer 1
62
4
5
10a
100
AcDbEntity
100
AcDbLine
10
77.913492
20
-108.636813
30
0.0
11
71.704604
21
-108.636813
31
0.0
0
LINE
8
Layer 1
62
4
5
10b
100
AcDbEntity
100
AcDbLine
10
71.704604
20
-108.636813
30
0.0
11
65.495715
21
-108.636813
31
0.0
0
LINE
8
Layer 1
62
4
5
10c
100
AcDbEntity
100
AcDbLine
10
65.495715
20
-108.636813
30
0.0
11
65.495715
21
-109.906813
31
0.0
0
LINE
8
Layer 1
62
4
5
10d
100
AcDbEntity
100
AcDbLine
10
65.495715
20
-109.906813
30
0.0
11
65.495715
21
-111.176813
31
0.0
0
LINE
8
Layer 1
62
4
5
10e
100
AcDbEntity
100
AcDbLine
10
65.495715
20
-111.176813
30
0.0
11
71.704604
21
-111.176813
31
0.0
0
LINE
8
Layer 1
62
4
5
10f
100
AcDbEntity
100
AcDbLine
10
71.704604
20
-111.176813
30
0.0
11
77.913492
21
-111.176813
31
0.0
0
LINE
8
Layer 1
62
4
5
110
100
AcDbEntity
100
AcDbLine
10
77.913492
20
-111.176813
30
0.0
11
77.913492
21
-109.906813
31
0.0
0
LINE
8
Layer 1
62
4
5
111
100
AcDbEntity
100
AcDbLine
10
77.913492
20
-109.906813
30
0.0
11
77.913492
21
-109.906813
31
0.0
0
LINE
8
Layer 1
62
4
5
112
100
AcDbEntity
100
AcDbLine
10
107.038854
20
-109.836258
30
0.0
11
107.123492
21
-108.213480
31
0.0
0
LINE
8
Layer 1
62
4
5
113
100
AcDbEntity
100
AcDbLine
10
107.123492
20
-108.213480
30
0.0
11
113.614604
21
-108.213480
31
0.0
0
LINE
8
Layer 1
62
4
5
114
100
AcDbEntity
100
AcDbLine
10
113.614604
20
-108.213480
30
0.0
11
120.105715
21
-108.213480
31
0.0
0
LINE
8
Layer 1
62
4
5
115
100
AcDbEntity
100
AcDbLine
10
120.105715
20
-108.213480
30
0.0
11
120.190353
21
-109.836258
31
0.0
0
LINE
8
Layer 1
62
4
5
116
100
AcDbEntity
100
AcDbLine
10
120.190353
20
-109.836258
30
0.0
11
120.274994
21
-111.459035
31
0.0
0
LINE
8
Layer 1
62
4
5
117
100
AcDbEntity
100
AcDbLine
10
120.274994
20
-111.459035
30
0.0
11
113.614604
21
-111.459035
31
0.0
0
LINE
8
Layer 1
62
4
5
118
100
AcDbEntity
100
AcDbLine
10
113.614604
20
-111.459035
30
0.0
11
106.954213
21
-111.459035
31
0.0
0
LINE
8
Layer 1
62
4
5
119
100
AcDbEntity
100
AcDbLine
10
106.954213
20
-111.459035
30
0.0
11
107.038854
21
-109.836258
31
0.0
0
LINE
8
Layer 1
62
4
5
11a
100
AcDbEntity
100
AcDbLine
10
107.038854
20
-109.836258
30
0.0
11
107.038854
21
-109.836258
31
0.0
0
LINE
8
Layer 1
62
4
5
11b
100
AcDbEntity
100
AcDbLine
10
119.682381
20
-109.906813
30
0.0
11
119.682381
21
-108.636813
31
0.0
0
LINE
8
Layer 1
62
4
5
11c
100
AcDbEntity
100
AcDbLine
10
119.682381
20
-108.636813
30
0.0
11
113.614604
21
-108.636813
31
0.0
0
LINE
8
Layer 1
62
4
5
11d
100
AcDbEntity
100
AcDbLine
10
113.614604
20
-108.636813
30
0.0
11
107.546826
21
-108.636813
31
0.0
0
LINE
8
Layer 1
62
4
5
11e
100
AcDbEntity
100
AcDbLine
10
107.546826
20
-108.636813
30
0.0
11
107.546826
21
-109.906813
31
0.0
0
LINE
8
Layer 1
62
4
5
11f
100
AcDbEntity
100
AcDbLine
10
107.546826
20
-109.906813
30
0.0
11
107.546826
21
-111.176813
31
0.0
0
LINE
8
Layer 1
62
4
5
120
100
AcDbEntity
100
AcDbLine
10
107.546826
20
-111.176813
30
0.0
11
113.614604
21
-111.176813
31
0.0
0
LINE
8
Layer 1
62
4
5
121
100
AcDbEntity
100
AcDbLine
10
113.614604
20
-111.176813
30
0.0
11
119.682381
21
-111.176813
31
0.0
0
LINE
8
Layer 1
62
4
5
122
100
AcDbEntity
100
AcDbLine
10
119.682381
20
-111.176813
30
0.0
11
119.682381
21
-109.906813
31
0.0
0
LINE
8
Layer 1
62
4
5
123
100
AcDbEntity
100
AcDbLine
10
119.682381
20
-109.906813
30
0.0
11
119.682381
21
-109.906813
31
0.0
0
LINE
8
Layer 1
62
4
5
124
100
AcDbEntity
100
AcDbLine
10
94.846826
20
-105.477228
30
0.0
11
94.929729
21
-105.344562
31
0.0
0
LINE
8
Layer 1
62
4
5
125
100
AcDbEntity
100
AcDbLine
10
94.929729
20
-105.344562
30
0.0
11
95.129048
21
-105.391258
31
0.0
0
LINE
8
Layer 1
62
4
5
126
100
AcDbEntity
100
AcDbLine
10
95.129048
20
-105.391258
30
0.0
11
95.328367
21
-105.426649
31
0.0
0
LINE
8
Layer 1
62
4
5
127
100
AcDbEntity
100
AcDbLine
10
95.328367
20
-105.426649
30
0.0
11
95.411270
21
-105.266803
31
0.0
0
LINE
8
Layer 1
62
4
5
128
100
AcDbEntity
100
AcDbLine
10
95.411270
20
-105.266803
30
0.0
11
95.328367
21
-105.055720
31
0.0
0
LINE
8
Layer 1
62
4
5
129
100
AcDbEntity
100
AcDbLine
10
95.328367
20
-105.055720
30
0.0
11
95.129048
21
-104.967924
31
0.0
0
LINE
8
Layer 1
62
4
5
12a
100
AcDbEntity
100
AcDbLine
10
95.129048
20
-104.967924
30
0.0
11
94.929729
21
-104.843570
31
0.0
0
LINE
8
Layer 1
62
4
5
12b
100
AcDbEntity
100
AcDbLine
10
94.929729
20
-104.843570
30
0.0
11
94.846826
21
-104.544591
31
0.0
0
LINE
8
Layer 1
62
4
5
12c
100
AcDbEntity
100
AcDbLine
10
94.846826
20
-104.544591
30
0.0
11
94.991906
21
-104.246881
31
0.0
0
LINE
8
Layer 1
62
4
5
12d
100
AcDbEntity
100
AcDbLine
10
94.991906
20
-104.246881
30
0.0
11
95.340715
21
-104.125578
31
0.0
0
LINE
8
Layer 1
62
4
5
12e
100
AcDbEntity
100
AcDbLine
10
95.340715
20
-104.125578
30
0.0
11
95.649381
21
-104.179762
31
0.0
0
LINE
8
Layer 1
62
4
5
12f
100
AcDbEntity
100
AcDbLine
10
95.649381
20
-104.179762
30
0.0
11
95.458161
21
-104.368527
31
0.0
0
LINE
8
Layer 1
62
4
5
130
100
AcDbEntity
100
AcDbLine
10
95.458161
20
-104.368527
30
0.0
11
95.244821
21
-104.593862
31
0.0
0
LINE
8
Layer 1
62
4
5
131
100
AcDbEntity
100
AcDbLine
10
95.244821
20
-104.593862
30
0.0
11
95.528717
21
-104.778680
31
0.0
0
LINE
8
Layer 1
62
4
5
132
100
AcDbEntity
100
AcDbLine
10
95.528717
20
-104.778680
30
0.0
11
95.858266
21
-104.796235
31
0.0
0
LINE
8
Layer 1
62
4
5
133
100
AcDbEntity
100
AcDbLine
10
95.858266
20
-104.796235
30
0.0
11
95.975715
21
-104.535732
31
0.0
0
LINE
8
Layer 1
62
4
5
134
100
AcDbEntity
100
AcDbLine
10
95.975715
20
-104.535732
30
0.0
11
96.141520
21
-104.243010
31
0.0
0
LINE
8
Layer 1
62
4
5
135
100
AcDbEntity
100
AcDbLine
10
96.141520
20
-104.243010
30
0.0
11
96.540159
21
-104.121258
31
0.0
0
LINE
8
Layer 1
62
4
5
136
100
AcDbEntity
100
AcDbLine
10
96.540159
20
-104.121258
30
0.0
11
96.984771
21
-104.292836
31
0.0
0
LINE
8
Layer 1
62
4
5
137
100
AcDbEntity
100
AcDbLine
10
96.984771
20
-104.292836
30
0.0
11
97.104604
21
-104.929440
31
0.0
0
LINE
8
Layer 1
62
4
5
138
100
AcDbEntity
100
AcDbLine
10
97.104604
20
-104.929440
30
0.0
11
97.076465
21
-105.374120
31
0.0
0
LINE
8
Layer 1
62
4
5
139
100
AcDbEntity
100
AcDbLine
10
97.076465
20
-105.374120
30
0.0
11
96.935494
21
-105.616554
31
0.0
0
LINE
8
Layer 1
62
4
5
13a
100
AcDbEntity
100
AcDbLine
10
96.935494
20
-105.616554
30
0.0
11
95.975715
21
-105.737620
31
0.0
0
LINE
8
Layer 1
62
4
5
13b
100
AcDbEntity
100
AcDbLine
10
95.975715
20
-105.737620
30
0.0
11
95.178437
21
-105.661131
31
0.0
0
LINE
8
Layer 1
62
4
5
13c
100
AcDbEntity
100
AcDbLine
10
95.178437
20
-105.661131
30
0.0
11
94.846826
21
-105.477228
31
0.0
0
LINE
8
Layer 1
62
4
5
13d
100
AcDbEntity
100
AcDbLine
10
94.846826
20
-105.477228
30
0.0
11
94.846826
21
-105.477228
31
0.0
0
LINE
8
Layer 1
62
4
5
13e
100
AcDbEntity
100
AcDbLine
10
96.822381
20
-104.967924
30
0.0
11
96.739479
21
-104.569285
31
0.0
0
LINE
8
Layer 1
62
4
5
13f
100
AcDbEntity
100
AcDbLine
10
96.739479
20
-104.569285
30
0.0
11
96.540159
21
-104.403480
31
0.0
0
LINE
8
Layer 1
62
4
5
140
100
AcDbEntity
100
AcDbLine
10
96.540159
20
-104.403480
30
0.0
11
96.340840
21
-104.569285
31
0.0
0
LINE
8
Layer 1
62
4
5
141
100
AcDbEntity
100
AcDbLine
10
96.340840
20
-104.569285
30
0.0
11
96.257937
21
-104.967924
31
0.0
0
LINE
8
Layer 1
62
4
5
142
100
AcDbEntity
100
AcDbLine
10
96.257937
20
-104.967924
30
0.0
11
96.340840
21
-105.366563
31
0.0
0
LINE
8
Layer 1
62
4
5
143
100
AcDbEntity
100
AcDbLine
10
96.340840
20
-105.366563
30
0.0
11
96.540159
21
-105.532369
31
0.0
0
LINE
8
Layer 1
62
4
5
144
100
AcDbEntity
100
AcDbLine
10
96.540159
20
-105.532369
30
0.0
11
96.739479
21
-105.366563
31
0.0
0
LINE
8
Layer 1
62
4
5
145
100
AcDbEntity
100
AcDbLine
10
96.739479
20
-105.366563
30
0.0
11
96.822381
21
-104.967924
31
0.0
0
LINE
8
Layer 1
62
4
5
146
100
AcDbEntity
100
AcDbLine
10
96.822381
20
-104.967924
30
0.0
11
96.822381
21
-104.967924
31
0.0
0
LINE
8
Layer 1
62
4
5
147
100
AcDbEntity
100
AcDbLine
10
98.515715
20
-104.967924
30
0.0
11
98.625571
21
-104.314539
31
0.0
0
LINE
8
Layer 1
62
4
5
148
100
AcDbEntity
100
AcDbLine
10
98.625571
20
-104.314539
30
0.0
11
99.009604
21
-104.143539
31
0.0
0
LINE
8
Layer 1
62
4
5
149
100
AcDbEntity
100
AcDbLine
10
99.009604
20
-104.143539
30
0.0
11
99.269832
21
-104.198959
31
0.0
0
LINE
8
Layer 1
62
4
5
14a
100
AcDbEntity
100
AcDbLine
10
99.269832
20
-104.198959
30
0.0
11
99.150715
21
-104.308168
31
0.0
0
LINE
8
Layer 1
62
4
5
14b
100
AcDbEntity
100
AcDbLine
10
99.150715
20
-104.308168
30
0.0
11
98.901565
21
-104.560690
31
0.0
0
LINE
8
Layer 1
62
4
5
14c
100
AcDbEntity
100
AcDbLine
10
98.901565
20
-104.560690
30
0.0
11
98.797937
21
-104.967924
31
0.0
0
LINE
8
Layer 1
62
4
5
14d
100
AcDbEntity
100
AcDbLine
10
98.797937
20
-104.967924
30
0.0
11
98.901565
21
-105.375158
31
0.0
0
LINE
8
Layer 1
62
4
5
14e
100
AcDbEntity
100
AcDbLine
10
98.901565
20
-105.375158
30
0.0
11
99.150715
21
-105.627681
31
0.0
0
LINE
8
Layer 1
62
4
5
14f
100
AcDbEntity
100
AcDbLine
10
99.150715
20
-105.627681
30
0.0
11
99.269832
21
-105.736894
31
0.0
0
LINE
8
Layer 1
62
4
5
150
100
AcDbEntity
100
AcDbLine
10
99.269832
20
-105.736894
30
0.0
11
99.009604
21
-105.792310
31
0.0
0
LINE
8
Layer 1
62
4
5
151
100
AcDbEntity
100
AcDbLine
10
99.009604
20
-105.792310
30
0.0
11
98.625571
21
-105.621306
31
0.0
0
LINE
8
Layer 1
62
4
5
152
100
AcDbEntity
100
AcDbLine
10
98.625571
20
-105.621306
30
0.0
11
98.515715
21
-104.967924
31
0.0
0
LINE
8
Layer 1
62
4
5
153
100
AcDbEntity
100
AcDbLine
10
98.515715
20
-104.967924
30
0.0
11
98.515715
21
-104.967924
31
0.0
0
LINE
8
Layer 1
62
4
5
154
100
AcDbEntity
100
AcDbLine
10
99.785828
20
-105.109614
30
0.0
11
100.090876
21
-104.145354
31
0.0
0
LINE
8
Layer 1
62
4
5
155
100
AcDbEntity
100
AcDbLine
10
100.090876
20
-104.145354
30
0.0
11
100.229885
21
-104.088343
31
0.0
0
LINE
8
Layer 1
62
4
5
156
100
AcDbEntity
100
AcDbLine
10
100.229885
20
-104.088343
30
0.0
11
100.360650
21
-104.219713
31
0.0
0
LINE
8
Layer 1
62
4
5
157
100
AcDbEntity
100
AcDbLine
10
100.360650
20
-104.219713
30
0.0
11
100.632268
21
-105.109614
31
0.0
0
LINE
8
Layer 1
62
4
5
158
100
AcDbEntity
100
AcDbLine
10
100.632268
20
-105.109614
30
0.0
11
100.714253
21
-105.685023
31
0.0
0
LINE
8
Layer 1
62
4
5
159
100
AcDbEntity
100
AcDbLine
10
100.714253
20
-105.685023
30
0.0
11
100.514096
21
-105.532369
31
0.0
0
LINE
8
Layer 1
62
4
5
15a
100
AcDbEntity
100
AcDbLine
10
100.514096
20
-105.532369
30
0.0
11
100.209048
21
-105.250147
31
0.0
0
LINE
8
Layer 1
62
4
5
15b
100
AcDbEntity
100
AcDbLine
10
100.209048
20
-105.250147
30
0.0
11
99.904000
21
-105.532369
31
0.0
0
LINE
8
Layer 1
62
4
5
15c
100
AcDbEntity
100
AcDbLine
10
99.904000
20
-105.532369
30
0.0
11
99.703843
21
-105.685023
31
0.0
0
LINE
8
Layer 1
62
4
5
15d
100
AcDbEntity
100
AcDbLine
10
99.703843
20
-105.685023
30
0.0
11
99.785828
21
-105.109614
31
0.0
0
LINE
8
Layer 1
62
4
5
15e
100
AcDbEntity
100
AcDbLine
10
99.785828
20
-105.109614
30
0.0
11
99.785828
21
-105.109614
31
0.0
0
LINE
8
Layer 1
62
4
5
15f
100
AcDbEntity
100
AcDbLine
10
101.077996
20
-105.038480
30
0.0
11
101.088544
21
-104.521527
31
0.0
0
LINE
8
Layer 1
62
4
5
160
100
AcDbEntity
100
AcDbLine
10
101.088544
20
-104.521527
30
0.0
11
101.214470
21
-104.247747
31
0.0
0
LINE
8
Layer 1
62
4
5
161
100
AcDbEntity
100
AcDbLine
10
101.214470
20
-104.247747
30
0.0
11
102.184604
21
-104.121258
31
0.0
0
LINE
8
Layer 1
62
4
5
162
100
AcDbEntity
100
AcDbLine
10
102.184604
20
-104.121258
30
0.0
11
103.149924
21
-104.245334
31
0.0
0
LINE
8
Layer 1
62
4
5
163
100
AcDbEntity
100
AcDbLine
10
103.149924
20
-104.245334
30
0.0
11
103.287432
21
-104.501684
31
0.0
0
LINE
8
Layer 1
62
4
5
164
100
AcDbEntity
100
AcDbLine
10
103.287432
20
-104.501684
30
0.0
11
103.313492
21
-104.977579
31
0.0
0
LINE
8
Layer 1
62
4
5
165
100
AcDbEntity
100
AcDbLine
10
103.313492
20
-104.977579
30
0.0
11
103.197815
21
-105.661991
31
0.0
0
LINE
8
Layer 1
62
4
5
166
100
AcDbEntity
100
AcDbLine
10
103.197815
20
-105.661991
30
0.0
11
102.678492
21
-105.746544
31
0.0
0
LINE
8
Layer 1
62
4
5
167
100
AcDbEntity
100
AcDbLine
10
102.678492
20
-105.746544
30
0.0
11
101.714819
21
-105.452909
31
0.0
0
LINE
8
Layer 1
62
4
5
168
100
AcDbEntity
100
AcDbLine
10
101.714819
20
-105.452909
30
0.0
11
101.440707
21
-105.411369
31
0.0
0
LINE
8
Layer 1
62
4
5
169
100
AcDbEntity
100
AcDbLine
10
101.440707
20
-105.411369
30
0.0
11
101.243212
21
-105.601166
31
0.0
0
LINE
8
Layer 1
62
4
5
16a
100
AcDbEntity
100
AcDbLine
10
101.243212
20
-105.601166
30
0.0
11
101.185954
21
-105.666452
31
0.0
0
LINE
8
Layer 1
62
4
5
16b
100
AcDbEntity
100
AcDbLine
10
101.185954
20
-105.666452
30
0.0
11
101.135718
21
-105.582123
31
0.0
0
LINE
8
Layer 1
62
4
5
16c
100
AcDbEntity
100
AcDbLine
10
101.135718
20
-105.582123
30
0.0
11
101.077996
21
-105.038480
31
0.0
0
LINE
8
Layer 1
62
4
5
16d
100
AcDbEntity
100
AcDbLine
10
101.077996
20
-105.038480
30
0.0
11
101.077996
21
-105.038480
31
0.0
0
LINE
8
Layer 1
62
4
5
16e
100
AcDbEntity
100
AcDbLine
10
102.935958
20
-104.615147
30
0.0
11
102.835424
21
-104.573254
31
0.0
0
LINE
8
Layer 1
62
4
5
16f
100
AcDbEntity
100
AcDbLine
10
102.835424
20
-104.573254
30
0.0
11
102.793608
21
-104.967924
31
0.0
0
LINE
8
Layer 1
62
4
5
170
100
AcDbEntity
100
AcDbLine
10
102.793608
20
-104.967924
30
0.0
11
102.835424
21
-105.362594
31
0.0
0
LINE
8
Layer 1
62
4
5
171
100
AcDbEntity
100
AcDbLine
10
102.835424
20
-105.362594
30
0.0
11
102.935958
21
-105.320702
31
0.0
0
LINE
8
Layer 1
62
4
5
172
100
AcDbEntity
100
AcDbLine
10
102.935958
20
-105.320702
30
0.0
11
102.935958
21
-104.615147
31
0.0
0
LINE
8
Layer 1
62
4
5
173
100
AcDbEntity
100
AcDbLine
10
102.935958
20
-104.615147
30
0.0
11
102.935958
21
-104.615147
31
0.0
0
LINE
8
Layer 1
62
4
5
174
100
AcDbEntity
100
AcDbLine
10
61.108440
20
-104.557421
30
0.0
11
60.585869
21
-103.851358
31
0.0
0
LINE
8
Layer 1
62
4
5
175
100
AcDbEntity
100
AcDbLine
10
60.585869
20
-103.851358
30
0.0
11
60.573838
21
-103.199336
31
0.0
0
LINE
8
Layer 1
62
4
5
176
100
AcDbEntity
100
AcDbLine
10
60.573838
20
-103.199336
30
0.0
11
60.825211
21
-102.569894
31
0.0
0
LINE
8
Layer 1
62
4
5
177
100
AcDbEntity
100
AcDbLine
10
60.825211
20
-102.569894
30
0.0
11
61.144068
21
-102.157440
31
0.0
0
LINE
8
Layer 1
62
4
5
178
100
AcDbEntity
100
AcDbLine
10
61.144068
20
-102.157440
30
0.0
11
61.565212
21
-101.931969
31
0.0
0
LINE
8
Layer 1
62
4
5
179
100
AcDbEntity
100
AcDbLine
10
61.565212
20
-101.931969
30
0.0
11
62.123447
21
-101.863480
31
0.0
0
LINE
8
Layer 1
62
4
5
17a
100
AcDbEntity
100
AcDbLine
10
62.123447
20
-101.863480
30
0.0
11
62.798471
21
-101.978618
31
0.0
0
LINE
8
Layer 1
62
4
5
17b
100
AcDbEntity
100
AcDbLine
10
62.798471
20
-101.978618
30
0.0
11
63.304629
21
-102.287121
31
0.0
0
LINE
8
Layer 1
62
4
5
17c
100
AcDbEntity
100
AcDbLine
10
63.304629
20
-102.287121
30
0.0
11
63.636049
21
-102.733617
31
0.0
0
LINE
8
Layer 1
62
4
5
17d
100
AcDbEntity
100
AcDbLine
10
63.636049
20
-102.733617
30
0.0
11
63.786858
21
-103.262738
31
0.0
0
LINE
8
Layer 1
62
4
5
17e
100
AcDbEntity
100
AcDbLine
10
63.786858
20
-103.262738
30
0.0
11
63.751183
21
-103.819113
31
0.0
0
LINE
8
Layer 1
62
4
5
17f
100
AcDbEntity
100
AcDbLine
10
63.751183
20
-103.819113
30
0.0
11
63.523151
21
-104.347372
31
0.0
0
LINE
8
Layer 1
62
4
5
180
100
AcDbEntity
100
AcDbLine
10
63.523151
20
-104.347372
30
0.0
11
63.096889
21
-104.792147
31
0.0
0
LINE
8
Layer 1
62
4
5
181
100
AcDbEntity
100
AcDbLine
10
63.096889
20
-104.792147
30
0.0
11
62.466525
21
-105.098065
31
0.0
0
LINE
8
Layer 1
62
4
5
182
100
AcDbEntity
100
AcDbLine
10
62.466525
20
-105.098065
30
0.0
11
61.814272
21
-105.079171
31
0.0
0
LINE
8
Layer 1
62
4
5
183
100
AcDbEntity
100
AcDbLine
10
61.814272
20
-105.079171
30
0.0
11
61.108440
21
-104.557421
31
0.0
0
LINE
8
Layer 1
62
4
5
184
100
AcDbEntity
100
AcDbLine
10
61.108440
20
-104.557421
30
0.0
11
61.108440
21
-104.557421
31
0.0
0
LINE
8
Layer 1
62
4
5
185
100
AcDbEntity
100
AcDbLine
10
63.234895
20
-104.266035
30
0.0
11
63.453776
21
-103.844836
31
0.0
0
LINE
8
Layer 1
62
4
5
186
100
AcDbEntity
100
AcDbLine
10
63.453776
20
-103.844836
30
0.0
11
63.471310
21
-103.405170
31
0.0
0
LINE
8
Layer 1
62
4
5
187
100
AcDbEntity
100
AcDbLine
10
63.471310
20
-103.405170
30
0.0
11
63.048880
21
-102.616981
31
0.0
0
LINE
8
Layer 1
62
4
5
188
100
AcDbEntity
100
AcDbLine
10
63.048880
20
-102.616981
30
0.0
11
62.260691
21
-102.194551
31
0.0
0
LINE
8
Layer 1
62
4
5
189
100
AcDbEntity
100
AcDbLine
10
62.260691
20
-102.194551
30
0.0
11
61.821025
21
-102.212086
31
0.0
0
LINE
8
Layer 1
62
4
5
18a
100
AcDbEntity
100
AcDbLine
10
61.821025
20
-102.212086
30
0.0
11
61.399826
21
-102.430967
31
0.0
0
LINE
8
Layer 1
62
4
5
18b
100
AcDbEntity
100
AcDbLine
10
61.399826
20
-102.430967
30
0.0
11
61.108176
21
-102.841501
31
0.0
0
LINE
8
Layer 1
62
4
5
18c
100
AcDbEntity
100
AcDbLine
10
61.108176
20
-102.841501
30
0.0
11
60.994367
21
-103.370836
31
0.0
0
LINE
8
Layer 1
62
4
5
18d
100
AcDbEntity
100
AcDbLine
10
60.994367
20
-103.370836
30
0.0
11
61.063038
21
-103.909253
31
0.0
0
LINE
8
Layer 1
62
4
5
18e
100
AcDbEntity
100
AcDbLine
10
61.063038
20
-103.909253
30
0.0
11
61.318826
21
-104.347035
31
0.0
0
LINE
8
Layer 1
62
4
5
18f
100
AcDbEntity
100
AcDbLine
10
61.318826
20
-104.347035
30
0.0
11
61.756608
21
-104.602823
31
0.0
0
LINE
8
Layer 1
62
4
5
190
100
AcDbEntity
100
AcDbLine
10
61.756608
20
-104.602823
30
0.0
11
62.295025
21
-104.671494
31
0.0
0
LINE
8
Layer 1
62
4
5
191
100
AcDbEntity
100
AcDbLine
10
62.295025
20
-104.671494
30
0.0
11
62.824360
21
-104.557685
31
0.0
0
LINE
8
Layer 1
62
4
5
192
100
AcDbEntity
100
AcDbLine
10
62.824360
20
-104.557685
30
0.0
11
63.234895
21
-104.266035
31
0.0
0
LINE
8
Layer 1
62
4
5
193
100
AcDbEntity
100
AcDbLine
10
63.234895
20
-104.266035
30
0.0
11
63.234895
21
-104.266035
31
0.0
0
LINE
8
Layer 1
62
4
5
194
100
AcDbEntity
100
AcDbLine
10
122.068443
20
-104.557421
30
0.0
11
121.545870
21
-103.851358
31
0.0
0
LINE
8
Layer 1
62
4
5
195
100
AcDbEntity
100
AcDbLine
10
121.545870
20
-103.851358
30
0.0
11
121.533841
21
-103.199336
31
0.0
0
LINE
8
Layer 1
62
4
5
196
100
AcDbEntity
100
AcDbLine
10
121.533841
20
-103.199336
30
0.0
11
121.785214
21
-102.569894
31
0.0
0
LINE
8
Layer 1
62
4
5
197
100
AcDbEntity
100
AcDbLine
10
121.785214
20
-102.569894
30
0.0
11
122.104069
21
-102.157440
31
0.0
0
LINE
8
Layer 1
62
4
5
198
100
AcDbEntity
100
AcDbLine
10
122.104069
20
-102.157440
30
0.0
11
122.525212
21
-101.931969
31
0.0
0
LINE
8
Layer 1
62
4
5
199
100
AcDbEntity
100
AcDbLine
10
122.525212
20
-101.931969
30
0.0
11
123.083447
21
-101.863480
31
0.0
0
LINE
8
Layer 1
62
4
5
19a
100
AcDbEntity
100
AcDbLine
10
123.083447
20
-101.863480
30
0.0
11
123.758471
21
-101.978618
31
0.0
0
LINE
8
Layer 1
62
4
5
19b
100
AcDbEntity
100
AcDbLine
10
123.758471
20
-101.978618
30
0.0
11
124.264629
21
-102.287121
31
0.0
0
LINE
8
Layer 1
62
4
5
19c
100
AcDbEntity
100
AcDbLine
10
124.264629
20
-102.287121
30
0.0
11
124.596049
21
-102.733617
31
0.0
0
LINE
8
Layer 1
62
4
5
19d
100
AcDbEntity
100
AcDbLine
10
124.596049
20
-102.733617
30
0.0
11
124.746858
21
-103.262738
31
0.0
0
LINE
8
Layer 1
62
4
5
19e
100
AcDbEntity
100
AcDbLine
10
124.746858
20
-103.262738
30
0.0
11
124.711183
21
-103.819113
31
0.0
0
LINE
8
Layer 1
62
4
5
19f
100
AcDbEntity
100
AcDbLine
10
124.711183
20
-103.819113
30
0.0
11
124.483151
21
-104.347372
31
0.0
0
LINE
8
Layer 1
62
4
5
1a0
100
AcDbEntity
100
AcDbLine
10
124.483151
20
-104.347372
30
0.0
11
124.056889
21
-104.792147
31
0.0
0
LINE
8
Layer 1
62
4
5
1a1
100
AcDbEntity
100
AcDbLine
10
124.056889
20
-104.792147
30
0.0
11
123.426525
21
-105.098065
31
0.0
0
LINE
8
Layer 1
62
4
5
1a2
100
AcDbEntity
100
AcDbLine
10
123.426525
20
-105.098065
30
0.0
11
122.774273
21
-105.079171
31
0.0
0
LINE
8
Layer 1
62
4
5
1a3
100
AcDbEntity
100
AcDbLine
10
122.774273
20
-105.079171
30
0.0
11
122.068443
21
-104.557421
31
0.0
0
LINE
8
Layer 1
62
4
5
1a4
100
AcDbEntity
100
AcDbLine
10
122.068443
20
-104.557421
30
0.0
11
122.068443
21
-104.557421
31
0.0
0
LINE
8
Layer 1
62
4
5
1a5
100
AcDbEntity
100
AcDbLine
10
124.194895
20
-104.266035
30
0.0
11
124.413776
21
-103.844836
31
0.0
0
LINE
8
Layer 1
62
4
5
1a6
100
AcDbEntity
100
AcDbLine
10
124.413776
20
-103.844836
30
0.0
11
124.431310
21
-103.405170
31
0.0
0
LINE
8
Layer 1
62
4
5
1a7
100
AcDbEntity
100
AcDbLine
10
124.431310
20
-103.405170
30
0.0
11
124.008880
21
-102.616981
31
0.0
0
LINE
8
Layer 1
62
4
5
1a8
100
AcDbEntity
100
AcDbLine
10
124.008880
20
-102.616981
30
0.0
11
123.220691
21
-102.194551
31
0.0
0
LINE
8
Layer 1
62
4
5
1a9
100
AcDbEntity
100
AcDbLine
10
123.220691
20
-102.194551
30
0.0
11
122.781025
21
-102.212086
31
0.0
0
LINE
8
Layer 1
62
4
5
1aa
100
AcDbEntity
100
AcDbLine
10
122.781025
20
-102.212086
30
0.0
11
122.359826
21
-102.430967
31
0.0
0
LINE
8
Layer 1
62
4
5
1ab
100
AcDbEntity
100
AcDbLine
10
122.359826
20
-102.430967
30
0.0
11
122.068176
21
-102.841501
31
0.0
0
LINE
8
Layer 1
62
4
5
1ac
100
AcDbEntity
100
AcDbLine
10
122.068176
20
-102.841501
30
0.0
11
121.954367
21
-103.370836
31
0.0
0
LINE
8
Layer 1
62
4
5
1ad
100
AcDbEntity
100
AcDbLine
10
121.954367
20
-103.370836
30
0.0
11
122.023038
21
-103.909253
31
0.0
0
LINE
8
Layer 1
62
4
5
1ae
100
AcDbEntity
100
AcDbLine
10
122.023038
20
-103.909253
30
0.0
11
122.278826
21
-104.347035
31
0.0
0
LINE
8
Layer 1
62
4
5
1af
100
AcDbEntity
100
AcDbLine
10
122.278826
20
-104.347035
30
0.0
11
122.716608
21
-104.602823
31
0.0
0
LINE
8
Layer 1
62
4
5
1b0
100
AcDbEntity
100
AcDbLine
10
122.716608
20
-104.602823
30
0.0
11
123.255025
21
-104.671494
31
0.0
0
LINE
8
Layer 1
62
4
5
1b1
100
AcDbEntity
100
AcDbLine
10
123.255025
20
-104.671494
30
0.0
11
123.784360
21
-104.557685
31
0.0
0
LINE
8
Layer 1
62
4
5
1b2
100
AcDbEntity
100
AcDbLine
10
123.784360
20
-104.557685
30
0.0
11
124.194895
21
-104.266035
31
0.0
0
LINE
8
Layer 1
62
4
5
1b3
100
AcDbEntity
100
AcDbLine
10
124.194895
20
-104.266035
30
0.0
11
124.194895
21
-104.266035
31
0.0
0
LINE
8
Layer 1
62
4
5
1b4
100
AcDbEntity
100
AcDbLine
10
77.254975
20
-103.086442
30
0.0
11
77.101824
21
-102.771842
31
0.0
0
LINE
8
Layer 1
62
4
5
1b5
100
AcDbEntity
100
AcDbLine
10
77.101824
20
-102.771842
30
0.0
11
77.073989
21
-102.365173
31
0.0
0
LINE
8
Layer 1
62
4
5
1b6
100
AcDbEntity
100
AcDbLine
10
77.073989
20
-102.365173
30
0.0
11
77.160165
21
-102.013397
31
0.0
0
LINE
8
Layer 1
62
4
5
1b7
100
AcDbEntity
100
AcDbLine
10
77.160165
20
-102.013397
30
0.0
11
77.349048
21
-101.863480
31
0.0
0
LINE
8
Layer 1
62
4
5
1b8
100
AcDbEntity
100
AcDbLine
10
77.349048
20
-101.863480
30
0.0
11
77.558176
21
-102.050011
31
0.0
0
LINE
8
Layer 1
62
4
5
1b9
100
AcDbEntity
100
AcDbLine
10
77.558176
20
-102.050011
30
0.0
11
77.664663
21
-102.498480
31
0.0
0
LINE
8
Layer 1
62
4
5
1ba
100
AcDbEntity
100
AcDbLine
10
77.664663
20
-102.498480
30
0.0
11
77.733879
21
-102.841853
31
0.0
0
LINE
8
Layer 1
62
4
5
1bb
100
AcDbEntity
100
AcDbLine
10
77.733879
20
-102.841853
30
0.0
11
77.913492
21
-102.286813
31
0.0
0
LINE
8
Layer 1
62
4
5
1bc
100
AcDbEntity
100
AcDbLine
10
77.913492
20
-102.286813
30
0.0
11
78.128932
21
-101.440147
31
0.0
0
LINE
8
Layer 1
62
4
5
1bd
100
AcDbEntity
100
AcDbLine
10
78.128932
20
-101.440147
30
0.0
11
78.162322
21
-102.357369
31
0.0
0
LINE
8
Layer 1
62
4
5
1be
100
AcDbEntity
100
AcDbLine
10
78.162322
20
-102.357369
30
0.0
11
78.103375
21
-102.906265
31
0.0
0
LINE
8
Layer 1
62
4
5
1bf
100
AcDbEntity
100
AcDbLine
10
78.103375
20
-102.906265
30
0.0
11
77.905865
21
-103.232147
31
0.0
0
LINE
8
Layer 1
62
4
5
1c0
100
AcDbEntity
100
AcDbLine
10
77.905865
20
-103.232147
30
0.0
11
77.609746
21
-103.302908
31
0.0
0
LINE
8
Layer 1
62
4
5
1c1
100
AcDbEntity
100
AcDbLine
10
77.609746
20
-103.302908
30
0.0
11
77.254975
21
-103.086442
31
0.0
0
LINE
8
Layer 1
62
4
5
1c2
100
AcDbEntity
100
AcDbLine
10
77.254975
20
-103.086442
30
0.0
11
77.254975
21
-103.086442
31
0.0
0
LINE
8
Layer 1
62
4
5
1c3
100
AcDbEntity
100
AcDbLine
10
78.851009
20
-103.076141
30
0.0
11
79.224082
21
-102.909306
31
0.0
0
LINE
8
Layer 1
62
4
5
1c4
100
AcDbEntity
100
AcDbLine
10
79.224082
20
-102.909306
30
0.0
11
78.851009
21
-102.563433
31
0.0
0
LINE
8
Layer 1
62
4
5
1c5
100
AcDbEntity
100
AcDbLine
10
78.851009
20
-102.563433
30
0.0
11
78.509787
21
-102.188105
31
0.0
0
LINE
8
Layer 1
62
4
5
1c6
100
AcDbEntity
100
AcDbLine
10
78.509787
20
-102.188105
30
0.0
11
78.689604
21
-101.826037
31
0.0
0
LINE
8
Layer 1
62
4
5
1c7
100
AcDbEntity
100
AcDbLine
10
78.689604
20
-101.826037
30
0.0
11
79.042381
21
-101.609940
31
0.0
0
LINE
8
Layer 1
62
4
5
1c8
100
AcDbEntity
100
AcDbLine
10
79.042381
20
-101.609940
30
0.0
11
79.395159
21
-101.823780
31
0.0
0
LINE
8
Layer 1
62
4
5
1c9
100
AcDbEntity
100
AcDbLine
10
79.395159
20
-101.823780
30
0.0
11
79.565284
21
-102.067435
31
0.0
0
LINE
8
Layer 1
62
4
5
1ca
100
AcDbEntity
100
AcDbLine
10
79.565284
20
-102.067435
30
0.0
11
79.183492
21
-101.973479
31
0.0
0
LINE
8
Layer 1
62
4
5
1cb
100
AcDbEntity
100
AcDbLine
10
79.183492
20
-101.973479
30
0.0
11
78.766789
21
-101.875234
31
0.0
0
LINE
8
Layer 1
62
4
5
1cc
100
AcDbEntity
100
AcDbLine
10
78.766789
20
-101.875234
30
0.0
11
79.112937
21
-102.331760
31
0.0
0
LINE
8
Layer 1
62
4
5
1cd
100
AcDbEntity
100
AcDbLine
10
79.112937
20
-102.331760
30
0.0
11
79.574226
21
-103.081749
31
0.0
0
LINE
8
Layer 1
62
4
5
1ce
100
AcDbEntity
100
AcDbLine
10
79.574226
20
-103.081749
30
0.0
11
79.408188
21
-103.221348
31
0.0
0
LINE
8
Layer 1
62
4
5
1cf
100
AcDbEntity
100
AcDbLine
10
79.408188
20
-103.221348
30
0.0
11
78.971826
21
-103.241876
31
0.0
0
LINE
8
Layer 1
62
4
5
1d0
100
AcDbEntity
100
AcDbLine
10
78.971826
20
-103.241876
30
0.0
11
78.566227
21
-103.189130
31
0.0
0
LINE
8
Layer 1
62
4
5
1d1
100
AcDbEntity
100
AcDbLine
10
78.566227
20
-103.189130
30
0.0
11
78.851009
21
-103.076163
31
0.0
0
LINE
8
Layer 1
62
4
5
1d2
100
AcDbEntity
100
AcDbLine
10
78.851009
20
-103.076163
30
0.0
11
78.851009
21
-103.076141
31
0.0
0
LINE
8
Layer 1
62
4
5
1d3
100
AcDbEntity
100
AcDbLine
10
79.889048
20
-102.448620
30
0.0
11
79.994040
21
-101.796376
31
0.0
0
LINE
8
Layer 1
62
4
5
1d4
100
AcDbEntity
100
AcDbLine
10
79.994040
20
-101.796376
30
0.0
11
80.312381
21
-101.581260
31
0.0
0
LINE
8
Layer 1
62
4
5
1d5
100
AcDbEntity
100
AcDbLine
10
80.312381
20
-101.581260
30
0.0
11
80.612242
21
-101.745890
31
0.0
0
LINE
8
Layer 1
62
4
5
1d6
100
AcDbEntity
100
AcDbLine
10
80.612242
20
-101.745890
30
0.0
11
80.735715
21
-102.145705
31
0.0
0
LINE
8
Layer 1
62
4
5
1d7
100
AcDbEntity
100
AcDbLine
10
80.735715
20
-102.145705
30
0.0
11
80.750616
21
-102.921816
31
0.0
0
LINE
8
Layer 1
62
4
5
1d8
100
AcDbEntity
100
AcDbLine
10
80.750616
20
-102.921816
30
0.0
11
80.327283
21
-103.224731
31
0.0
0
LINE
8
Layer 1
62
4
5
1d9
100
AcDbEntity
100
AcDbLine
10
80.327283
20
-103.224731
30
0.0
11
79.987824
21
-103.099906
31
0.0
0
LINE
8
Layer 1
62
4
5
1da
100
AcDbEntity
100
AcDbLine
10
79.987824
20
-103.099906
30
0.0
11
79.889042
21
-102.448620
31
0.0
0
LINE
8
Layer 1
62
4
5
1db
100
AcDbEntity
100
AcDbLine
10
79.889042
20
-102.448620
30
0.0
11
79.889048
21
-102.448620
31
0.0
0
LINE
8
Layer 1
62
4
5
1dc
100
AcDbEntity
100
AcDbLine
10
82.183884
20
-102.427933
30
0.0
11
82.222489
21
-101.748895
31
0.0
0
LINE
8
Layer 1
62
4
5
1dd
100
AcDbEntity
100
AcDbLine
10
82.222489
20
-101.748895
30
0.0
11
82.433369
21
-101.863488
31
0.0
0
LINE
8
Layer 1
62
4
5
1de
100
AcDbEntity
100
AcDbLine
10
82.433369
20
-101.863488
30
0.0
11
82.711270
21
-102.145710
31
0.0
0
LINE
8
Layer 1
62
4
5
1df
100
AcDbEntity
100
AcDbLine
10
82.711270
20
-102.145710
30
0.0
11
82.989172
21
-101.863488
31
0.0
0
LINE
8
Layer 1
62
4
5
1e0
100
AcDbEntity
100
AcDbLine
10
82.989172
20
-101.863488
30
0.0
11
83.200052
21
-101.748895
31
0.0
0
LINE
8
Layer 1
62
4
5
1e1
100
AcDbEntity
100
AcDbLine
10
83.200052
20
-101.748895
30
0.0
11
83.238656
21
-102.427933
31
0.0
0
LINE
8
Layer 1
62
4
5
1e2
100
AcDbEntity
100
AcDbLine
10
83.238656
20
-102.427933
30
0.0
11
83.180670
21
-102.980471
31
0.0
0
LINE
8
Layer 1
62
4
5
1e3
100
AcDbEntity
100
AcDbLine
10
83.180670
20
-102.980471
30
0.0
11
83.081170
21
-102.921822
31
0.0
0
LINE
8
Layer 1
62
4
5
1e4
100
AcDbEntity
100
AcDbLine
10
83.081170
20
-102.921822
30
0.0
11
82.919273
21
-102.573013
31
0.0
0
LINE
8
Layer 1
62
4
5
1e5
100
AcDbEntity
100
AcDbLine
10
82.919273
20
-102.573013
30
0.0
11
82.711270
21
-102.427933
31
0.0
0
LINE
8
Layer 1
62
4
5
1e6
100
AcDbEntity
100
AcDbLine
10
82.711270
20
-102.427933
30
0.0
11
82.503268
21
-102.573013
31
0.0
0
LINE
8
Layer 1
62
4
5
1e7
100
AcDbEntity
100
AcDbLine
10
82.503268
20
-102.573013
30
0.0
11
82.341370
21
-102.921822
31
0.0
0
LINE
8
Layer 1
62
4
5
1e8
100
AcDbEntity
100
AcDbLine
10
82.341370
20
-102.921822
30
0.0
11
82.241868
21
-102.980471
31
0.0
0
LINE
8
Layer 1
62
4
5
1e9
100
AcDbEntity
100
AcDbLine
10
82.241868
20
-102.980471
30
0.0
11
82.183884
21
-102.427933
31
0.0
0
LINE
8
Layer 1
62
4
5
1ea
100
AcDbEntity
100
AcDbLine
10
82.183884
20
-102.427933
30
0.0
11
82.183884
21
-102.427933
31
0.0
0
LINE
8
Layer 1
62
4
5
1eb
100
AcDbEntity
100
AcDbLine
10
83.557937
20
-102.394664
30
0.0
11
83.665213
21
-101.787388
31
0.0
0
LINE
8
Layer 1
62
4
5
1ec
100
AcDbEntity
100
AcDbLine
10
83.665213
20
-101.787388
30
0.0
11
83.981270
21
-101.581266
31
0.0
0
LINE
8
Layer 1
62
4
5
1ed
100
AcDbEntity
100
AcDbLine
10
83.981270
20
-101.581266
30
0.0
11
84.280249
21
-101.680749
31
0.0
0
LINE
8
Layer 1
62
4
5
1ee
100
AcDbEntity
100
AcDbLine
10
84.280249
20
-101.680749
30
0.0
11
84.404604
21
-101.919933
31
0.0
0
LINE
8
Layer 1
62
4
5
1ef
100
AcDbEntity
100
AcDbLine
10
84.404604
20
-101.919933
30
0.0
11
84.475159
21
-102.117488
31
0.0
0
LINE
8
Layer 1
62
4
5
1f0
100
AcDbEntity
100
AcDbLine
10
84.475159
20
-102.117488
30
0.0
11
84.743270
21
-101.919933
31
0.0
0
LINE
8
Layer 1
62
4
5
1f1
100
AcDbEntity
100
AcDbLine
10
84.743270
20
-101.919933
30
0.0
11
85.432014
21
-101.591526
31
0.0
0
LINE
8
Layer 1
62
4
5
1f2
100
AcDbEntity
100
AcDbLine
10
85.432014
20
-101.591526
30
0.0
11
85.705341
21
-101.646499
31
0.0
0
LINE
8
Layer 1
62
4
5
1f3
100
AcDbEntity
100
AcDbLine
10
85.705341
20
-101.646499
30
0.0
11
85.815715
21
-101.854629
31
0.0
0
LINE
8
Layer 1
62
4
5
1f4
100
AcDbEntity
100
AcDbLine
10
85.815715
20
-101.854629
30
0.0
11
85.670635
21
-102.002077
31
0.0
0
LINE
8
Layer 1
62
4
5
1f5
100
AcDbEntity
100
AcDbLine
10
85.670635
20
-102.002077
30
0.0
11
85.321826
21
-101.972703
31
0.0
0
LINE
8
Layer 1
62
4
5
1f6
100
AcDbEntity
100
AcDbLine
10
85.321826
20
-101.972703
30
0.0
11
84.969047
21
-101.897727
31
0.0
0
LINE
8
Layer 1
62
4
5
1f7
100
AcDbEntity
100
AcDbLine
10
84.969047
20
-101.897727
30
0.0
11
85.321826
21
-102.224340
31
0.0
0
LINE
8
Layer 1
62
4
5
1f8
100
AcDbEntity
100
AcDbLine
10
85.321826
20
-102.224340
30
0.0
11
85.730507
21
-102.661173
31
0.0
0
LINE
8
Layer 1
62
4
5
1f9
100
AcDbEntity
100
AcDbLine
10
85.730507
20
-102.661173
30
0.0
11
85.758148
21
-102.977667
31
0.0
0
LINE
8
Layer 1
62
4
5
1fa
100
AcDbEntity
100
AcDbLine
10
85.758148
20
-102.977667
30
0.0
11
85.408878
21
-103.167323
31
0.0
0
LINE
8
Layer 1
62
4
5
1fb
100
AcDbEntity
100
AcDbLine
10
85.408878
20
-103.167323
30
0.0
11
84.686826
21
-103.223641
31
0.0
0
LINE
8
Layer 1
62
4
5
1fc
100
AcDbEntity
100
AcDbLine
10
84.686826
20
-103.223641
30
0.0
11
83.727766
21
-103.088034
31
0.0
0
LINE
8
Layer 1
62
4
5
1fd
100
AcDbEntity
100
AcDbLine
10
83.727766
20
-103.088034
30
0.0
11
83.586345
21
-102.842021
31
0.0
0
LINE
8
Layer 1
62
4
5
1fe
100
AcDbEntity
100
AcDbLine
10
83.586345
20
-102.842021
30
0.0
11
83.557937
21
-102.394664
31
0.0
0
LINE
8
Layer 1
62
4
5
1ff
100
AcDbEntity
100
AcDbLine
10
83.557937
20
-102.394664
30
0.0
11
83.557937
21
-102.394664
31
0.0
0
LINE
8
Layer 1
62
4
5
200
100
AcDbEntity
100
AcDbLine
10
84.027069
20
-102.075155
30
0.0
11
83.926535
21
-102.033263
31
0.0
0
LINE
8
Layer 1
62
4
5
201
100
AcDbEntity
100
AcDbLine
10
83.926535
20
-102.033263
30
0.0
11
83.884719
21
-102.427933
31
0.0
0
LINE
8
Layer 1
62
4
5
202
100
AcDbEntity
100
AcDbLine
10
83.884719
20
-102.427933
30
0.0
11
83.926535
21
-102.822603
31
0.0
0
LINE
8
Layer 1
62
4
5
203
100
AcDbEntity
100
AcDbLine
10
83.926535
20
-102.822603
30
0.0
11
84.027069
21
-102.780711
31
0.0
0
LINE
8
Layer 1
62
4
5
204
100
AcDbEntity
100
AcDbLine
10
84.027069
20
-102.780711
30
0.0
11
84.027069
21
-102.075155
31
0.0
0
LINE
8
Layer 1
62
4
5
205
100
AcDbEntity
100
AcDbLine
10
84.027069
20
-102.075155
30
0.0
11
84.027069
21
-102.075155
31
0.0
0
LINE
8
Layer 1
62
4
5
206
100
AcDbEntity
100
AcDbLine
10
85.533492
20
-102.881461
30
0.0
11
85.110159
21
-102.608095
31
0.0
0
LINE
8
Layer 1
62
4
5
207
100
AcDbEntity
100
AcDbLine
10
85.110159
20
-102.608095
30
0.0
11
84.811180
21
-102.573668
31
0.0
0
LINE
8
Layer 1
62
4
5
208
100
AcDbEntity
100
AcDbLine
10
84.811180
20
-102.573668
30
0.0
11
84.686826
21
-102.719011
31
0.0
0
LINE
8
Layer 1
62
4
5
209
100
AcDbEntity
100
AcDbLine
10
84.686826
20
-102.719011
30
0.0
11
84.811180
21
-102.912076
31
0.0
0
LINE
8
Layer 1
62
4
5
20a
100
AcDbEntity
100
AcDbLine
10
84.811180
20
-102.912076
30
0.0
11
85.110159
21
-102.992377
31
0.0
0
LINE
8
Layer 1
62
4
5
20b
100
AcDbEntity
100
AcDbLine
10
85.110159
20
-102.992377
30
0.0
11
85.533492
21
-102.881461
31
0.0
0
LINE
8
Layer 1
62
4
5
20c
100
AcDbEntity
100
AcDbLine
10
85.533492
20
-102.881461
30
0.0
11
85.533492
21
-102.881461
31
0.0
0
LINE
8
Layer 1
62
4
5
20d
100
AcDbEntity
100
AcDbLine
10
86.319958
20
-102.427933
30
0.0
11
86.321172
21
-101.761038
31
0.0
0
LINE
8
Layer 1
62
4
5
20e
100
AcDbEntity
100
AcDbLine
10
86.321172
20
-101.761038
30
0.0
11
86.662381
21
-101.581266
31
0.0
0
LINE
8
Layer 1
62
4
5
20f
100
AcDbEntity
100
AcDbLine
10
86.662381
20
-101.581266
30
0.0
11
87.003593
21
-101.761038
31
0.0
0
LINE
8
Layer 1
62
4
5
210
100
AcDbEntity
100
AcDbLine
10
87.003593
20
-101.761038
30
0.0
11
87.004804
21
-102.427933
31
0.0
0
LINE
8
Layer 1
62
4
5
211
100
AcDbEntity
100
AcDbLine
10
87.004804
20
-102.427933
30
0.0
11
86.852958
21
-103.025891
31
0.0
0
LINE
8
Layer 1
62
4
5
212
100
AcDbEntity
100
AcDbLine
10
86.852958
20
-103.025891
30
0.0
11
86.662381
21
-103.274599
31
0.0
0
LINE
8
Layer 1
62
4
5
213
100
AcDbEntity
100
AcDbLine
10
86.662381
20
-103.274599
30
0.0
11
86.471804
21
-103.025891
31
0.0
0
LINE
8
Layer 1
62
4
5
214
100
AcDbEntity
100
AcDbLine
10
86.471804
20
-103.025891
30
0.0
11
86.319958
21
-102.427933
31
0.0
0
LINE
8
Layer 1
62
4
5
215
100
AcDbEntity
100
AcDbLine
10
86.319958
20
-102.427933
30
0.0
11
86.319958
21
-102.427933
31
0.0
0
LINE
8
Layer 1
62
4
5
216
100
AcDbEntity
100
AcDbLine
10
92.871270
20
-101.722377
30
0.0
11
92.871270
21
-100.159357
31
0.0
0
LINE
8
Layer 1
62
4
5
217
100
AcDbEntity
100
AcDbLine
10
92.871270
20
-100.159357
30
0.0
11
99.150715
21
-100.235312
31
0.0
0
LINE
8
Layer 1
62
4
5
218
100
AcDbEntity
100
AcDbLine
10
99.150715
20
-100.235312
30
0.0
11
105.430159
21
-100.311266
31
0.0
0
LINE
8
Layer 1
62
4
5
219
100
AcDbEntity
100
AcDbLine
10
105.430159
20
-100.311266
30
0.0
11
105.430159
21
-101.722377
31
0.0
0
LINE
8
Layer 1
62
4
5
21a
100
AcDbEntity
100
AcDbLine
10
105.430159
20
-101.722377
30
0.0
11
105.430159
21
-103.133488
31
0.0
0
LINE
8
Layer 1
62
4
5
21b
100
AcDbEntity
100
AcDbLine
10
105.430159
20
-103.133488
30
0.0
11
99.150715
21
-103.209443
31
0.0
0
LINE
8
Layer 1
62
4
5
21c
100
AcDbEntity
100
AcDbLine
10
99.150715
20
-103.209443
30
0.0
11
92.871270
21
-103.285397
31
0.0
0
LINE
8
Layer 1
62
4
5
21d
100
AcDbEntity
100
AcDbLine
10
92.871270
20
-103.285397
30
0.0
11
92.871270
21
-101.722377
31
0.0
0
LINE
8
Layer 1
62
4
5
21e
100
AcDbEntity
100
AcDbLine
10
92.871270
20
-101.722377
30
0.0
11
92.871270
21
-101.722377
31
0.0
0
LINE
8
Layer 1
62
4
5
21f
100
AcDbEntity
100
AcDbLine
10
105.006826
20
-101.581266
30
0.0
11
105.006826
21
-100.452377
31
0.0
0
LINE
8
Layer 1
62
4
5
220
100
AcDbEntity
100
AcDbLine
10
105.006826
20
-100.452377
30
0.0
11
99.080159
21
-100.452377
31
0.0
0
LINE
8
Layer 1
62
4
5
221
100
AcDbEntity
100
AcDbLine
10
99.080159
20
-100.452377
30
0.0
11
93.153492
21
-100.452377
31
0.0
0
LINE
8
Layer 1
62
4
5
222
100
AcDbEntity
100
AcDbLine
10
93.153492
20
-100.452377
30
0.0
11
93.153492
21
-101.581266
31
0.0
0
LINE
8
Layer 1
62
4
5
223
100
AcDbEntity
100
AcDbLine
10
93.153492
20
-101.581266
30
0.0
11
93.153492
21
-102.710155
31
0.0
0
LINE
8
Layer 1
62
4
5
224
100
AcDbEntity
100
AcDbLine
10
93.153492
20
-102.710155
30
0.0
11
99.080159
21
-102.710155
31
0.0
0
LINE
8
Layer 1
62
4
5
225
100
AcDbEntity
100
AcDbLine
10
99.080159
20
-102.710155
30
0.0
11
105.006826
21
-102.710155
31
0.0
0
LINE
8
Layer 1
62
4
5
226
100
AcDbEntity
100
AcDbLine
10
105.006826
20
-102.710155
30
0.0
11
105.006826
21
-101.581266
31
0.0
0
LINE
8
Layer 1
62
4
5
227
100
AcDbEntity
100
AcDbLine
10
105.006826
20
-101.581266
30
0.0
11
105.006826
21
-101.581266
31
0.0
0
LINE
8
Layer 1
62
4
5
228
100
AcDbEntity
100
AcDbLine
10
74.809048
20
-96.501266
30
0.0
11
74.809048
21
-91.985711
31
0.0
0
LINE
8
Layer 1
62
4
5
229
100
AcDbEntity
100
AcDbLine
10
74.809048
20
-91.985711
30
0.0
11
82.146826
21
-91.985711
31
0.0
0
LINE
8
Layer 1
62
4
5
22a
100
AcDbEntity
100
AcDbLine
10
82.146826
20
-91.985711
30
0.0
11
89.484604
21
-91.985711
31
0.0
0
LINE
8
Layer 1
62
4
5
22b
100
AcDbEntity
100
AcDbLine
10
89.484604
20
-91.985711
30
0.0
11
89.484604
21
-96.501266
31
0.0
0
LINE
8
Layer 1
62
4
5
22c
100
AcDbEntity
100
AcDbLine
10
89.484604
20
-96.501266
30
0.0
11
89.484604
21
-101.016822
31
0.0
0
LINE
8
Layer 1
62
4
5
22d
100
AcDbEntity
100
AcDbLine
10
89.484604
20
-101.016822
30
0.0
11
82.146826
21
-101.016822
31
0.0
0
LINE
8
Layer 1
62
4
5
22e
100
AcDbEntity
100
AcDbLine
10
82.146826
20
-101.016822
30
0.0
11
74.809048
21
-101.016822
31
0.0
0
LINE
8
Layer 1
62
4
5
22f
100
AcDbEntity
100
AcDbLine
10
74.809048
20
-101.016822
30
0.0
11
74.809048
21
-96.501266
31
0.0
0
LINE
8
Layer 1
62
4
5
230
100
AcDbEntity
100
AcDbLine
10
74.809048
20
-96.501266
30
0.0
11
74.809048
21
-96.501266
31
0.0
0
LINE
8
Layer 1
62
4
5
231
100
AcDbEntity
100
AcDbLine
10
89.202381
20
-96.501266
30
0.0
11
89.202381
21
-92.267933
31
0.0
0
LINE
8
Layer 1
62
4
5
232
100
AcDbEntity
100
AcDbLine
10
89.202381
20
-92.267933
30
0.0
11
82.146826
21
-92.267933
31
0.0
0
LINE
8
Layer 1
62
4
5
233
100
AcDbEntity
100
AcDbLine
10
82.146826
20
-92.267933
30
0.0
11
75.091270
21
-92.267933
31
0.0
0
LINE
8
Layer 1
62
4
5
234
100
AcDbEntity
100
AcDbLine
10
75.091270
20
-92.267933
30
0.0
11
75.091270
21
-96.501266
31
0.0
0
LINE
8
Layer 1
62
4
5
235
100
AcDbEntity
100
AcDbLine
10
75.091270
20
-96.501266
30
0.0
11
75.091270
21
-100.734599
31
0.0
0
LINE
8
Layer 1
62
4
5
236
100
AcDbEntity
100
AcDbLine
10
75.091270
20
-100.734599
30
0.0
11
82.146826
21
-100.734599
31
0.0
0
LINE
8
Layer 1
62
4
5
237
100
AcDbEntity
100
AcDbLine
10
82.146826
20
-100.734599
30
0.0
11
89.202381
21
-100.734599
31
0.0
0
LINE
8
Layer 1
62
4
5
238
100
AcDbEntity
100
AcDbLine
10
89.202381
20
-100.734599
30
0.0
11
89.202381
21
-96.501266
31
0.0
0
LINE
8
Layer 1
62
4
5
239
100
AcDbEntity
100
AcDbLine
10
89.202381
20
-96.501266
30
0.0
11
89.202381
21
-96.501266
31
0.0
0
LINE
8
Layer 1
62
4
5
23a
100
AcDbEntity
100
AcDbLine
10
60.415715
20
-97.489044
30
0.0
11
60.415715
21
-94.243488
31
0.0
0
LINE
8
Layer 1
62
4
5
23b
100
AcDbEntity
100
AcDbLine
10
60.415715
20
-94.243488
30
0.0
11
62.109048
21
-94.243488
31
0.0
0
LINE
8
Layer 1
62
4
5
23c
100
AcDbEntity
100
AcDbLine
10
62.109048
20
-94.243488
30
0.0
11
63.802381
21
-94.243488
31
0.0
0
LINE
8
Layer 1
62
4
5
23d
100
AcDbEntity
100
AcDbLine
10
63.802381
20
-94.243488
30
0.0
11
63.802381
21
-97.489044
31
0.0
0
LINE
8
Layer 1
62
4
5
23e
100
AcDbEntity
100
AcDbLine
10
63.802381
20
-97.489044
30
0.0
11
63.802381
21
-100.734599
31
0.0
0
LINE
8
Layer 1
62
4
5
23f
100
AcDbEntity
100
AcDbLine
10
63.802381
20
-100.734599
30
0.0
11
62.109048
21
-100.734599
31
0.0
0
LINE
8
Layer 1
62
4
5
240
100
AcDbEntity
100
AcDbLine
10
62.109048
20
-100.734599
30
0.0
11
60.415715
21
-100.734599
31
0.0
0
LINE
8
Layer 1
62
4
5
241
100
AcDbEntity
100
AcDbLine
10
60.415715
20
-100.734599
30
0.0
11
60.415715
21
-97.489044
31
0.0
0
LINE
8
Layer 1
62
4
5
242
100
AcDbEntity
100
AcDbLine
10
60.415715
20
-97.489044
30
0.0
11
60.415715
21
-97.489044
31
0.0
0
LINE
8
Layer 1
62
4
5
243
100
AcDbEntity
100
AcDbLine
10
63.520159
20
-97.489044
30
0.0
11
63.520159
21
-94.525711
31
0.0
0
LINE
8
Layer 1
62
4
5
244
100
AcDbEntity
100
AcDbLine
10
63.520159
20
-94.525711
30
0.0
11
62.250159
21
-94.525711
31
0.0
0
LINE
8
Layer 1
62
4
5
245
100
AcDbEntity
100
AcDbLine
10
62.250159
20
-94.525711
30
0.0
11
60.980159
21
-94.525711
31
0.0
0
LINE
8
Layer 1
62
4
5
246
100
AcDbEntity
100
AcDbLine
10
60.980159
20
-94.525711
30
0.0
11
60.980159
21
-97.489044
31
0.0
0
LINE
8
Layer 1
62
4
5
247
100
AcDbEntity
100
AcDbLine
10
60.980159
20
-97.489044
30
0.0
11
60.980159
21
-100.452377
31
0.0
0
LINE
8
Layer 1
62
4
5
248
100
AcDbEntity
100
AcDbLine
10
60.980159
20
-100.452377
30
0.0
11
62.250159
21
-100.452377
31
0.0
0
LINE
8
Layer 1
62
4
5
249
100
AcDbEntity
100
AcDbLine
10
62.250159
20
-100.452377
30
0.0
11
63.520159
21
-100.452377
31
0.0
0
LINE
8
Layer 1
62
4
5
24a
100
AcDbEntity
100
AcDbLine
10
63.520159
20
-100.452377
30
0.0
11
63.520159
21
-97.489044
31
0.0
0
LINE
8
Layer 1
62
4
5
24b
100
AcDbEntity
100
AcDbLine
10
63.520159
20
-97.489044
30
0.0
11
63.520159
21
-97.489044
31
0.0
0
LINE
8
Layer 1
62
4
5
24c
100
AcDbEntity
100
AcDbLine
10
121.375715
20
-97.489044
30
0.0
11
121.375715
21
-94.243488
31
0.0
0
LINE
8
Layer 1
62
4
5
24d
100
AcDbEntity
100
AcDbLine
10
121.375715
20
-94.243488
30
0.0
11
123.069048
21
-94.243488
31
0.0
0
LINE
8
Layer 1
62
4
5
24e
100
AcDbEntity
100
AcDbLine
10
123.069048
20
-94.243488
30
0.0
11
124.762381
21
-94.243488
31
0.0
0
LINE
8
Layer 1
62
4
5
24f
100
AcDbEntity
100
AcDbLine
10
124.762381
20
-94.243488
30
0.0
11
124.762381
21
-97.489044
31
0.0
0
LINE
8
Layer 1
62
4
5
250
100
AcDbEntity
100
AcDbLine
10
124.762381
20
-97.489044
30
0.0
11
124.762381
21
-100.734599
31
0.0
0
LINE
8
Layer 1
62
4
5
251
100
AcDbEntity
100
AcDbLine
10
124.762381
20
-100.734599
30
0.0
11
123.069048
21
-100.734599
31
0.0
0
LINE
8
Layer 1
62
4
5
252
100
AcDbEntity
100
AcDbLine
10
123.069048
20
-100.734599
30
0.0
11
121.375715
21
-100.734599
31
0.0
0
LINE
8
Layer 1
62
4
5
253
100
AcDbEntity
100
AcDbLine
10
121.375715
20
-100.734599
30
0.0
11
121.375715
21
-97.489044
31
0.0
0
LINE
8
Layer 1
62
4
5
254
100
AcDbEntity
100
AcDbLine
10
121.375715
20
-97.489044
30
0.0
11
121.375715
21
-97.489044
31
0.0
0
LINE
8
Layer 1
62
4
5
255
100
AcDbEntity
100
AcDbLine
10
124.480159
20
-97.489044
30
0.0
11
124.480159
21
-94.525711
31
0.0
0
LINE
8
Layer 1
62
4
5
256
100
AcDbEntity
100
AcDbLine
10
124.480159
20
-94.525711
30
0.0
11
123.210159
21
-94.525711
31
0.0
0
LINE
8
Layer 1
62
4
5
257
100
AcDbEntity
100
AcDbLine
10
123.210159
20
-94.525711
30
0.0
11
121.940159
21
-94.525711
31
0.0
0
LINE
8
Layer 1
62
4
5
258
100
AcDbEntity
100
AcDbLine
10
121.940159
20
-94.525711
30
0.0
11
121.940159
21
-97.489044
31
0.0
0
LINE
8
Layer 1
62
4
5
259
100
AcDbEntity
100
AcDbLine
10
121.940159
20
-97.489044
30
0.0
11
121.940159
21
-100.452377
31
0.0
0
LINE
8
Layer 1
62
4
5
25a
100
AcDbEntity
100
AcDbLine
10
121.940159
20
-100.452377
30
0.0
11
123.210159
21
-100.452377
31
0.0
0
LINE
8
Layer 1
62
4
5
25b
100
AcDbEntity
100
AcDbLine
10
123.210159
20
-100.452377
30
0.0
11
124.480159
21
-100.452377
31
0.0
0
LINE
8
Layer 1
62
4
5
25c
100
AcDbEntity
100
AcDbLine
10
124.480159
20
-100.452377
30
0.0
11
124.480159
21
-97.489044
31
0.0
0
LINE
8
Layer 1
62
4
5
25d
100
AcDbEntity
100
AcDbLine
10
124.480159
20
-97.489044
30
0.0
11
124.480159
21
-97.489044
31
0.0
0
LINE
8
Layer 1
62
4
5
25e
100
AcDbEntity
100
AcDbLine
10
60.979437
20
-92.690388
30
0.0
11
60.730798
21
-92.184049
31
0.0
0
LINE
8
Layer 1
62
4
5
25f
100
AcDbEntity
100
AcDbLine
10
60.730798
20
-92.184049
30
0.0
11
60.627381
21
-91.562369
31
0.0
0
LINE
8
Layer 1
62
4
5
260
100
AcDbEntity
100
AcDbLine
10
60.627381
20
-91.562369
30
0.0
11
60.729226
21
-90.909230
31
0.0
0
LINE
8
Layer 1
62
4
5
261
100
AcDbEntity
100
AcDbLine
10
60.729226
20
-90.909230
30
0.0
11
61.023638
21
-90.421277
31
0.0
0
LINE
8
Layer 1
62
4
5
262
100
AcDbEntity
100
AcDbLine
10
61.023638
20
-90.421277
30
0.0
11
61.493938
21
-90.115813
31
0.0
0
LINE
8
Layer 1
62
4
5
263
100
AcDbEntity
100
AcDbLine
10
61.493938
20
-90.115813
30
0.0
11
62.123447
21
-90.010147
31
0.0
0
LINE
8
Layer 1
62
4
5
264
100
AcDbEntity
100
AcDbLine
10
62.123447
20
-90.010147
30
0.0
11
62.640683
21
-90.083226
31
0.0
0
LINE
8
Layer 1
62
4
5
265
100
AcDbEntity
100
AcDbLine
10
62.640683
20
-90.083226
30
0.0
11
63.079333
21
-90.284465
31
0.0
0
LINE
8
Layer 1
62
4
5
266
100
AcDbEntity
100
AcDbLine
10
63.079333
20
-90.284465
30
0.0
11
63.670732
21
-90.963408
31
0.0
0
LINE
8
Layer 1
62
4
5
267
100
AcDbEntity
100
AcDbLine
10
63.670732
20
-90.963408
30
0.0
11
63.797348
21
-91.830959
31
0.0
0
LINE
8
Layer 1
62
4
5
268
100
AcDbEntity
100
AcDbLine
10
63.797348
20
-91.830959
30
0.0
11
63.655021
21
-92.267956
31
0.0
0
LINE
8
Layer 1
62
4
5
269
100
AcDbEntity
100
AcDbLine
10
63.655021
20
-92.267956
30
0.0
11
63.358889
21
-92.671098
31
0.0
0
LINE
8
Layer 1
62
4
5
26a
100
AcDbEntity
100
AcDbLine
10
63.358889
20
-92.671098
30
0.0
11
62.814388
21
-92.989515
31
0.0
0
LINE
8
Layer 1
62
4
5
26b
100
AcDbEntity
100
AcDbLine
10
62.814388
20
-92.989515
30
0.0
11
62.130689
21
-93.099727
31
0.0
0
LINE
8
Layer 1
62
4
5
26c
100
AcDbEntity
100
AcDbLine
10
62.130689
20
-93.099727
30
0.0
11
61.466227
21
-93.000450
31
0.0
0
LINE
8
Layer 1
62
4
5
26d
100
AcDbEntity
100
AcDbLine
10
61.466227
20
-93.000450
30
0.0
11
60.979437
21
-92.690402
31
0.0
0
LINE
8
Layer 1
62
4
5
26e
100
AcDbEntity
100
AcDbLine
10
60.979437
20
-92.690402
30
0.0
11
60.979437
21
-92.690388
31
0.0
0
LINE
8
Layer 1
62
4
5
26f
100
AcDbEntity
100
AcDbLine
10
63.181492
20
-92.493702
30
0.0
11
63.420676
21
-92.080423
31
0.0
0
LINE
8
Layer 1
62
4
5
270
100
AcDbEntity
100
AcDbLine
10
63.420676
20
-92.080423
30
0.0
11
63.520159
21
-91.562369
31
0.0
0
LINE
8
Layer 1
62
4
5
271
100
AcDbEntity
100
AcDbLine
10
63.520159
20
-91.562369
30
0.0
11
63.420676
21
-91.044315
31
0.0
0
LINE
8
Layer 1
62
4
5
272
100
AcDbEntity
100
AcDbLine
10
63.420676
20
-91.044315
30
0.0
11
63.181492
21
-90.631035
31
0.0
0
LINE
8
Layer 1
62
4
5
273
100
AcDbEntity
100
AcDbLine
10
63.181492
20
-90.631035
30
0.0
11
62.503564
21
-90.284164
31
0.0
0
LINE
8
Layer 1
62
4
5
274
100
AcDbEntity
100
AcDbLine
10
62.503564
20
-90.284164
30
0.0
11
61.783963
21
-90.377381
31
0.0
0
LINE
8
Layer 1
62
4
5
275
100
AcDbEntity
100
AcDbLine
10
61.783963
20
-90.377381
30
0.0
11
61.212794
21
-90.830259
31
0.0
0
LINE
8
Layer 1
62
4
5
276
100
AcDbEntity
100
AcDbLine
10
61.212794
20
-90.830259
30
0.0
11
60.980159
21
-91.562369
31
0.0
0
LINE
8
Layer 1
62
4
5
277
100
AcDbEntity
100
AcDbLine
10
60.980159
20
-91.562369
30
0.0
11
61.079642
21
-92.080423
31
0.0
0
LINE
8
Layer 1
62
4
5
278
100
AcDbEntity
100
AcDbLine
10
61.079642
20
-92.080423
30
0.0
11
61.318826
21
-92.493702
31
0.0
0
LINE
8
Layer 1
62
4
5
279
100
AcDbEntity
100
AcDbLine
10
61.318826
20
-92.493702
30
0.0
11
61.732105
21
-92.732885
31
0.0
0
LINE
8
Layer 1
62
4
5
27a
100
AcDbEntity
100
AcDbLine
10
61.732105
20
-92.732885
30
0.0
11
62.250159
21
-92.832369
31
0.0
0
LINE
8
Layer 1
62
4
5
27b
100
AcDbEntity
100
AcDbLine
10
62.250159
20
-92.832369
30
0.0
11
62.768213
21
-92.732885
31
0.0
0
LINE
8
Layer 1
62
4
5
27c
100
AcDbEntity
100
AcDbLine
10
62.768213
20
-92.732885
30
0.0
11
63.181492
21
-92.493702
31
0.0
0
LINE
8
Layer 1
62
4
5
27d
100
AcDbEntity
100
AcDbLine
10
63.181492
20
-92.493702
30
0.0
11
63.181492
21
-92.493702
31
0.0
0
LINE
8
Layer 1
62
4
5
27e
100
AcDbEntity
100
AcDbLine
10
121.939437
20
-92.690388
30
0.0
11
121.690798
21
-92.184049
31
0.0
0
LINE
8
Layer 1
62
4
5
27f
100
AcDbEntity
100
AcDbLine
10
121.690798
20
-92.184049
30
0.0
11
121.587381
21
-91.562369
31
0.0
0
LINE
8
Layer 1
62
4
5
280
100
AcDbEntity
100
AcDbLine
10
121.587381
20
-91.562369
30
0.0
11
121.689226
21
-90.909230
31
0.0
0
LINE
8
Layer 1
62
4
5
281
100
AcDbEntity
100
AcDbLine
10
121.689226
20
-90.909230
30
0.0
11
121.983638
21
-90.421277
31
0.0
0
LINE
8
Layer 1
62
4
5
282
100
AcDbEntity
100
AcDbLine
10
121.983638
20
-90.421277
30
0.0
11
122.453938
21
-90.115813
31
0.0
0
LINE
8
Layer 1
62
4
5
283
100
AcDbEntity
100
AcDbLine
10
122.453938
20
-90.115813
30
0.0
11
123.083447
21
-90.010147
31
0.0
0
LINE
8
Layer 1
62
4
5
284
100
AcDbEntity
100
AcDbLine
10
123.083447
20
-90.010147
30
0.0
11
123.600683
21
-90.083226
31
0.0
0
LINE
8
Layer 1
62
4
5
285
100
AcDbEntity
100
AcDbLine
10
123.600683
20
-90.083226
30
0.0
11
124.039333
21
-90.284465
31
0.0
0
LINE
8
Layer 1
62
4
5
286
100
AcDbEntity
100
AcDbLine
10
124.039333
20
-90.284465
30
0.0
11
124.630732
21
-90.963408
31
0.0
0
LINE
8
Layer 1
62
4
5
287
100
AcDbEntity
100
AcDbLine
10
124.630732
20
-90.963408
30
0.0
11
124.757348
21
-91.830959
31
0.0
0
LINE
8
Layer 1
62
4
5
288
100
AcDbEntity
100
AcDbLine
10
124.757348
20
-91.830959
30
0.0
11
124.615021
21
-92.267956
31
0.0
0
LINE
8
Layer 1
62
4
5
289
100
AcDbEntity
100
AcDbLine
10
124.615021
20
-92.267956
30
0.0
11
124.318889
21
-92.671098
31
0.0
0
LINE
8
Layer 1
62
4
5
28a
100
AcDbEntity
100
AcDbLine
10
124.318889
20
-92.671098
30
0.0
11
123.774388
21
-92.989515
31
0.0
0
LINE
8
Layer 1
62
4
5
28b
100
AcDbEntity
100
AcDbLine
10
123.774388
20
-92.989515
30
0.0
11
123.090689
21
-93.099727
31
0.0
0
LINE
8
Layer 1
62
4
5
28c
100
AcDbEntity
100
AcDbLine
10
123.090689
20
-93.099727
30
0.0
11
122.426227
21
-93.000450
31
0.0
0
LINE
8
Layer 1
62
4
5
28d
100
AcDbEntity
100
AcDbLine
10
122.426227
20
-93.000450
30
0.0
11
121.939437
21
-92.690402
31
0.0
0
LINE
8
Layer 1
62
4
5
28e
100
AcDbEntity
100
AcDbLine
10
121.939437
20
-92.690402
30
0.0
11
121.939437
21
-92.690388
31
0.0
0
LINE
8
Layer 1
62
4
5
28f
100
AcDbEntity
100
AcDbLine
10
124.141492
20
-92.493702
30
0.0
11
124.488364
21
-91.815773
31
0.0
0
LINE
8
Layer 1
62
4
5
290
100
AcDbEntity
100
AcDbLine
10
124.488364
20
-91.815773
30
0.0
11
124.395146
21
-91.096173
31
0.0
0
LINE
8
Layer 1
62
4
5
291
100
AcDbEntity
100
AcDbLine
10
124.395146
20
-91.096173
30
0.0
11
123.942269
21
-90.525004
31
0.0
0
LINE
8
Layer 1
62
4
5
292
100
AcDbEntity
100
AcDbLine
10
123.942269
20
-90.525004
30
0.0
11
123.210159
21
-90.292369
31
0.0
0
LINE
8
Layer 1
62
4
5
293
100
AcDbEntity
100
AcDbLine
10
123.210159
20
-90.292369
30
0.0
11
122.692579
21
-90.384425
31
0.0
0
LINE
8
Layer 1
62
4
5
294
100
AcDbEntity
100
AcDbLine
10
122.692579
20
-90.384425
30
0.0
11
122.291477
21
-90.643687
31
0.0
0
LINE
8
Layer 1
62
4
5
295
100
AcDbEntity
100
AcDbLine
10
122.291477
20
-90.643687
30
0.0
11
122.032216
21
-91.044789
31
0.0
0
LINE
8
Layer 1
62
4
5
296
100
AcDbEntity
100
AcDbLine
10
122.032216
20
-91.044789
30
0.0
11
121.940159
21
-91.562369
31
0.0
0
LINE
8
Layer 1
62
4
5
297
100
AcDbEntity
100
AcDbLine
10
121.940159
20
-91.562369
30
0.0
11
122.032216
21
-92.079949
31
0.0
0
LINE
8
Layer 1
62
4
5
298
100
AcDbEntity
100
AcDbLine
10
122.032216
20
-92.079949
30
0.0
11
122.291477
21
-92.481051
31
0.0
0
LINE
8
Layer 1
62
4
5
299
100
AcDbEntity
100
AcDbLine
10
122.291477
20
-92.481051
30
0.0
11
122.692579
21
-92.740312
31
0.0
0
LINE
8
Layer 1
62
4
5
29a
100
AcDbEntity
100
AcDbLine
10
122.692579
20
-92.740312
30
0.0
11
123.210159
21
-92.832369
31
0.0
0
LINE
8
Layer 1
62
4
5
29b
100
AcDbEntity
100
AcDbLine
10
123.210159
20
-92.832369
30
0.0
11
123.728213
21
-92.732885
31
0.0
0
LINE
8
Layer 1
62
4
5
29c
100
AcDbEntity
100
AcDbLine
10
123.728213
20
-92.732885
30
0.0
11
124.141492
21
-92.493702
31
0.0
0
LINE
8
Layer 1
62
4
5
29d
100
AcDbEntity
100
AcDbLine
10
124.141492
20
-92.493702
30
0.0
11
124.141492
21
-92.493702
31
0.0
  0
ENDSEC
  0
SECTION
  2
OBJECTS
  0
DICTIONARY
  5
C
330
0
100
AcDbDictionary
  3
ACAD_GROUP
350
D
  3
ACAD_MLINESTYLE
350
17
  0
DICTIONARY
  5
D
330
C
100
AcDbDictionary
  0
DICTIONARY
  5
1A
330
C
100
AcDbDictionary
  0
DICTIONARY
  5
17
330
C
100
AcDbDictionary
  3
STANDARD
350
18
  0
DICTIONARY
  5
19
330
C
100
AcDbDictionary
  0
ENDSEC
  0
EOF
