999
DXF created by Inkscape
  0
SECTION
  2
HEADER
  9
$ACADVER
  1
AC1014
  9
$HANDSEED
  5
FFFF
  9
$MEASUREMENT
 70
     1
  0
ENDSEC
  0
SECTION
  2
TABLES
  0
TABLE
  2
VPORT
  5
8
330
0
100
AcDbSymbolTable
 70
     4
  0
VPORT
  5
2E
330
8
100
AcDbSymbolTableRecord
100
AcDbViewportTableRecord
  2
*ACTIVE
 70
     0
 10
0.0
 20
0.0
 11
1.0
 21
1.0
 12
210.0
 22
148.5
 13
0.0
 23
0.0
 14
10.0
 24
10.0
 15
10.0
 25
10.0
 16
0.0
 26
0.0
 36
1.0
 17
0.0
 27
0.0
 37
0.0
 40
341.0
 41
1.24
 42
50.0
 43
0.0
 44
0.0
 50
0.0
 51
0.0
 71
     0
 72
   100
 73
     1
 74
     3
 75
     0
 76
     0
 77
     0
 78
     0
  0
ENDTAB
  0
TABLE
  2
LTYPE
  5
5
330
0
100
AcDbSymbolTable
 70
     1
  0
LTYPE
  5
14
330
5
100
AcDbSymbolTableRecord
100
AcDbLinetypeTableRecord
  2
BYBLOCK
 70
     0
  3

 72
    65
 73
     0
 40
0.0
  0
LTYPE
  5
15
330
5
100
AcDbSymbolTableRecord
100
AcDbLinetypeTableRecord
  2
BYLAYER
 70
     0
  3

 72
    65
 73
     0
 40
0.0
  0
LTYPE
  5
16
330
5
100
AcDbSymbolTableRecord
100
AcDbLinetypeTableRecord
  2
CONTINUOUS
 70
     0
  3
Solid line
 72
    65
 73
     0
 40
0.0
  0
ENDTAB
  0
TABLE
  2
LAYER
  5
2
100
AcDbSymbolTable
 70
2
  0
LAYER
  5
50
100
AcDbSymbolTableRecord
100
AcDbLayerTableRecord
  2
0
 70
0
  6
CONTINUOUS
  0
LAYER
  5
51
100
AcDbSymbolTableRecord
100
AcDbLayerTableRecord
  2
Layer_1
 70
0
  6
CONTINUOUS
  0
ENDTAB
  0
TABLE
  2
STYLE
  5
3
330
0
100
AcDbSymbolTable
 70
     1
  0
STYLE
  5
11
330
3
100
AcDbSymbolTableRecord
100
AcDbTextStyleTableRecord
  2
STANDARD
 70
     0
 40
0.0
 41
1.0
 50
0.0
 71
     0
 42
2.5
  3
txt
  4

  0
ENDTAB
  0
TABLE
  2
VIEW
  5
6
330
0
100
AcDbSymbolTable
 70
     0
  0
ENDTAB
  0
TABLE
  2
UCS
  5
7
330
0
100
AcDbSymbolTable
 70
     0
  0
ENDTAB
  0
TABLE
  2
APPID
  5
9
330
0
100
AcDbSymbolTable
 70
     2
  0
APPID
  5
12
330
9
100
AcDbSymbolTableRecord
100
AcDbRegAppTableRecord
  2
ACAD
 70
     0
  0
ENDTAB
  0
TABLE
  2
DIMSTYLE
  5
A
330
0
100
AcDbSymbolTable
 70
     1
  0
DIMSTYLE
105
27
330
A
100
AcDbSymbolTableRecord
100
AcDbDimStyleTableRecord
  2
ISO-25
 70
     0
  3

  4

  5

  6

  7

 40
1.0
 41
2.5
 42
0.625
 43
3.75
 44
1.25
 45
0.0
 46
0.0
 47
0.0
 48
0.0
140
2.5
141
2.5
142
0.0
143
0.03937007874016
144
1.0
145
0.0
146
1.0
147
0.625
 71
     0
 72
     0
 73
     0
 74
     0
 75
     0
 76
     0
 77
     1
 78
     8
170
     0
171
     3
172
     1
173
     0
174
     0
175
     0
176
     0
177
     0
178
     0
270
     2
271
     2
272
     2
273
     2
274
     3
340
11
275
     0
280
     0
281
     0
282
     0
283
     0
284
     8
285
     0
286
     0
287
     3
288
     0
  0
ENDTAB
  0
TABLE
  2
BLOCK_RECORD
  5
1
330
0
100
AcDbSymbolTable
 70
     1
  0
BLOCK_RECORD
  5
1F
330
1
100
AcDbSymbolTableRecord
100
AcDbBlockTableRecord
  2
*MODEL_SPACE
  0
BLOCK_RECORD
  5
1B
330
1
100
AcDbSymbolTableRecord
100
AcDbBlockTableRecord
  2
*PAPER_SPACE
  0
ENDTAB
  0
ENDSEC
  0
SECTION
  2
BLOCKS
  0
BLOCK
  5
20
330
1F
100
AcDbEntity
  8
0
100
AcDbBlockBegin
  2
*MODEL_SPACE
 70
     0
 10
0.0
 20
0.0
 30
0.0
  3
*MODEL_SPACE
  1

  0
ENDBLK
  5
21
330
1F
100
AcDbEntity
  8
0
100
AcDbBlockEnd
  0
BLOCK
  5
1C
330
1B
100
AcDbEntity
 67
     1
  8
0
100
AcDbBlockBegin
  2
*PAPER_SPACE
  1

  0
ENDBLK
  5
1D
330
1B
100
AcDbEntity
 67
     1
  8
0
100
AcDbBlockEnd
  0
ENDSEC
  0
SECTION
  2
ENTITIES
  0
LWPOLYLINE
  5
100
100
AcDbEntity
  8
Layer_1
 62
7
100
AcDbPolyline
 90
87
 70
0
 10
6.169208
 20
2.738436
 30
0.0
 10
6.169208
 20
2.118871
 30
0.0
 10
6.169208
 20
1.499306
 30
0.0
 10
6.157073
 20
1.276612
 30
0.0
 10
6.120694
 20
1.102431
 30
0.0
 10
6.051237
 20
0.963521
 30
0.0
 10
5.939897
 20
0.837847
 30
0.0
 10
5.793269
 20
0.720987
 30
0.0
 10
5.609167
 20
0.608542
 30
0.0
 10
5.033693
 20
0.334035
 30
0.0
 10
4.480278
 20
0.145519
 30
0.0
 10
3.913624
 20
0.036378
 30
0.0
 10
3.298472
 20
0.000000
 30
0.0
 10
2.586299
 20
0.057325
 30
0.0
 10
1.940278
 20
0.229306
 30
0.0
 10
1.372526
 20
0.510424
 30
0.0
 10
0.895175
 20
0.895172
 30
0.0
 10
0.512631
 20
1.378037
 30
0.0
 10
0.229306
 20
1.953506
 30
0.0
 10
0.057325
 20
2.611656
 30
0.0
 10
0.000000
 20
3.342569
 30
0.0
 10
0.056224
 20
4.064658
 30
0.0
 10
0.224897
 20
4.722811
 30
0.0
 10
0.502708
 20
5.301584
 30
0.0
 10
0.886356
 20
5.785556
 30
0.0
 10
1.370319
 20
6.170301
 30
0.0
 10
1.949097
 20
6.451422
 30
0.0
 10
2.617168
 20
6.626705
 30
0.0
 10
3.369028
 20
6.685139
 30
0.0
 10
3.984179
 20
6.641036
 30
0.0
 10
4.524375
 20
6.508750
 30
0.0
 10
4.979676
 20
6.313613
 30
0.0
 10
5.340175
 20
6.072186
 30
0.0
 10
5.614676
 20
5.799881
 30
0.0
 10
5.812014
 20
5.512153
 30
0.0
 10
5.931072
 20
5.233233
 30
0.0
 10
5.970764
 20
4.987394
 30
0.0
 10
5.924457
 20
4.758086
 30
0.0
 10
5.785556
 20
4.564061
 30
0.0
 10
5.586010
 20
4.435074
 30
0.0
 10
5.348994
 20
4.392083
 30
0.0
 10
5.210085
 20
4.408622
 30
0.0
 10
5.075592
 20
4.458233
 30
0.0
 10
4.957626
 20
4.537606
 30
0.0
 10
4.859514
 20
4.643442
 30
0.0
 10
4.635717
 20
4.976374
 30
0.0
 10
4.449411
 20
5.216706
 30
0.0
 10
4.252073
 20
5.395296
 30
0.0
 10
3.995208
 20
5.543025
 30
0.0
 10
3.673294
 20
5.642240
 30
0.0
 10
3.272014
 20
5.675317
 30
0.0
 10
2.842062
 20
5.635625
 30
0.0
 10
2.460625
 20
5.516567
 30
0.0
 10
2.128791
 20
5.325844
 30
0.0
 10
1.847675
 20
5.062367
 30
0.0
 10
1.624982
 20
4.732734
 30
0.0
 10
1.459619
 20
4.334761
 30
0.0
 10
1.360399
 20
3.879455
 30
0.0
 10
1.327328
 20
3.377853
 30
0.0
 10
1.457412
 20
2.371330
 30
0.0
 10
1.847675
 20
1.627192
 30
0.0
 10
2.474956
 20
1.167477
 30
0.0
 10
3.307292
 20
1.014242
 30
0.0
 10
3.747158
 20
1.044005
 30
0.0
 10
4.158369
 20
1.133303
 30
0.0
 10
4.561854
 20
1.277722
 30
0.0
 10
4.969758
 20
1.472853
 30
0.0
 10
4.969758
 20
1.997608
 30
0.0
 10
4.969758
 20
2.522367
 30
0.0
 10
4.462639
 20
2.522367
 30
0.0
 10
3.955522
 20
2.522367
 30
0.0
 10
3.633608
 20
2.549940
 30
0.0
 10
3.399897
 20
2.632623
 30
0.0
 10
3.260987
 20
2.781450
 30
0.0
 10
3.214689
 20
3.007450
 30
0.0
 10
3.253269
 20
3.204783
 30
0.0
 10
3.369028
 20
3.364636
 30
0.0
 10
3.555337
 20
3.470467
 30
0.0
 10
3.796772
 20
3.505748
 30
0.0
 10
4.539810
 20
3.505748
 30
0.0
 10
5.282847
 20
3.505748
 30
0.0
 10
5.535301
 20
3.493612
 30
0.0
 10
5.745869
 20
3.457234
 30
0.0
 10
5.916741
 20
3.378956
 30
0.0
 10
6.050139
 20
3.241156
 30
0.0
 10
6.139431
 20
3.031693
 30
0.0
 10
6.169203
 20
2.738447
 30
0.0
  0
LWPOLYLINE
  5
101
100
AcDbEntity
  8
Layer_1
 62
7
100
AcDbPolyline
 90
43
 70
0
 10
8.537228
 20
1.737431
 30
0.0
 10
8.537228
 20
1.234722
 30
0.0
 10
8.537228
 20
0.732014
 30
0.0
 10
8.494231
 20
0.411206
 30
0.0
 10
8.365250
 20
0.180797
 30
0.0
 10
8.170119
 20
0.045198
 30
0.0
 10
7.928686
 20
0.000000
 30
0.0
 10
7.691662
 20
0.046301
 30
0.0
 10
7.500945
 20
0.185208
 30
0.0
 10
7.375265
 20
0.414514
 30
0.0
 10
7.333375
 20
0.732014
 30
0.0
 10
7.333375
 20
2.407708
 30
0.0
 10
7.333375
 20
4.083403
 30
0.0
 10
7.479995
 20
4.691942
 30
0.0
 10
7.919867
 20
4.894792
 30
0.0
 10
8.177835
 20
4.847384
 30
0.0
 10
8.352020
 20
4.705172
 30
0.0
 10
8.454545
 20
4.470352
 30
0.0
 10
8.497542
 20
4.145139
 30
0.0
 10
8.715821
 20
4.470352
 30
0.0
 10
8.938514
 20
4.705172
 30
0.0
 10
9.205299
 20
4.847384
 30
0.0
 10
9.547056
 20
4.894792
 30
0.0
 10
9.920777
 20
4.847384
 30
0.0
 10
10.283478
 20
4.705172
 30
0.0
 10
10.551366
 20
4.484683
 30
0.0
 10
10.640667
 20
4.202464
 30
0.0
 10
10.602079
 20
4.000717
 30
0.0
 10
10.486325
 20
3.836458
 30
0.0
 10
10.329776
 20
3.730622
 30
0.0
 10
10.160006
 20
3.695347
 30
0.0
 10
10.046454
 20
3.715187
 30
0.0
 10
9.838097
 20
3.774725
 30
0.0
 10
9.601070
 20
3.837559
 30
0.0
 10
9.392714
 20
3.858500
 30
0.0
 10
9.152382
 20
3.823219
 30
0.0
 10
8.960561
 20
3.717389
 30
0.0
 10
8.811731
 20
3.546509
 30
0.0
 10
8.700389
 20
3.307286
 30
0.0
 10
8.622115
 20
3.007422
 30
0.0
 10
8.572506
 20
2.654647
 30
0.0
 10
8.546061
 20
2.237926
 30
0.0
 10
8.537228
 20
1.737425
 30
0.0
  0
LWPOLYLINE
  5
102
100
AcDbEntity
  8
Layer_1
 62
7
100
AcDbPolyline
 90
53
 70
0
 10
14.424208
 20
2.151944
 30
0.0
 10
13.246811
 20
2.151944
 30
0.0
 10
12.069417
 20
2.151944
 30
0.0
 10
12.112408
 20
1.766090
 30
0.0
 10
12.232575
 20
1.428750
 30
0.0
 10
12.421091
 20
1.154244
 30
0.0
 10
12.660320
 20
0.956908
 30
0.0
 10
12.942539
 20
0.837844
 30
0.0
 10
13.251222
 20
0.798158
 30
0.0
 10
13.457374
 20
0.810294
 30
0.0
 10
13.643686
 20
0.846675
 30
0.0
 10
13.821176
 20
0.912820
 30
0.0
 10
13.992056
 20
1.005425
 30
0.0
 10
14.153007
 20
1.118974
 30
0.0
 10
14.300736
 20
1.239139
 30
0.0
 10
14.462788
 20
1.384658
 30
0.0
 10
14.666742
 20
1.574278
 30
0.0
 10
14.779188
 20
1.633810
 30
0.0
 10
14.931325
 20
1.653650
 30
0.0
 10
15.098892
 20
1.628307
 30
0.0
 10
15.231186
 20
1.552242
 30
0.0
 10
15.317174
 20
1.429870
 30
0.0
 10
15.345839
 20
1.265609
 30
0.0
 10
15.313863
 20
1.088116
 30
0.0
 10
15.217958
 20
0.881964
 30
0.0
 10
15.056999
 20
0.669194
 30
0.0
 10
14.829903
 20
0.463039
 30
0.0
 10
14.539959
 20
0.281138
 30
0.0
 10
14.181672
 20
0.132311
 30
0.0
 10
13.763848
 20
0.033093
 30
0.0
 10
13.286500
 20
0.000020
 30
0.0
 10
12.255726
 20
0.165385
 30
0.0
 10
11.482922
 20
0.661478
 30
0.0
 10
11.000057
 20
1.440894
 30
0.0
 10
10.839103
 20
2.456234
 30
0.0
 10
10.878789
 20
2.969963
 30
0.0
 10
10.997853
 20
3.444011
 30
0.0
 10
11.192981
 20
3.869546
 30
0.0
 10
11.460875
 20
4.228942
 30
0.0
 10
11.800422
 20
4.516673
 30
0.0
 10
12.210528
 20
4.727242
 30
0.0
 10
12.680160
 20
4.859531
 30
0.0
 10
13.198306
 20
4.903631
 30
0.0
 10
13.853146
 20
4.828661
 30
0.0
 10
14.406570
 20
4.603770
 30
0.0
 10
14.849743
 20
4.264217
 30
0.0
 10
15.165042
 20
3.836478
 30
0.0
 10
15.353552
 20
3.360225
 30
0.0
 10
15.416395
 20
2.875159
 30
0.0
 10
15.351348
 20
2.500331
 30
0.0
 10
15.156222
 20
2.284256
 30
0.0
 10
14.843128
 20
2.185035
 30
0.0
 10
14.424208
 20
2.151964
 30
0.0
  0
LWPOLYLINE
  5
103
100
AcDbEntity
  8
Layer_1
 62
7
100
AcDbPolyline
 90
11
 70
0
 10
12.069417
 20
2.835470
 30
0.0
 10
13.160821
 20
2.835470
 30
0.0
 10
14.252228
 20
2.835470
 30
0.0
 10
14.146392
 20
3.374557
 30
0.0
 10
13.917089
 20
3.757103
 30
0.0
 10
13.584151
 20
3.988610
 30
0.0
 10
13.158617
 20
4.065784
 30
0.0
 10
12.748511
 20
3.987506
 30
0.0
 10
12.417783
 20
3.752692
 30
0.0
 10
12.187374
 20
3.369045
 30
0.0
 10
12.069417
 20
2.835470
 30
0.0
  0
LWPOLYLINE
  5
104
100
AcDbEntity
  8
Layer_1
 62
7
100
AcDbPolyline
 90
53
 70
0
 10
19.786431
 20
2.151944
 30
0.0
 10
18.609033
 20
2.151944
 30
0.0
 10
17.431639
 20
2.151944
 30
0.0
 10
17.474630
 20
1.766090
 30
0.0
 10
17.594797
 20
1.428750
 30
0.0
 10
17.783313
 20
1.154244
 30
0.0
 10
18.022542
 20
0.956908
 30
0.0
 10
18.304761
 20
0.837844
 30
0.0
 10
18.613445
 20
0.798158
 30
0.0
 10
18.819597
 20
0.810294
 30
0.0
 10
19.005908
 20
0.846675
 30
0.0
 10
19.183398
 20
0.912820
 30
0.0
 10
19.354278
 20
1.005425
 30
0.0
 10
19.515229
 20
1.118974
 30
0.0
 10
19.662958
 20
1.239139
 30
0.0
 10
19.825010
 20
1.384658
 30
0.0
 10
20.028964
 20
1.574278
 30
0.0
 10
20.141410
 20
1.633810
 30
0.0
 10
20.293547
 20
1.653650
 30
0.0
 10
20.461114
 20
1.628307
 30
0.0
 10
20.593408
 20
1.552242
 30
0.0
 10
20.679396
 20
1.429870
 30
0.0
 10
20.708061
 20
1.265609
 30
0.0
 10
20.676085
 20
1.088116
 30
0.0
 10
20.580181
 20
0.881964
 30
0.0
 10
20.419221
 20
0.669194
 30
0.0
 10
20.192125
 20
0.463039
 30
0.0
 10
19.902181
 20
0.281138
 30
0.0
 10
19.543895
 20
0.132311
 30
0.0
 10
19.126070
 20
0.033093
 30
0.0
 10
18.648722
 20
0.000020
 30
0.0
 10
17.617948
 20
0.165385
 30
0.0
 10
16.845145
 20
0.661478
 30
0.0
 10
16.362279
 20
1.440894
 30
0.0
 10
16.201325
 20
2.456234
 30
0.0
 10
16.241011
 20
2.969963
 30
0.0
 10
16.360075
 20
3.444011
 30
0.0
 10
16.555204
 20
3.869546
 30
0.0
 10
16.823097
 20
4.228942
 30
0.0
 10
17.162645
 20
4.516673
 30
0.0
 10
17.572750
 20
4.727242
 30
0.0
 10
18.042382
 20
4.859531
 30
0.0
 10
18.560528
 20
4.903631
 30
0.0
 10
19.215368
 20
4.828661
 30
0.0
 10
19.768792
 20
4.603770
 30
0.0
 10
20.211965
 20
4.264217
 30
0.0
 10
20.527264
 20
3.836478
 30
0.0
 10
20.715774
 20
3.360225
 30
0.0
 10
20.778617
 20
2.875159
 30
0.0
 10
20.713570
 20
2.500331
 30
0.0
 10
20.518445
 20
2.284256
 30
0.0
 10
20.205350
 20
2.185035
 30
0.0
 10
19.786431
 20
2.151964
 30
0.0
  0
LWPOLYLINE
  5
105
100
AcDbEntity
  8
Layer_1
 62
7
100
AcDbPolyline
 90
11
 70
0
 10
17.431639
 20
2.835470
 30
0.0
 10
18.523043
 20
2.835470
 30
0.0
 10
19.614450
 20
2.835470
 30
0.0
 10
19.508614
 20
3.374557
 30
0.0
 10
19.279311
 20
3.757103
 30
0.0
 10
18.946374
 20
3.988610
 30
0.0
 10
18.520839
 20
4.065784
 30
0.0
 10
18.110733
 20
3.987506
 30
0.0
 10
17.780006
 20
3.752692
 30
0.0
 10
17.549597
 20
3.369045
 30
0.0
 10
17.431639
 20
2.835470
 30
0.0
  0
LWPOLYLINE
  5
106
100
AcDbEntity
  8
Layer_1
 62
7
100
AcDbPolyline
 90
59
 70
0
 10
22.882056
 20
4.228922
 30
0.0
 10
22.882056
 20
4.156162
 30
0.0
 10
22.882056
 20
4.083403
 30
0.0
 10
23.213884
 20
4.446098
 30
0.0
 10
23.574381
 20
4.696353
 30
0.0
 10
23.981176
 20
4.845177
 30
0.0
 10
24.443097
 20
4.894792
 30
0.0
 10
24.893987
 20
4.842973
 30
0.0
 10
25.294172
 20
4.687533
 30
0.0
 10
25.621590
 20
4.437278
 30
0.0
 10
25.854208
 20
4.101042
 30
0.0
 10
25.952320
 20
3.871733
 30
0.0
 10
26.008547
 20
3.624792
 30
0.0
 10
26.034992
 20
3.333747
 30
0.0
 10
26.043825
 20
2.972153
 30
0.0
 10
26.043825
 20
1.852083
 30
0.0
 10
26.043825
 20
0.732014
 30
0.0
 10
26.001929
 20
0.414514
 30
0.0
 10
25.876256
 20
0.185208
 30
0.0
 10
25.687737
 20
0.046301
 30
0.0
 10
25.448514
 20
0.000000
 30
0.0
 10
25.204872
 20
0.047405
 30
0.0
 10
25.011950
 20
0.189617
 30
0.0
 10
24.886271
 20
0.420026
 30
0.0
 10
24.844381
 20
0.732014
 30
0.0
 10
24.844381
 20
1.735226
 30
0.0
 10
24.844381
 20
2.738436
 30
0.0
 10
24.802485
 20
3.263192
 30
0.0
 10
24.676811
 20
3.646839
 30
0.0
 10
24.430967
 20
3.884961
 30
0.0
 10
24.019764
 20
3.964339
 30
0.0
 10
23.712181
 20
3.915831
 30
0.0
 10
23.433270
 20
3.770311
 30
0.0
 10
23.203961
 20
3.544310
 30
0.0
 10
23.045214
 20
3.245556
 30
0.0
 10
22.979067
 20
2.859701
 30
0.0
 10
22.957025
 20
2.240139
 30
0.0
 10
22.957025
 20
1.486075
 30
0.0
 10
22.957025
 20
0.732014
 30
0.0
 10
22.914029
 20
0.411206
 30
0.0
 10
22.785047
 20
0.180797
 30
0.0
 10
22.592120
 20
0.045198
 30
0.0
 10
22.348484
 20
0.000000
 30
0.0
 10
22.111459
 20
0.047405
 30
0.0
 10
21.920742
 20
0.189617
 30
0.0
 10
21.795063
 20
0.420026
 30
0.0
 10
21.753172
 20
0.732014
 30
0.0
 10
21.753172
 20
2.471649
 30
0.0
 10
21.753172
 20
4.211283
 30
0.0
 10
21.790654
 20
4.511142
 30
0.0
 10
21.903103
 20
4.722811
 30
0.0
 10
22.080593
 20
4.851792
 30
0.0
 10
22.313206
 20
4.894792
 30
0.0
 10
22.464240
 20
4.876052
 30
0.0
 10
22.599839
 20
4.819836
 30
0.0
 10
22.714489
 20
4.726127
 30
0.0
 10
22.802686
 20
4.594942
 30
0.0
 10
22.862215
 20
4.428470
 30
0.0
 10
22.882056
 20
4.228933
 30
0.0
  0
ENDSEC
  0
SECTION
  2
OBJECTS
  0
DICTIONARY
  5
C
330
0
100
AcDbDictionary
  3
ACAD_GROUP
350
D
  3
ACAD_MLINESTYLE
350
17
  0
DICTIONARY
  5
D
330
C
100
AcDbDictionary
  0
DICTIONARY
  5
1A
330
C
100
AcDbDictionary
  0
DICTIONARY
  5
17
330
C
100
AcDbDictionary
  3
STANDARD
350
18
  0
DICTIONARY
  5
19
330
C
100
AcDbDictionary
  0
ENDSEC
  0
EOF
