999
DXF created by Inkscape
  0
SECTION
  2
HEADER
  9
$ACADVER
  1
AC1014
  9
$HANDSEED
  5
FFFF
  9
$MEASUREMENT
 70
     1
  0
ENDSEC
  0
SECTION
  2
TABLES
  0
TABLE
  2
VPORT
  5
8
330
0
100
AcDbSymbolTable
 70
     4
  0
VPORT
  5
2E
330
8
100
AcDbSymbolTableRecord
100
AcDbViewportTableRecord
  2
*ACTIVE
 70
     0
 10
0.0
 20
0.0
 11
1.0
 21
1.0
 12
210.0
 22
148.5
 13
0.0
 23
0.0
 14
10.0
 24
10.0
 15
10.0
 25
10.0
 16
0.0
 26
0.0
 36
1.0
 17
0.0
 27
0.0
 37
0.0
 40
341.0
 41
1.24
 42
50.0
 43
0.0
 44
0.0
 50
0.0
 51
0.0
 71
     0
 72
   100
 73
     1
 74
     3
 75
     0
 76
     0
 77
     0
 78
     0
  0
ENDTAB
  0
TABLE
  2
LTYPE
  5
5
330
0
100
AcDbSymbolTable
 70
     1
  0
LTYPE
  5
14
330
5
100
AcDbSymbolTableRecord
100
AcDbLinetypeTableRecord
  2
BYBLOCK
 70
     0
  3

 72
    65
 73
     0
 40
0.0
  0
LTYPE
  5
15
330
5
100
AcDbSymbolTableRecord
100
AcDbLinetypeTableRecord
  2
BYLAYER
 70
     0
  3

 72
    65
 73
     0
 40
0.0
  0
LTYPE
  5
16
330
5
100
AcDbSymbolTableRecord
100
AcDbLinetypeTableRecord
  2
CONTINUOUS
 70
     0
  3
Solid line
 72
    65
 73
     0
 40
0.0
  0
ENDTAB
  0
TABLE
  2
LAYER
  5
2
100
AcDbSymbolTable
 70
2
  0
LAYER
  5
50
100
AcDbSymbolTableRecord
100
AcDbLayerTableRecord
  2
0
 70
0
  6
CONTINUOUS
  0
LAYER
  5
51
100
AcDbSymbolTableRecord
100
AcDbLayerTableRecord
  2
Layer_1
 70
0
  6
CONTINUOUS
  0
ENDTAB
  0
TABLE
  2
STYLE
  5
3
330
0
100
AcDbSymbolTable
 70
     1
  0
STYLE
  5
11
330
3
100
AcDbSymbolTableRecord
100
AcDbTextStyleTableRecord
  2
STANDARD
 70
     0
 40
0.0
 41
1.0
 50
0.0
 71
     0
 42
2.5
  3
txt
  4

  0
ENDTAB
  0
TABLE
  2
VIEW
  5
6
330
0
100
AcDbSymbolTable
 70
     0
  0
ENDTAB
  0
TABLE
  2
UCS
  5
7
330
0
100
AcDbSymbolTable
 70
     0
  0
ENDTAB
  0
TABLE
  2
APPID
  5
9
330
0
100
AcDbSymbolTable
 70
     2
  0
APPID
  5
12
330
9
100
AcDbSymbolTableRecord
100
AcDbRegAppTableRecord
  2
ACAD
 70
     0
  0
ENDTAB
  0
TABLE
  2
DIMSTYLE
  5
A
330
0
100
AcDbSymbolTable
 70
     1
  0
DIMSTYLE
105
27
330
A
100
AcDbSymbolTableRecord
100
AcDbDimStyleTableRecord
  2
ISO-25
 70
     0
  3

  4

  5

  6

  7

 40
1.0
 41
2.5
 42
0.625
 43
3.75
 44
1.25
 45
0.0
 46
0.0
 47
0.0
 48
0.0
140
2.5
141
2.5
142
0.0
143
0.03937007874016
144
1.0
145
0.0
146
1.0
147
0.625
 71
     0
 72
     0
 73
     0
 74
     0
 75
     0
 76
     0
 77
     1
 78
     8
170
     0
171
     3
172
     1
173
     0
174
     0
175
     0
176
     0
177
     0
178
     0
270
     2
271
     2
272
     2
273
     2
274
     3
340
11
275
     0
280
     0
281
     0
282
     0
283
     0
284
     8
285
     0
286
     0
287
     3
288
     0
  0
ENDTAB
  0
TABLE
  2
BLOCK_RECORD
  5
1
330
0
100
AcDbSymbolTable
 70
     1
  0
BLOCK_RECORD
  5
1F
330
1
100
AcDbSymbolTableRecord
100
AcDbBlockTableRecord
  2
*MODEL_SPACE
  0
BLOCK_RECORD
  5
1B
330
1
100
AcDbSymbolTableRecord
100
AcDbBlockTableRecord
  2
*PAPER_SPACE
  0
ENDTAB
  0
ENDSEC
  0
SECTION
  2
BLOCKS
  0
BLOCK
  5
20
330
1F
100
AcDbEntity
  8
0
100
AcDbBlockBegin
  2
*MODEL_SPACE
 70
     0
 10
0.0
 20
0.0
 30
0.0
  3
*MODEL_SPACE
  1

  0
ENDBLK
  5
21
330
1F
100
AcDbEntity
  8
0
100
AcDbBlockEnd
  0
BLOCK
  5
1C
330
1B
100
AcDbEntity
 67
     1
  8
0
100
AcDbBlockBegin
  2
*PAPER_SPACE
  1

  0
ENDBLK
  5
1D
330
1B
100
AcDbEntity
 67
     1
  8
0
100
AcDbBlockEnd
  0
ENDSEC
  0
SECTION
  2
ENTITIES
  0
LWPOLYLINE
  5
100
100
AcDbEntity
  8
Layer_1
 62
7
100
AcDbPolyline
 90
45
 70
0
 10
6.435989
 20
8.837083
 30
0.0
 10
6.435989
 20
6.297083
 30
0.0
 10
6.435989
 20
3.757083
 30
0.0
 10
6.421102
 20
3.145231
 30
0.0
 10
6.376459
 20
2.632603
 30
0.0
 10
6.287158
 20
2.166273
 30
0.0
 10
6.125105
 20
1.693333
 30
0.0
 10
5.686884
 20
0.980612
 30
0.0
 10
5.033699
 20
0.443176
 30
0.0
 10
4.190336
 20
0.110795
 30
0.0
 10
3.181615
 20
0.000000
 30
0.0
 10
2.277069
 20
0.077721
 30
0.0
 10
1.534584
 20
0.310885
 30
0.0
 10
0.942578
 20
0.717680
 30
0.0
 10
0.476251
 20
1.316301
 30
0.0
 10
0.284428
 20
1.714827
 30
0.0
 10
0.132293
 20
2.169583
 30
0.0
 10
0.033075
 20
2.640869
 30
0.0
 10
0.000001
 20
3.089010
 30
0.0
 10
0.064493
 20
3.497456
 30
0.0
 10
0.257969
 20
3.796769
 30
0.0
 10
0.552318
 20
3.980321
 30
0.0
 10
0.919428
 20
4.041510
 30
0.0
 10
1.261731
 20
3.985283
 30
0.0
 10
1.508126
 20
3.816612
 30
0.0
 10
1.683411
 20
3.528876
 30
0.0
 10
1.812397
 20
3.115468
 30
0.0
 10
1.924843
 20
2.657404
 30
0.0
 10
2.037293
 20
2.301875
 30
0.0
 10
2.187773
 20
2.019100
 30
0.0
 10
2.414324
 20
1.779321
 30
0.0
 10
2.735129
 20
1.615609
 30
0.0
 10
3.168386
 20
1.561042
 30
0.0
 10
4.145688
 20
2.038943
 30
0.0
 10
4.471459
 20
3.472654
 30
0.0
 10
4.471459
 20
6.154869
 30
0.0
 10
4.471459
 20
8.837083
 30
0.0
 10
4.535948
 20
9.357972
 30
0.0
 10
4.729428
 20
9.730051
 30
0.0
 10
5.040309
 20
9.953286
 30
0.0
 10
5.443803
 20
10.027708
 30
0.0
 10
5.852249
 20
9.953286
 30
0.0
 10
6.164793
 20
9.730051
 30
0.0
 10
6.368186
 20
9.357972
 30
0.0
 10
6.435990
 20
8.837083
 30
0.0
  0
LWPOLYLINE
  5
101
100
AcDbEntity
  8
Layer_1
 62
7
100
AcDbPolyline
 90
53
 70
0
 10
13.493750
 20
3.227917
 30
0.0
 10
11.727657
 20
3.227917
 30
0.0
 10
9.961561
 20
3.227917
 30
0.0
 10
10.026049
 20
2.649138
 30
0.0
 10
10.206302
 20
2.143125
 30
0.0
 10
10.489074
 20
1.731366
 30
0.0
 10
10.847917
 20
1.435362
 30
0.0
 10
11.271247
 20
1.256769
 30
0.0
 10
11.734270
 20
1.197237
 30
0.0
 10
12.043498
 20
1.215413
 30
0.0
 10
12.322968
 20
1.269989
 30
0.0
 10
12.589203
 20
1.369207
 30
0.0
 10
12.845520
 20
1.508114
 30
0.0
 10
13.086950
 20
1.678438
 30
0.0
 10
13.308542
 20
1.858685
 30
0.0
 10
13.551623
 20
2.076966
 30
0.0
 10
13.857552
 20
2.361393
 30
0.0
 10
14.026219
 20
2.450688
 30
0.0
 10
14.254427
 20
2.480457
 30
0.0
 10
14.505777
 20
2.442422
 30
0.0
 10
14.704218
 20
2.328322
 30
0.0
 10
14.833197
 20
2.144765
 30
0.0
 10
14.876199
 20
1.898373
 30
0.0
 10
14.828238
 20
1.632136
 30
0.0
 10
14.684375
 20
1.322905
 30
0.0
 10
14.442937
 20
1.003752
 30
0.0
 10
14.102292
 20
0.694518
 30
0.0
 10
13.667379
 20
0.421668
 30
0.0
 10
13.129949
 20
0.198425
 30
0.0
 10
12.503212
 20
0.049598
 30
0.0
 10
11.787186
 20
-0.000011
 30
0.0
 10
10.241026
 20
0.248034
 30
0.0
 10
9.081824
 20
0.992175
 30
0.0
 10
8.357527
 20
2.161303
 30
0.0
 10
8.116094
 20
3.684310
 30
0.0
 10
8.175625
 20
4.454906
 30
0.0
 10
8.354219
 20
5.165976
 30
0.0
 10
8.646914
 20
5.804281
 30
0.0
 10
9.048750
 20
6.343373
 30
0.0
 10
9.558071
 20
6.774970
 30
0.0
 10
10.173228
 20
7.090822
 30
0.0
 10
10.877680
 20
7.289252
 30
0.0
 10
11.654895
 20
7.355405
 30
0.0
 10
12.637158
 20
7.242951
 30
0.0
 10
13.467292
 20
6.905614
 30
0.0
 10
14.132052
 20
6.396284
 30
0.0
 10
14.605000
 20
5.754675
 30
0.0
 10
14.887767
 20
5.040297
 30
0.0
 10
14.982032
 20
4.312697
 30
0.0
 10
14.884460
 20
3.750454
 30
0.0
 10
14.591770
 20
3.426341
 30
0.0
 10
14.122129
 20
3.277512
 30
0.0
 10
13.493750
 20
3.227905
 30
0.0
  0
LWPOLYLINE
  5
102
100
AcDbEntity
  8
Layer_1
 62
7
100
AcDbPolyline
 90
11
 70
0
 10
9.961561
 20
4.253165
 30
0.0
 10
11.598670
 20
4.253165
 30
0.0
 10
13.235782
 20
4.253165
 30
0.0
 10
13.077027
 20
5.061794
 30
0.0
 10
12.733074
 20
5.635614
 30
0.0
 10
12.233668
 20
5.982874
 30
0.0
 10
11.595366
 20
6.098633
 30
0.0
 10
10.980206
 20
5.981220
 30
0.0
 10
10.484116
 20
5.628998
 30
0.0
 10
10.138501
 20
5.053525
 30
0.0
 10
9.961561
 20
4.253165
 30
0.0
  0
LWPOLYLINE
  5
103
100
AcDbEntity
  8
Layer_1
 62
7
100
AcDbPolyline
 90
65
 70
0
 10
21.060834
 20
1.018644
 30
0.0
 10
20.415908
 20
0.572158
 30
0.0
 10
19.790834
 20
0.251353
 30
0.0
 10
19.144257
 20
0.062837
 30
0.0
 10
18.421616
 20
0.000000
 30
0.0
 10
17.768424
 20
0.067798
 30
0.0
 10
17.197917
 20
0.271196
 30
0.0
 10
16.734895
 20
0.596965
 30
0.0
 10
16.390936
 20
1.018644
 30
0.0
 10
16.177616
 20
1.508122
 30
0.0
 10
16.106510
 20
2.037292
 30
0.0
 10
16.223920
 20
2.723552
 30
0.0
 10
16.576145
 20
3.300676
 30
0.0
 10
17.133421
 20
3.737237
 30
0.0
 10
17.865991
 20
4.001821
 30
0.0
 10
18.165299
 20
4.066309
 30
0.0
 10
18.719270
 20
4.180417
 30
0.0
 10
19.350959
 20
4.312706
 30
0.0
 10
19.883436
 20
4.431769
 30
0.0
 10
20.392757
 20
4.562404
 30
0.0
 10
20.941770
 20
4.716196
 30
0.0
 10
20.852475
 20
5.334658
 30
0.0
 10
20.650728
 20
5.761301
 30
0.0
 10
20.262119
 20
6.014305
 30
0.0
 10
19.599010
 20
6.098644
 30
0.0
 10
18.995427
 20
6.050684
 30
0.0
 10
18.560520
 20
5.906821
 30
0.0
 10
18.239712
 20
5.667039
 30
0.0
 10
17.965209
 20
5.331353
 30
0.0
 10
17.755193
 20
5.012196
 30
0.0
 10
17.614635
 20
4.822029
 30
0.0
 10
17.455882
 20
4.732731
 30
0.0
 10
17.178074
 20
4.702968
 30
0.0
 10
16.893645
 20
4.750920
 30
0.0
 10
16.648907
 20
4.894792
 30
0.0
 10
16.485196
 20
5.119683
 30
0.0
 10
16.430625
 20
5.397500
 30
0.0
 10
16.514959
 20
5.867129
 30
0.0
 10
16.767968
 20
6.323542
 30
0.0
 10
17.199568
 20
6.733639
 30
0.0
 10
17.819686
 20
7.064375
 30
0.0
 10
18.621703
 20
7.282648
 30
0.0
 10
19.599010
 20
7.355417
 30
0.0
 10
20.662299
 20
7.284302
 30
0.0
 10
21.470936
 20
7.070987
 30
0.0
 10
22.051363
 20
6.710488
 30
0.0
 10
22.430052
 20
6.184635
 30
0.0
 10
22.643367
 20
5.476869
 30
0.0
 10
22.714478
 20
4.570676
 30
0.0
 10
22.712785
 20
3.983629
 30
0.0
 10
22.707846
 20
3.492500
 30
0.0
 10
22.706152
 20
3.024516
 30
0.0
 10
22.701214
 20
2.506926
 30
0.0
 10
22.742548
 20
1.986026
 30
0.0
 10
22.866579
 20
1.441978
 30
0.0
 10
22.995557
 20
0.990532
 30
0.0
 10
23.038557
 20
0.734218
 30
0.0
 10
22.972407
 20
0.467981
 30
0.0
 10
22.773973
 20
0.224894
 30
0.0
 10
22.497810
 20
0.056224
 30
0.0
 10
22.185275
 20
0.000000
 30
0.0
 10
21.909112
 20
0.064491
 30
0.0
 10
21.636265
 20
0.257968
 30
0.0
 10
21.356794
 20
0.580430
 30
0.0
 10
21.060797
 20
1.018644
 30
0.0
  0
LWPOLYLINE
  5
104
100
AcDbEntity
  8
Layer_1
 62
7
100
AcDbPolyline
 90
21
 70
0
 10
20.941733
 20
3.631404
 30
0.0
 10
20.453906
 20
3.480920
 30
0.0
 10
19.784182
 20
3.320519
 30
0.0
 10
19.145871
 20
3.181612
 30
0.0
 10
18.739079
 20
3.082394
 30
0.0
 10
18.454650
 20
2.971600
 30
0.0
 10
18.183454
 20
2.784737
 30
0.0
 10
17.985015
 20
2.521808
 30
0.0
 10
17.918871
 20
2.169583
 30
0.0
 10
17.996589
 20
1.789244
 30
0.0
 10
18.229755
 20
1.468436
 30
0.0
 10
18.588592
 20
1.255116
 30
0.0
 10
19.043348
 20
1.184010
 30
0.0
 10
19.557628
 20
1.241885
 30
0.0
 10
20.028922
 20
1.415519
 30
0.0
 10
20.424140
 20
1.686715
 30
0.0
 10
20.696996
 20
2.024061
 30
0.0
 10
20.880544
 20
2.566456
 30
0.0
 10
20.941733
 20
3.373436
 30
0.0
 10
20.941733
 20
3.502420
 30
0.0
 10
20.941733
 20
3.631404
 30
0.0
  0
LWPOLYLINE
  5
105
100
AcDbEntity
  8
Layer_1
 62
7
100
AcDbPolyline
 90
59
 70
0
 10
26.180520
 20
6.343385
 30
0.0
 10
26.180520
 20
6.234244
 30
0.0
 10
26.180520
 20
6.125103
 30
0.0
 10
26.678264
 20
6.669148
 30
0.0
 10
27.219010
 20
7.044529
 30
0.0
 10
27.829203
 20
7.267767
 30
0.0
 10
28.522084
 20
7.342186
 30
0.0
 10
29.198421
 20
7.264459
 30
0.0
 10
29.798699
 20
7.031301
 30
0.0
 10
30.289825
 20
6.655918
 30
0.0
 10
30.638750
 20
6.151561
 30
0.0
 10
30.785921
 20
5.807597
 30
0.0
 10
30.870260
 20
5.437186
 30
0.0
 10
30.909943
 20
5.000619
 30
0.0
 10
30.923179
 20
4.458228
 30
0.0
 10
30.923179
 20
2.778125
 30
0.0
 10
30.923179
 20
1.098019
 30
0.0
 10
30.860337
 20
0.621769
 30
0.0
 10
30.671827
 20
0.277811
 30
0.0
 10
30.389049
 20
0.069452
 30
0.0
 10
30.030211
 20
0.000000
 30
0.0
 10
29.664751
 20
0.071106
 30
0.0
 10
29.375368
 20
0.284426
 30
0.0
 10
29.186847
 20
0.630039
 30
0.0
 10
29.124013
 20
1.098019
 30
0.0
 10
29.124013
 20
2.602837
 30
0.0
 10
29.124013
 20
4.107654
 30
0.0
 10
29.061170
 20
4.894786
 30
0.0
 10
28.872660
 20
5.470260
 30
0.0
 10
28.503892
 20
5.827443
 30
0.0
 10
27.887086
 20
5.946510
 30
0.0
 10
27.425715
 20
5.873744
 30
0.0
 10
27.007346
 20
5.655468
 30
0.0
 10
26.663385
 20
5.316466
 30
0.0
 10
26.425263
 20
4.868333
 30
0.0
 10
26.326042
 20
4.289552
 30
0.0
 10
26.292971
 20
3.360208
 30
0.0
 10
26.292971
 20
2.229112
 30
0.0
 10
26.292971
 20
1.098019
 30
0.0
 10
26.228478
 20
0.616808
 30
0.0
 10
26.035003
 20
0.271196
 30
0.0
 10
25.745612
 20
0.067798
 30
0.0
 10
25.380160
 20
-0.000000
 30
0.0
 10
25.024625
 20
0.071106
 30
0.0
 10
24.738545
 20
0.284426
 30
0.0
 10
24.550029
 20
0.630039
 30
0.0
 10
24.487189
 20
1.098019
 30
0.0
 10
24.487189
 20
3.707471
 30
0.0
 10
24.487189
 20
6.316926
 30
0.0
 10
24.543414
 20
6.766712
 30
0.0
 10
24.712086
 20
7.084218
 30
0.0
 10
24.978321
 20
7.277690
 30
0.0
 10
25.327243
 20
7.342186
 30
0.0
 10
25.553789
 20
7.314077
 30
0.0
 10
25.757189
 20
7.229746
 30
0.0
 10
25.929167
 20
7.089182
 30
0.0
 10
26.061461
 20
6.892403
 30
0.0
 10
26.150757
 20
6.642698
 30
0.0
 10
26.180523
 20
6.343393
 30
0.0
  0
LWPOLYLINE
  5
106
100
AcDbEntity
  8
Layer_1
 62
7
100
AcDbPolyline
 90
53
 70
0
 10
37.756042
 20
3.227917
 30
0.0
 10
35.989946
 20
3.227917
 30
0.0
 10
34.223853
 20
3.227917
 30
0.0
 10
34.288341
 20
2.649138
 30
0.0
 10
34.468593
 20
2.143125
 30
0.0
 10
34.751366
 20
1.731366
 30
0.0
 10
35.110209
 20
1.435362
 30
0.0
 10
35.533539
 20
1.256769
 30
0.0
 10
35.996561
 20
1.197237
 30
0.0
 10
36.305792
 20
1.215413
 30
0.0
 10
36.585260
 20
1.269989
 30
0.0
 10
36.851494
 20
1.369207
 30
0.0
 10
37.107811
 20
1.508114
 30
0.0
 10
37.349241
 20
1.678438
 30
0.0
 10
37.570834
 20
1.858685
 30
0.0
 10
37.813914
 20
2.076966
 30
0.0
 10
38.119843
 20
2.361393
 30
0.0
 10
38.288511
 20
2.450688
 30
0.0
 10
38.516718
 20
2.480457
 30
0.0
 10
38.768068
 20
2.442422
 30
0.0
 10
38.966510
 20
2.328322
 30
0.0
 10
39.095491
 20
2.144765
 30
0.0
 10
39.138491
 20
1.898373
 30
0.0
 10
39.090530
 20
1.632136
 30
0.0
 10
38.946667
 20
1.322905
 30
0.0
 10
38.705229
 20
1.003752
 30
0.0
 10
38.364584
 20
0.694518
 30
0.0
 10
37.929671
 20
0.421668
 30
0.0
 10
37.392241
 20
0.198425
 30
0.0
 10
36.765504
 20
0.049598
 30
0.0
 10
36.049478
 20
-0.000011
 30
0.0
 10
34.503318
 20
0.248034
 30
0.0
 10
33.344116
 20
0.992175
 30
0.0
 10
32.619818
 20
2.161303
 30
0.0
 10
32.378385
 20
3.684310
 30
0.0
 10
32.437917
 20
4.454906
 30
0.0
 10
32.616510
 20
5.165976
 30
0.0
 10
32.909205
 20
5.804281
 30
0.0
 10
33.311042
 20
6.343373
 30
0.0
 10
33.820363
 20
6.774970
 30
0.0
 10
34.435520
 20
7.090822
 30
0.0
 10
35.139972
 20
7.289252
 30
0.0
 10
35.917186
 20
7.355405
 30
0.0
 10
36.899450
 20
7.242951
 30
0.0
 10
37.729584
 20
6.905614
 30
0.0
 10
38.394344
 20
6.396284
 30
0.0
 10
38.867292
 20
5.754675
 30
0.0
 10
39.150059
 20
5.040297
 30
0.0
 10
39.244324
 20
4.312697
 30
0.0
 10
39.146751
 20
3.750454
 30
0.0
 10
38.854061
 20
3.426341
 30
0.0
 10
38.384421
 20
3.277512
 30
0.0
 10
37.756042
 20
3.227905
 30
0.0
  0
LWPOLYLINE
  5
107
100
AcDbEntity
  8
Layer_1
 62
7
100
AcDbPolyline
 90
11
 70
0
 10
34.223853
 20
4.253165
 30
0.0
 10
35.860962
 20
4.253165
 30
0.0
 10
37.498074
 20
4.253165
 30
0.0
 10
37.339318
 20
5.061794
 30
0.0
 10
36.995366
 20
5.635614
 30
0.0
 10
36.495959
 20
5.982874
 30
0.0
 10
35.857657
 20
6.098633
 30
0.0
 10
35.242497
 20
5.981220
 30
0.0
 10
34.746407
 20
5.628998
 30
0.0
 10
34.400792
 20
5.053525
 30
0.0
 10
34.223853
 20
4.253165
 30
0.0
  0
LWPOLYLINE
  5
108
100
AcDbEntity
  8
Layer_1
 62
7
100
AcDbPolyline
 90
71
 70
0
 10
40.858282
 20
7.183436
 30
0.0
 10
40.957500
 20
7.183436
 30
0.0
 10
41.056718
 20
7.183436
 30
0.0
 10
41.056718
 20
7.725833
 30
0.0
 10
41.056718
 20
8.268228
 30
0.0
 10
41.061685
 20
8.656828
 30
0.0
 10
41.076559
 20
8.949529
 30
0.0
 10
41.122860
 20
9.182687
 30
0.0
 10
41.208850
 20
9.379478
 30
0.0
 10
41.337834
 20
9.546488
 30
0.0
 10
41.513122
 20
9.677135
 30
0.0
 10
41.723132
 20
9.766424
 30
0.0
 10
41.956299
 20
9.796196
 30
0.0
 10
42.283719
 20
9.731697
 30
0.0
 10
42.578071
 20
9.538228
 30
0.0
 10
42.728549
 20
9.346398
 30
0.0
 10
42.809581
 20
9.114894
 30
0.0
 10
42.849267
 20
8.817232
 30
0.0
 10
42.862503
 20
8.413750
 30
0.0
 10
42.862503
 20
7.798593
 30
0.0
 10
42.862503
 20
7.183436
 30
0.0
 10
43.193231
 20
7.183436
 30
0.0
 10
43.523961
 20
7.183436
 30
0.0
 10
43.861302
 20
7.137129
 30
0.0
 10
44.106045
 20
6.998228
 30
0.0
 10
44.259830
 20
6.793171
 30
0.0
 10
44.311096
 20
6.535208
 30
0.0
 10
44.238334
 20
6.225972
 30
0.0
 10
44.020054
 20
6.025885
 30
0.0
 10
43.672786
 20
5.916738
 30
0.0
 10
43.199846
 20
5.880362
 30
0.0
 10
43.031173
 20
5.880362
 30
0.0
 10
42.862503
 20
5.880362
 30
0.0
 10
42.862503
 20
4.220103
 30
0.0
 10
42.862503
 20
2.559843
 30
0.0
 10
42.869107
 20
2.184462
 30
0.0
 10
42.888947
 20
1.905000
 30
0.0
 10
42.945166
 20
1.699946
 30
0.0
 10
43.047697
 20
1.534583
 30
0.0
 10
43.219675
 20
1.430401
 30
0.0
 10
43.471031
 20
1.395676
 30
0.0
 10
43.657890
 20
1.408913
 30
0.0
 10
43.900979
 20
1.448602
 30
0.0
 10
44.142409
 20
1.493249
 30
0.0
 10
44.324313
 20
1.508122
 30
0.0
 10
44.531012
 20
1.463472
 30
0.0
 10
44.714572
 20
1.329526
 30
0.0
 10
44.848512
 20
1.136052
 30
0.0
 10
44.893165
 20
0.899581
 30
0.0
 10
44.774099
 20
0.514279
 30
0.0
 10
44.416915
 20
0.231507
 30
0.0
 10
43.836483
 20
0.057872
 30
0.0
 10
43.047697
 20
-0.000003
 30
0.0
 10
42.303556
 20
0.071103
 30
0.0
 10
41.764467
 20
0.284424
 30
0.0
 10
41.402319
 20
0.623420
 30
0.0
 10
41.188999
 20
1.071558
 30
0.0
 10
41.089781
 20
1.658603
 30
0.0
 10
41.056707
 20
2.414318
 30
0.0
 10
41.056707
 20
4.147340
 30
0.0
 10
41.056707
 20
5.880360
 30
0.0
 10
40.937646
 20
5.880360
 30
0.0
 10
40.818582
 20
5.880360
 30
0.0
 10
40.474624
 20
5.926658
 30
0.0
 10
40.223271
 20
6.065568
 30
0.0
 10
40.069480
 20
6.275578
 30
0.0
 10
40.018217
 20
6.535206
 30
0.0
 10
40.071133
 20
6.793168
 30
0.0
 10
40.229883
 20
6.998225
 30
0.0
 10
40.496121
 20
7.137126
 30
0.0
 10
40.858271
 20
7.183433
 30
0.0
  0
LWPOLYLINE
  5
109
100
AcDbEntity
  8
Layer_1
 62
7
100
AcDbPolyline
 90
71
 70
0
 10
45.647241
 20
7.183436
 30
0.0
 10
45.746459
 20
7.183436
 30
0.0
 10
45.845677
 20
7.183436
 30
0.0
 10
45.845677
 20
7.725833
 30
0.0
 10
45.845677
 20
8.268228
 30
0.0
 10
45.850644
 20
8.656828
 30
0.0
 10
45.865517
 20
8.949529
 30
0.0
 10
45.911818
 20
9.182687
 30
0.0
 10
45.997809
 20
9.379478
 30
0.0
 10
46.126793
 20
9.546488
 30
0.0
 10
46.302081
 20
9.677135
 30
0.0
 10
46.512091
 20
9.766424
 30
0.0
 10
46.745257
 20
9.796196
 30
0.0
 10
47.072677
 20
9.731697
 30
0.0
 10
47.367029
 20
9.538228
 30
0.0
 10
47.517507
 20
9.346398
 30
0.0
 10
47.598539
 20
9.114894
 30
0.0
 10
47.638225
 20
8.817232
 30
0.0
 10
47.651461
 20
8.413750
 30
0.0
 10
47.651461
 20
7.798593
 30
0.0
 10
47.651461
 20
7.183436
 30
0.0
 10
47.982189
 20
7.183436
 30
0.0
 10
48.312920
 20
7.183436
 30
0.0
 10
48.650260
 20
7.137129
 30
0.0
 10
48.895003
 20
6.998228
 30
0.0
 10
49.048789
 20
6.793171
 30
0.0
 10
49.100054
 20
6.535208
 30
0.0
 10
49.027292
 20
6.225972
 30
0.0
 10
48.809013
 20
6.025885
 30
0.0
 10
48.461744
 20
5.916738
 30
0.0
 10
47.988804
 20
5.880362
 30
0.0
 10
47.820132
 20
5.880362
 30
0.0
 10
47.651461
 20
5.880362
 30
0.0
 10
47.651461
 20
4.220103
 30
0.0
 10
47.651461
 20
2.559843
 30
0.0
 10
47.658065
 20
2.184462
 30
0.0
 10
47.677906
 20
1.905000
 30
0.0
 10
47.734124
 20
1.699946
 30
0.0
 10
47.836656
 20
1.534583
 30
0.0
 10
48.008633
 20
1.430401
 30
0.0
 10
48.259989
 20
1.395676
 30
0.0
 10
48.446848
 20
1.408913
 30
0.0
 10
48.689938
 20
1.448602
 30
0.0
 10
48.931367
 20
1.493249
 30
0.0
 10
49.113271
 20
1.508122
 30
0.0
 10
49.319971
 20
1.463472
 30
0.0
 10
49.503531
 20
1.329526
 30
0.0
 10
49.637471
 20
1.136052
 30
0.0
 10
49.682124
 20
0.899581
 30
0.0
 10
49.563057
 20
0.514279
 30
0.0
 10
49.205874
 20
0.231507
 30
0.0
 10
48.625441
 20
0.057872
 30
0.0
 10
47.836656
 20
-0.000003
 30
0.0
 10
47.092515
 20
0.071103
 30
0.0
 10
46.553425
 20
0.284424
 30
0.0
 10
46.191278
 20
0.623420
 30
0.0
 10
45.977957
 20
1.071558
 30
0.0
 10
45.878739
 20
1.658603
 30
0.0
 10
45.845665
 20
2.414318
 30
0.0
 10
45.845665
 20
4.147340
 30
0.0
 10
45.845665
 20
5.880360
 30
0.0
 10
45.726604
 20
5.880360
 30
0.0
 10
45.607540
 20
5.880360
 30
0.0
 10
45.263582
 20
5.926658
 30
0.0
 10
45.012229
 20
6.065568
 30
0.0
 10
44.858438
 20
6.275578
 30
0.0
 10
44.807175
 20
6.535206
 30
0.0
 10
44.860092
 20
6.793168
 30
0.0
 10
45.018842
 20
6.998225
 30
0.0
 10
45.285079
 20
7.137126
 30
0.0
 10
45.647229
 20
7.183433
 30
0.0
  0
LWPOLYLINE
  5
10a
100
AcDbEntity
  8
Layer_1
 62
7
100
AcDbPolyline
 90
53
 70
0
 10
55.377292
 20
3.227917
 30
0.0
 10
53.611199
 20
3.227917
 30
0.0
 10
51.845103
 20
3.227917
 30
0.0
 10
51.909591
 20
2.649138
 30
0.0
 10
52.089843
 20
2.143125
 30
0.0
 10
52.372616
 20
1.731366
 30
0.0
 10
52.731459
 20
1.435362
 30
0.0
 10
53.154789
 20
1.256769
 30
0.0
 10
53.617811
 20
1.197237
 30
0.0
 10
53.927042
 20
1.215413
 30
0.0
 10
54.206510
 20
1.269989
 30
0.0
 10
54.472744
 20
1.369207
 30
0.0
 10
54.729061
 20
1.508114
 30
0.0
 10
54.970491
 20
1.678438
 30
0.0
 10
55.192084
 20
1.858685
 30
0.0
 10
55.435164
 20
2.076966
 30
0.0
 10
55.741093
 20
2.361393
 30
0.0
 10
55.909761
 20
2.450688
 30
0.0
 10
56.137968
 20
2.480457
 30
0.0
 10
56.389318
 20
2.442422
 30
0.0
 10
56.587760
 20
2.328322
 30
0.0
 10
56.716741
 20
2.144765
 30
0.0
 10
56.759741
 20
1.898373
 30
0.0
 10
56.711780
 20
1.632136
 30
0.0
 10
56.567917
 20
1.322905
 30
0.0
 10
56.326479
 20
1.003752
 30
0.0
 10
55.985834
 20
0.694518
 30
0.0
 10
55.550921
 20
0.421668
 30
0.0
 10
55.013491
 20
0.198425
 30
0.0
 10
54.386754
 20
0.049598
 30
0.0
 10
53.670728
 20
-0.000011
 30
0.0
 10
52.124568
 20
0.248034
 30
0.0
 10
50.965366
 20
0.992175
 30
0.0
 10
50.241068
 20
2.161303
 30
0.0
 10
49.999635
 20
3.684310
 30
0.0
 10
50.059167
 20
4.454906
 30
0.0
 10
50.237760
 20
5.165976
 30
0.0
 10
50.530455
 20
5.804281
 30
0.0
 10
50.932292
 20
6.343373
 30
0.0
 10
51.441613
 20
6.774970
 30
0.0
 10
52.056770
 20
7.090822
 30
0.0
 10
52.761222
 20
7.289252
 30
0.0
 10
53.538436
 20
7.355405
 30
0.0
 10
54.520700
 20
7.242951
 30
0.0
 10
55.350834
 20
6.905614
 30
0.0
 10
56.015594
 20
6.396284
 30
0.0
 10
56.488542
 20
5.754675
 30
0.0
 10
56.771309
 20
5.040297
 30
0.0
 10
56.865574
 20
4.312697
 30
0.0
 10
56.768001
 20
3.750454
 30
0.0
 10
56.475311
 20
3.426341
 30
0.0
 10
56.005671
 20
3.277512
 30
0.0
 10
55.377292
 20
3.227905
 30
0.0
  0
LWPOLYLINE
  5
10b
100
AcDbEntity
  8
Layer_1
 62
7
100
AcDbPolyline
 90
11
 70
0
 10
51.845103
 20
4.253165
 30
0.0
 10
53.482215
 20
4.253165
 30
0.0
 10
55.119324
 20
4.253165
 30
0.0
 10
54.960568
 20
5.061794
 30
0.0
 10
54.616616
 20
5.635614
 30
0.0
 10
54.117209
 20
5.982874
 30
0.0
 10
53.478907
 20
6.098633
 30
0.0
 10
52.863747
 20
5.981220
 30
0.0
 10
52.367657
 20
5.628998
 30
0.0
 10
52.022042
 20
5.053525
 30
0.0
 10
51.845103
 20
4.253165
 30
0.0
  0
ENDSEC
  0
SECTION
  2
OBJECTS
  0
DICTIONARY
  5
C
330
0
100
AcDbDictionary
  3
ACAD_GROUP
350
D
  3
ACAD_MLINESTYLE
350
17
  0
DICTIONARY
  5
D
330
C
100
AcDbDictionary
  0
DICTIONARY
  5
1A
330
C
100
AcDbDictionary
  0
DICTIONARY
  5
17
330
C
100
AcDbDictionary
  3
STANDARD
350
18
  0
DICTIONARY
  5
19
330
C
100
AcDbDictionary
  0
ENDSEC
  0
EOF
