999
Inkscape export via OpenSCAD DXF Export
  0
SECTION
  2
HEADER
  9
$ACADVER
  1
AC1014
  9
$HANDSEED
  5
FFFF
  9
$MEASUREMENT
 70
     1
  0
ENDSEC
  0
SECTION
  2
TABLES
  0
TABLE
  2
VPORT
  5
8
330
0
100
AcDbSymbolTable
 70
     4
  0
VPORT
  5
2E
330
8
100
AcDbSymbolTableRecord
100
AcDbViewportTableRecord
  2
*ACTIVE
 70
     0
 10
0.0
 20
0.0
 11
1.0
 21
1.0
 12
210.0
 22
148.5
 13
0.0
 23
0.0
 14
10.0
 24
10.0
 15
10.0
 25
10.0
 16
0.0
 26
0.0
 36
1.0
 17
0.0
 27
0.0
 37
0.0
 40
341.0
 41
1.24
 42
50.0
 43
0.0
 44
0.0
 50
0.0
 51
0.0
 71
     0
 72
   100
 73
     1
 74
     3
 75
     0
 76
     0
 77
     0
 78
     0
  0
ENDTAB
  0
TABLE
  2
LTYPE
  5
5
330
0
100
AcDbSymbolTable
 70
     1
  0
LTYPE
  5
14
330
5
100
AcDbSymbolTableRecord
100
AcDbLinetypeTableRecord
  2
BYBLOCK
 70
     0
  3

 72
    65
 73
     0
 40
0.0
  0
LTYPE
  5
15
330
5
100
AcDbSymbolTableRecord
100
AcDbLinetypeTableRecord
  2
BYLAYER
 70
     0
  3

 72
    65
 73
     0
 40
0.0
  0
LTYPE
  5
16
330
5
100
AcDbSymbolTableRecord
100
AcDbLinetypeTableRecord
  2
CONTINUOUS
 70
     0
  3
Solid line
 72
    65
 73
     0
 40
0.0
  0
ENDTAB
  0
TABLE
0
TABLE
2
LAYER
5
2
330
0
100
AcDbSymbolTable
70
1
0
LAYER
5
10
330
2
100
AcDbSymbolTableRecord
100
AcDbLayerTableRecord
2
Layer_1
70
0
62
7
6
CONTINUOUS
0
ENDTAB
0
ENDSEC
  0
ENDTAB
  0
TABLE
  2
STYLE
  5
3
330
0
100
AcDbSymbolTable
 70
     1
  0
STYLE
  5
11
330
3
100
AcDbSymbolTableRecord
100
AcDbTextStyleTableRecord
  2
STANDARD
 70
     0
 40
0.0
 41
1.0
 50
0.0
 71
     0
 42
2.5
  3
txt
  4

  0
ENDTAB
  0
TABLE
  2
VIEW
  5
6
330
0
100
AcDbSymbolTable
 70
     0
  0
ENDTAB
  0
TABLE
  2
UCS
  5
7
330
0
100
AcDbSymbolTable
 70
     0
  0
ENDTAB
  0
TABLE
  2
APPID
  5
9
330
0
100
AcDbSymbolTable
 70
     2
  0
APPID
  5
12
330
9
100
AcDbSymbolTableRecord
100
AcDbRegAppTableRecord
  2
ACAD
 70
     0
  0
ENDTAB
  0
TABLE
  2
DIMSTYLE
  5
A
330
0
100
AcDbSymbolTable
 70
     1
  0
DIMSTYLE
105
27
330
A
100
AcDbSymbolTableRecord
100
AcDbDimStyleTableRecord
  2
ISO-25
 70
     0
  3

  4

  5

  6

  7

 40
1.0
 41
2.5
 42
0.625
 43
3.75
 44
1.25
 45
0.0
 46
0.0
 47
0.0
 48
0.0
140
2.5
141
2.5
142
0.0
143
0.03937007874016
144
1.0
145
0.0
146
1.0
147
0.625
 71
     0
 72
     0
 73
     0
 74
     0
 75
     0
 76
     0
 77
     1
 78
     8
170
     0
171
     3
172
     1
173
     0
174
     0
175
     0
176
     0
177
     0
178
     0
270
     2
271
     2
272
     2
273
     2
274
     3
340
11
275
     0
280
     0
281
     0
282
     0
283
     0
284
     8
285
     0
286
     0
287
     3
288
     0
  0
ENDTAB
  0
TABLE
  2
BLOCK_RECORD
  5
1
330
0
100
AcDbSymbolTable
 70
     1
  0
BLOCK_RECORD
  5
1F
330
1
100
AcDbSymbolTableRecord
100
AcDbBlockTableRecord
  2
*MODEL_SPACE
  0
BLOCK_RECORD
  5
1B
330
1
100
AcDbSymbolTableRecord
100
AcDbBlockTableRecord
  2
*PAPER_SPACE
  0
ENDTAB
  0
ENDSEC
  0
SECTION
  2
BLOCKS
  0
BLOCK
  5
20
330
1F
100
AcDbEntity
  8
0
100
AcDbBlockBegin
  2
*MODEL_SPACE
 70
     0
 10
0.0
 20
0.0
 30
0.0
  3
*MODEL_SPACE
  1

  0
ENDBLK
  5
21
330
1F
100
AcDbEntity
  8
0
100
AcDbBlockEnd
  0
BLOCK
  5
1C
330
1B
100
AcDbEntity
 67
     1
  8
0
100
AcDbBlockBegin
  2
*PAPER_SPACE
  1

  0
ENDBLK
  5
1D
330
1B
100
AcDbEntity
 67
     1
  8
0
100
AcDbBlockEnd
  0
ENDSEC
  0
SECTION
  2
ENTITIES
0
DIMENSION
5
83
100
AcDbEntity
62
256
370
-1
6
ByLayer
1
total_width
3
Standard
70
0
71
5
72
1
41
1.0
100
AcDbAlignedDimension
13
63.782222
23
0.000000
33
0.0
14
160.020000
24
0.000000
34
0.0
50
0.000000
100
AcDbRotatedDimension
0
DIMENSION
5
83
100
AcDbEntity
62
256
370
-1
6
ByLayer
1
total_minx
3
Standard
70
0
71
5
72
1
41
1.0
100
AcDbAlignedDimension
13
63.782222
23
0.000000
33
0.0
14
0.000000
24
0.000000
34
0.0
50
0.000000
100
AcDbRotatedDimension
0
DIMENSION
5
83
100
AcDbEntity
62
256
370
-1
6
ByLayer
1
total_maxx
3
Standard
70
0
71
5
72
1
41
1.0
100
AcDbAlignedDimension
13
0.000000
23
0.000000
33
0.0
14
160.020000
24
0.000000
34
0.0
50
0.000000
100
AcDbRotatedDimension
0
DIMENSION
5
83
100
AcDbEntity
62
256
370
-1
6
ByLayer
1
total_height
3
Standard
70
0
71
5
72
1
41
1.0
100
AcDbAlignedDimension
13
0.000000
23
-104.309333
33
0.0
14
0.000000
24
-11.712222
34
0.0
50
90.000000
100
AcDbRotatedDimension
0
DIMENSION
5
83
100
AcDbEntity
62
256
370
-1
6
ByLayer
1
total_miny
3
Standard
70
0
71
5
72
1
41
1.0
100
AcDbAlignedDimension
13
-104.309333
23
0.000000
33
0.0
14
0.000000
24
0.000000
34
0.0
50
0.000000
100
AcDbRotatedDimension
0
DIMENSION
5
83
100
AcDbEntity
62
256
370
-1
6
ByLayer
1
total_maxy
3
Standard
70
0
71
5
72
1
41
1.0
100
AcDbAlignedDimension
13
0.000000
23
0.000000
33
0.0
14
-11.712222
24
0.000000
34
0.0
50
0.000000
100
AcDbRotatedDimension
0
DIMENSION
8
Layer_1
5
83
100
AcDbEntity
62
256
370
-1
6
ByLayer
1
Layer_1_width
3
Standard
70
0
71
5
72
1
41
1.0
100
AcDbAlignedDimension
13
63.782222
23
0.000000
33
0.0
14
160.020000
24
0.000000
34
0.0
50
0.000000
100
AcDbRotatedDimension
0
DIMENSION
8
Layer_1
5
83
100
AcDbEntity
62
256
370
-1
6
ByLayer
1
Layer_1_minx
3
Standard
70
0
71
5
72
1
41
1.0
100
AcDbAlignedDimension
13
63.782222
23
0.000000
33
0.0
14
0.000000
24
0.000000
34
0.0
50
0.000000
100
AcDbRotatedDimension
0
DIMENSION
8
Layer_1
5
83
100
AcDbEntity
62
256
370
-1
6
ByLayer
1
Layer_1_maxx
3
Standard
70
0
71
5
72
1
41
1.0
100
AcDbAlignedDimension
13
0.000000
23
0.000000
33
0.0
14
160.020000
24
0.000000
34
0.0
50
0.000000
100
AcDbRotatedDimension
0
DIMENSION
8
Layer_1
5
83
100
AcDbEntity
62
256
370
-1
6
ByLayer
1
Layer_1_height
3
Standard
70
0
71
5
72
1
41
1.0
100
AcDbAlignedDimension
13
0.000000
23
-104.309333
33
0.0
14
0.000000
24
-11.712222
34
0.0
50
90.000000
100
AcDbRotatedDimension
0
DIMENSION
8
Layer_1
5
83
100
AcDbEntity
62
256
370
-1
6
ByLayer
1
Layer_1_miny
3
Standard
70
0
71
5
72
1
41
1.0
100
AcDbAlignedDimension
13
-104.309333
23
0.000000
33
0.0
14
0.000000
24
0.000000
34
0.0
50
0.000000
100
AcDbRotatedDimension
0
DIMENSION
8
Layer_1
5
83
100
AcDbEntity
62
256
370
-1
6
ByLayer
1
Layer_1_maxy
3
Standard
70
0
71
5
72
1
41
1.0
100
AcDbAlignedDimension
13
0.000000
23
0.000000
33
0.0
14
-11.712222
24
0.000000
34
0.0
50
0.000000
100
AcDbRotatedDimension
62
0
0
LWPOLYLINE
100
AcDbPolyline
8
Layer_1
90
82
70
0
10
105.579333
20
-101.684667
30
0.0
10
105.579333
20
-101.684667
30
0.0
10
102.376111
20
-100.760389
30
0.0
10
99.213458
20
-99.612979
30
0.0
10
95.532222
20
-98.015778
30
0.0
10
95.627472
20
-98.068694
30
0.0
10
95.447556
20
-98.015778
30
0.0
10
95.419333
20
-93.302667
30
0.0
10
95.419333
20
-61.129333
30
0.0
10
95.419333
20
-56.303333
30
0.0
10
107.865333
20
-33.245778
30
0.0
10
108.295722
20
-32.402639
30
0.0
10
108.599111
20
-31.496000
30
0.0
10
108.743750
20
-30.561139
30
0.0
10
108.740222
20
-29.605111
30
0.0
10
107.611333
20
-14.647333
30
0.0
10
108.429778
20
-13.970000
30
0.0
10
109.820604
20
-13.010003
30
0.0
10
111.343722
20
-12.301361
30
0.0
10
112.962090
20
-11.862594
30
0.0
10
114.638667
20
-11.712222
30
0.0
10
116.083216
20
-11.831691
30
0.0
10
117.481008
20
-12.178495
30
0.0
10
118.825636
20
-12.735230
30
0.0
10
120.110691
20
-13.484490
30
0.0
10
121.329766
20
-14.408871
30
0.0
10
122.476452
20
-15.490968
30
0.0
10
124.527028
20
-18.058694
30
0.0
10
126.211156
20
-21.048431
30
0.0
10
127.477573
20
-24.320941
30
0.0
10
128.275016
20
-27.736987
30
0.0
10
128.552222
20
-31.157333
30
0.0
10
128.298222
20
-34.656889
30
0.0
10
126.887111
20
-43.744444
30
0.0
10
148.674667
20
-43.744444
30
0.0
10
150.732684
20
-43.956552
30
0.0
10
152.713972
20
-44.573472
30
0.0
10
154.552385
20
-45.566101
30
0.0
10
156.181778
20
-46.905333
30
0.0
10
157.453983
20
-48.448295
30
0.0
10
158.379583
20
-50.168528
30
0.0
10
158.940059
20
-52.021052
30
0.0
10
159.116889
20
-53.960889
30
0.0
10
158.960344
20
-55.644521
30
0.0
10
158.541861
20
-57.248778
30
0.0
10
157.874670
20
-58.747201
30
0.0
10
156.972000
20
-60.113333
30
0.0
10
158.257875
20
-61.654972
30
0.0
10
159.215667
20
-63.408278
30
0.0
10
159.813625
20
-65.320333
30
0.0
10
160.020000
20
-67.338222
30
0.0
10
159.934176
20
-68.672384
30
0.0
10
159.682656
20
-69.957597
30
0.0
10
159.274371
20
-71.181957
30
0.0
10
158.718250
20
-72.333556
30
0.0
10
158.023223
20
-73.400488
30
0.0
10
157.198219
20
-74.370847
30
0.0
10
156.252168
20
-75.232727
30
0.0
10
155.194000
20
-75.974222
30
0.0
10
155.790194
20
-77.893333
30
0.0
10
155.984222
20
-79.897111
30
0.0
10
155.871554
20
-81.415434
30
0.0
10
155.543250
20
-82.867941
30
0.0
10
155.013863
20
-84.236443
30
0.0
10
154.297944
20
-85.502750
30
0.0
10
153.410047
20
-86.648671
30
0.0
10
152.364722
20
-87.656017
30
0.0
10
151.176523
20
-88.506598
30
0.0
10
149.860000
20
-89.182222
30
0.0
10
150.075194
20
-90.356972
30
0.0
10
150.142222
20
-91.552889
30
0.0
10
149.951061
20
-93.513837
30
0.0
10
149.401389
20
-95.350101
30
0.0
10
148.528925
20
-97.024307
30
0.0
10
147.369389
20
-98.499083
30
0.0
10
145.958498
20
-99.737058
30
0.0
10
144.331972
20
-100.700858
30
0.0
10
142.525530
20
-101.353111
30
0.0
10
140.574889
20
-101.656444
30
0.0
10
140.462000
20
-101.656444
30
0.0
10
105.579333
20
-101.684667
30
0.0
10
105.579333
20
-101.684667
30
0.0
62
0
0
LWPOLYLINE
100
AcDbPolyline
8
Layer_1
90
84
70
0
10
95.504000
20
-93.302667
30
0.0
10
96.237778
20
-93.641333
30
0.0
10
97.197333
20
-94.170500
30
0.0
10
98.156889
20
-94.911333
30
0.0
10
99.354349
20
-95.781316
30
0.0
10
100.598111
20
-96.441948
30
0.0
10
102.975833
20
-97.250250
30
0.0
10
104.792639
20
-97.566427
30
0.0
10
105.551111
20
-97.620667
30
0.0
10
140.377333
20
-97.620667
30
0.0
10
141.527389
20
-97.436451
30
0.0
10
142.592778
20
-97.046521
30
0.0
10
143.552333
20
-96.472706
30
0.0
10
144.384889
20
-95.736833
30
0.0
10
145.069278
20
-94.860732
30
0.0
10
145.584333
20
-93.866229
30
0.0
10
145.908889
20
-92.775154
30
0.0
10
146.021778
20
-91.609333
30
0.0
10
145.852444
20
-90.194694
30
0.0
10
145.344444
20
-88.843556
30
0.0
10
144.046222
20
-86.360000
30
0.0
10
146.812000
20
-85.908444
30
0.0
10
147.863664
20
-85.636365
30
0.0
10
148.827684
20
-85.192306
30
0.0
10
149.687855
20
-84.594788
30
0.0
10
150.427972
20
-83.862333
30
0.0
10
151.031829
20
-83.013462
30
0.0
10
151.483219
20
-82.066694
30
0.0
10
151.765937
20
-81.040552
30
0.0
10
151.863778
20
-79.953556
30
0.0
10
151.785285
20
-78.976361
30
0.0
10
151.553333
20
-78.041500
30
0.0
10
151.173215
20
-77.159556
30
0.0
10
150.650222
20
-76.341111
30
0.0
10
148.900444
20
-74.026889
30
0.0
10
151.666222
20
-73.152000
30
0.0
10
152.577381
20
-72.786544
30
0.0
10
153.399243
20
-72.292104
30
0.0
10
154.735389
20
-70.971833
30
0.0
10
155.595285
20
-69.302312
30
0.0
10
155.821834
20
-68.371310
30
0.0
10
155.899556
20
-67.394667
30
0.0
10
155.684802
20
-65.808490
30
0.0
10
155.070528
20
-64.357250
30
0.0
10
154.101712
20
-63.112385
30
0.0
10
152.823333
20
-62.145333
30
0.0
10
150.114000
20
-60.621333
30
0.0
10
152.597556
20
-58.758667
30
0.0
10
153.615319
20
-57.791174
30
0.0
10
154.368500
20
-56.649056
30
0.0
10
154.835931
20
-55.369354
30
0.0
10
154.996444
20
-53.989111
30
0.0
10
154.881792
20
-52.860663
30
0.0
10
154.544889
20
-51.777194
30
0.0
10
153.996319
20
-50.762517
30
0.0
10
153.246667
20
-49.840444
30
0.0
10
152.254038
20
-49.012299
30
0.0
10
151.126472
20
-48.401111
30
0.0
10
149.908948
20
-48.022757
30
0.0
10
148.646444
20
-47.893111
30
0.0
10
122.089333
20
-47.893111
30
0.0
10
124.206000
20
-34.092444
30
0.0
10
124.431778
20
-31.213778
30
0.0
10
124.226230
20
-28.567669
30
0.0
10
123.639351
20
-25.893448
30
0.0
10
122.715789
20
-23.308524
30
0.0
10
121.500194
20
-20.930306
30
0.0
10
120.037214
20
-18.876202
30
0.0
10
118.371497
20
-17.263622
30
0.0
10
117.476564
20
-16.659593
30
0.0
10
116.547691
20
-16.209974
30
0.0
10
115.590457
20
-15.929439
30
0.0
10
114.610444
20
-15.832667
30
0.0
10
113.160528
20
-16.019639
30
0.0
10
111.816444
20
-16.566444
30
0.0
10
112.776000
20
-29.294667
30
0.0
10
112.776000
20
-30.885694
30
0.0
10
112.522000
20
-32.455556
30
0.0
10
112.035167
20
-33.933694
30
0.0
10
111.336667
20
-35.306000
30
0.0
10
99.088222
20
-58.024889
30
0.0
10
95.447556
20
-62.173556
30
0.0
10
95.447556
20
-93.302667
30
0.0
10
95.504000
20
-93.302667
30
0.0
62
0
0
LWPOLYLINE
100
AcDbPolyline
8
Layer_1
90
10
70
0
10
65.955333
20
-54.722889
30
0.0
10
65.814222
20
-54.835778
30
0.0
10
65.814222
20
-102.164444
30
0.0
10
65.955333
20
-102.277333
30
0.0
10
93.218000
20
-102.277333
30
0.0
10
93.359111
20
-102.164444
30
0.0
10
93.359111
20
-54.835778
30
0.0
10
93.218000
20
-54.722889
30
0.0
10
65.955333
20
-54.722889
30
0.0
10
65.955333
20
-54.722889
30
0.0
62
0
0
LWPOLYLINE
100
AcDbPolyline
8
Layer_1
90
38
70
0
10
91.214222
20
-104.309333
30
0.0
10
67.987333
20
-104.309333
30
0.0
10
67.142210
20
-104.223564
30
0.0
10
66.353972
20
-103.977722
30
0.0
10
65.639818
20
-103.589005
30
0.0
10
65.016944
20
-103.074611
30
0.0
10
64.502550
20
-102.451738
30
0.0
10
64.113833
20
-101.737583
30
0.0
10
63.867991
20
-100.949345
30
0.0
10
63.782222
20
-100.104222
30
0.0
10
63.782222
20
-56.331556
30
0.0
10
63.867991
20
-55.486432
30
0.0
10
64.113833
20
-54.698194
30
0.0
10
64.502550
20
-53.984040
30
0.0
10
65.016944
20
-53.361167
30
0.0
10
65.639818
20
-52.846773
30
0.0
10
66.353972
20
-52.458056
30
0.0
10
67.142210
20
-52.212214
30
0.0
10
67.987333
20
-52.126444
30
0.0
10
91.214222
20
-52.126444
30
0.0
10
92.059345
20
-52.212214
30
0.0
10
92.847583
20
-52.458056
30
0.0
10
93.561738
20
-52.846773
30
0.0
10
94.184611
20
-53.361167
30
0.0
10
94.699005
20
-53.984040
30
0.0
10
95.087722
20
-54.698194
30
0.0
10
95.333564
20
-55.486432
30
0.0
10
95.419333
20
-56.331556
30
0.0
10
95.419333
20
-100.132444
30
0.0
10
95.325461
20
-100.976355
30
0.0
10
95.075816
20
-101.761396
30
0.0
10
94.686603
20
-102.471030
30
0.0
10
94.174028
20
-103.088722
30
0.0
10
93.554296
20
-103.597935
30
0.0
10
92.843615
20
-103.982132
30
0.0
10
92.058188
20
-104.224777
30
0.0
10
91.214222
20
-104.309333
30
0.0
10
91.214222
20
-104.309333
30
0.0
62
0
0
LWPOLYLINE
100
AcDbPolyline
8
Layer_1
90
10
70
0
10
67.987333
20
-56.218667
30
0.0
10
67.874444
20
-56.331556
30
0.0
10
67.874444
20
-100.132444
30
0.0
10
67.987333
20
-100.245333
30
0.0
10
91.214222
20
-100.245333
30
0.0
10
91.327111
20
-100.132444
30
0.0
10
91.327111
20
-56.331556
30
0.0
10
91.214222
20
-56.218667
30
0.0
10
67.987333
20
-56.218667
30
0.0
10
67.987333
20
-56.218667
30
0.0
  0
ENDSEC
  0
SECTION
  2
OBJECTS
  0
DICTIONARY
  5
C
330
0
100
AcDbDictionary
  3
ACAD_GROUP
350
D
  3
ACAD_MLINESTYLE
350
17
  0
DICTIONARY
  5
D
330
C
100
AcDbDictionary
  0
DICTIONARY
  5
1A
330
C
100
AcDbDictionary
  0
DICTIONARY
  5
17
330
C
100
AcDbDictionary
  3
STANDARD
350
18
  0
DICTIONARY
  5
19
330
C
100
AcDbDictionary
  0
ENDSEC
  0
EOF
