999
Inkscape export via OpenSCAD DXF Export
  0
SECTION
  2
HEADER
  9
$ACADVER
  1
AC1014
  9
$HANDSEED
  5
FFFF
  9
$MEASUREMENT
 70
     1
  0
ENDSEC
  0
SECTION
  2
TABLES
  0
TABLE
  2
VPORT
  5
8
330
0
100
AcDbSymbolTable
 70
     4
  0
VPORT
  5
2E
330
8
100
AcDbSymbolTableRecord
100
AcDbViewportTableRecord
  2
*ACTIVE
 70
     0
 10
0.0
 20
0.0
 11
1.0
 21
1.0
 12
210.0
 22
148.5
 13
0.0
 23
0.0
 14
10.0
 24
10.0
 15
10.0
 25
10.0
 16
0.0
 26
0.0
 36
1.0
 17
0.0
 27
0.0
 37
0.0
 40
341.0
 41
1.24
 42
50.0
 43
0.0
 44
0.0
 50
0.0
 51
0.0
 71
     0
 72
   100
 73
     1
 74
     3
 75
     0
 76
     0
 77
     0
 78
     0
  0
ENDTAB
  0
TABLE
  2
LTYPE
  5
5
330
0
100
AcDbSymbolTable
 70
     1
  0
LTYPE
  5
14
330
5
100
AcDbSymbolTableRecord
100
AcDbLinetypeTableRecord
  2
BYBLOCK
 70
     0
  3

 72
    65
 73
     0
 40
0.0
  0
LTYPE
  5
15
330
5
100
AcDbSymbolTableRecord
100
AcDbLinetypeTableRecord
  2
BYLAYER
 70
     0
  3

 72
    65
 73
     0
 40
0.0
  0
LTYPE
  5
16
330
5
100
AcDbSymbolTableRecord
100
AcDbLinetypeTableRecord
  2
CONTINUOUS
 70
     0
  3
Solid line
 72
    65
 73
     0
 40
0.0
  0
ENDTAB
  0
TABLE
0
TABLE
2
LAYER
5
2
330
0
100
AcDbSymbolTable
70
1
0
LAYER
5
10
330
2
100
AcDbSymbolTableRecord
100
AcDbLayerTableRecord
2
Layer_1
70
0
62
7
6
CONTINUOUS
0
ENDTAB
0
ENDSEC
  0
ENDTAB
  0
TABLE
  2
STYLE
  5
3
330
0
100
AcDbSymbolTable
 70
     1
  0
STYLE
  5
11
330
3
100
AcDbSymbolTableRecord
100
AcDbTextStyleTableRecord
  2
STANDARD
 70
     0
 40
0.0
 41
1.0
 50
0.0
 71
     0
 42
2.5
  3
txt
  4

  0
ENDTAB
  0
TABLE
  2
VIEW
  5
6
330
0
100
AcDbSymbolTable
 70
     0
  0
ENDTAB
  0
TABLE
  2
UCS
  5
7
330
0
100
AcDbSymbolTable
 70
     0
  0
ENDTAB
  0
TABLE
  2
APPID
  5
9
330
0
100
AcDbSymbolTable
 70
     2
  0
APPID
  5
12
330
9
100
AcDbSymbolTableRecord
100
AcDbRegAppTableRecord
  2
ACAD
 70
     0
  0
ENDTAB
  0
TABLE
  2
DIMSTYLE
  5
A
330
0
100
AcDbSymbolTable
 70
     1
  0
DIMSTYLE
105
27
330
A
100
AcDbSymbolTableRecord
100
AcDbDimStyleTableRecord
  2
ISO-25
 70
     0
  3

  4

  5

  6

  7

 40
1.0
 41
2.5
 42
0.625
 43
3.75
 44
1.25
 45
0.0
 46
0.0
 47
0.0
 48
0.0
140
2.5
141
2.5
142
0.0
143
0.03937007874016
144
1.0
145
0.0
146
1.0
147
0.625
 71
     0
 72
     0
 73
     0
 74
     0
 75
     0
 76
     0
 77
     1
 78
     8
170
     0
171
     3
172
     1
173
     0
174
     0
175
     0
176
     0
177
     0
178
     0
270
     2
271
     2
272
     2
273
     2
274
     3
340
11
275
     0
280
     0
281
     0
282
     0
283
     0
284
     8
285
     0
286
     0
287
     3
288
     0
  0
ENDTAB
  0
TABLE
  2
BLOCK_RECORD
  5
1
330
0
100
AcDbSymbolTable
 70
     1
  0
BLOCK_RECORD
  5
1F
330
1
100
AcDbSymbolTableRecord
100
AcDbBlockTableRecord
  2
*MODEL_SPACE
  0
BLOCK_RECORD
  5
1B
330
1
100
AcDbSymbolTableRecord
100
AcDbBlockTableRecord
  2
*PAPER_SPACE
  0
ENDTAB
  0
ENDSEC
  0
SECTION
  2
BLOCKS
  0
BLOCK
  5
20
330
1F
100
AcDbEntity
  8
0
100
AcDbBlockBegin
  2
*MODEL_SPACE
 70
     0
 10
0.0
 20
0.0
 30
0.0
  3
*MODEL_SPACE
  1

  0
ENDBLK
  5
21
330
1F
100
AcDbEntity
  8
0
100
AcDbBlockEnd
  0
BLOCK
  5
1C
330
1B
100
AcDbEntity
 67
     1
  8
0
100
AcDbBlockBegin
  2
*PAPER_SPACE
  1

  0
ENDBLK
  5
1D
330
1B
100
AcDbEntity
 67
     1
  8
0
100
AcDbBlockEnd
  0
ENDSEC
  0
SECTION
  2
ENTITIES
0
DIMENSION
5
83
100
AcDbEntity
62
256
370
-1
6
ByLayer
1
total_width
3
Standard
70
0
71
5
72
1
41
1.0
100
AcDbAlignedDimension
13
63.782222
23
0.000000
33
0.0
14
159.907111
24
0.000000
34
0.0
50
0.000000
100
AcDbRotatedDimension
0
DIMENSION
5
83
100
AcDbEntity
62
256
370
-1
6
ByLayer
1
total_minx
3
Standard
70
0
71
5
72
1
41
1.0
100
AcDbAlignedDimension
13
63.782222
23
0.000000
33
0.0
14
0.000000
24
0.000000
34
0.0
50
0.000000
100
AcDbRotatedDimension
0
DIMENSION
5
83
100
AcDbEntity
62
256
370
-1
6
ByLayer
1
total_maxx
3
Standard
70
0
71
5
72
1
41
1.0
100
AcDbAlignedDimension
13
0.000000
23
0.000000
33
0.0
14
159.907111
24
0.000000
34
0.0
50
0.000000
100
AcDbRotatedDimension
0
DIMENSION
5
83
100
AcDbEntity
62
256
370
-1
6
ByLayer
1
total_height
3
Standard
70
0
71
5
72
1
41
1.0
100
AcDbAlignedDimension
13
0.000000
23
-104.309333
33
0.0
14
0.000000
24
-11.655778
34
0.0
50
90.000000
100
AcDbRotatedDimension
0
DIMENSION
5
83
100
AcDbEntity
62
256
370
-1
6
ByLayer
1
total_miny
3
Standard
70
0
71
5
72
1
41
1.0
100
AcDbAlignedDimension
13
-104.309333
23
0.000000
33
0.0
14
0.000000
24
0.000000
34
0.0
50
0.000000
100
AcDbRotatedDimension
0
DIMENSION
5
83
100
AcDbEntity
62
256
370
-1
6
ByLayer
1
total_maxy
3
Standard
70
0
71
5
72
1
41
1.0
100
AcDbAlignedDimension
13
0.000000
23
0.000000
33
0.0
14
-11.655778
24
0.000000
34
0.0
50
0.000000
100
AcDbRotatedDimension
0
DIMENSION
8
Layer_1
5
83
100
AcDbEntity
62
256
370
-1
6
ByLayer
1
Layer_1_width
3
Standard
70
0
71
5
72
1
41
1.0
100
AcDbAlignedDimension
13
63.782222
23
0.000000
33
0.0
14
159.907111
24
0.000000
34
0.0
50
0.000000
100
AcDbRotatedDimension
0
DIMENSION
8
Layer_1
5
83
100
AcDbEntity
62
256
370
-1
6
ByLayer
1
Layer_1_minx
3
Standard
70
0
71
5
72
1
41
1.0
100
AcDbAlignedDimension
13
63.782222
23
0.000000
33
0.0
14
0.000000
24
0.000000
34
0.0
50
0.000000
100
AcDbRotatedDimension
0
DIMENSION
8
Layer_1
5
83
100
AcDbEntity
62
256
370
-1
6
ByLayer
1
Layer_1_maxx
3
Standard
70
0
71
5
72
1
41
1.0
100
AcDbAlignedDimension
13
0.000000
23
0.000000
33
0.0
14
159.907111
24
0.000000
34
0.0
50
0.000000
100
AcDbRotatedDimension
0
DIMENSION
8
Layer_1
5
83
100
AcDbEntity
62
256
370
-1
6
ByLayer
1
Layer_1_height
3
Standard
70
0
71
5
72
1
41
1.0
100
AcDbAlignedDimension
13
0.000000
23
-104.309333
33
0.0
14
0.000000
24
-11.655778
34
0.0
50
90.000000
100
AcDbRotatedDimension
0
DIMENSION
8
Layer_1
5
83
100
AcDbEntity
62
256
370
-1
6
ByLayer
1
Layer_1_miny
3
Standard
70
0
71
5
72
1
41
1.0
100
AcDbAlignedDimension
13
-104.309333
23
0.000000
33
0.0
14
0.000000
24
0.000000
34
0.0
50
0.000000
100
AcDbRotatedDimension
0
DIMENSION
8
Layer_1
5
83
100
AcDbEntity
62
256
370
-1
6
ByLayer
1
Layer_1_maxy
3
Standard
70
0
71
5
72
1
41
1.0
100
AcDbAlignedDimension
13
0.000000
23
0.000000
33
0.0
14
-11.655778
24
0.000000
34
0.0
50
0.000000
100
AcDbRotatedDimension
62
0
0
LWPOLYLINE
100
AcDbPolyline
8
Layer_1
90
86
70
0
10
105.466444
20
-101.628222
30
0.0
10
105.466444
20
-101.628222
30
0.0
10
104.404583
20
-101.566927
30
0.0
10
101.966889
20
-101.159028
30
0.0
10
100.423927
20
-100.720095
30
0.0
10
98.767194
20
-100.068503
30
0.0
10
97.073420
20
-99.162250
30
0.0
10
95.419333
20
-97.959333
30
0.0
10
95.304240
20
-97.848208
30
0.0
10
95.387583
20
-97.895833
30
0.0
10
95.486802
20
-97.975208
30
0.0
10
95.419333
20
-97.959333
30
0.0
10
95.391111
20
-93.246222
30
0.0
10
95.391111
20
-61.072889
30
0.0
10
95.427162
20
-56.318994
30
0.0
10
107.752444
20
-33.189333
30
0.0
10
108.182833
20
-32.346194
30
0.0
10
108.486222
20
-31.439556
30
0.0
10
108.630861
20
-30.504694
30
0.0
10
108.627333
20
-29.548667
30
0.0
10
107.498444
20
-14.590889
30
0.0
10
108.316889
20
-13.913556
30
0.0
10
109.707715
20
-12.953559
30
0.0
10
111.230833
20
-12.244917
30
0.0
10
112.849201
20
-11.806149
30
0.0
10
114.525778
20
-11.655778
30
0.0
10
115.970327
20
-11.775247
30
0.0
10
117.368119
20
-12.122051
30
0.0
10
118.712747
20
-12.678785
30
0.0
10
119.997802
20
-13.428045
30
0.0
10
121.216877
20
-14.352426
30
0.0
10
122.363563
20
-15.434524
30
0.0
10
124.414139
20
-18.002250
30
0.0
10
126.098267
20
-20.991987
30
0.0
10
127.364684
20
-24.264497
30
0.0
10
128.162127
20
-27.680543
30
0.0
10
128.439333
20
-31.100889
30
0.0
10
128.185333
20
-34.600444
30
0.0
10
126.774222
20
-43.688000
30
0.0
10
148.561778
20
-43.688000
30
0.0
10
150.619795
20
-43.900108
30
0.0
10
152.601083
20
-44.517028
30
0.0
10
154.439497
20
-45.509656
30
0.0
10
156.068889
20
-46.848889
30
0.0
10
157.341094
20
-48.391851
30
0.0
10
158.266694
20
-50.112083
30
0.0
10
158.827170
20
-51.964608
30
0.0
10
159.004000
20
-53.904444
30
0.0
10
158.847455
20
-55.588076
30
0.0
10
158.428972
20
-57.192333
30
0.0
10
157.761781
20
-58.690757
30
0.0
10
156.859111
20
-60.056889
30
0.0
10
158.144986
20
-61.598528
30
0.0
10
159.102778
20
-63.351833
30
0.0
10
159.700736
20
-65.263889
30
0.0
10
159.907111
20
-67.281778
30
0.0
10
159.821287
20
-68.615939
30
0.0
10
159.569767
20
-69.901153
30
0.0
10
159.161482
20
-71.125512
30
0.0
10
158.605361
20
-72.277111
30
0.0
10
157.910334
20
-73.344043
30
0.0
10
157.085330
20
-74.314403
30
0.0
10
156.139279
20
-75.176283
30
0.0
10
155.081111
20
-75.917778
30
0.0
10
155.677306
20
-77.836889
30
0.0
10
155.871333
20
-79.840667
30
0.0
10
155.758665
20
-81.358989
30
0.0
10
155.430361
20
-82.811497
30
0.0
10
154.900974
20
-84.179999
30
0.0
10
154.185056
20
-85.446306
30
0.0
10
153.297158
20
-86.592227
30
0.0
10
152.251833
20
-87.599573
30
0.0
10
151.063634
20
-88.450153
30
0.0
10
149.747111
20
-89.125778
30
0.0
10
149.962306
20
-90.300528
30
0.0
10
150.029333
20
-91.496444
30
0.0
10
149.838172
20
-93.457393
30
0.0
10
149.288500
20
-95.293656
30
0.0
10
148.416036
20
-96.967862
30
0.0
10
147.256500
20
-98.442639
30
0.0
10
145.845609
20
-99.680613
30
0.0
10
144.219083
20
-100.644413
30
0.0
10
142.412641
20
-101.296666
30
0.0
10
140.462000
20
-101.600000
30
0.0
10
140.349111
20
-101.600000
30
0.0
10
105.466444
20
-101.628222
30
0.0
62
0
0
LWPOLYLINE
100
AcDbPolyline
8
Layer_1
90
83
70
0
10
95.391111
20
-93.246222
30
0.0
10
96.124889
20
-93.584889
30
0.0
10
97.084444
20
-94.114056
30
0.0
10
98.044000
20
-94.854889
30
0.0
10
99.241460
20
-95.724872
30
0.0
10
100.485222
20
-96.385503
30
0.0
10
102.862944
20
-97.193806
30
0.0
10
104.679750
20
-97.509983
30
0.0
10
105.438222
20
-97.564222
30
0.0
10
140.264444
20
-97.564222
30
0.0
10
141.414500
20
-97.380006
30
0.0
10
142.479889
20
-96.990076
30
0.0
10
143.439444
20
-96.416261
30
0.0
10
144.272000
20
-95.680389
30
0.0
10
144.956389
20
-94.804287
30
0.0
10
145.471444
20
-93.809785
30
0.0
10
145.796000
20
-92.718709
30
0.0
10
145.908889
20
-91.552889
30
0.0
10
145.739556
20
-90.138250
30
0.0
10
145.231556
20
-88.787111
30
0.0
10
143.933333
20
-86.303556
30
0.0
10
146.699111
20
-85.852000
30
0.0
10
147.750775
20
-85.579920
30
0.0
10
148.714795
20
-85.135861
30
0.0
10
149.574967
20
-84.538344
30
0.0
10
150.315083
20
-83.805889
30
0.0
10
150.918940
20
-82.957017
30
0.0
10
151.370330
20
-82.010250
30
0.0
10
151.653048
20
-80.984108
30
0.0
10
151.750889
20
-79.897111
30
0.0
10
151.672396
20
-78.919917
30
0.0
10
151.440444
20
-77.985056
30
0.0
10
151.060326
20
-77.103111
30
0.0
10
150.537333
20
-76.284667
30
0.0
10
148.787556
20
-73.970444
30
0.0
10
151.553333
20
-73.095556
30
0.0
10
152.464492
20
-72.730100
30
0.0
10
153.286354
20
-72.235660
30
0.0
10
154.622500
20
-70.915389
30
0.0
10
155.482396
20
-69.245868
30
0.0
10
155.708945
20
-68.314865
30
0.0
10
155.786667
20
-67.338222
30
0.0
10
155.571913
20
-65.752045
30
0.0
10
154.957639
20
-64.300806
30
0.0
10
153.988823
20
-63.055941
30
0.0
10
152.710444
20
-62.088889
30
0.0
10
150.001111
20
-60.564889
30
0.0
10
152.484667
20
-58.702222
30
0.0
10
153.502431
20
-57.734729
30
0.0
10
154.255611
20
-56.592611
30
0.0
10
154.723042
20
-55.312910
30
0.0
10
154.883556
20
-53.932667
30
0.0
10
154.768903
20
-52.804219
30
0.0
10
154.432000
20
-51.720750
30
0.0
10
153.883431
20
-50.706073
30
0.0
10
153.133778
20
-49.784000
30
0.0
10
152.141149
20
-48.955854
30
0.0
10
151.013583
20
-48.344667
30
0.0
10
149.796059
20
-47.966313
30
0.0
10
148.533556
20
-47.836667
30
0.0
10
121.976444
20
-47.836667
30
0.0
10
124.093111
20
-34.036000
30
0.0
10
124.318889
20
-31.157333
30
0.0
10
124.113341
20
-28.511224
30
0.0
10
123.526462
20
-25.837003
30
0.0
10
122.602901
20
-23.252079
30
0.0
10
121.387306
20
-20.873861
30
0.0
10
119.924325
20
-18.819757
30
0.0
10
118.258608
20
-17.207177
30
0.0
10
117.363675
20
-16.603148
30
0.0
10
116.434802
20
-16.153529
30
0.0
10
115.477568
20
-15.872995
30
0.0
10
114.497556
20
-15.776222
30
0.0
10
113.047639
20
-15.963194
30
0.0
10
111.703556
20
-16.510000
30
0.0
10
112.663111
20
-29.238222
30
0.0
10
112.663111
20
-30.829250
30
0.0
10
112.409111
20
-32.399111
30
0.0
10
111.922278
20
-33.877250
30
0.0
10
111.223778
20
-35.249556
30
0.0
10
98.975333
20
-57.968444
30
0.0
10
95.355060
20
-62.088889
30
0.0
10
95.391111
20
-93.246222
30
0.0
62
0
0
LWPOLYLINE
100
AcDbPolyline
8
Layer_1
90
10
70
0
10
65.955333
20
-54.722889
30
0.0
10
65.814222
20
-54.835778
30
0.0
10
65.814222
20
-102.164444
30
0.0
10
65.955333
20
-102.277333
30
0.0
10
93.218000
20
-102.277333
30
0.0
10
93.359111
20
-102.164444
30
0.0
10
93.359111
20
-54.835778
30
0.0
10
93.218000
20
-54.722889
30
0.0
10
65.955333
20
-54.722889
30
0.0
10
65.955333
20
-54.722889
30
0.0
62
0
0
LWPOLYLINE
100
AcDbPolyline
8
Layer_1
90
38
70
0
10
91.214222
20
-104.309333
30
0.0
10
67.987333
20
-104.309333
30
0.0
10
67.142210
20
-104.223564
30
0.0
10
66.353972
20
-103.977722
30
0.0
10
65.639818
20
-103.589005
30
0.0
10
65.016944
20
-103.074611
30
0.0
10
64.502550
20
-102.451738
30
0.0
10
64.113833
20
-101.737583
30
0.0
10
63.867991
20
-100.949345
30
0.0
10
63.782222
20
-100.104222
30
0.0
10
63.782222
20
-56.331556
30
0.0
10
63.867991
20
-55.486432
30
0.0
10
64.113833
20
-54.698194
30
0.0
10
64.502550
20
-53.984040
30
0.0
10
65.016944
20
-53.361167
30
0.0
10
65.639818
20
-52.846773
30
0.0
10
66.353972
20
-52.458056
30
0.0
10
67.142210
20
-52.212214
30
0.0
10
67.987333
20
-52.126444
30
0.0
10
91.214222
20
-52.126444
30
0.0
10
92.059345
20
-52.212214
30
0.0
10
92.847583
20
-52.458056
30
0.0
10
93.561738
20
-52.846773
30
0.0
10
94.184611
20
-53.361167
30
0.0
10
94.699005
20
-53.984040
30
0.0
10
95.087722
20
-54.698194
30
0.0
10
95.333564
20
-55.486432
30
0.0
10
95.419333
20
-56.331556
30
0.0
10
95.419333
20
-100.132444
30
0.0
10
95.325461
20
-100.976355
30
0.0
10
95.075816
20
-101.761396
30
0.0
10
94.686603
20
-102.471030
30
0.0
10
94.174028
20
-103.088722
30
0.0
10
93.554296
20
-103.597935
30
0.0
10
92.843615
20
-103.982132
30
0.0
10
92.058188
20
-104.224777
30
0.0
10
91.214222
20
-104.309333
30
0.0
10
91.214222
20
-104.309333
30
0.0
62
0
0
LWPOLYLINE
100
AcDbPolyline
8
Layer_1
90
10
70
0
10
67.987333
20
-56.218667
30
0.0
10
67.874444
20
-56.331556
30
0.0
10
67.874444
20
-100.132444
30
0.0
10
67.987333
20
-100.245333
30
0.0
10
91.214222
20
-100.245333
30
0.0
10
91.327111
20
-100.132444
30
0.0
10
91.327111
20
-56.331556
30
0.0
10
91.214222
20
-56.218667
30
0.0
10
67.987333
20
-56.218667
30
0.0
10
67.987333
20
-56.218667
30
0.0
  0
ENDSEC
  0
SECTION
  2
OBJECTS
  0
DICTIONARY
  5
C
330
0
100
AcDbDictionary
  3
ACAD_GROUP
350
D
  3
ACAD_MLINESTYLE
350
17
  0
DICTIONARY
  5
D
330
C
100
AcDbDictionary
  0
DICTIONARY
  5
1A
330
C
100
AcDbDictionary
  0
DICTIONARY
  5
17
330
C
100
AcDbDictionary
  3
STANDARD
350
18
  0
DICTIONARY
  5
19
330
C
100
AcDbDictionary
  0
ENDSEC
  0
EOF
