999
DXF created by Inkscape
  0
SECTION
  2
HEADER
  9
$ACADVER
  1
AC1014
  9
$HANDSEED
  5
FFFF
  9
$MEASUREMENT
 70
     1
  0
ENDSEC
  0
SECTION
  2
TABLES
  0
TABLE
  2
VPORT
  5
8
330
0
100
AcDbSymbolTable
 70
     4
  0
VPORT
  5
2E
330
8
100
AcDbSymbolTableRecord
100
AcDbViewportTableRecord
  2
*ACTIVE
 70
     0
 10
0.0
 20
0.0
 11
1.0
 21
1.0
 12
210.0
 22
148.5
 13
0.0
 23
0.0
 14
10.0
 24
10.0
 15
10.0
 25
10.0
 16
0.0
 26
0.0
 36
1.0
 17
0.0
 27
0.0
 37
0.0
 40
341.0
 41
1.24
 42
50.0
 43
0.0
 44
0.0
 50
0.0
 51
0.0
 71
     0
 72
   100
 73
     1
 74
     3
 75
     0
 76
     0
 77
     0
 78
     0
  0
ENDTAB
  0
TABLE
  2
LTYPE
  5
5
330
0
100
AcDbSymbolTable
 70
     1
  0
LTYPE
  5
14
330
5
100
AcDbSymbolTableRecord
100
AcDbLinetypeTableRecord
  2
BYBLOCK
 70
     0
  3

 72
    65
 73
     0
 40
0.0
  0
LTYPE
  5
15
330
5
100
AcDbSymbolTableRecord
100
AcDbLinetypeTableRecord
  2
BYLAYER
 70
     0
  3

 72
    65
 73
     0
 40
0.0
  0
LTYPE
  5
16
330
5
100
AcDbSymbolTableRecord
100
AcDbLinetypeTableRecord
  2
CONTINUOUS
 70
     0
  3
Solid line
 72
    65
 73
     0
 40
0.0
  0
ENDTAB
  0
TABLE
  2
LAYER
  5
2
100
AcDbSymbolTable
 70
2
  0
LAYER
  5
50
100
AcDbSymbolTableRecord
100
AcDbLayerTableRecord
  2
0
 70
0
  6
CONTINUOUS
  0
LAYER
  5
51
100
AcDbSymbolTableRecord
100
AcDbLayerTableRecord
  2
Layer_1
 70
0
  6
CONTINUOUS
  0
ENDTAB
  0
TABLE
  2
STYLE
  5
3
330
0
100
AcDbSymbolTable
 70
     1
  0
STYLE
  5
11
330
3
100
AcDbSymbolTableRecord
100
AcDbTextStyleTableRecord
  2
STANDARD
 70
     0
 40
0.0
 41
1.0
 50
0.0
 71
     0
 42
2.5
  3
txt
  4

  0
ENDTAB
  0
TABLE
  2
VIEW
  5
6
330
0
100
AcDbSymbolTable
 70
     0
  0
ENDTAB
  0
TABLE
  2
UCS
  5
7
330
0
100
AcDbSymbolTable
 70
     0
  0
ENDTAB
  0
TABLE
  2
APPID
  5
9
330
0
100
AcDbSymbolTable
 70
     2
  0
APPID
  5
12
330
9
100
AcDbSymbolTableRecord
100
AcDbRegAppTableRecord
  2
ACAD
 70
     0
  0
ENDTAB
  0
TABLE
  2
DIMSTYLE
  5
A
330
0
100
AcDbSymbolTable
 70
     1
  0
DIMSTYLE
105
27
330
A
100
AcDbSymbolTableRecord
100
AcDbDimStyleTableRecord
  2
ISO-25
 70
     0
  3

  4

  5

  6

  7

 40
1.0
 41
2.5
 42
0.625
 43
3.75
 44
1.25
 45
0.0
 46
0.0
 47
0.0
 48
0.0
140
2.5
141
2.5
142
0.0
143
0.03937007874016
144
1.0
145
0.0
146
1.0
147
0.625
 71
     0
 72
     0
 73
     0
 74
     0
 75
     0
 76
     0
 77
     1
 78
     8
170
     0
171
     3
172
     1
173
     0
174
     0
175
     0
176
     0
177
     0
178
     0
270
     2
271
     2
272
     2
273
     2
274
     3
340
11
275
     0
280
     0
281
     0
282
     0
283
     0
284
     8
285
     0
286
     0
287
     3
288
     0
  0
ENDTAB
  0
TABLE
  2
BLOCK_RECORD
  5
1
330
0
100
AcDbSymbolTable
 70
     1
  0
BLOCK_RECORD
  5
1F
330
1
100
AcDbSymbolTableRecord
100
AcDbBlockTableRecord
  2
*MODEL_SPACE
  0
BLOCK_RECORD
  5
1B
330
1
100
AcDbSymbolTableRecord
100
AcDbBlockTableRecord
  2
*PAPER_SPACE
  0
ENDTAB
  0
ENDSEC
  0
SECTION
  2
BLOCKS
  0
BLOCK
  5
20
330
1F
100
AcDbEntity
  8
0
100
AcDbBlockBegin
  2
*MODEL_SPACE
 70
     0
 10
0.0
 20
0.0
 30
0.0
  3
*MODEL_SPACE
  1

  0
ENDBLK
  5
21
330
1F
100
AcDbEntity
  8
0
100
AcDbBlockEnd
  0
BLOCK
  5
1C
330
1B
100
AcDbEntity
 67
     1
  8
0
100
AcDbBlockBegin
  2
*PAPER_SPACE
  1

  0
ENDBLK
  5
1D
330
1B
100
AcDbEntity
 67
     1
  8
0
100
AcDbBlockEnd
  0
ENDSEC
  0
SECTION
  2
ENTITIES
  0
LWPOLYLINE
  5
100
100
AcDbEntity
  8
Layer_1
 62
7
100
AcDbPolyline
 90
53
 70
0
 10
11.063111
 20
0.189653
 30
0.0
 10
11.063111
 20
2.955431
 30
0.0
 10
11.063111
 20
5.721208
 30
0.0
 10
11.063111
 20
8.486986
 30
0.0
 10
11.063111
 20
11.252764
 30
0.0
 10
10.407227
 20
11.252764
 30
0.0
 10
9.751342
 20
11.252764
 30
0.0
 10
9.095458
 20
11.252764
 30
0.0
 10
8.439573
 20
11.252764
 30
0.0
 10
7.712569
 20
10.083235
 30
0.0
 10
6.985564
 20
8.913706
 30
0.0
 10
6.258560
 20
7.744177
 30
0.0
 10
5.531556
 20
6.574648
 30
0.0
 10
4.804551
 20
7.744177
 30
0.0
 10
4.077547
 20
8.913706
 30
0.0
 10
3.350542
 20
10.083235
 30
0.0
 10
2.623538
 20
11.252764
 30
0.0
 10
1.967653
 20
11.252764
 30
0.0
 10
1.311769
 20
11.252764
 30
0.0
 10
0.655884
 20
11.252764
 30
0.0
 10
0.000000
 20
11.252764
 30
0.0
 10
0.000000
 20
8.486986
 30
0.0
 10
0.000000
 20
5.721208
 30
0.0
 10
0.000000
 20
2.955431
 30
0.0
 10
0.000000
 20
0.189653
 30
0.0
 10
0.596618
 20
0.189653
 30
0.0
 10
1.193236
 20
0.189653
 30
0.0
 10
1.789853
 20
0.189653
 30
0.0
 10
2.386471
 20
0.189653
 30
0.0
 10
2.386471
 20
1.983457
 30
0.0
 10
2.386471
 20
3.777262
 30
0.0
 10
2.386471
 20
5.571066
 30
0.0
 10
2.386471
 20
7.364871
 30
0.0
 10
3.156938
 20
6.195342
 30
0.0
 10
3.927404
 20
5.025813
 30
0.0
 10
4.697871
 20
3.856284
 30
0.0
 10
5.468338
 20
2.686755
 30
0.0
 10
5.484142
 20
2.686755
 30
0.0
 10
5.499947
 20
2.686755
 30
0.0
 10
5.515751
 20
2.686755
 30
0.0
 10
5.531556
 20
2.686755
 30
0.0
 10
6.309924
 20
3.868137
 30
0.0
 10
7.088293
 20
5.049519
 30
0.0
 10
7.866662
 20
6.230902
 30
0.0
 10
8.645031
 20
7.412284
 30
0.0
 10
8.645031
 20
5.606626
 30
0.0
 10
8.645031
 20
3.800968
 30
0.0
 10
8.645031
 20
1.995311
 30
0.0
 10
8.645031
 20
0.189653
 30
0.0
 10
9.249551
 20
0.189653
 30
0.0
 10
9.854071
 20
0.189653
 30
0.0
 10
10.458591
 20
0.189653
 30
0.0
 10
11.063111
 20
0.189653
 30
0.0
  0
LWPOLYLINE
  5
101
100
AcDbEntity
  8
Layer_1
 62
7
100
AcDbPolyline
 90
57
 70
0
 10
20.738394
 20
0.189653
 30
0.0
 10
20.738394
 20
1.418448
 30
0.0
 10
20.738394
 20
2.647244
 30
0.0
 10
20.738394
 20
3.876039
 30
0.0
 10
20.738394
 20
5.104835
 30
0.0
 10
20.517132
 20
6.642066
 30
0.0
 10
19.833590
 20
7.789615
 30
0.0
 10
18.658134
 20
8.507481
 30
0.0
 10
16.961132
 20
8.755662
 30
0.0
 10
15.971873
 20
8.707261
 30
0.0
 10
15.127817
 20
8.569959
 30
0.0
 10
14.378587
 20
8.355612
 30
0.0
 10
13.673808
 20
8.076071
 30
0.0
 10
13.823950
 20
7.617742
 30
0.0
 10
13.974092
 20
7.159413
 30
0.0
 10
14.124234
 20
6.701084
 30
0.0
 10
14.274377
 20
6.242755
 30
0.0
 10
14.837658
 20
6.434384
 30
0.0
 10
15.390566
 20
6.578599
 30
0.0
 10
15.970146
 20
6.669475
 30
0.0
 10
16.613434
 20
6.701084
 30
0.0
 10
17.404151
 20
6.599094
 30
0.0
 10
17.972617
 20
6.300046
 30
0.0
 10
18.315869
 20
5.814308
 30
0.0
 10
18.430946
 20
5.152248
 30
0.0
 10
18.430946
 20
5.116688
 30
0.0
 10
18.430946
 20
5.081128
 30
0.0
 10
18.430946
 20
5.045568
 30
0.0
 10
18.430946
 20
5.010008
 30
0.0
 10
17.974098
 20
5.151012
 30
0.0
 10
17.490581
 20
5.260904
 30
0.0
 10
16.959651
 20
5.332269
 30
0.0
 10
16.360563
 20
5.357698
 30
0.0
 10
14.980392
 20
5.195454
 30
0.0
 10
13.900997
 20
4.699838
 30
0.0
 10
13.197947
 20
3.857509
 30
0.0
 10
12.946803
 20
2.655138
 30
0.0
 10
12.946803
 20
2.647235
 30
0.0
 10
12.946803
 20
2.639333
 30
0.0
 10
12.946803
 20
2.631431
 30
0.0
 10
12.946803
 20
2.623529
 30
0.0
 10
13.176710
 20
1.511785
 30
0.0
 10
13.802219
 20
0.699338
 30
0.0
 10
14.727027
 20
0.201004
 30
0.0
 10
15.854821
 20
0.031600
 30
0.0
 10
16.666035
 20
0.108401
 30
0.0
 10
17.354268
 20
0.325958
 30
0.0
 10
17.932860
 20
0.665014
 30
0.0
 10
18.415141
 20
1.106302
 30
0.0
 10
18.415141
 20
0.877138
 30
0.0
 10
18.415141
 20
0.647973
 30
0.0
 10
18.415141
 20
0.418809
 30
0.0
 10
18.415141
 20
0.189644
 30
0.0
 10
18.995954
 20
0.189644
 30
0.0
 10
19.576768
 20
0.189644
 30
0.0
 10
20.157581
 20
0.189644
 30
0.0
 10
20.738394
 20
0.189644
 30
0.0
  0
LWPOLYLINE
  5
102
100
AcDbEntity
  8
Layer_1
 62
7
100
AcDbPolyline
 90
25
 70
0
 10
18.462554
 20
3.176684
 30
0.0
 10
18.326489
 20
2.577845
 30
0.0
 10
17.942983
 20
2.107909
 30
0.0
 10
17.349083
 20
1.800958
 30
0.0
 10
16.581826
 20
1.691067
 30
0.0
 10
16.050156
 20
1.760459
 30
0.0
 10
15.635534
 20
1.961718
 30
0.0
 10
15.366119
 20
2.284475
 30
0.0
 10
15.270057
 20
2.718355
 30
0.0
 10
15.270057
 20
2.726258
 30
0.0
 10
15.270057
 20
2.734160
 30
0.0
 10
15.270057
 20
2.742062
 30
0.0
 10
15.270057
 20
2.749964
 30
0.0
 10
15.384887
 20
3.252743
 30
0.0
 10
15.714557
 20
3.619209
 30
0.0
 10
16.236846
 20
3.843434
 30
0.0
 10
16.929523
 20
3.919493
 30
0.0
 10
17.357973
 20
3.896774
 30
0.0
 10
17.761232
 20
3.832569
 30
0.0
 10
18.131897
 20
3.732803
 30
0.0
 10
18.462554
 20
3.603404
 30
0.0
 10
18.462554
 20
3.496724
 30
0.0
 10
18.462554
 20
3.390044
 30
0.0
 10
18.462554
 20
3.283364
 30
0.0
 10
18.462554
 20
3.176684
 30
0.0
  0
LWPOLYLINE
  5
103
100
AcDbEntity
  8
Layer_1
 62
7
100
AcDbPolyline
 90
65
 70
0
 10
27.470100
 20
0.537351
 30
0.0
 10
27.470100
 20
1.019386
 30
0.0
 10
27.470100
 20
1.501422
 30
0.0
 10
27.470100
 20
1.983457
 30
0.0
 10
27.470100
 20
2.465493
 30
0.0
 10
27.200437
 20
2.338563
 30
0.0
 10
26.912993
 20
2.244231
 30
0.0
 10
26.607770
 20
2.185458
 30
0.0
 10
26.284767
 20
2.165194
 30
0.0
 10
25.937069
 20
2.215819
 30
0.0
 10
25.696051
 20
2.368676
 30
0.0
 10
25.555787
 20
2.625253
 30
0.0
 10
25.510349
 20
2.987025
 30
0.0
 10
25.510349
 20
3.891830
 30
0.0
 10
25.510349
 20
4.796634
 30
0.0
 10
25.510349
 20
5.701439
 30
0.0
 10
25.510349
 20
6.606243
 30
0.0
 10
26.008189
 20
6.606243
 30
0.0
 10
26.506029
 20
6.606243
 30
0.0
 10
27.003869
 20
6.606243
 30
0.0
 10
27.501709
 20
6.606243
 30
0.0
 10
27.501709
 20
7.119888
 30
0.0
 10
27.501709
 20
7.633532
 30
0.0
 10
27.501709
 20
8.147176
 30
0.0
 10
27.501709
 20
8.660821
 30
0.0
 10
27.003869
 20
8.660821
 30
0.0
 10
26.506029
 20
8.660821
 30
0.0
 10
26.008189
 20
8.660821
 30
0.0
 10
25.510349
 20
8.660821
 30
0.0
 10
25.510349
 20
9.202123
 30
0.0
 10
25.510349
 20
9.743425
 30
0.0
 10
25.510349
 20
10.284728
 30
0.0
 10
25.510349
 20
10.826030
 30
0.0
 10
24.909780
 20
10.826030
 30
0.0
 10
24.309211
 20
10.826030
 30
0.0
 10
23.708642
 20
10.826030
 30
0.0
 10
23.108073
 20
10.826030
 30
0.0
 10
23.108073
 20
10.284728
 30
0.0
 10
23.108073
 20
9.743425
 30
0.0
 10
23.108073
 20
9.202123
 30
0.0
 10
23.108073
 20
8.660821
 30
0.0
 10
22.855202
 20
8.660821
 30
0.0
 10
22.602331
 20
8.660821
 30
0.0
 10
22.349460
 20
8.660821
 30
0.0
 10
22.096589
 20
8.660821
 30
0.0
 10
22.096589
 20
8.147176
 30
0.0
 10
22.096589
 20
7.633532
 30
0.0
 10
22.096589
 20
7.119888
 30
0.0
 10
22.096589
 20
6.606243
 30
0.0
 10
22.349460
 20
6.606243
 30
0.0
 10
22.602331
 20
6.606243
 30
0.0
 10
22.855202
 20
6.606243
 30
0.0
 10
23.108073
 20
6.606243
 30
0.0
 10
23.108073
 20
5.602661
 30
0.0
 10
23.108073
 20
4.599079
 30
0.0
 10
23.108073
 20
3.595496
 30
0.0
 10
23.108073
 20
2.591914
 30
0.0
 10
23.286616
 20
1.367564
 30
0.0
 10
23.789640
 20
0.584750
 30
0.0
 10
24.568257
 20
0.169389
 30
0.0
 10
25.573567
 20
0.047399
 30
0.0
 10
26.138824
 20
0.081725
 30
0.0
 10
26.634440
 20
0.179761
 30
0.0
 10
27.073756
 20
0.334103
 30
0.0
 10
27.470100
 20
0.537336
 30
0.0
  0
LWPOLYLINE
  5
104
100
AcDbEntity
  8
Layer_1
 62
7
100
AcDbPolyline
 90
65
 70
0
 10
34.014128
 20
0.537351
 30
0.0
 10
34.014128
 20
1.019386
 30
0.0
 10
34.014128
 20
1.501422
 30
0.0
 10
34.014128
 20
1.983457
 30
0.0
 10
34.014128
 20
2.465493
 30
0.0
 10
33.744464
 20
2.338563
 30
0.0
 10
33.457021
 20
2.244231
 30
0.0
 10
33.151798
 20
2.185458
 30
0.0
 10
32.828794
 20
2.165194
 30
0.0
 10
32.481097
 20
2.215819
 30
0.0
 10
32.240079
 20
2.368676
 30
0.0
 10
32.099814
 20
2.625253
 30
0.0
 10
32.054377
 20
2.987025
 30
0.0
 10
32.054377
 20
3.891830
 30
0.0
 10
32.054377
 20
4.796634
 30
0.0
 10
32.054377
 20
5.701439
 30
0.0
 10
32.054377
 20
6.606243
 30
0.0
 10
32.552217
 20
6.606243
 30
0.0
 10
33.050057
 20
6.606243
 30
0.0
 10
33.547897
 20
6.606243
 30
0.0
 10
34.045737
 20
6.606243
 30
0.0
 10
34.045737
 20
7.119888
 30
0.0
 10
34.045737
 20
7.633532
 30
0.0
 10
34.045737
 20
8.147176
 30
0.0
 10
34.045737
 20
8.660821
 30
0.0
 10
33.547897
 20
8.660821
 30
0.0
 10
33.050057
 20
8.660821
 30
0.0
 10
32.552217
 20
8.660821
 30
0.0
 10
32.054377
 20
8.660821
 30
0.0
 10
32.054377
 20
9.202123
 30
0.0
 10
32.054377
 20
9.743425
 30
0.0
 10
32.054377
 20
10.284728
 30
0.0
 10
32.054377
 20
10.826030
 30
0.0
 10
31.453808
 20
10.826030
 30
0.0
 10
30.853239
 20
10.826030
 30
0.0
 10
30.252670
 20
10.826030
 30
0.0
 10
29.652101
 20
10.826030
 30
0.0
 10
29.652101
 20
10.284728
 30
0.0
 10
29.652101
 20
9.743425
 30
0.0
 10
29.652101
 20
9.202123
 30
0.0
 10
29.652101
 20
8.660821
 30
0.0
 10
29.399230
 20
8.660821
 30
0.0
 10
29.146359
 20
8.660821
 30
0.0
 10
28.893488
 20
8.660821
 30
0.0
 10
28.640617
 20
8.660821
 30
0.0
 10
28.640617
 20
8.147176
 30
0.0
 10
28.640617
 20
7.633532
 30
0.0
 10
28.640617
 20
7.119888
 30
0.0
 10
28.640617
 20
6.606243
 30
0.0
 10
28.893488
 20
6.606243
 30
0.0
 10
29.146359
 20
6.606243
 30
0.0
 10
29.399230
 20
6.606243
 30
0.0
 10
29.652101
 20
6.606243
 30
0.0
 10
29.652101
 20
5.602661
 30
0.0
 10
29.652101
 20
4.599079
 30
0.0
 10
29.652101
 20
3.595496
 30
0.0
 10
29.652101
 20
2.591914
 30
0.0
 10
29.830643
 20
1.367564
 30
0.0
 10
30.333668
 20
0.584750
 30
0.0
 10
31.112285
 20
0.169389
 30
0.0
 10
32.117594
 20
0.047399
 30
0.0
 10
32.682852
 20
0.081725
 30
0.0
 10
33.178468
 20
0.179761
 30
0.0
 10
33.617783
 20
0.334103
 30
0.0
 10
34.014128
 20
0.537336
 30
0.0
  0
LWPOLYLINE
  5
105
100
AcDbEntity
  8
Layer_1
 62
7
100
AcDbPolyline
 90
49
 70
0
 10
43.561000
 20
0.189653
 30
0.0
 10
43.561000
 20
1.560688
 30
0.0
 10
43.561000
 20
2.931724
 30
0.0
 10
43.561000
 20
4.302759
 30
0.0
 10
43.561000
 20
5.673795
 30
0.0
 10
43.367150
 20
6.985316
 30
0.0
 10
42.804362
 20
7.975317
 30
0.0
 10
41.900794
 20
8.600826
 30
0.0
 10
40.684591
 20
8.818879
 30
0.0
 10
39.861278
 20
8.706518
 30
0.0
 10
39.195022
 20
8.405988
 30
0.0
 10
38.653226
 20
7.972108
 30
0.0
 10
38.203293
 20
7.459697
 30
0.0
 10
38.203293
 20
8.526497
 30
0.0
 10
38.203293
 20
9.593297
 30
0.0
 10
38.203293
 20
10.660097
 30
0.0
 10
38.203293
 20
11.726897
 30
0.0
 10
37.602724
 20
11.726897
 30
0.0
 10
37.002156
 20
11.726897
 30
0.0
 10
36.401587
 20
11.726897
 30
0.0
 10
35.801018
 20
11.726897
 30
0.0
 10
35.801018
 20
8.842586
 30
0.0
 10
35.801018
 20
5.958275
 30
0.0
 10
35.801018
 20
3.073964
 30
0.0
 10
35.801018
 20
0.189653
 30
0.0
 10
36.401587
 20
0.189653
 30
0.0
 10
37.002156
 20
0.189653
 30
0.0
 10
37.602724
 20
0.189653
 30
0.0
 10
38.203293
 20
0.189653
 30
0.0
 10
38.203293
 20
1.371035
 30
0.0
 10
38.203293
 20
2.552417
 30
0.0
 10
38.203293
 20
3.733799
 30
0.0
 10
38.203293
 20
4.915182
 30
0.0
 10
38.308986
 20
5.664411
 30
0.0
 10
38.610258
 20
6.203244
 30
0.0
 10
39.083403
 20
6.528717
 30
0.0
 10
39.704716
 20
6.637866
 30
0.0
 10
40.318619
 20
6.528717
 30
0.0
 10
40.775467
 20
6.203244
 30
0.0
 10
41.060441
 20
5.664411
 30
0.0
 10
41.158724
 20
4.915182
 30
0.0
 10
41.158724
 20
3.733799
 30
0.0
 10
41.158724
 20
2.552417
 30
0.0
 10
41.158724
 20
1.371035
 30
0.0
 10
41.158724
 20
0.189653
 30
0.0
 10
41.759293
 20
0.189653
 30
0.0
 10
42.359862
 20
0.189653
 30
0.0
 10
42.960431
 20
0.189653
 30
0.0
 10
43.561000
 20
0.189653
 30
0.0
  0
LWPOLYLINE
  5
106
100
AcDbEntity
  8
Layer_1
 62
7
100
AcDbPolyline
 90
45
 70
0
 10
53.550151
 20
4.188177
 30
0.0
 10
53.550151
 20
4.196079
 30
0.0
 10
53.550151
 20
4.203982
 30
0.0
 10
53.550151
 20
4.211884
 30
0.0
 10
53.550151
 20
4.219786
 30
0.0
 10
53.303452
 20
5.951854
 30
0.0
 10
52.548544
 20
7.420186
 30
0.0
 10
51.263197
 20
8.438091
 30
0.0
 10
49.425191
 20
8.818879
 30
0.0
 10
47.730658
 20
8.469948
 30
0.0
 10
46.406542
 20
7.520939
 30
0.0
 10
45.544706
 20
6.118543
 30
0.0
 10
45.237013
 20
4.409439
 30
0.0
 10
45.237013
 20
4.401537
 30
0.0
 10
45.237013
 20
4.393635
 30
0.0
 10
45.237013
 20
4.385733
 30
0.0
 10
45.237013
 20
4.377831
 30
0.0
 10
45.570637
 20
2.600324
 30
0.0
 10
46.495442
 20
1.216942
 30
0.0
 10
47.897347
 20
0.319546
 30
0.0
 10
49.662258
 20
-0.000001
 30
0.0
 10
50.738687
 20
0.109149
 30
0.0
 10
51.671398
 20
0.422768
 30
0.0
 10
52.464829
 20
0.920114
 30
0.0
 10
53.123431
 20
1.580444
 30
0.0
 10
52.779684
 20
1.884679
 30
0.0
 10
52.435938
 20
2.188915
 30
0.0
 10
52.092191
 20
2.493151
 30
0.0
 10
51.748444
 20
2.797386
 30
0.0
 10
51.260731
 20
2.401536
 30
0.0
 10
50.774496
 20
2.131624
 30
0.0
 10
50.261593
 20
1.977285
 30
0.0
 10
49.693867
 20
1.928142
 30
0.0
 10
48.950318
 20
2.034082
 30
0.0
 10
48.344562
 20
2.348935
 30
0.0
 10
47.895866
 20
2.868261
 30
0.0
 10
47.623484
 20
3.587608
 30
0.0
 10
49.097249
 20
3.587608
 30
0.0
 10
50.571013
 20
3.587608
 30
0.0
 10
52.044778
 20
3.587608
 30
0.0
 10
53.518542
 20
3.587608
 30
0.0
 10
53.530142
 20
3.741456
 30
0.0
 10
53.540273
 20
3.881966
 30
0.0
 10
53.547442
 20
4.025442
 30
0.0
 10
53.550264
 20
4.188177
 30
0.0
  0
LWPOLYLINE
  5
107
100
AcDbEntity
  8
Layer_1
 62
7
100
AcDbPolyline
 90
13
 70
0
 10
51.211206
 20
5.089031
 30
0.0
 10
50.306402
 20
5.089031
 30
0.0
 10
49.401597
 20
5.089031
 30
0.0
 10
48.496793
 20
5.089031
 30
0.0
 10
47.591988
 20
5.089031
 30
0.0
 10
47.818438
 20
5.830603
 30
0.0
 10
48.206386
 20
6.398824
 30
0.0
 10
48.745465
 20
6.762574
 30
0.0
 10
49.425304
 20
6.890737
 30
0.0
 10
50.111070
 20
6.760351
 30
0.0
 10
50.644222
 20
6.392897
 30
0.0
 10
51.014393
 20
5.823937
 30
0.0
 10
51.211206
 20
5.089031
 30
0.0
  0
LWPOLYLINE
  5
108
100
AcDbEntity
  8
Layer_1
 62
7
100
AcDbPolyline
 90
53
 70
0
 10
67.092830
 20
8.660835
 30
0.0
 10
66.496212
 20
8.660835
 30
0.0
 10
65.899594
 20
8.660835
 30
0.0
 10
65.302977
 20
8.660835
 30
0.0
 10
64.706359
 20
8.660835
 30
0.0
 10
64.358661
 20
7.372773
 30
0.0
 10
64.010963
 20
6.084711
 30
0.0
 10
63.663266
 20
4.796648
 30
0.0
 10
63.315568
 20
3.508586
 30
0.0
 10
62.912554
 20
4.804551
 30
0.0
 10
62.509541
 20
6.100515
 30
0.0
 10
62.106528
 20
7.396479
 30
0.0
 10
61.703514
 20
8.692444
 30
0.0
 10
61.185919
 20
8.692444
 30
0.0
 10
60.668323
 20
8.692444
 30
0.0
 10
60.150728
 20
8.692444
 30
0.0
 10
59.633132
 20
8.692444
 30
0.0
 10
59.234070
 20
7.400431
 30
0.0
 10
58.835008
 20
6.108417
 30
0.0
 10
58.435946
 20
4.816404
 30
0.0
 10
58.036883
 20
3.524391
 30
0.0
 10
57.697088
 20
4.808502
 30
0.0
 10
57.357292
 20
6.092613
 30
0.0
 10
57.017497
 20
7.376724
 30
0.0
 10
56.677701
 20
8.660835
 30
0.0
 10
56.069230
 20
8.660835
 30
0.0
 10
55.460759
 20
8.660835
 30
0.0
 10
54.852288
 20
8.660835
 30
0.0
 10
54.243817
 20
8.660835
 30
0.0
 10
54.895750
 20
6.527235
 30
0.0
 10
55.547683
 20
4.393635
 30
0.0
 10
56.199617
 20
2.260035
 30
0.0
 10
56.851550
 20
0.126435
 30
0.0
 10
57.388901
 20
0.126435
 30
0.0
 10
57.926252
 20
0.126435
 30
0.0
 10
58.463603
 20
0.126435
 30
0.0
 10
59.000954
 20
0.126435
 30
0.0
 10
59.415821
 20
1.426351
 30
0.0
 10
59.830688
 20
2.726266
 30
0.0
 10
60.245554
 20
4.026182
 30
0.0
 10
60.660421
 20
5.326097
 30
0.0
 10
61.067386
 20
4.026182
 30
0.0
 10
61.474350
 20
2.726266
 30
0.0
 10
61.881314
 20
1.426351
 30
0.0
 10
62.288279
 20
0.126435
 30
0.0
 10
62.829581
 20
0.126435
 30
0.0
 10
63.370883
 20
0.126435
 30
0.0
 10
63.912186
 20
0.126435
 30
0.0
 10
64.453488
 20
0.126435
 30
0.0
 10
65.113323
 20
2.260035
 30
0.0
 10
65.773159
 20
4.393635
 30
0.0
 10
66.432994
 20
6.527235
 30
0.0
 10
67.092830
 20
8.660835
 30
0.0
  0
ENDSEC
  0
SECTION
  2
OBJECTS
  0
DICTIONARY
  5
C
330
0
100
AcDbDictionary
  3
ACAD_GROUP
350
D
  3
ACAD_MLINESTYLE
350
17
  0
DICTIONARY
  5
D
330
C
100
AcDbDictionary
  0
DICTIONARY
  5
1A
330
C
100
AcDbDictionary
  0
DICTIONARY
  5
17
330
C
100
AcDbDictionary
  3
STANDARD
350
18
  0
DICTIONARY
  5
19
330
C
100
AcDbDictionary
  0
ENDSEC
  0
EOF
