999
DXF created by Inkscape
  0
SECTION
  2
HEADER
  9
$ACADVER
  1
AC1014
  9
$HANDSEED
  5
FFFF
  9
$MEASUREMENT
 70
     1
  0
ENDSEC
  0
SECTION
  2
TABLES
  0
TABLE
  2
VPORT
  5
8
330
0
100
AcDbSymbolTable
 70
     4
  0
VPORT
  5
2E
330
8
100
AcDbSymbolTableRecord
100
AcDbViewportTableRecord
  2
*ACTIVE
 70
     0
 10
0.0
 20
0.0
 11
1.0
 21
1.0
 12
210.0
 22
148.5
 13
0.0
 23
0.0
 14
10.0
 24
10.0
 15
10.0
 25
10.0
 16
0.0
 26
0.0
 36
1.0
 17
0.0
 27
0.0
 37
0.0
 40
341.0
 41
1.24
 42
50.0
 43
0.0
 44
0.0
 50
0.0
 51
0.0
 71
     0
 72
   100
 73
     1
 74
     3
 75
     0
 76
     0
 77
     0
 78
     0
  0
ENDTAB
  0
TABLE
  2
LTYPE
  5
5
330
0
100
AcDbSymbolTable
 70
     1
  0
LTYPE
  5
14
330
5
100
AcDbSymbolTableRecord
100
AcDbLinetypeTableRecord
  2
BYBLOCK
 70
     0
  3

 72
    65
 73
     0
 40
0.0
  0
LTYPE
  5
15
330
5
100
AcDbSymbolTableRecord
100
AcDbLinetypeTableRecord
  2
BYLAYER
 70
     0
  3

 72
    65
 73
     0
 40
0.0
  0
LTYPE
  5
16
330
5
100
AcDbSymbolTableRecord
100
AcDbLinetypeTableRecord
  2
CONTINUOUS
 70
     0
  3
Solid line
 72
    65
 73
     0
 40
0.0
  0
ENDTAB
  0
TABLE
  2
LAYER
  5
2
100
AcDbSymbolTable
 70
2
  0
LAYER
  5
50
100
AcDbSymbolTableRecord
100
AcDbLayerTableRecord
  2
0
 70
0
  6
CONTINUOUS
  0
LAYER
  5
51
100
AcDbSymbolTableRecord
100
AcDbLayerTableRecord
  2
Layer_1
 70
0
  6
CONTINUOUS
  0
ENDTAB
  0
TABLE
  2
STYLE
  5
3
330
0
100
AcDbSymbolTable
 70
     1
  0
STYLE
  5
11
330
3
100
AcDbSymbolTableRecord
100
AcDbTextStyleTableRecord
  2
STANDARD
 70
     0
 40
0.0
 41
1.0
 50
0.0
 71
     0
 42
2.5
  3
txt
  4

  0
ENDTAB
  0
TABLE
  2
VIEW
  5
6
330
0
100
AcDbSymbolTable
 70
     0
  0
ENDTAB
  0
TABLE
  2
UCS
  5
7
330
0
100
AcDbSymbolTable
 70
     0
  0
ENDTAB
  0
TABLE
  2
APPID
  5
9
330
0
100
AcDbSymbolTable
 70
     2
  0
APPID
  5
12
330
9
100
AcDbSymbolTableRecord
100
AcDbRegAppTableRecord
  2
ACAD
 70
     0
  0
ENDTAB
  0
TABLE
  2
DIMSTYLE
  5
A
330
0
100
AcDbSymbolTable
 70
     1
  0
DIMSTYLE
105
27
330
A
100
AcDbSymbolTableRecord
100
AcDbDimStyleTableRecord
  2
ISO-25
 70
     0
  3

  4

  5

  6

  7

 40
1.0
 41
2.5
 42
0.625
 43
3.75
 44
1.25
 45
0.0
 46
0.0
 47
0.0
 48
0.0
140
2.5
141
2.5
142
0.0
143
0.03937007874016
144
1.0
145
0.0
146
1.0
147
0.625
 71
     0
 72
     0
 73
     0
 74
     0
 75
     0
 76
     0
 77
     1
 78
     8
170
     0
171
     3
172
     1
173
     0
174
     0
175
     0
176
     0
177
     0
178
     0
270
     2
271
     2
272
     2
273
     2
274
     3
340
11
275
     0
280
     0
281
     0
282
     0
283
     0
284
     8
285
     0
286
     0
287
     3
288
     0
  0
ENDTAB
  0
TABLE
  2
BLOCK_RECORD
  5
1
330
0
100
AcDbSymbolTable
 70
     1
  0
BLOCK_RECORD
  5
1F
330
1
100
AcDbSymbolTableRecord
100
AcDbBlockTableRecord
  2
*MODEL_SPACE
  0
BLOCK_RECORD
  5
1B
330
1
100
AcDbSymbolTableRecord
100
AcDbBlockTableRecord
  2
*PAPER_SPACE
  0
ENDTAB
  0
ENDSEC
  0
SECTION
  2
BLOCKS
  0
BLOCK
  5
20
330
1F
100
AcDbEntity
  8
0
100
AcDbBlockBegin
  2
*MODEL_SPACE
 70
     0
 10
0.0
 20
0.0
 30
0.0
  3
*MODEL_SPACE
  1

  0
ENDBLK
  5
21
330
1F
100
AcDbEntity
  8
0
100
AcDbBlockEnd
  0
BLOCK
  5
1C
330
1B
100
AcDbEntity
 67
     1
  8
0
100
AcDbBlockBegin
  2
*PAPER_SPACE
  1

  0
ENDBLK
  5
1D
330
1B
100
AcDbEntity
 67
     1
  8
0
100
AcDbBlockEnd
  0
ENDSEC
  0
SECTION
  2
ENTITIES
  0
LWPOLYLINE
  5
100
100
AcDbEntity
  8
Layer_1
 62
7
100
AcDbPolyline
 90
44
 70
0
 10
44.608750
 20
7.941910
 30
0.0
 10
44.361806
 20
7.778750
 30
0.0
 10
44.114861
 20
7.615590
 30
0.0
 10
44.114861
 20
7.152569
 30
0.0
 10
44.114861
 20
6.689549
 30
0.0
 10
42.858089
 20
6.872547
 30
0.0
 10
42.059931
 20
7.421562
 30
0.0
 10
41.719280
 20
7.054449
 30
0.0
 10
41.521944
 20
6.636632
 30
0.0
 10
42.215373
 20
6.248571
 30
0.0
 10
43.127083
 20
6.045729
 30
0.0
 10
42.604529
 20
5.491202
 30
0.0
 10
42.104028
 20
4.784549
 30
0.0
 10
42.205450
 20
4.374444
 30
0.0
 10
42.306875
 20
3.964340
 30
0.0
 10
42.459010
 20
3.214684
 30
0.0
 10
42.509722
 20
2.650243
 30
0.0
 10
42.150329
 20
1.525762
 30
0.0
 10
41.072153
 20
0.842257
 30
0.0
 10
40.872613
 20
0.465225
 30
0.0
 10
40.754653
 20
0.004410
 30
0.0
 10
41.572657
 20
0.268993
 30
0.0
 10
42.571458
 20
0.357187
 30
0.0
 10
43.951700
 20
0.268993
 30
0.0
 10
45.349583
 20
0.004410
 30
0.0
 10
45.619676
 20
0.363801
 30
0.0
 10
45.975764
 20
0.709965
 30
0.0
 10
46.116875
 20
0.829028
 30
0.0
 10
46.257986
 20
0.948090
 30
0.0
 10
47.009840
 20
1.684513
 30
0.0
 10
47.501528
 20
2.394479
 30
0.0
 10
47.772721
 20
3.160666
 30
0.0
 10
47.863125
 20
4.052535
 30
0.0
 10
47.578693
 20
5.416237
 30
0.0
 10
46.725417
 20
6.345590
 30
0.0
 10
46.014346
 20
6.603555
 30
0.0
 10
44.979167
 20
6.689549
 30
0.0
 10
44.679306
 20
6.689549
 30
0.0
 10
44.379444
 20
6.689549
 30
0.0
 10
44.379444
 20
6.742465
 30
0.0
 10
44.379444
 20
6.795382
 30
0.0
 10
44.436769
 20
7.344388
 30
0.0
 10
44.608750
 20
7.941910
 30
0.0
 10
44.608750
 20
7.941910
 30
0.0
  0
LWPOLYLINE
  5
101
100
AcDbEntity
  8
Layer_1
 62
7
100
AcDbPolyline
 90
40
 70
0
 10
13.872986
 20
7.888993
 30
0.0
 10
12.928203
 20
7.289266
 30
0.0
 10
12.091458
 20
6.310312
 30
0.0
 10
12.091458
 20
3.602743
 30
0.0
 10
12.091458
 20
0.895174
 30
0.0
 10
11.994445
 20
0.857691
 30
0.0
 10
11.879792
 20
0.806979
 30
0.0
 10
11.854437
 20
0.797056
 30
0.0
 10
11.818057
 20
0.780521
 30
0.0
 10
11.751911
 20
0.392464
 30
0.0
 10
11.606390
 20
0.057326
 30
0.0
 10
12.175244
 20
0.242534
 30
0.0
 10
12.726460
 20
0.304271
 30
0.0
 10
13.305235
 20
0.242534
 30
0.0
 10
14.022918
 20
0.057326
 30
0.0
 10
14.246710
 20
0.359392
 30
0.0
 10
14.481529
 20
0.612951
 30
0.0
 10
14.569722
 20
0.696736
 30
0.0
 10
14.657917
 20
0.780521
 30
0.0
 10
15.471506
 20
1.890667
 30
0.0
 10
15.742708
 20
3.126493
 30
0.0
 10
15.636871
 20
3.769207
 30
0.0
 10
15.319375
 20
4.378854
 30
0.0
 10
14.849737
 20
4.874944
 30
0.0
 10
14.287500
 20
5.172604
 30
0.0
 10
13.652498
 20
4.524370
 30
0.0
 10
12.964583
 20
3.488090
 30
0.0
 10
12.964583
 20
4.493507
 30
0.0
 10
12.964583
 20
5.498924
 30
0.0
 10
12.995450
 20
6.209987
 30
0.0
 10
13.088056
 20
6.716007
 30
0.0
 10
13.266647
 20
7.111774
 30
0.0
 10
13.555486
 20
7.474479
 30
0.0
 10
14.431916
 20
7.207685
 30
0.0
 10
14.904861
 20
6.654271
 30
0.0
 10
15.287401
 20
6.940897
 30
0.0
 10
15.557500
 20
7.306910
 30
0.0
 10
14.948956
 20
7.744569
 30
0.0
 10
13.872986
 20
7.888993
 30
0.0
 10
13.872986
 20
7.888993
 30
0.0
  0
LWPOLYLINE
  5
102
100
AcDbEntity
  8
Layer_1
 62
7
100
AcDbPolyline
 90
46
 70
0
 10
74.877083
 20
7.888993
 30
0.0
 10
74.042541
 20
7.789768
 30
0.0
 10
73.324861
 20
7.492118
 30
0.0
 10
72.720728
 20
7.001530
 30
0.0
 10
72.231250
 20
6.310312
 30
0.0
 10
72.362438
 20
5.820829
 30
0.0
 10
72.619306
 20
5.437187
 30
0.0
 10
73.052559
 20
5.117478
 30
0.0
 10
73.695278
 20
4.819826
 30
0.0
 10
73.783472
 20
4.784549
 30
0.0
 10
73.871667
 20
4.749271
 30
0.0
 10
73.069097
 20
4.064659
 30
0.0
 10
72.619306
 20
3.567465
 30
0.0
 10
72.414254
 20
3.103340
 30
0.0
 10
72.345903
 20
2.509132
 30
0.0
 10
72.483706
 20
1.688922
 30
0.0
 10
72.892708
 20
0.948090
 30
0.0
 10
73.507862
 20
0.377030
 30
0.0
 10
74.259722
 20
0.057326
 30
0.0
 10
74.551865
 20
0.345061
 30
0.0
 10
74.885903
 20
0.630590
 30
0.0
 10
74.965278
 20
0.696736
 30
0.0
 10
75.044653
 20
0.762882
 30
0.0
 10
75.633349
 20
1.315199
 30
0.0
 10
76.005972
 20
1.830035
 30
0.0
 10
76.204408
 20
2.387861
 30
0.0
 10
76.270556
 20
3.064757
 30
0.0
 10
75.837302
 20
4.433972
 30
0.0
 10
74.541944
 20
5.410729
 30
0.0
 10
74.343506
 20
5.498924
 30
0.0
 10
74.145069
 20
5.587118
 30
0.0
 10
73.226744
 20
6.162582
 30
0.0
 10
72.919167
 20
6.786562
 30
0.0
 10
72.918038
 20
6.841678
 30
0.0
 10
72.919167
 20
6.918854
 30
0.0
 10
73.223436
 20
7.068780
 30
0.0
 10
73.527708
 20
7.174618
 30
0.0
 10
73.831978
 20
7.240759
 30
0.0
 10
74.136250
 20
7.262812
 30
0.0
 10
74.997245
 20
7.152564
 30
0.0
 10
75.670833
 20
6.821840
 30
0.0
 10
76.042351
 20
7.134925
 30
0.0
 10
76.305833
 20
7.553854
 30
0.0
 10
75.690676
 20
7.805202
 30
0.0
 10
74.877083
 20
7.888993
 30
0.0
 10
74.877083
 20
7.888993
 30
0.0
  0
LWPOLYLINE
  5
103
100
AcDbEntity
  8
Layer_1
 62
7
100
AcDbPolyline
 90
10
 70
0
 10
50.658889
 20
7.836076
 30
0.0
 10
49.950026
 20
7.331158
 30
0.0
 10
49.283056
 20
6.680729
 30
0.0
 10
49.137533
 20
6.330152
 30
0.0
 10
49.036111
 20
5.983993
 30
0.0
 10
49.623706
 20
6.409528
 30
0.0
 10
50.270833
 20
6.777743
 30
0.0
 10
50.414149
 20
7.311315
 30
0.0
 10
50.658889
 20
7.836076
 30
0.0
 10
50.658889
 20
7.836076
 30
0.0
  0
LWPOLYLINE
  5
104
100
AcDbEntity
  8
Layer_1
 62
7
100
AcDbPolyline
 90
81
 70
0
 10
25.929167
 20
7.059965
 30
0.0
 10
25.362516
 20
6.631115
 30
0.0
 10
24.923750
 20
6.133924
 30
0.0
 10
24.645937
 20
5.619084
 30
0.0
 10
24.553333
 20
5.119687
 30
0.0
 10
24.553333
 20
5.088819
 30
0.0
 10
24.553333
 20
5.057951
 30
0.0
 10
24.491597
 20
5.057951
 30
0.0
 10
24.429861
 20
5.057951
 30
0.0
 10
24.118975
 20
5.040310
 30
0.0
 10
23.759583
 20
4.987397
 30
0.0
 10
23.684640
 20
4.856059
 30
0.0
 10
23.618472
 20
4.713993
 30
0.0
 10
23.273214
 20
4.854834
 30
0.0
 10
22.939375
 20
5.172604
 30
0.0
 10
22.196334
 20
4.491297
 30
0.0
 10
21.713472
 20
3.541007
 30
0.0
 10
21.507317
 20
4.456021
 30
0.0
 10
21.043194
 20
5.172604
 30
0.0
 10
20.310078
 20
4.486889
 30
0.0
 10
19.764375
 20
3.726215
 30
0.0
 10
19.874618
 20
3.633611
 30
0.0
 10
19.984861
 20
3.541007
 30
0.0
 10
20.282518
 20
3.904805
 30
0.0
 10
20.628681
 20
4.193646
 30
0.0
 10
20.786328
 20
3.839763
 30
0.0
 10
20.840347
 20
3.320521
 30
0.0
 10
20.840347
 20
2.504722
 30
0.0
 10
20.840347
 20
1.688924
 30
0.0
 10
20.802864
 20
1.230311
 30
0.0
 10
20.690417
 20
0.754062
 30
0.0
 10
21.111544
 20
0.447586
 30
0.0
 10
21.457708
 20
0.057326
 30
0.0
 10
21.779616
 20
0.468533
 30
0.0
 10
22.189722
 20
0.842257
 30
0.0
 10
21.933957
 20
1.066049
 30
0.0
 10
21.713472
 20
1.309687
 30
0.0
 10
21.713472
 20
2.024062
 30
0.0
 10
21.713472
 20
2.738437
 30
0.0
 10
22.075067
 20
3.533288
 30
0.0
 10
22.604236
 20
4.105451
 30
0.0
 10
22.901891
 20
3.879450
 30
0.0
 10
23.256875
 20
3.726215
 30
0.0
 10
23.443900
 20
4.010124
 30
0.0
 10
23.592014
 20
4.387674
 30
0.0
 10
24.011526
 20
4.485111
 30
0.0
 10
24.473958
 20
4.519965
 30
0.0
 10
24.513646
 20
4.519965
 30
0.0
 10
24.553333
 20
4.519965
 30
0.0
 10
24.553333
 20
3.488090
 30
0.0
 10
24.553333
 20
2.456215
 30
0.0
 10
24.612864
 20
1.611752
 30
0.0
 10
24.791458
 20
0.974549
 30
0.0
 10
25.117777
 20
0.478455
 30
0.0
 10
25.620486
 20
0.057326
 30
0.0
 10
26.484791
 20
0.935963
 30
0.0
 10
27.102153
 20
1.812396
 30
0.0
 10
26.991910
 20
1.882951
 30
0.0
 10
26.881667
 20
1.953507
 30
0.0
 10
26.455024
 20
1.502612
 30
0.0
 10
25.929167
 20
1.159757
 30
0.0
 10
25.552135
 20
1.847672
 30
0.0
 10
25.426458
 20
2.826632
 30
0.0
 10
25.426458
 20
3.673299
 30
0.0
 10
25.426458
 20
4.519965
 30
0.0
 10
25.523472
 20
4.519965
 30
0.0
 10
25.620486
 20
4.519965
 30
0.0
 10
26.023974
 20
4.495708
 30
0.0
 10
26.564167
 20
4.422952
 30
0.0
 10
26.690943
 20
4.723912
 30
0.0
 10
26.881667
 20
4.987396
 30
0.0
 10
26.298479
 20
5.040314
 30
0.0
 10
25.752778
 20
5.057951
 30
0.0
 10
25.589618
 20
5.057951
 30
0.0
 10
25.426458
 20
5.057951
 30
0.0
 10
25.426458
 20
5.132917
 30
0.0
 10
25.426458
 20
5.207882
 30
0.0
 10
25.591823
 20
6.128407
 30
0.0
 10
26.087917
 20
6.804201
 30
0.0
 10
26.008542
 20
6.932083
 30
0.0
 10
25.929167
 20
7.059965
 30
0.0
  0
LWPOLYLINE
  5
105
100
AcDbEntity
  8
Layer_1
 62
7
100
AcDbPolyline
 90
84
 70
0
 10
1.278819
 20
6.857118
 30
0.0
 10
1.056128
 20
6.841679
 30
0.0
 10
0.820208
 20
6.795382
 30
0.0
 10
0.575469
 20
6.718208
 30
0.0
 10
0.317500
 20
6.610174
 30
0.0
 10
0.079375
 20
6.089822
 30
0.0
 10
0.000000
 20
5.534201
 30
0.0
 10
0.294349
 20
5.724918
 30
0.0
 10
0.582083
 20
5.860521
 30
0.0
 10
0.858793
 20
5.939892
 30
0.0
 10
1.128889
 20
5.966354
 30
0.0
 10
1.683410
 20
5.814215
 30
0.0
 10
2.134306
 20
5.357812
 30
0.0
 10
2.427551
 20
4.666585
 30
0.0
 10
2.522361
 20
3.814410
 30
0.0
 10
2.504721
 20
3.528878
 30
0.0
 10
2.451806
 20
3.197049
 30
0.0
 10
1.966735
 20
3.015145
 30
0.0
 10
1.411111
 20
2.703160
 30
0.0
 10
1.331736
 20
2.398889
 30
0.0
 10
1.252361
 20
2.094618
 30
0.0
 10
1.752864
 20
2.423142
 30
0.0
 10
2.345972
 20
2.703160
 30
0.0
 10
1.666874
 20
1.349375
 30
0.0
 10
0.687917
 20
0.657049
 30
0.0
 10
0.536883
 20
0.311988
 30
0.0
 10
0.449792
 20
0.004410
 30
0.0
 10
1.077074
 20
0.124574
 30
0.0
 10
1.710972
 20
0.163160
 30
0.0
 10
2.304078
 20
0.124574
 30
0.0
 10
2.892778
 20
0.004410
 30
0.0
 10
3.094521
 20
0.390259
 30
0.0
 10
3.395486
 20
0.736424
 30
0.0
 10
2.923644
 20
0.836744
 30
0.0
 10
2.381250
 20
0.868715
 30
0.0
 10
1.978862
 20
0.848872
 30
0.0
 10
1.569861
 20
0.789340
 30
0.0
 10
2.506925
 20
1.781527
 30
0.0
 10
3.122083
 20
2.906007
 30
0.0
 10
3.560848
 20
2.972151
 30
0.0
 10
3.845278
 20
2.994201
 30
0.0
 10
4.173799
 20
2.980971
 30
0.0
 10
4.445000
 20
2.941285
 30
0.0
 10
4.666585
 20
2.524565
 30
0.0
 10
4.930069
 20
1.953508
 30
0.0
 10
5.013854
 20
1.768299
 30
0.0
 10
5.097639
 20
1.583091
 30
0.0
 10
5.603651
 20
0.573263
 30
0.0
 10
6.041319
 20
0.004410
 30
0.0
 10
6.557252
 20
0.544601
 30
0.0
 10
7.346597
 20
1.221494
 30
0.0
 10
7.253993
 20
1.322917
 30
0.0
 10
7.161389
 20
1.424340
 30
0.0
 10
6.827348
 20
1.167473
 30
0.0
 10
6.526389
 20
0.983368
 30
0.0
 10
6.196758
 20
1.457412
 30
0.0
 10
5.829653
 20
2.209271
 30
0.0
 10
5.723819
 20
2.456215
 30
0.0
 10
5.617986
 20
2.703160
 30
0.0
 10
5.369935
 20
3.223505
 30
0.0
 10
5.132917
 20
3.611562
 30
0.0
 10
5.080000
 20
3.615972
 30
0.0
 10
5.027083
 20
3.620382
 30
0.0
 10
4.452714
 20
3.578486
 30
0.0
 10
3.810000
 20
3.452812
 30
0.0
 10
4.033791
 20
3.609354
 30
0.0
 10
4.162778
 20
3.699757
 30
0.0
 10
4.977471
 20
4.269711
 30
0.0
 10
5.573889
 20
4.669896
 30
0.0
 10
5.640035
 20
4.863924
 30
0.0
 10
5.706181
 20
5.057951
 30
0.0
 10
5.422852
 20
5.374345
 30
0.0
 10
5.185833
 20
5.789965
 30
0.0
 10
5.021568
 20
6.238649
 30
0.0
 10
4.965347
 20
6.654271
 30
0.0
 10
4.967548
 20
6.739153
 30
0.0
 10
4.974167
 20
6.857118
 30
0.0
 10
3.996308
 20
6.335663
 30
0.0
 10
3.227917
 20
5.481285
 30
0.0
 10
2.875137
 20
6.083208
 30
0.0
 10
2.434167
 20
6.513160
 30
0.0
 10
1.901692
 20
6.771124
 30
0.0
 10
1.278819
 20
6.857118
 30
0.0
 10
1.278819
 20
6.857118
 30
0.0
  0
LWPOLYLINE
  5
106
100
AcDbEntity
  8
Layer_1
 62
7
100
AcDbPolyline
 90
96
 70
0
 10
30.524097
 20
6.857118
 30
0.0
 10
30.283768
 20
6.841679
 30
0.0
 10
30.039028
 20
6.795382
 30
0.0
 10
29.793187
 20
6.719310
 30
0.0
 10
29.545139
 20
6.610174
 30
0.0
 10
29.308117
 20
6.122894
 30
0.0
 10
29.227639
 20
5.534201
 30
0.0
 10
29.504349
 20
5.720507
 30
0.0
 10
29.783264
 20
5.851701
 30
0.0
 10
30.059974
 20
5.931072
 30
0.0
 10
30.338889
 20
5.957535
 30
0.0
 10
30.895615
 20
5.807600
 30
0.0
 10
31.344306
 20
5.357812
 30
0.0
 10
31.636448
 20
4.677610
 30
0.0
 10
31.732361
 20
3.832049
 30
0.0
 10
31.598966
 20
2.795761
 30
0.0
 10
31.194375
 20
1.821215
 30
0.0
 10
30.604573
 20
1.057231
 30
0.0
 10
29.915556
 20
0.657049
 30
0.0
 10
29.765625
 20
0.327421
 30
0.0
 10
29.668611
 20
0.004410
 30
0.0
 10
29.673014
 20
0.004410
 30
0.0
 10
29.677416
 20
0.004410
 30
0.0
 10
30.308008
 20
0.124574
 30
0.0
 10
30.956236
 20
0.163160
 30
0.0
 10
31.555958
 20
0.124574
 30
0.0
 10
32.111583
 20
0.004410
 30
0.0
 10
32.321043
 20
0.410103
 30
0.0
 10
32.649569
 20
0.736424
 30
0.0
 10
32.147962
 20
0.836744
 30
0.0
 10
31.644153
 20
0.868715
 30
0.0
 10
31.209793
 20
0.854381
 30
0.0
 10
30.806305
 20
0.806978
 30
0.0
 10
32.195366
 20
2.485977
 30
0.0
 10
32.658389
 20
4.361214
 30
0.0
 10
32.657260
 20
4.484684
 30
0.0
 10
32.649555
 20
4.669894
 30
0.0
 10
33.113678
 20
5.268510
 30
0.0
 10
33.707917
 20
5.648854
 30
0.0
 10
33.771854
 20
4.356802
 30
0.0
 10
33.963681
 20
2.808993
 30
0.0
 10
34.244799
 20
1.269999
 30
0.0
 10
34.572222
 20
0.004410
 30
0.0
 10
34.964683
 20
0.486171
 30
0.0
 10
35.489444
 20
0.762882
 30
0.0
 10
35.220447
 20
1.429852
 30
0.0
 10
34.960278
 20
2.279826
 30
0.0
 10
34.947042
 20
2.544408
 30
0.0
 10
34.942639
 20
2.720799
 30
0.0
 10
35.020908
 20
3.782436
 30
0.0
 10
35.260139
 20
4.696354
 30
0.0
 10
35.637165
 20
5.397496
 30
0.0
 10
36.124444
 20
5.816424
 30
0.0
 10
36.357052
 20
5.594831
 30
0.0
 10
36.600694
 20
5.393090
 30
0.0
 10
36.671250
 20
5.335764
 30
0.0
 10
36.741806
 20
5.278437
 30
0.0
 10
37.232381
 20
4.495709
 30
0.0
 10
37.394444
 20
3.161771
 30
0.0
 10
37.319472
 20
1.914921
 30
0.0
 10
37.094583
 20
0.806979
 30
0.0
 10
36.842121
 20
1.086995
 30
0.0
 10
36.538958
 20
1.256771
 30
0.0
 10
36.265550
 20
0.881943
 30
0.0
 10
36.097986
 20
0.480660
 30
0.0
 10
36.425403
 20
0.313090
 30
0.0
 10
36.768264
 20
0.004410
 30
0.0
 10
36.891730
 20
0.181901
 30
0.0
 10
37.094583
 20
0.401285
 30
0.0
 10
37.169547
 20
0.476250
 30
0.0
 10
37.244514
 20
0.551215
 30
0.0
 10
38.011800
 20
1.862004
 30
0.0
 10
38.267569
 20
3.735035
 30
0.0
 10
38.220159
 20
4.510041
 30
0.0
 10
38.073542
 20
5.102049
 30
0.0
 10
37.796826
 20
5.586011
 30
0.0
 10
37.367986
 20
6.028090
 30
0.0
 10
37.257742
 20
6.116285
 30
0.0
 10
37.147500
 20
6.204479
 30
0.0
 10
36.824483
 20
6.512052
 30
0.0
 10
36.538958
 20
6.857118
 30
0.0
 10
35.300926
 20
5.648850
 30
0.0
 10
34.695694
 20
3.664479
 30
0.0
 10
34.515995
 20
4.857305
 30
0.0
 10
34.457569
 20
6.186840
 30
0.0
 10
34.459827
 20
6.493310
 30
0.0
 10
34.475265
 20
6.857118
 30
0.0
 10
33.918533
 20
6.606861
 30
0.0
 10
33.381654
 20
6.195660
 30
0.0
 10
32.914220
 20
5.675309
 30
0.0
 10
32.570208
 20
5.093229
 30
0.0
 10
32.237271
 20
5.864927
 30
0.0
 10
31.785278
 20
6.416146
 30
0.0
 10
31.215322
 20
6.746871
 30
0.0
 10
30.524097
 20
6.857118
 30
0.0
 10
30.524097
 20
6.857118
 30
0.0
  0
LWPOLYLINE
  5
107
100
AcDbEntity
  8
Layer_1
 62
7
100
AcDbPolyline
 90
22
 70
0
 10
43.426944
 20
5.992812
 30
0.0
 10
43.566949
 20
5.970760
 30
0.0
 10
43.735625
 20
5.957535
 30
0.0
 10
43.917523
 20
5.950917
 30
0.0
 10
44.114861
 20
5.939896
 30
0.0
 10
44.114861
 20
3.532187
 30
0.0
 10
44.114861
 20
1.124479
 30
0.0
 10
43.819408
 20
1.133299
 30
0.0
 10
43.523958
 20
1.142118
 30
0.0
 10
42.710362
 20
1.095816
 30
0.0
 10
41.901181
 20
0.956910
 30
0.0
 10
43.012428
 20
2.041700
 30
0.0
 10
43.382847
 20
3.249965
 30
0.0
 10
43.350874
 20
3.528877
 30
0.0
 10
43.259375
 20
3.946701
 30
0.0
 10
43.210867
 20
4.145139
 30
0.0
 10
43.162361
 20
4.343576
 30
0.0
 10
43.076371
 20
4.766905
 30
0.0
 10
43.047708
 20
5.084410
 30
0.0
 10
43.143619
 20
5.543016
 30
0.0
 10
43.426944
 20
5.992812
 30
0.0
 10
43.426944
 20
5.992812
 30
0.0
  0
LWPOLYLINE
  5
108
100
AcDbEntity
  8
Layer_1
 62
7
100
AcDbPolyline
 90
13
 70
0
 10
44.379444
 20
5.931076
 30
0.0
 10
44.516144
 20
5.922257
 30
0.0
 10
44.652847
 20
5.913437
 30
0.0
 10
45.706769
 20
5.734839
 30
0.0
 10
46.407917
 20
5.322535
 30
0.0
 10
46.804786
 20
4.636819
 30
0.0
 10
46.937083
 20
3.629201
 30
0.0
 10
46.628400
 20
2.072568
 30
0.0
 10
45.702361
 20
0.868715
 30
0.0
 10
45.122482
 20
1.002109
 30
0.0
 10
44.379444
 20
1.106840
 30
0.0
 10
44.379444
 20
3.518958
 30
0.0
 10
44.379444
 20
5.931076
 30
0.0
  0
LWPOLYLINE
  5
109
100
AcDbEntity
  8
Layer_1
 62
7
100
AcDbPolyline
 90
12
 70
0
 10
4.215694
 20
5.886979
 30
0.0
 10
4.521065
 20
5.183625
 30
0.0
 10
4.894792
 20
4.661076
 30
0.0
 10
3.972055
 20
3.956620
 30
0.0
 10
3.280833
 20
3.355799
 30
0.0
 10
3.413123
 20
3.870630
 30
0.0
 10
3.457222
 20
4.325937
 30
0.0
 10
3.425250
 20
4.741551
 30
0.0
 10
3.333750
 20
5.163785
 30
0.0
 10
3.771412
 20
5.588216
 30
0.0
 10
4.215694
 20
5.886979
 30
0.0
 10
4.215694
 20
5.886979
 30
0.0
  0
LWPOLYLINE
  5
10a
100
AcDbEntity
  8
Layer_1
 62
7
100
AcDbPolyline
 90
22
 70
0
 10
9.330972
 20
5.172604
 30
0.0
 10
9.078514
 20
4.916836
 30
0.0
 10
8.731250
 20
4.634618
 30
0.0
 10
8.656285
 20
4.572882
 30
0.0
 10
8.581319
 20
4.511146
 30
0.0
 10
7.668506
 20
3.545415
 30
0.0
 10
7.364236
 20
2.500312
 30
0.0
 10
7.504245
 20
1.684514
 30
0.0
 10
7.919861
 20
0.956910
 30
0.0
 10
8.548246
 20
0.391363
 30
0.0
 10
9.330972
 20
0.057326
 30
0.0
 10
9.566892
 20
0.294349
 30
0.0
 10
9.860139
 20
0.533576
 30
0.0
 10
9.957153
 20
0.608542
 30
0.0
 10
10.054167
 20
0.683507
 30
0.0
 10
10.994538
 20
1.663567
 30
0.0
 10
11.306528
 20
2.711979
 30
0.0
 10
11.173132
 20
3.517853
 30
0.0
 10
10.768542
 20
4.237743
 30
0.0
 10
10.136847
 20
4.808798
 30
0.0
 10
9.330972
 20
5.172604
 30
0.0
 10
9.330972
 20
5.172604
 30
0.0
  0
LWPOLYLINE
  5
10b
100
AcDbEntity
  8
Layer_1
 62
7
100
AcDbPolyline
 90
24
 70
0
 10
17.974028
 20
5.172604
 30
0.0
 10
17.139487
 20
4.428460
 30
0.0
 10
16.412986
 20
3.549826
 30
0.0
 10
16.374402
 20
3.184920
 30
0.0
 10
16.360070
 20
2.791354
 30
0.0
 10
16.443856
 20
1.843263
 30
0.0
 10
16.695209
 20
1.159757
 30
0.0
 10
17.202326
 20
0.610746
 30
0.0
 10
18.044584
 20
0.057326
 30
0.0
 10
18.979444
 20
0.959113
 30
0.0
 10
19.667362
 20
2.041701
 30
0.0
 10
19.561529
 20
2.129896
 30
0.0
 10
19.455695
 20
2.218090
 30
0.0
 10
18.941960
 20
1.538991
 30
0.0
 10
18.291528
 20
1.018646
 30
0.0
 10
17.670859
 20
1.469540
 30
0.0
 10
17.286111
 20
2.147535
 30
0.0
 10
18.492169
 20
2.969946
 30
0.0
 10
19.349861
 20
3.770312
 30
0.0
 10
19.442465
 20
4.030486
 30
0.0
 10
19.535069
 20
4.290660
 30
0.0
 10
18.667455
 20
4.537600
 30
0.0
 10
17.974028
 20
5.172604
 30
0.0
 10
17.974028
 20
5.172604
 30
0.0
  0
LWPOLYLINE
  5
10c
100
AcDbEntity
  8
Layer_1
 62
7
100
AcDbPolyline
 90
30
 70
0
 10
49.415347
 20
5.172604
 30
0.0
 10
48.771528
 20
4.549727
 30
0.0
 10
48.242361
 20
3.690937
 30
0.0
 10
48.352603
 20
3.607153
 30
0.0
 10
48.462847
 20
3.523368
 30
0.0
 10
48.762708
 20
3.937879
 30
0.0
 10
49.150764
 20
4.308299
 30
0.0
 10
49.301795
 20
4.233331
 30
0.0
 10
49.485903
 20
4.176007
 30
0.0
 10
49.267621
 20
3.480371
 30
0.0
 10
49.194861
 20
2.614965
 30
0.0
 10
49.194861
 20
2.156354
 30
0.0
 10
49.194861
 20
1.697743
 30
0.0
 10
49.319434
 20
0.771700
 30
0.0
 10
49.688750
 20
0.057326
 30
0.0
 10
50.226733
 20
0.698940
 30
0.0
 10
51.046944
 20
1.459618
 30
0.0
 10
50.954339
 20
1.578681
 30
0.0
 10
50.861736
 20
1.697743
 30
0.0
 10
50.527698
 20
1.445286
 30
0.0
 10
50.191458
 20
1.256771
 30
0.0
 10
50.098853
 20
1.676795
 30
0.0
 10
50.067986
 20
2.191632
 30
0.0
 10
50.067986
 20
2.844271
 30
0.0
 10
50.067986
 20
3.496910
 30
0.0
 10
50.153974
 20
4.267506
 30
0.0
 10
50.411944
 20
4.952118
 30
0.0
 10
49.857420
 20
5.023772
 30
0.0
 10
49.415347
 20
5.172604
 30
0.0
 10
49.415347
 20
5.172604
 30
0.0
  0
LWPOLYLINE
  5
10d
100
AcDbEntity
  8
Layer_1
 62
7
100
AcDbPolyline
 90
36
 70
0
 10
52.846111
 20
5.172604
 30
0.0
 10
52.106378
 20
4.505630
 30
0.0
 10
51.576111
 20
3.858507
 30
0.0
 10
51.258611
 20
3.240041
 30
0.0
 10
51.152778
 20
2.641424
 30
0.0
 10
51.259712
 20
1.862005
 30
0.0
 10
51.576111
 20
1.106840
 30
0.0
 10
52.049053
 20
0.477353
 30
0.0
 10
52.625625
 20
0.057326
 30
0.0
 10
53.283773
 20
0.768395
 30
0.0
 10
53.886806
 20
1.768299
 30
0.0
 10
54.069807
 20
0.750754
 30
0.0
 10
54.460069
 20
0.057326
 30
0.0
 10
54.974902
 20
0.740833
 30
0.0
 10
55.747708
 20
1.468437
 30
0.0
 10
55.650694
 20
1.583090
 30
0.0
 10
55.553681
 20
1.697743
 30
0.0
 10
55.194285
 20
1.439772
 30
0.0
 10
54.874583
 20
1.274410
 30
0.0
 10
54.775362
 20
1.836648
 30
0.0
 10
54.742292
 20
2.632604
 30
0.0
 10
54.784182
 20
3.343670
 30
0.0
 10
54.909861
 20
4.317118
 30
0.0
 10
54.998053
 20
4.339168
 30
0.0
 10
55.112708
 20
4.370034
 30
0.0
 10
55.143575
 20
4.378854
 30
0.0
 10
55.174444
 20
4.387673
 30
0.0
 10
55.375082
 20
4.763599
 30
0.0
 10
55.491944
 20
5.172604
 30
0.0
 10
54.774259
 20
5.008337
 30
0.0
 10
54.151389
 20
4.952118
 30
0.0
 10
53.846013
 20
4.965343
 30
0.0
 10
53.525208
 20
5.005034
 30
0.0
 10
53.193374
 20
5.076688
 30
0.0
 10
52.846111
 20
5.172604
 30
0.0
 10
52.846111
 20
5.172604
 30
0.0
  0
LWPOLYLINE
  5
10e
100
AcDbEntity
  8
Layer_1
 62
7
100
AcDbPolyline
 90
70
 70
0
 10
56.876597
 20
5.172604
 30
0.0
 10
56.071821
 20
4.508937
 30
0.0
 10
55.509583
 20
3.717396
 30
0.0
 10
55.619825
 20
3.629201
 30
0.0
 10
55.730069
 20
3.541007
 30
0.0
 10
56.016703
 20
3.884961
 30
0.0
 10
56.347431
 20
4.167187
 30
0.0
 10
56.438933
 20
3.862913
 30
0.0
 10
56.470903
 20
3.541007
 30
0.0
 10
56.470903
 20
2.614965
 30
0.0
 10
56.470903
 20
1.688924
 30
0.0
 10
56.433418
 20
1.211570
 30
0.0
 10
56.320972
 20
0.754062
 30
0.0
 10
56.649496
 20
0.448689
 30
0.0
 10
56.876597
 20
0.057326
 30
0.0
 10
57.240399
 20
0.518141
 30
0.0
 10
57.679167
 20
0.939271
 30
0.0
 10
57.473012
 20
1.142117
 30
0.0
 10
57.335208
 20
1.309687
 30
0.0
 10
57.335208
 20
2.125486
 30
0.0
 10
57.335208
 20
2.941285
 30
0.0
 10
57.876499
 20
3.730621
 30
0.0
 10
58.534653
 20
4.158368
 30
0.0
 10
58.700015
 20
3.827635
 30
0.0
 10
58.755139
 20
3.426354
 30
0.0
 10
58.755139
 20
2.562049
 30
0.0
 10
58.755139
 20
1.697743
 30
0.0
 10
58.724269
 20
0.856588
 30
0.0
 10
58.631667
 20
0.057326
 30
0.0
 10
59.210440
 20
0.472942
 30
0.0
 10
59.725278
 20
0.762882
 30
0.0
 10
59.645900
 20
1.272204
 30
0.0
 10
59.619444
 20
1.697743
 30
0.0
 10
59.619444
 20
2.306285
 30
0.0
 10
59.619444
 20
2.914826
 30
0.0
 10
60.003089
 20
3.590613
 30
0.0
 10
60.589583
 20
4.158368
 30
0.0
 10
60.807862
 20
3.994103
 30
0.0
 10
61.092292
 20
3.823229
 30
0.0
 10
60.991967
 20
3.231222
 30
0.0
 10
60.960000
 20
2.420937
 30
0.0
 10
60.960000
 20
2.275417
 30
0.0
 10
60.960000
 20
2.129896
 30
0.0
 10
61.102209
 20
0.963523
 30
0.0
 10
61.533264
 20
0.057326
 30
0.0
 10
62.087783
 20
0.718783
 30
0.0
 10
62.882639
 20
1.494896
 30
0.0
 10
62.776806
 20
1.596319
 30
0.0
 10
62.670972
 20
1.697743
 30
0.0
 10
62.340239
 20
1.423238
 30
0.0
 10
62.018333
 20
1.230312
 30
0.0
 10
61.872808
 20
1.713176
 30
0.0
 10
61.824306
 20
2.456215
 30
0.0
 10
61.824306
 20
2.570868
 30
0.0
 10
61.824306
 20
2.685521
 30
0.0
 10
61.910290
 20
3.689832
 30
0.0
 10
62.168264
 20
4.502326
 30
0.0
 10
61.559719
 20
4.753676
 30
0.0
 10
61.092292
 20
5.172604
 30
0.0
 10
60.256646
 20
4.475865
 30
0.0
 10
59.619444
 20
3.541007
 30
0.0
 10
59.573140
 20
4.176003
 30
0.0
 10
59.434236
 20
4.616979
 30
0.0
 10
59.175162
 20
4.930066
 30
0.0
 10
58.755139
 20
5.172604
 30
0.0
 10
57.982333
 20
4.559649
 30
0.0
 10
57.335208
 20
3.541007
 30
0.0
 10
57.221656
 20
4.440586
 30
0.0
 10
56.876597
 20
5.172604
 30
0.0
 10
56.876597
 20
5.172604
 30
0.0
  0
LWPOLYLINE
  5
10f
100
AcDbEntity
  8
Layer_1
 62
7
100
AcDbPolyline
 90
22
 70
0
 10
64.911111
 20
5.172604
 30
0.0
 10
64.658652
 20
4.916836
 30
0.0
 10
64.311389
 20
4.634618
 30
0.0
 10
64.236422
 20
4.572882
 30
0.0
 10
64.161458
 20
4.511146
 30
0.0
 10
63.248644
 20
3.545415
 30
0.0
 10
62.944375
 20
2.500312
 30
0.0
 10
63.079974
 20
1.684514
 30
0.0
 10
63.491181
 20
0.956910
 30
0.0
 10
64.123976
 20
0.391363
 30
0.0
 10
64.911111
 20
0.057326
 30
0.0
 10
65.147029
 20
0.294349
 30
0.0
 10
65.440278
 20
0.533576
 30
0.0
 10
65.537292
 20
0.608542
 30
0.0
 10
65.634306
 20
0.683507
 30
0.0
 10
66.574676
 20
1.663567
 30
0.0
 10
66.886667
 20
2.711979
 30
0.0
 10
66.753272
 20
3.517853
 30
0.0
 10
66.348681
 20
4.237743
 30
0.0
 10
65.716985
 20
4.808798
 30
0.0
 10
64.911111
 20
5.172604
 30
0.0
 10
64.911111
 20
5.172604
 30
0.0
  0
LWPOLYLINE
  5
110
100
AcDbEntity
  8
Layer_1
 62
7
100
AcDbPolyline
 90
52
 70
0
 10
68.359514
 20
5.172604
 30
0.0
 10
67.554737
 20
4.508937
 30
0.0
 10
66.992500
 20
3.717396
 30
0.0
 10
67.102742
 20
3.629201
 30
0.0
 10
67.212986
 20
3.541007
 30
0.0
 10
67.499619
 20
3.884961
 30
0.0
 10
67.830347
 20
4.167187
 30
0.0
 10
67.921849
 20
3.862913
 30
0.0
 10
67.953819
 20
3.541007
 30
0.0
 10
67.953819
 20
2.614965
 30
0.0
 10
67.953819
 20
1.688924
 30
0.0
 10
67.916335
 20
1.211570
 30
0.0
 10
67.803889
 20
0.754062
 30
0.0
 10
68.132412
 20
0.448689
 30
0.0
 10
68.359514
 20
0.057326
 30
0.0
 10
68.723315
 20
0.518141
 30
0.0
 10
69.162083
 20
0.939271
 30
0.0
 10
68.955928
 20
1.142117
 30
0.0
 10
68.818125
 20
1.309687
 30
0.0
 10
68.818125
 20
2.121076
 30
0.0
 10
68.818125
 20
2.932465
 30
0.0
 10
69.200666
 20
3.586205
 30
0.0
 10
69.744167
 20
4.114271
 30
0.0
 10
70.104660
 20
3.886065
 30
0.0
 10
70.440903
 20
3.761493
 30
0.0
 10
70.348297
 20
3.158461
 30
0.0
 10
70.317431
 20
2.403299
 30
0.0
 10
70.317431
 20
2.253368
 30
0.0
 10
70.317431
 20
2.103437
 30
0.0
 10
70.462950
 20
0.923836
 30
0.0
 10
70.899514
 20
0.048507
 30
0.0
 10
71.510257
 20
0.792647
 30
0.0
 10
72.240069
 20
1.486076
 30
0.0
 10
72.138644
 20
1.591910
 30
0.0
 10
72.037222
 20
1.697743
 30
0.0
 10
71.706492
 20
1.421032
 30
0.0
 10
71.393403
 20
1.230312
 30
0.0
 10
71.240162
 20
1.735225
 30
0.0
 10
71.190556
 20
2.456215
 30
0.0
 10
71.190556
 20
2.570868
 30
0.0
 10
71.190556
 20
2.685521
 30
0.0
 10
71.278747
 20
3.629199
 30
0.0
 10
71.543333
 20
4.511146
 30
0.0
 10
71.468364
 20
4.510017
 30
0.0
 10
71.411042
 20
4.511146
 30
0.0
 10
70.782654
 20
4.677610
 30
0.0
 10
70.017569
 20
5.172604
 30
0.0
 10
69.366031
 20
4.460430
 30
0.0
 10
68.818125
 20
3.541007
 30
0.0
 10
68.682526
 20
4.473659
 30
0.0
 10
68.359514
 20
5.172604
 30
0.0
 10
68.359514
 20
5.172604
 30
0.0
  0
LWPOLYLINE
  5
111
100
AcDbEntity
  8
Layer_1
 62
7
100
AcDbPolyline
 90
14
 70
0
 10
74.162708
 20
4.608160
 30
0.0
 10
74.272950
 20
4.550833
 30
0.0
 10
74.383194
 20
4.493507
 30
0.0
 10
75.184660
 20
3.754875
 30
0.0
 10
75.450347
 20
2.694340
 30
0.0
 10
75.257423
 20
1.666873
 30
0.0
 10
74.674236
 20
0.815799
 30
0.0
 10
74.045851
 20
1.218184
 30
0.0
 10
73.562986
 20
1.715382
 30
0.0
 10
73.253202
 20
2.275416
 30
0.0
 10
73.148472
 20
2.853090
 30
0.0
 10
73.402029
 20
3.796769
 30
0.0
 10
74.162708
 20
4.608160
 30
0.0
 10
74.162708
 20
4.608160
 30
0.0
  0
LWPOLYLINE
  5
112
100
AcDbEntity
  8
Layer_1
 62
7
100
AcDbPolyline
 90
22
 70
0
 10
52.466875
 20
4.493507
 30
0.0
 10
52.753506
 20
4.376646
 30
0.0
 10
53.110694
 20
4.273021
 30
0.0
 10
53.457958
 20
4.200254
 30
0.0
 10
53.710417
 20
4.184827
 30
0.0
 10
53.939722
 20
4.198058
 30
0.0
 10
54.036736
 20
4.202466
 30
0.0
 10
53.897829
 20
3.412021
 30
0.0
 10
53.851528
 20
2.597327
 30
0.0
 10
53.857031
 20
2.440780
 30
0.0
 10
53.869167
 20
2.235730
 30
0.0
 10
53.864764
 20
2.235730
 30
0.0
 10
53.860361
 20
2.235730
 30
0.0
 10
53.387416
 20
1.591909
 30
0.0
 10
52.837306
 20
1.106841
 30
0.0
 10
52.189075
 20
2.046110
 30
0.0
 10
51.973000
 20
3.197049
 30
0.0
 10
52.003867
 20
3.576283
 30
0.0
 10
52.096472
 20
3.920244
 30
0.0
 10
52.251915
 20
4.225615
 30
0.0
 10
52.466889
 20
4.493508
 30
0.0
 10
52.466875
 20
4.493507
 30
0.0
  0
LWPOLYLINE
  5
113
100
AcDbEntity
  8
Layer_1
 62
7
100
AcDbPolyline
 90
14
 70
0
 10
8.898819
 20
4.405312
 30
0.0
 10
9.552560
 20
4.038200
 30
0.0
 10
10.054167
 20
3.532187
 30
0.0
 10
10.378280
 20
2.931360
 30
0.0
 10
10.486319
 20
2.279826
 30
0.0
 10
10.301109
 20
1.462924
 30
0.0
 10
9.745486
 20
0.798160
 30
0.0
 10
9.096153
 20
1.171882
 30
0.0
 10
8.598958
 20
1.680104
 30
0.0
 10
8.286970
 20
2.286440
 30
0.0
 10
8.184444
 20
2.950104
 30
0.0
 10
8.361936
 20
3.774719
 30
0.0
 10
8.898819
 20
4.405312
 30
0.0
 10
8.898819
 20
4.405312
 30
0.0
  0
LWPOLYLINE
  5
114
100
AcDbEntity
  8
Layer_1
 62
7
100
AcDbPolyline
 90
14
 70
0
 10
64.478958
 20
4.405312
 30
0.0
 10
65.132698
 20
4.038200
 30
0.0
 10
65.634306
 20
3.532187
 30
0.0
 10
65.958418
 20
2.931360
 30
0.0
 10
66.066458
 20
2.279826
 30
0.0
 10
65.881247
 20
1.462924
 30
0.0
 10
65.325625
 20
0.798160
 30
0.0
 10
64.676291
 20
1.171882
 30
0.0
 10
64.179097
 20
1.680104
 30
0.0
 10
63.862698
 20
2.286440
 30
0.0
 10
63.755764
 20
2.950104
 30
0.0
 10
63.937665
 20
3.774719
 30
0.0
 10
64.478958
 20
4.405312
 30
0.0
 10
64.478958
 20
4.405312
 30
0.0
  0
LWPOLYLINE
  5
115
100
AcDbEntity
  8
Layer_1
 62
7
100
AcDbPolyline
 90
10
 70
0
 10
17.471319
 20
4.370035
 30
0.0
 10
18.085372
 20
3.935674
 30
0.0
 10
18.732500
 20
3.699757
 30
0.0
 10
18.107420
 20
3.157358
 30
0.0
 10
17.197917
 20
2.553229
 30
0.0
 10
17.183583
 20
2.870726
 30
0.0
 10
17.180278
 20
3.100035
 30
0.0
 10
17.251934
 20
3.785744
 30
0.0
 10
17.471319
 20
4.370035
 30
0.0
 10
17.471319
 20
4.370035
 30
0.0
  0
LWPOLYLINE
  5
116
100
AcDbEntity
  8
Layer_1
 62
7
100
AcDbPolyline
 90
10
 70
0
 10
45.578889
 20
4.299479
 30
0.0
 10
45.252567
 20
3.872835
 30
0.0
 10
44.873333
 20
3.585104
 30
0.0
 10
45.254771
 20
3.302879
 30
0.0
 10
45.578889
 20
2.879549
 30
0.0
 10
45.905206
 20
3.300675
 30
0.0
 10
46.284444
 20
3.585104
 30
0.0
 10
45.905206
 20
3.872835
 30
0.0
 10
45.578889
 20
4.299479
 30
0.0
 10
45.578889
 20
4.299479
 30
0.0
  0
LWPOLYLINE
  5
117
100
AcDbEntity
  8
Layer_1
 62
7
100
AcDbPolyline
 90
14
 70
0
 10
14.031736
 20
4.140729
 30
0.0
 10
14.660119
 20
3.560847
 30
0.0
 10
14.869583
 20
2.667882
 30
0.0
 10
14.709732
 20
1.680103
 30
0.0
 10
14.234583
 20
0.771701
 30
0.0
 10
13.613914
 20
0.975650
 30
0.0
 10
13.105694
 20
1.045104
 30
0.0
 10
13.035139
 20
1.045104
 30
0.0
 10
12.964583
 20
1.045104
 30
0.0
 10
12.964583
 20
2.024062
 30
0.0
 10
12.964583
 20
3.003021
 30
0.0
 10
13.498158
 20
3.657860
 30
0.0
 10
14.031736
 20
4.140729
 30
0.0
 10
14.031736
 20
4.140729
 30
0.0
  0
ENDSEC
  0
SECTION
  2
OBJECTS
  0
DICTIONARY
  5
C
330
0
100
AcDbDictionary
  3
ACAD_GROUP
350
D
  3
ACAD_MLINESTYLE
350
17
  0
DICTIONARY
  5
D
330
C
100
AcDbDictionary
  0
DICTIONARY
  5
1A
330
C
100
AcDbDictionary
  0
DICTIONARY
  5
17
330
C
100
AcDbDictionary
  3
STANDARD
350
18
  0
DICTIONARY
  5
19
330
C
100
AcDbDictionary
  0
ENDSEC
  0
EOF
