999
DXF created by Inkscape
  0
SECTION
  2
HEADER
  9
$ACADVER
  1
AC1014
  9
$HANDSEED
  5
FFFF
  9
$MEASUREMENT
 70
     1
  0
ENDSEC
  0
SECTION
  2
TABLES
  0
TABLE
  2
VPORT
  5
8
330
0
100
AcDbSymbolTable
 70
     4
  0
VPORT
  5
2E
330
8
100
AcDbSymbolTableRecord
100
AcDbViewportTableRecord
  2
*ACTIVE
 70
     0
 10
0.0
 20
0.0
 11
1.0
 21
1.0
 12
210.0
 22
148.5
 13
0.0
 23
0.0
 14
10.0
 24
10.0
 15
10.0
 25
10.0
 16
0.0
 26
0.0
 36
1.0
 17
0.0
 27
0.0
 37
0.0
 40
341.0
 41
1.24
 42
50.0
 43
0.0
 44
0.0
 50
0.0
 51
0.0
 71
     0
 72
   100
 73
     1
 74
     3
 75
     0
 76
     0
 77
     0
 78
     0
  0
ENDTAB
  0
TABLE
  2
LTYPE
  5
5
330
0
100
AcDbSymbolTable
 70
     1
  0
LTYPE
  5
14
330
5
100
AcDbSymbolTableRecord
100
AcDbLinetypeTableRecord
  2
BYBLOCK
 70
     0
  3

 72
    65
 73
     0
 40
0.0
  0
LTYPE
  5
15
330
5
100
AcDbSymbolTableRecord
100
AcDbLinetypeTableRecord
  2
BYLAYER
 70
     0
  3

 72
    65
 73
     0
 40
0.0
  0
LTYPE
  5
16
330
5
100
AcDbSymbolTableRecord
100
AcDbLinetypeTableRecord
  2
CONTINUOUS
 70
     0
  3
Solid line
 72
    65
 73
     0
 40
0.0
  0
ENDTAB
  0
TABLE
  2
LAYER
  5
2
100
AcDbSymbolTable
 70
2
  0
LAYER
  5
50
100
AcDbSymbolTableRecord
100
AcDbLayerTableRecord
  2
0
 70
0
  6
CONTINUOUS
  0
LAYER
  5
51
100
AcDbSymbolTableRecord
100
AcDbLayerTableRecord
  2
Layer_1
 70
0
  6
CONTINUOUS
  0
ENDTAB
  0
TABLE
  2
STYLE
  5
3
330
0
100
AcDbSymbolTable
 70
     1
  0
STYLE
  5
11
330
3
100
AcDbSymbolTableRecord
100
AcDbTextStyleTableRecord
  2
STANDARD
 70
     0
 40
0.0
 41
1.0
 50
0.0
 71
     0
 42
2.5
  3
txt
  4

  0
ENDTAB
  0
TABLE
  2
VIEW
  5
6
330
0
100
AcDbSymbolTable
 70
     0
  0
ENDTAB
  0
TABLE
  2
UCS
  5
7
330
0
100
AcDbSymbolTable
 70
     0
  0
ENDTAB
  0
TABLE
  2
APPID
  5
9
330
0
100
AcDbSymbolTable
 70
     2
  0
APPID
  5
12
330
9
100
AcDbSymbolTableRecord
100
AcDbRegAppTableRecord
  2
ACAD
 70
     0
  0
ENDTAB
  0
TABLE
  2
DIMSTYLE
  5
A
330
0
100
AcDbSymbolTable
 70
     1
  0
DIMSTYLE
105
27
330
A
100
AcDbSymbolTableRecord
100
AcDbDimStyleTableRecord
  2
ISO-25
 70
     0
  3

  4

  5

  6

  7

 40
1.0
 41
2.5
 42
0.625
 43
3.75
 44
1.25
 45
0.0
 46
0.0
 47
0.0
 48
0.0
140
2.5
141
2.5
142
0.0
143
0.03937007874016
144
1.0
145
0.0
146
1.0
147
0.625
 71
     0
 72
     0
 73
     0
 74
     0
 75
     0
 76
     0
 77
     1
 78
     8
170
     0
171
     3
172
     1
173
     0
174
     0
175
     0
176
     0
177
     0
178
     0
270
     2
271
     2
272
     2
273
     2
274
     3
340
11
275
     0
280
     0
281
     0
282
     0
283
     0
284
     8
285
     0
286
     0
287
     3
288
     0
  0
ENDTAB
  0
TABLE
  2
BLOCK_RECORD
  5
1
330
0
100
AcDbSymbolTable
 70
     1
  0
BLOCK_RECORD
  5
1F
330
1
100
AcDbSymbolTableRecord
100
AcDbBlockTableRecord
  2
*MODEL_SPACE
  0
BLOCK_RECORD
  5
1B
330
1
100
AcDbSymbolTableRecord
100
AcDbBlockTableRecord
  2
*PAPER_SPACE
  0
ENDTAB
  0
ENDSEC
  0
SECTION
  2
BLOCKS
  0
BLOCK
  5
20
330
1F
100
AcDbEntity
  8
0
100
AcDbBlockBegin
  2
*MODEL_SPACE
 70
     0
 10
0.0
 20
0.0
 30
0.0
  3
*MODEL_SPACE
  1

  0
ENDBLK
  5
21
330
1F
100
AcDbEntity
  8
0
100
AcDbBlockEnd
  0
BLOCK
  5
1C
330
1B
100
AcDbEntity
 67
     1
  8
0
100
AcDbBlockBegin
  2
*PAPER_SPACE
  1

  0
ENDBLK
  5
1D
330
1B
100
AcDbEntity
 67
     1
  8
0
100
AcDbBlockEnd
  0
ENDSEC
  0
SECTION
  2
ENTITIES
  0
LWPOLYLINE
  5
100
100
AcDbEntity
  8
Layer_1
 62
7
100
AcDbPolyline
 90
33
 70
0
 10
3.763696
 20
3.942295
 30
0.0
 10
2.864112
 20
3.942295
 30
0.0
 10
1.964529
 20
3.942295
 30
0.0
 10
1.964529
 20
2.569769
 30
0.0
 10
1.964529
 20
1.197243
 30
0.0
 10
1.895074
 20
0.679651
 30
0.0
 10
1.686718
 20
0.304273
 30
0.0
 10
1.372523
 20
0.076070
 30
0.0
 10
0.985571
 20
0.000003
 30
0.0
 10
0.585388
 20
0.074417
 30
0.0
 10
0.271196
 20
0.297660
 30
0.0
 10
0.067795
 20
0.671384
 30
0.0
 10
0.000000
 20
1.184013
 30
0.0
 10
0.000000
 20
4.921253
 30
0.0
 10
0.000000
 20
8.658493
 30
0.0
 10
0.074411
 20
9.214110
 30
0.0
 10
0.297654
 20
9.584535
 30
0.0
 10
0.682952
 20
9.792886
 30
0.0
 10
1.243542
 20
9.862346
 30
0.0
 10
2.503619
 20
9.862346
 30
0.0
 10
3.763696
 20
9.862346
 30
0.0
 10
4.752571
 20
9.819344
 30
0.0
 10
5.483487
 20
9.690368
 30
0.0
 10
6.037456
 20
9.470424
 30
0.0
 10
6.508750
 20
9.141356
 30
0.0
 10
6.892389
 20
8.714709
 30
0.0
 10
7.170208
 20
8.202086
 30
0.0
 10
7.338873
 20
7.611728
 30
0.0
 10
7.395103
 20
6.951929
 30
0.0
 10
7.166895
 20
5.648853
 30
0.0
 10
6.482292
 20
4.702971
 30
0.0
 10
5.346232
 20
4.132462
 30
0.0
 10
3.763696
 20
3.942295
 30
0.0
  0
LWPOLYLINE
  5
101
100
AcDbEntity
  8
Layer_1
 62
7
100
AcDbPolyline
 90
17
 70
0
 10
3.287446
 20
8.387295
 30
0.0
 10
2.625987
 20
8.387295
 30
0.0
 10
1.964529
 20
8.387295
 30
0.0
 10
1.964529
 20
6.905628
 30
0.0
 10
1.964529
 20
5.423961
 30
0.0
 10
2.625987
 20
5.423961
 30
0.0
 10
3.287446
 20
5.423961
 30
0.0
 10
3.924097
 20
5.460337
 30
0.0
 10
4.445000
 20
5.569481
 30
0.0
 10
4.858405
 20
5.761299
 30
0.0
 10
5.159375
 20
6.045731
 30
0.0
 10
5.342924
 20
6.427719
 30
0.0
 10
5.404112
 20
6.912243
 30
0.0
 10
5.309850
 20
7.494321
 30
0.0
 10
5.027083
 20
7.957346
 30
0.0
 10
4.380504
 20
8.279802
 30
0.0
 10
3.287446
 20
8.387295
 30
0.0
  0
LWPOLYLINE
  5
102
100
AcDbEntity
  8
Layer_1
 62
7
100
AcDbPolyline
 90
65
 70
0
 10
12.984426
 20
1.018648
 30
0.0
 10
12.339501
 20
0.572164
 30
0.0
 10
11.714426
 20
0.251356
 30
0.0
 10
11.067850
 20
0.062840
 30
0.0
 10
10.345208
 20
0.000003
 30
0.0
 10
9.692016
 20
0.067801
 30
0.0
 10
9.121510
 20
0.271202
 30
0.0
 10
8.658487
 20
0.596968
 30
0.0
 10
8.314529
 20
1.018648
 30
0.0
 10
8.101209
 20
1.508125
 30
0.0
 10
8.030103
 20
2.037295
 30
0.0
 10
8.147513
 20
2.723555
 30
0.0
 10
8.499737
 20
3.300679
 30
0.0
 10
9.057013
 20
3.737241
 30
0.0
 10
9.789583
 20
4.001827
 30
0.0
 10
10.088891
 20
4.066312
 30
0.0
 10
10.642862
 20
4.180420
 30
0.0
 10
11.274552
 20
4.312709
 30
0.0
 10
11.807029
 20
4.431773
 30
0.0
 10
12.316350
 20
4.562408
 30
0.0
 10
12.865362
 20
4.716202
 30
0.0
 10
12.776067
 20
5.334661
 30
0.0
 10
12.574321
 20
5.761304
 30
0.0
 10
12.185712
 20
6.014308
 30
0.0
 10
11.522603
 20
6.098648
 30
0.0
 10
10.919020
 20
6.050687
 30
0.0
 10
10.484112
 20
5.906827
 30
0.0
 10
10.163305
 20
5.667042
 30
0.0
 10
9.888801
 20
5.331356
 30
0.0
 10
9.678786
 20
5.012199
 30
0.0
 10
9.538228
 20
4.822035
 30
0.0
 10
9.379478
 20
4.732734
 30
0.0
 10
9.101667
 20
4.702971
 30
0.0
 10
8.817237
 20
4.750924
 30
0.0
 10
8.572500
 20
4.894795
 30
0.0
 10
8.408789
 20
5.119686
 30
0.0
 10
8.354218
 20
5.397503
 30
0.0
 10
8.438552
 20
5.867135
 30
0.0
 10
8.691561
 20
6.323545
 30
0.0
 10
9.123161
 20
6.733645
 30
0.0
 10
9.743279
 20
7.064378
 30
0.0
 10
10.545295
 20
7.282652
 30
0.0
 10
11.522603
 20
7.355420
 30
0.0
 10
12.585892
 20
7.284308
 30
0.0
 10
13.394529
 20
7.070993
 30
0.0
 10
13.974956
 20
6.710494
 30
0.0
 10
14.353644
 20
6.184638
 30
0.0
 10
14.566959
 20
5.476872
 30
0.0
 10
14.638071
 20
4.570679
 30
0.0
 10
14.636377
 20
3.983632
 30
0.0
 10
14.631439
 20
3.492503
 30
0.0
 10
14.629745
 20
3.024519
 30
0.0
 10
14.624806
 20
2.506929
 30
0.0
 10
14.666143
 20
1.986029
 30
0.0
 10
14.790172
 20
1.441981
 30
0.0
 10
14.919150
 20
0.990535
 30
0.0
 10
14.962149
 20
0.734221
 30
0.0
 10
14.895999
 20
0.467984
 30
0.0
 10
14.697566
 20
0.224898
 30
0.0
 10
14.421403
 20
0.056227
 30
0.0
 10
14.108867
 20
0.000003
 30
0.0
 10
13.832705
 20
0.064497
 30
0.0
 10
13.559858
 20
0.257971
 30
0.0
 10
13.280387
 20
0.580433
 30
0.0
 10
12.984390
 20
1.018648
 30
0.0
  0
LWPOLYLINE
  5
103
100
AcDbEntity
  8
Layer_1
 62
7
100
AcDbPolyline
 90
21
 70
0
 10
12.865326
 20
3.631410
 30
0.0
 10
12.377499
 20
3.480924
 30
0.0
 10
11.707774
 20
3.320523
 30
0.0
 10
11.069464
 20
3.181613
 30
0.0
 10
10.662672
 20
3.082398
 30
0.0
 10
10.378242
 20
2.971603
 30
0.0
 10
10.107047
 20
2.784743
 30
0.0
 10
9.908608
 20
2.521811
 30
0.0
 10
9.842463
 20
2.169586
 30
0.0
 10
9.920182
 20
1.789247
 30
0.0
 10
10.153348
 20
1.468439
 30
0.0
 10
10.512185
 20
1.255119
 30
0.0
 10
10.966941
 20
1.184013
 30
0.0
 10
11.481221
 20
1.241891
 30
0.0
 10
11.952515
 20
1.415523
 30
0.0
 10
12.347733
 20
1.686721
 30
0.0
 10
12.620588
 20
2.024064
 30
0.0
 10
12.804137
 20
2.566459
 30
0.0
 10
12.865326
 20
3.373439
 30
0.0
 10
12.865326
 20
3.502423
 30
0.0
 10
12.865326
 20
3.631410
 30
0.0
  0
LWPOLYLINE
  5
104
100
AcDbEntity
  8
Layer_1
 62
7
100
AcDbPolyline
 90
71
 70
0
 10
16.218958
 20
7.183439
 30
0.0
 10
16.318176
 20
7.183439
 30
0.0
 10
16.417394
 20
7.183439
 30
0.0
 10
16.417394
 20
7.725836
 30
0.0
 10
16.417394
 20
8.268231
 30
0.0
 10
16.422362
 20
8.656831
 30
0.0
 10
16.437235
 20
8.949535
 30
0.0
 10
16.483536
 20
9.182693
 30
0.0
 10
16.569526
 20
9.379481
 30
0.0
 10
16.698510
 20
9.546492
 30
0.0
 10
16.873799
 20
9.677138
 30
0.0
 10
17.083809
 20
9.766427
 30
0.0
 10
17.316975
 20
9.796202
 30
0.0
 10
17.644395
 20
9.731703
 30
0.0
 10
17.938747
 20
9.538231
 30
0.0
 10
18.089225
 20
9.346402
 30
0.0
 10
18.170257
 20
9.114898
 30
0.0
 10
18.209943
 20
8.817235
 30
0.0
 10
18.223179
 20
8.413753
 30
0.0
 10
18.223179
 20
7.798596
 30
0.0
 10
18.223179
 20
7.183439
 30
0.0
 10
18.553907
 20
7.183439
 30
0.0
 10
18.884638
 20
7.183439
 30
0.0
 10
19.221978
 20
7.137132
 30
0.0
 10
19.466721
 20
6.998231
 30
0.0
 10
19.620507
 20
6.793177
 30
0.0
 10
19.671772
 20
6.535211
 30
0.0
 10
19.599010
 20
6.225975
 30
0.0
 10
19.380731
 20
6.025888
 30
0.0
 10
19.033462
 20
5.916744
 30
0.0
 10
18.560522
 20
5.880368
 30
0.0
 10
18.391849
 20
5.880368
 30
0.0
 10
18.223179
 20
5.880368
 30
0.0
 10
18.223179
 20
4.220106
 30
0.0
 10
18.223179
 20
2.559846
 30
0.0
 10
18.229783
 20
2.184468
 30
0.0
 10
18.249623
 20
1.905003
 30
0.0
 10
18.305842
 20
1.699949
 30
0.0
 10
18.408373
 20
1.534586
 30
0.0
 10
18.580351
 20
1.430407
 30
0.0
 10
18.831707
 20
1.395679
 30
0.0
 10
19.018566
 20
1.408916
 30
0.0
 10
19.261655
 20
1.448605
 30
0.0
 10
19.503085
 20
1.493252
 30
0.0
 10
19.684989
 20
1.508125
 30
0.0
 10
19.891688
 20
1.463475
 30
0.0
 10
20.075248
 20
1.329532
 30
0.0
 10
20.209188
 20
1.136055
 30
0.0
 10
20.253841
 20
0.899584
 30
0.0
 10
20.134775
 20
0.514285
 30
0.0
 10
19.777591
 20
0.231510
 30
0.0
 10
19.197159
 20
0.057878
 30
0.0
 10
18.408373
 20
0.000000
 30
0.0
 10
17.664230
 20
0.071106
 30
0.0
 10
17.125143
 20
0.284427
 30
0.0
 10
16.762992
 20
0.623424
 30
0.0
 10
16.549675
 20
1.071561
 30
0.0
 10
16.450457
 20
1.658606
 30
0.0
 10
16.417383
 20
2.414324
 30
0.0
 10
16.417383
 20
4.147343
 30
0.0
 10
16.417383
 20
5.880366
 30
0.0
 10
16.298319
 20
5.880366
 30
0.0
 10
16.179258
 20
5.880366
 30
0.0
 10
15.835300
 20
5.926664
 30
0.0
 10
15.583947
 20
6.065574
 30
0.0
 10
15.430156
 20
6.275581
 30
0.0
 10
15.378893
 20
6.535209
 30
0.0
 10
15.431810
 20
6.793171
 30
0.0
 10
15.590560
 20
6.998228
 30
0.0
 10
15.856797
 20
7.137129
 30
0.0
 10
16.218947
 20
7.183436
 30
0.0
  0
LWPOLYLINE
  5
105
100
AcDbEntity
  8
Layer_1
 62
7
100
AcDbPolyline
 90
43
 70
0
 10
22.701250
 20
2.606148
 30
0.0
 10
22.701250
 20
1.852086
 30
0.0
 10
22.701250
 20
1.098023
 30
0.0
 10
22.636757
 20
0.616814
 30
0.0
 10
22.443279
 20
0.271202
 30
0.0
 10
22.150584
 20
0.067801
 30
0.0
 10
21.788436
 20
0.000003
 30
0.0
 10
21.432901
 20
0.069455
 30
0.0
 10
21.146821
 20
0.277814
 30
0.0
 10
20.958305
 20
0.621773
 30
0.0
 10
20.895468
 20
1.098023
 30
0.0
 10
20.895468
 20
3.611564
 30
0.0
 10
20.895468
 20
6.125106
 30
0.0
 10
21.115404
 20
7.037914
 30
0.0
 10
21.775208
 20
7.342189
 30
0.0
 10
22.162158
 20
7.271078
 30
0.0
 10
22.423436
 20
7.057763
 30
0.0
 10
22.577222
 20
6.705533
 30
0.0
 10
22.641718
 20
6.217711
 30
0.0
 10
22.969135
 20
6.705533
 30
0.0
 10
23.303176
 20
7.057763
 30
0.0
 10
23.703356
 20
7.271078
 30
0.0
 10
24.215987
 20
7.342189
 30
0.0
 10
24.776571
 20
7.271078
 30
0.0
 10
25.320625
 20
7.057763
 30
0.0
 10
25.722456
 20
6.727029
 30
0.0
 10
25.856404
 20
6.303702
 30
0.0
 10
25.798523
 20
6.001080
 30
0.0
 10
25.624894
 20
5.754689
 30
0.0
 10
25.390074
 20
5.595936
 30
0.0
 10
25.135417
 20
5.543023
 30
0.0
 10
24.965087
 20
5.572786
 30
0.0
 10
24.652551
 20
5.662086
 30
0.0
 10
24.297013
 20
5.756340
 30
0.0
 10
23.984478
 20
5.787763
 30
0.0
 10
23.623981
 20
5.734841
 30
0.0
 10
23.336250
 20
5.576096
 30
0.0
 10
23.113007
 20
5.319779
 30
0.0
 10
22.945987
 20
4.960939
 30
0.0
 10
22.828577
 20
4.511145
 30
0.0
 10
22.754167
 20
3.981981
 30
0.0
 10
22.714478
 20
3.356901
 30
0.0
 10
22.701242
 20
2.606148
 30
0.0
  0
LWPOLYLINE
  5
106
100
AcDbEntity
  8
Layer_1
 62
7
100
AcDbPolyline
 90
21
 70
0
 10
28.641144
 20
6.316929
 30
0.0
 10
28.641144
 20
3.707477
 30
0.0
 10
28.641144
 20
1.098023
 30
0.0
 10
28.576651
 20
0.621773
 30
0.0
 10
28.383176
 20
0.277814
 30
0.0
 10
28.090481
 20
0.069455
 30
0.0
 10
27.728333
 20
0.000003
 30
0.0
 10
27.367837
 20
0.071109
 30
0.0
 10
27.080103
 20
0.284429
 30
0.0
 10
26.896548
 20
0.630042
 30
0.0
 10
26.835362
 20
1.098023
 30
0.0
 10
26.835362
 20
3.681016
 30
0.0
 10
26.835362
 20
6.264013
 30
0.0
 10
26.896548
 20
6.733645
 30
0.0
 10
27.080103
 20
7.070993
 30
0.0
 10
27.367837
 20
7.274385
 30
0.0
 10
27.728333
 20
7.342189
 30
0.0
 10
28.090481
 20
7.274385
 30
0.0
 10
28.383176
 20
7.070993
 30
0.0
 10
28.576651
 20
6.746872
 30
0.0
 10
28.641144
 20
6.316929
 30
0.0
  0
LWPOLYLINE
  5
107
100
AcDbEntity
  8
Layer_1
 62
7
100
AcDbPolyline
 90
17
 70
0
 10
27.748176
 20
8.182243
 30
0.0
 10
27.397603
 20
8.240116
 30
0.0
 10
27.099946
 20
8.413753
 30
0.0
 10
26.901510
 20
8.693212
 30
0.0
 10
26.835362
 20
9.068596
 30
0.0
 10
26.903161
 20
9.417510
 30
0.0
 10
27.106561
 20
9.696981
 30
0.0
 10
27.405872
 20
9.885488
 30
0.0
 10
27.748176
 20
9.948336
 30
0.0
 10
28.078904
 20
9.892104
 30
0.0
 10
28.369946
 20
9.723439
 30
0.0
 10
28.573343
 20
9.447273
 30
0.0
 10
28.641144
 20
9.068596
 30
0.0
 10
28.574997
 20
8.696520
 30
0.0
 10
28.376561
 20
8.413753
 30
0.0
 10
28.087173
 20
8.240116
 30
0.0
 10
27.748176
 20
8.182243
 30
0.0
  0
LWPOLYLINE
  5
108
100
AcDbEntity
  8
Layer_1
 62
7
100
AcDbPolyline
 90
63
 70
0
 10
36.988750
 20
2.235731
 30
0.0
 10
36.937479
 20
1.886811
 30
0.0
 10
36.783696
 20
1.514743
 30
0.0
 10
36.530684
 20
1.139365
 30
0.0
 10
36.168542
 20
0.780523
 30
0.0
 10
35.703860
 20
0.469638
 30
0.0
 10
35.130051
 20
0.224898
 30
0.0
 10
34.461975
 20
0.066148
 30
0.0
 10
33.714529
 20
0.013231
 30
0.0
 10
32.224593
 20
0.256317
 30
0.0
 10
31.101769
 20
0.985577
 30
0.0
 10
30.397315
 20
2.129898
 30
0.0
 10
30.162500
 20
3.604952
 30
0.0
 10
30.269987
 20
4.651705
 30
0.0
 10
30.592446
 20
5.569481
 30
0.0
 10
31.118302
 20
6.325193
 30
0.0
 10
31.835987
 20
6.885785
 30
0.0
 10
32.728956
 20
7.238007
 30
0.0
 10
33.780676
 20
7.355420
 30
0.0
 10
34.452052
 20
7.304151
 30
0.0
 10
35.063904
 20
7.150368
 30
0.0
 10
35.606296
 20
6.915545
 30
0.0
 10
36.056093
 20
6.621202
 30
0.0
 10
36.416581
 20
6.285507
 30
0.0
 10
36.677862
 20
5.926670
 30
0.0
 10
36.841568
 20
5.574440
 30
0.0
 10
36.896144
 20
5.245368
 30
0.0
 10
36.834953
 20
4.946055
 30
0.0
 10
36.651404
 20
4.696356
 30
0.0
 10
36.386818
 20
4.527683
 30
0.0
 10
36.069321
 20
4.471461
 30
0.0
 10
35.862613
 20
4.499571
 30
0.0
 10
35.692292
 20
4.583910
 30
0.0
 10
35.536844
 20
4.737696
 30
0.0
 10
35.361561
 20
4.960939
 30
0.0
 10
35.022559
 20
5.400808
 30
0.0
 10
34.667029
 20
5.715003
 30
0.0
 10
34.260231
 20
5.903513
 30
0.0
 10
33.754218
 20
5.966356
 30
0.0
 10
33.031571
 20
5.809257
 30
0.0
 10
32.464375
 20
5.337971
 30
0.0
 10
32.097263
 20
4.600443
 30
0.0
 10
31.974894
 20
3.631410
 30
0.0
 10
32.006311
 20
3.141929
 30
0.0
 10
32.100571
 20
2.692138
 30
0.0
 10
32.254359
 20
2.298568
 30
0.0
 10
32.464375
 20
1.964535
 30
0.0
 10
32.727302
 20
1.701603
 30
0.0
 10
33.039843
 20
1.508128
 30
0.0
 10
33.393719
 20
1.394026
 30
0.0
 10
33.780676
 20
1.355993
 30
0.0
 10
34.283382
 20
1.418830
 30
0.0
 10
34.706718
 20
1.607346
 30
0.0
 10
35.073821
 20
1.924846
 30
0.0
 10
35.394635
 20
2.374638
 30
0.0
 10
35.566610
 20
2.645834
 30
0.0
 10
35.751821
 20
2.850888
 30
0.0
 10
35.965138
 20
2.979869
 30
0.0
 10
36.221458
 20
3.022868
 30
0.0
 10
36.524068
 20
2.960026
 30
0.0
 10
36.770468
 20
2.771513
 30
0.0
 10
36.934174
 20
2.511888
 30
0.0
 10
36.988750
 20
2.235731
 30
0.0
  0
LWPOLYLINE
  5
109
100
AcDbEntity
  8
Layer_1
 62
7
100
AcDbPolyline
 90
55
 70
0
 10
42.551612
 20
0.826827
 30
0.0
 10
41.754555
 20
2.136516
 30
0.0
 10
40.957500
 20
3.446202
 30
0.0
 10
40.468019
 20
2.983182
 30
0.0
 10
39.978542
 20
2.520160
 30
0.0
 10
39.978542
 20
1.802477
 30
0.0
 10
39.978542
 20
1.084795
 30
0.0
 10
39.909087
 20
0.621773
 30
0.0
 10
39.700728
 20
0.277814
 30
0.0
 10
39.408032
 20
0.069455
 30
0.0
 10
39.072343
 20
0.000003
 30
0.0
 10
38.700273
 20
0.069455
 30
0.0
 10
38.417500
 20
0.277814
 30
0.0
 10
38.238904
 20
0.621773
 30
0.0
 10
38.179375
 20
1.098023
 30
0.0
 10
38.179375
 20
4.947711
 30
0.0
 10
38.179375
 20
8.797398
 30
0.0
 10
38.237250
 20
9.326559
 30
0.0
 10
38.410885
 20
9.710211
 30
0.0
 10
38.692003
 20
9.948328
 30
0.0
 10
39.072343
 20
10.027711
 30
0.0
 10
39.446065
 20
9.956597
 30
0.0
 10
39.733801
 20
9.743285
 30
0.0
 10
39.917353
 20
9.391049
 30
0.0
 10
39.978542
 20
8.903231
 30
0.0
 10
39.978542
 20
6.713804
 30
0.0
 10
39.978542
 20
4.524378
 30
0.0
 10
40.993878
 20
5.589327
 30
0.0
 10
42.009218
 20
6.654273
 30
0.0
 10
42.341597
 20
6.988305
 30
0.0
 10
42.584686
 20
7.196670
 30
0.0
 10
42.804616
 20
7.305805
 30
0.0
 10
43.067551
 20
7.342189
 30
0.0
 10
43.376777
 20
7.287616
 30
0.0
 10
43.629792
 20
7.123910
 30
0.0
 10
43.798456
 20
6.884126
 30
0.0
 10
43.854686
 20
6.588128
 30
0.0
 10
43.671126
 20
6.125103
 30
0.0
 10
43.120468
 20
5.529795
 30
0.0
 10
42.640910
 20
5.089926
 30
0.0
 10
42.161353
 20
4.650054
 30
0.0
 10
43.087394
 20
3.194846
 30
0.0
 10
44.013436
 20
1.739638
 30
0.0
 10
44.188716
 20
1.453558
 30
0.0
 10
44.304478
 20
1.243545
 30
0.0
 10
44.373927
 20
1.081487
 30
0.0
 10
44.397097
 20
0.926045
 30
0.0
 10
44.337560
 20
0.540747
 30
0.0
 10
44.158972
 20
0.244743
 30
0.0
 10
43.889422
 20
0.061189
 30
0.0
 10
43.543815
 20
0.000003
 30
0.0
 10
43.251114
 20
0.044651
 30
0.0
 10
43.034492
 20
0.178596
 30
0.0
 10
42.824473
 20
0.429952
 30
0.0
 10
42.551627
 20
0.826827
 30
0.0
  0
ENDSEC
  0
SECTION
  2
OBJECTS
  0
DICTIONARY
  5
C
330
0
100
AcDbDictionary
  3
ACAD_GROUP
350
D
  3
ACAD_MLINESTYLE
350
17
  0
DICTIONARY
  5
D
330
C
100
AcDbDictionary
  0
DICTIONARY
  5
1A
330
C
100
AcDbDictionary
  0
DICTIONARY
  5
17
330
C
100
AcDbDictionary
  3
STANDARD
350
18
  0
DICTIONARY
  5
19
330
C
100
AcDbDictionary
  0
ENDSEC
  0
EOF
