999
DXF created by Inkscape
  0
SECTION
  2
HEADER
  9
$ACADVER
  1
AC1014
  9
$HANDSEED
  5
FFFF
  9
$MEASUREMENT
 70
     1
  0
ENDSEC
  0
SECTION
  2
TABLES
  0
TABLE
  2
VPORT
  5
8
330
0
100
AcDbSymbolTable
 70
     4
  0
VPORT
  5
2E
330
8
100
AcDbSymbolTableRecord
100
AcDbViewportTableRecord
  2
*ACTIVE
 70
     0
 10
0.0
 20
0.0
 11
1.0
 21
1.0
 12
210.0
 22
148.5
 13
0.0
 23
0.0
 14
10.0
 24
10.0
 15
10.0
 25
10.0
 16
0.0
 26
0.0
 36
1.0
 17
0.0
 27
0.0
 37
0.0
 40
341.0
 41
1.24
 42
50.0
 43
0.0
 44
0.0
 50
0.0
 51
0.0
 71
     0
 72
   100
 73
     1
 74
     3
 75
     0
 76
     0
 77
     0
 78
     0
  0
ENDTAB
  0
TABLE
  2
LTYPE
  5
5
330
0
100
AcDbSymbolTable
 70
     1
  0
LTYPE
  5
14
330
5
100
AcDbSymbolTableRecord
100
AcDbLinetypeTableRecord
  2
BYBLOCK
 70
     0
  3

 72
    65
 73
     0
 40
0.0
  0
LTYPE
  5
15
330
5
100
AcDbSymbolTableRecord
100
AcDbLinetypeTableRecord
  2
BYLAYER
 70
     0
  3

 72
    65
 73
     0
 40
0.0
  0
LTYPE
  5
16
330
5
100
AcDbSymbolTableRecord
100
AcDbLinetypeTableRecord
  2
CONTINUOUS
 70
     0
  3
Solid line
 72
    65
 73
     0
 40
0.0
  0
ENDTAB
  0
TABLE
  2
LAYER
  5
2
100
AcDbSymbolTable
 70
2
  0
LAYER
  5
50
100
AcDbSymbolTableRecord
100
AcDbLayerTableRecord
  2
0
 70
0
  6
CONTINUOUS
  0
LAYER
  5
51
100
AcDbSymbolTableRecord
100
AcDbLayerTableRecord
  2
Layer_1
 70
0
  6
CONTINUOUS
  0
ENDTAB
  0
TABLE
  2
STYLE
  5
3
330
0
100
AcDbSymbolTable
 70
     1
  0
STYLE
  5
11
330
3
100
AcDbSymbolTableRecord
100
AcDbTextStyleTableRecord
  2
STANDARD
 70
     0
 40
0.0
 41
1.0
 50
0.0
 71
     0
 42
2.5
  3
txt
  4

  0
ENDTAB
  0
TABLE
  2
VIEW
  5
6
330
0
100
AcDbSymbolTable
 70
     0
  0
ENDTAB
  0
TABLE
  2
UCS
  5
7
330
0
100
AcDbSymbolTable
 70
     0
  0
ENDTAB
  0
TABLE
  2
APPID
  5
9
330
0
100
AcDbSymbolTable
 70
     2
  0
APPID
  5
12
330
9
100
AcDbSymbolTableRecord
100
AcDbRegAppTableRecord
  2
ACAD
 70
     0
  0
ENDTAB
  0
TABLE
  2
DIMSTYLE
  5
A
330
0
100
AcDbSymbolTable
 70
     1
  0
DIMSTYLE
105
27
330
A
100
AcDbSymbolTableRecord
100
AcDbDimStyleTableRecord
  2
ISO-25
 70
     0
  3

  4

  5

  6

  7

 40
1.0
 41
2.5
 42
0.625
 43
3.75
 44
1.25
 45
0.0
 46
0.0
 47
0.0
 48
0.0
140
2.5
141
2.5
142
0.0
143
0.03937007874016
144
1.0
145
0.0
146
1.0
147
0.625
 71
     0
 72
     0
 73
     0
 74
     0
 75
     0
 76
     0
 77
     1
 78
     8
170
     0
171
     3
172
     1
173
     0
174
     0
175
     0
176
     0
177
     0
178
     0
270
     2
271
     2
272
     2
273
     2
274
     3
340
11
275
     0
280
     0
281
     0
282
     0
283
     0
284
     8
285
     0
286
     0
287
     3
288
     0
  0
ENDTAB
  0
TABLE
  2
BLOCK_RECORD
  5
1
330
0
100
AcDbSymbolTable
 70
     1
  0
BLOCK_RECORD
  5
1F
330
1
100
AcDbSymbolTableRecord
100
AcDbBlockTableRecord
  2
*MODEL_SPACE
  0
BLOCK_RECORD
  5
1B
330
1
100
AcDbSymbolTableRecord
100
AcDbBlockTableRecord
  2
*PAPER_SPACE
  0
ENDTAB
  0
ENDSEC
  0
SECTION
  2
BLOCKS
  0
BLOCK
  5
20
330
1F
100
AcDbEntity
  8
0
100
AcDbBlockBegin
  2
*MODEL_SPACE
 70
     0
 10
0.0
 20
0.0
 30
0.0
  3
*MODEL_SPACE
  1

  0
ENDBLK
  5
21
330
1F
100
AcDbEntity
  8
0
100
AcDbBlockEnd
  0
BLOCK
  5
1C
330
1B
100
AcDbEntity
 67
     1
  8
0
100
AcDbBlockBegin
  2
*PAPER_SPACE
  1

  0
ENDBLK
  5
1D
330
1B
100
AcDbEntity
 67
     1
  8
0
100
AcDbBlockEnd
  0
ENDSEC
  0
SECTION
  2
ENTITIES
  0
LWPOLYLINE
  5
100
100
AcDbEntity
  8
Layer_1
 62
7
100
AcDbPolyline
 90
63
 70
0
 10
1.768297
 20
2.875139
 30
0.0
 10
1.538992
 20
2.875139
 30
0.0
 10
1.309686
 20
2.875139
 30
0.0
 10
1.309686
 20
1.836649
 30
0.0
 10
1.309686
 20
0.798160
 30
0.0
 10
1.264485
 20
0.442075
 30
0.0
 10
1.128889
 20
0.194028
 30
0.0
 10
0.920530
 20
0.048506
 30
0.0
 10
0.657047
 20
0.000000
 30
0.0
 10
0.379236
 20
0.050712
 30
0.0
 10
0.171978
 20
0.202847
 30
0.0
 10
0.042994
 20
0.453099
 30
0.0
 10
-0.000000
 20
0.798160
 30
0.0
 10
-0.000000
 20
3.285243
 30
0.0
 10
-0.000000
 20
5.772326
 30
0.0
 10
0.047402
 20
6.137226
 30
0.0
 10
0.189617
 20
6.385278
 30
0.0
 10
0.437665
 20
6.527486
 30
0.0
 10
0.802569
 20
6.574896
 30
0.0
 10
1.867515
 20
6.574896
 30
0.0
 10
2.932464
 20
6.574896
 30
0.0
 10
3.341463
 20
6.564970
 30
0.0
 10
3.686528
 20
6.535209
 30
0.0
 10
3.984179
 20
6.480083
 30
0.0
 10
4.250972
 20
6.385279
 30
0.0
 10
4.537600
 20
6.229831
 30
0.0
 10
4.788958
 20
6.019272
 30
0.0
 10
4.994007
 20
5.761299
 30
0.0
 10
5.141736
 20
5.463647
 30
0.0
 10
5.234336
 20
5.140631
 30
0.0
 10
5.265208
 20
4.797779
 30
0.0
 10
5.162677
 20
4.147342
 30
0.0
 10
4.855103
 20
3.642432
 30
0.0
 10
4.343572
 20
3.273115
 30
0.0
 10
3.620381
 20
3.029480
 30
0.0
 10
3.961028
 20
2.800173
 30
0.0
 10
4.286250
 20
2.482675
 30
0.0
 10
4.586108
 20
2.108949
 30
0.0
 10
4.850694
 20
1.710973
 30
0.0
 10
5.073382
 20
1.324019
 30
0.0
 10
5.238750
 20
0.974550
 30
0.0
 10
5.344578
 20
0.698942
 30
0.0
 10
5.379861
 20
0.524758
 30
0.0
 10
5.358920
 20
0.396876
 30
0.0
 10
5.296086
 20
0.268994
 30
0.0
 10
5.201274
 20
0.158751
 30
0.0
 10
5.075600
 20
0.074966
 30
0.0
 10
4.923460
 20
0.018742
 30
0.0
 10
4.749281
 20
0.000000
 30
0.0
 10
4.546431
 20
0.026458
 30
0.0
 10
4.378864
 20
0.105833
 30
0.0
 10
4.238854
 20
0.221588
 30
0.0
 10
4.118692
 20
0.366007
 30
0.0
 10
3.993010
 20
0.562239
 30
0.0
 10
3.827650
 20
0.833437
 30
0.0
 10
3.565271
 20
1.270000
 30
0.0
 10
3.302892
 20
1.706563
 30
0.0
 10
3.034998
 20
2.129894
 30
0.0
 10
2.795775
 20
2.438576
 30
0.0
 10
2.573079
 20
2.650241
 30
0.0
 10
2.345984
 20
2.782535
 30
0.0
 10
2.086909
 20
2.851986
 30
0.0
 10
1.768308
 20
2.875139
 30
0.0
  0
LWPOLYLINE
  5
101
100
AcDbEntity
  8
Layer_1
 62
7
100
AcDbPolyline
 90
19
 70
0
 10
2.517961
 20
5.591528
 30
0.0
 10
1.913828
 20
5.591528
 30
0.0
 10
1.309697
 20
5.591528
 30
0.0
 10
1.309697
 20
4.702969
 30
0.0
 10
1.309697
 20
3.814410
 30
0.0
 10
1.896189
 20
3.814410
 30
0.0
 10
2.482683
 20
3.814410
 30
0.0
 10
2.917038
 20
3.834250
 30
0.0
 10
3.276433
 20
3.893784
 30
0.0
 10
3.559756
 20
4.005126
 30
0.0
 10
3.765914
 20
4.171596
 30
0.0
 10
3.894895
 20
4.406411
 30
0.0
 10
3.937892
 20
4.713992
 30
0.0
 10
3.903715
 20
4.966445
 30
0.0
 10
3.801192
 20
5.185832
 30
0.0
 10
3.638028
 20
5.366627
 30
0.0
 10
3.421956
 20
5.494513
 30
0.0
 10
3.081302
 20
5.567269
 30
0.0
 10
2.517961
 20
5.591526
 30
0.0
  0
LWPOLYLINE
  5
102
100
AcDbEntity
  8
Layer_1
 62
7
100
AcDbPolyline
 90
53
 70
0
 10
9.547047
 20
2.151944
 30
0.0
 10
8.369650
 20
2.151944
 30
0.0
 10
7.192256
 20
2.151944
 30
0.0
 10
7.235249
 20
1.766092
 30
0.0
 10
7.355417
 20
1.428750
 30
0.0
 10
7.543930
 20
1.154244
 30
0.0
 10
7.783158
 20
0.956910
 30
0.0
 10
8.065381
 20
0.837847
 30
0.0
 10
8.374061
 20
0.798160
 30
0.0
 10
8.580213
 20
0.810287
 30
0.0
 10
8.766528
 20
0.846667
 30
0.0
 10
8.944017
 20
0.912812
 30
0.0
 10
9.114894
 20
1.005417
 30
0.0
 10
9.275846
 20
1.118967
 30
0.0
 10
9.423575
 20
1.239132
 30
0.0
 10
9.585630
 20
1.384652
 30
0.0
 10
9.789583
 20
1.574271
 30
0.0
 10
9.902026
 20
1.633801
 30
0.0
 10
10.054167
 20
1.653647
 30
0.0
 10
10.221733
 20
1.628290
 30
0.0
 10
10.354028
 20
1.552223
 30
0.0
 10
10.440012
 20
1.429852
 30
0.0
 10
10.468681
 20
1.265591
 30
0.0
 10
10.436705
 20
1.088099
 30
0.0
 10
10.340797
 20
0.881945
 30
0.0
 10
10.179840
 20
0.669176
 30
0.0
 10
9.952742
 20
0.463022
 30
0.0
 10
9.662801
 20
0.281120
 30
0.0
 10
9.304514
 20
0.132293
 30
0.0
 10
8.886690
 20
0.033074
 30
0.0
 10
8.409339
 20
0.000001
 30
0.0
 10
7.378565
 20
0.165366
 30
0.0
 10
6.605764
 20
0.661459
 30
0.0
 10
6.122899
 20
1.440877
 30
0.0
 10
5.961944
 20
2.456216
 30
0.0
 10
6.001631
 20
2.969947
 30
0.0
 10
6.120694
 20
3.443994
 30
0.0
 10
6.315823
 20
3.869529
 30
0.0
 10
6.583714
 20
4.228924
 30
0.0
 10
6.923264
 20
4.516656
 30
0.0
 10
7.333367
 20
4.727223
 30
0.0
 10
7.803001
 20
4.859511
 30
0.0
 10
8.321144
 20
4.903612
 30
0.0
 10
8.975987
 20
4.828643
 30
0.0
 10
9.529408
 20
4.603751
 30
0.0
 10
9.972585
 20
4.264199
 30
0.0
 10
10.287881
 20
3.836459
 30
0.0
 10
10.476394
 20
3.360207
 30
0.0
 10
10.539236
 20
2.875140
 30
0.0
 10
10.474190
 20
2.500312
 30
0.0
 10
10.279061
 20
2.284237
 30
0.0
 10
9.965967
 20
2.185017
 30
0.0
 10
9.547047
 20
2.151945
 30
0.0
  0
LWPOLYLINE
  5
103
100
AcDbEntity
  8
Layer_1
 62
7
100
AcDbPolyline
 90
11
 70
0
 10
7.192256
 20
2.835452
 30
0.0
 10
8.283662
 20
2.835452
 30
0.0
 10
9.375069
 20
2.835452
 30
0.0
 10
9.269233
 20
3.374538
 30
0.0
 10
9.039931
 20
3.757084
 30
0.0
 10
8.706993
 20
3.988592
 30
0.0
 10
8.281458
 20
4.065765
 30
0.0
 10
7.871353
 20
3.987489
 30
0.0
 10
7.540625
 20
3.752674
 30
0.0
 10
7.310216
 20
3.369026
 30
0.0
 10
7.192256
 20
2.835452
 30
0.0
  0
LWPOLYLINE
  5
104
100
AcDbEntity
  8
Layer_1
 62
7
100
AcDbPolyline
 90
45
 70
0
 10
14.847533
 20
0.687917
 30
0.0
 10
14.847533
 20
0.747448
 30
0.0
 10
14.847533
 20
0.806979
 30
0.0
 10
14.606098
 20
0.554522
 30
0.0
 10
14.366875
 20
0.352778
 30
0.0
 10
14.122132
 20
0.201745
 30
0.0
 10
13.855347
 20
0.092604
 30
0.0
 10
13.568714
 20
0.023151
 30
0.0
 10
13.255625
 20
0.000000
 30
0.0
 10
12.838904
 20
0.045200
 30
0.0
 10
12.453056
 20
0.180799
 30
0.0
 10
12.111301
 20
0.404592
 30
0.0
 10
11.818056
 20
0.705556
 30
0.0
 10
11.581031
 20
1.074870
 30
0.0
 10
11.407950
 20
1.503716
 30
0.0
 10
11.305424
 20
1.981067
 30
0.0
 10
11.271250
 20
2.495903
 30
0.0
 10
11.409053
 20
3.500215
 30
0.0
 10
11.822464
 20
4.255382
 30
0.0
 10
12.460769
 20
4.728323
 30
0.0
 10
13.273264
 20
4.885973
 30
0.0
 10
13.752819
 20
4.840769
 30
0.0
 10
14.150797
 20
4.705174
 30
0.0
 10
14.503572
 20
4.480275
 30
0.0
 10
14.847533
 20
4.158368
 30
0.0
 10
14.847533
 20
5.046928
 30
0.0
 10
14.847533
 20
5.935486
 30
0.0
 10
14.883912
 20
6.260699
 30
0.0
 10
14.993056
 20
6.495521
 30
0.0
 10
15.173850
 20
6.637730
 30
0.0
 10
15.416389
 20
6.685139
 30
0.0
 10
15.657819
 20
6.641037
 30
0.0
 10
15.835311
 20
6.508750
 30
0.0
 10
15.947757
 20
6.294874
 30
0.0
 10
15.985242
 20
5.997223
 30
0.0
 10
15.985242
 20
3.342570
 30
0.0
 10
15.985242
 20
0.687917
 30
0.0
 10
15.945553
 20
0.386953
 30
0.0
 10
15.826492
 20
0.171979
 30
0.0
 10
15.644588
 20
0.042995
 30
0.0
 10
15.416389
 20
0.000000
 30
0.0
 10
15.190388
 20
0.044098
 30
0.0
 10
15.006283
 20
0.176389
 30
0.0
 10
14.887219
 20
0.394670
 30
0.0
 10
14.847533
 20
0.687917
 30
0.0
  0
LWPOLYLINE
  5
105
100
AcDbEntity
  8
Layer_1
 62
7
100
AcDbPolyline
 90
25
 70
0
 10
12.479514
 20
2.456216
 30
0.0
 10
12.516996
 20
2.003115
 30
0.0
 10
12.629444
 20
1.622778
 30
0.0
 10
12.811345
 20
1.320711
 30
0.0
 10
13.048367
 20
1.102431
 30
0.0
 10
13.325077
 20
0.973446
 30
0.0
 10
13.626042
 20
0.930452
 30
0.0
 10
13.929208
 20
0.971242
 30
0.0
 10
14.203714
 20
1.093611
 30
0.0
 10
14.440735
 20
1.304175
 30
0.0
 10
14.622639
 20
1.600729
 30
0.0
 10
14.741700
 20
1.986579
 30
0.0
 10
14.781389
 20
2.456216
 30
0.0
 10
14.741700
 20
2.902698
 30
0.0
 10
14.622639
 20
3.280834
 30
0.0
 10
14.439632
 20
3.587307
 30
0.0
 10
14.199306
 20
3.810000
 30
0.0
 10
13.921492
 20
3.948904
 30
0.0
 10
13.617222
 20
3.995209
 30
0.0
 10
13.304131
 20
3.947801
 30
0.0
 10
13.026319
 20
3.805591
 30
0.0
 10
12.794807
 20
3.578487
 30
0.0
 10
12.620625
 20
3.267604
 30
0.0
 10
12.514789
 20
2.890571
 30
0.0
 10
12.479514
 20
2.456216
 30
0.0
  0
ENDSEC
  0
SECTION
  2
OBJECTS
  0
DICTIONARY
  5
C
330
0
100
AcDbDictionary
  3
ACAD_GROUP
350
D
  3
ACAD_MLINESTYLE
350
17
  0
DICTIONARY
  5
D
330
C
100
AcDbDictionary
  0
DICTIONARY
  5
1A
330
C
100
AcDbDictionary
  0
DICTIONARY
  5
17
330
C
100
AcDbDictionary
  3
STANDARD
350
18
  0
DICTIONARY
  5
19
330
C
100
AcDbDictionary
  0
ENDSEC
  0
EOF
