999
DXF created by Inkscape
  0
SECTION
  2
HEADER
  9
$ACADVER
  1
AC1014
  9
$HANDSEED
  5
FFFF
  9
$MEASUREMENT
 70
     1
  0
ENDSEC
  0
SECTION
  2
TABLES
  0
TABLE
  2
VPORT
  5
8
330
0
100
AcDbSymbolTable
 70
     4
  0
VPORT
  5
2E
330
8
100
AcDbSymbolTableRecord
100
AcDbViewportTableRecord
  2
*ACTIVE
 70
     0
 10
0.0
 20
0.0
 11
1.0
 21
1.0
 12
210.0
 22
148.5
 13
0.0
 23
0.0
 14
10.0
 24
10.0
 15
10.0
 25
10.0
 16
0.0
 26
0.0
 36
1.0
 17
0.0
 27
0.0
 37
0.0
 40
341.0
 41
1.24
 42
50.0
 43
0.0
 44
0.0
 50
0.0
 51
0.0
 71
     0
 72
   100
 73
     1
 74
     3
 75
     0
 76
     0
 77
     0
 78
     0
  0
ENDTAB
  0
TABLE
  2
LTYPE
  5
5
330
0
100
AcDbSymbolTable
 70
     1
  0
LTYPE
  5
14
330
5
100
AcDbSymbolTableRecord
100
AcDbLinetypeTableRecord
  2
BYBLOCK
 70
     0
  3

 72
    65
 73
     0
 40
0.0
  0
LTYPE
  5
15
330
5
100
AcDbSymbolTableRecord
100
AcDbLinetypeTableRecord
  2
BYLAYER
 70
     0
  3

 72
    65
 73
     0
 40
0.0
  0
LTYPE
  5
16
330
5
100
AcDbSymbolTableRecord
100
AcDbLinetypeTableRecord
  2
CONTINUOUS
 70
     0
  3
Solid line
 72
    65
 73
     0
 40
0.0
  0
ENDTAB
  0
TABLE
  2
LAYER
  5
2
100
AcDbSymbolTable
 70
2
  0
LAYER
  5
50
100
AcDbSymbolTableRecord
100
AcDbLayerTableRecord
  2
0
 70
0
  6
CONTINUOUS
  0
LAYER
  5
51
100
AcDbSymbolTableRecord
100
AcDbLayerTableRecord
  2
Layer_1
 70
0
  6
CONTINUOUS
  0
ENDTAB
  0
TABLE
  2
STYLE
  5
3
330
0
100
AcDbSymbolTable
 70
     1
  0
STYLE
  5
11
330
3
100
AcDbSymbolTableRecord
100
AcDbTextStyleTableRecord
  2
STANDARD
 70
     0
 40
0.0
 41
1.0
 50
0.0
 71
     0
 42
2.5
  3
txt
  4

  0
ENDTAB
  0
TABLE
  2
VIEW
  5
6
330
0
100
AcDbSymbolTable
 70
     0
  0
ENDTAB
  0
TABLE
  2
UCS
  5
7
330
0
100
AcDbSymbolTable
 70
     0
  0
ENDTAB
  0
TABLE
  2
APPID
  5
9
330
0
100
AcDbSymbolTable
 70
     2
  0
APPID
  5
12
330
9
100
AcDbSymbolTableRecord
100
AcDbRegAppTableRecord
  2
ACAD
 70
     0
  0
ENDTAB
  0
TABLE
  2
DIMSTYLE
  5
A
330
0
100
AcDbSymbolTable
 70
     1
  0
DIMSTYLE
105
27
330
A
100
AcDbSymbolTableRecord
100
AcDbDimStyleTableRecord
  2
ISO-25
 70
     0
  3

  4

  5

  6

  7

 40
1.0
 41
2.5
 42
0.625
 43
3.75
 44
1.25
 45
0.0
 46
0.0
 47
0.0
 48
0.0
140
2.5
141
2.5
142
0.0
143
0.03937007874016
144
1.0
145
0.0
146
1.0
147
0.625
 71
     0
 72
     0
 73
     0
 74
     0
 75
     0
 76
     0
 77
     1
 78
     8
170
     0
171
     3
172
     1
173
     0
174
     0
175
     0
176
     0
177
     0
178
     0
270
     2
271
     2
272
     2
273
     2
274
     3
340
11
275
     0
280
     0
281
     0
282
     0
283
     0
284
     8
285
     0
286
     0
287
     3
288
     0
  0
ENDTAB
  0
TABLE
  2
BLOCK_RECORD
  5
1
330
0
100
AcDbSymbolTable
 70
     1
  0
BLOCK_RECORD
  5
1F
330
1
100
AcDbSymbolTableRecord
100
AcDbBlockTableRecord
  2
*MODEL_SPACE
  0
BLOCK_RECORD
  5
1B
330
1
100
AcDbSymbolTableRecord
100
AcDbBlockTableRecord
  2
*PAPER_SPACE
  0
ENDTAB
  0
ENDSEC
  0
SECTION
  2
BLOCKS
  0
BLOCK
  5
20
330
1F
100
AcDbEntity
  8
0
100
AcDbBlockBegin
  2
*MODEL_SPACE
 70
     0
 10
0.0
 20
0.0
 30
0.0
  3
*MODEL_SPACE
  1

  0
ENDBLK
  5
21
330
1F
100
AcDbEntity
  8
0
100
AcDbBlockEnd
  0
BLOCK
  5
1C
330
1B
100
AcDbEntity
 67
     1
  8
0
100
AcDbBlockBegin
  2
*PAPER_SPACE
  1

  0
ENDBLK
  5
1D
330
1B
100
AcDbEntity
 67
     1
  8
0
100
AcDbBlockEnd
  0
ENDSEC
  0
SECTION
  2
ENTITIES
  0
LWPOLYLINE
  5
100
100
AcDbEntity
  8
Layer_1
 62
7
100
AcDbPolyline
 90
593
 70
0
 10
65.593081
 20
62.910192
 30
0.0
 10
65.417965
 20
63.882829
 30
0.0
 10
65.457922
 20
64.720586
 30
0.0
 10
65.720674
 20
65.463778
 30
0.0
 10
66.213936
 20
66.152720
 30
0.0
 10
66.658978
 20
66.688177
 30
0.0
 10
67.023429
 20
67.209851
 30
0.0
 10
67.269682
 20
67.658014
 30
0.0
 10
67.360123
 20
67.972940
 30
0.0
 10
66.743865
 20
68.166841
 30
0.0
 10
65.065938
 20
68.285473
 30
0.0
 10
62.582608
 20
68.319433
 30
0.0
 10
59.550139
 20
68.259331
 30
0.0
 10
55.521016
 20
68.159701
 30
0.0
 10
53.178766
 20
68.231797
 30
0.0
 10
52.121161
 20
68.518013
 30
0.0
 10
51.945972
 20
69.060743
 30
0.0
 10
52.592893
 20
69.894286
 30
0.0
 10
54.169807
 20
70.515666
 30
0.0
 10
56.673657
 20
70.924115
 30
0.0
 10
60.101393
 20
71.118860
 30
0.0
 10
62.071010
 20
71.210991
 30
0.0
 10
63.194734
 20
71.441223
 30
0.0
 10
63.701258
 20
71.907225
 30
0.0
 10
63.819278
 20
72.706673
 30
0.0
 10
63.920810
 20
73.517929
 30
0.0
 10
64.407271
 20
73.929632
 30
0.0
 10
65.551445
 20
74.026940
 30
0.0
 10
67.626126
 20
73.895006
 30
0.0
 10
68.577835
 20
73.816083
 30
0.0
 10
69.529548
 20
73.737160
 30
0.0
 10
70.481258
 20
73.658236
 30
0.0
 10
71.432970
 20
73.579313
 30
0.0
 10
72.404419
 20
75.273953
 30
0.0
 10
73.375864
 20
76.968596
 30
0.0
 10
74.347313
 20
78.663236
 30
0.0
 10
75.318761
 20
80.357876
 30
0.0
 10
77.523467
 20
84.303895
 30
0.0
 10
78.663179
 20
86.898607
 30
0.0
 10
79.062552
 20
89.168086
 30
0.0
 10
79.046268
 20
92.138410
 30
0.0
 10
78.631412
 20
97.210084
 30
0.0
 10
77.311301
 20
101.146486
 30
0.0
 10
74.395697
 20
105.259268
 30
0.0
 10
69.194364
 20
110.860089
 30
0.0
 10
62.672203
 20
117.849421
 30
0.0
 10
57.063200
 20
124.374224
 30
0.0
 10
52.719800
 20
130.004061
 30
0.0
 10
49.994450
 20
134.308503
 30
0.0
 10
48.478296
 20
138.169856
 30
0.0
 10
47.467077
 20
142.861109
 30
0.0
 10
46.965128
 20
148.353080
 30
0.0
 10
46.976784
 20
154.616587
 30
0.0
 10
47.202530
 20
158.286563
 30
0.0
 10
47.566955
 20
161.380616
 30
0.0
 10
48.088341
 20
164.016998
 30
0.0
 10
48.784962
 20
166.313948
 30
0.0
 10
49.622591
 20
168.697696
 30
0.0
 10
49.914847
 20
170.073859
 30
0.0
 10
49.672943
 20
170.942141
 30
0.0
 10
48.908087
 20
171.802253
 30
0.0
 10
47.887227
 20
173.093151
 30
0.0
 10
47.687044
 20
174.517487
 30
0.0
 10
48.384251
 20
176.619589
 30
0.0
 10
50.055568
 20
179.943785
 30
0.0
 10
50.990147
 20
181.835535
 30
0.0
 10
51.668849
 20
183.469082
 30
0.0
 10
52.027780
 20
184.669879
 30
0.0
 10
52.003029
 20
185.263375
 30
0.0
 10
51.591890
 20
185.499392
 30
0.0
 10
50.898766
 20
185.726852
 30
0.0
 10
50.020432
 20
185.919858
 30
0.0
 10
49.053665
 20
186.052519
 30
0.0
 10
48.460499
 20
186.109404
 30
0.0
 10
47.867330
 20
186.166286
 30
0.0
 10
47.274164
 20
186.223171
 30
0.0
 10
46.680998
 20
186.280052
 30
0.0
 10
47.052862
 20
186.750582
 30
0.0
 10
47.424727
 20
187.221114
 30
0.0
 10
47.796591
 20
187.691643
 30
0.0
 10
48.168456
 20
188.162173
 30
0.0
 10
48.864582
 20
189.245073
 30
0.0
 10
49.324370
 20
190.485418
 30
0.0
 10
49.578068
 20
191.999974
 30
0.0
 10
49.655913
 20
193.905508
 30
0.0
 10
49.732652
 20
196.041490
 30
0.0
 10
50.067103
 20
197.562145
 30
0.0
 10
50.815607
 20
198.876804
 30
0.0
 10
52.134505
 20
200.394790
 30
0.0
 10
53.096894
 20
201.461655
 30
0.0
 10
53.885008
 20
202.423728
 30
0.0
 10
54.417516
 20
203.175466
 30
0.0
 10
54.613093
 20
203.611330
 30
0.0
 10
54.794700
 20
203.911502
 30
0.0
 10
55.289173
 20
204.293780
 30
0.0
 10
56.020995
 20
204.709054
 30
0.0
 10
56.914644
 20
205.108206
 30
0.0
 10
57.850202
 20
205.483186
 30
0.0
 10
58.696129
 20
205.832645
 30
0.0
 10
59.359484
 20
206.117520
 30
0.0
 10
59.747317
 20
206.298749
 30
0.0
 10
59.954462
 20
206.249976
 30
0.0
 10
60.125847
 20
205.908608
 30
0.0
 10
60.243661
 20
205.331227
 30
0.0
 10
60.290095
 20
204.574411
 30
0.0
 10
60.324777
 20
203.476194
 30
0.0
 10
60.506751
 20
203.192597
 30
0.0
 10
60.978742
 20
203.792692
 30
0.0
 10
61.883473
 20
205.345552
 30
0.0
 10
63.341812
 20
207.563398
 30
0.0
 10
64.390273
 20
208.381216
 30
0.0
 10
65.023373
 20
207.798241
 30
0.0
 10
65.235624
 20
205.813705
 30
0.0
 10
65.257468
 20
204.690915
 30
0.0
 10
65.316927
 20
203.771449
 30
0.0
 10
65.404924
 20
203.150188
 30
0.0
 10
65.512380
 20
202.922017
 30
0.0
 10
65.863425
 20
203.032546
 30
0.0
 10
66.614655
 20
203.333497
 30
0.0
 10
67.655700
 20
203.778903
 30
0.0
 10
68.876181
 20
204.322801
 30
0.0
 10
71.548092
 20
205.413892
 30
0.0
 10
72.998553
 20
205.705321
 30
0.0
 10
73.234717
 20
205.196163
 30
0.0
 10
72.263720
 20
203.885504
 30
0.0
 10
71.834513
 20
203.418209
 30
0.0
 10
71.405307
 20
202.950911
 30
0.0
 10
70.976103
 20
202.483616
 30
0.0
 10
70.546897
 20
202.016318
 30
0.0
 10
71.285255
 20
202.129373
 30
0.0
 10
72.023616
 20
202.242428
 30
0.0
 10
72.761975
 20
202.355481
 30
0.0
 10
73.500336
 20
202.468536
 30
0.0
 10
75.990103
 20
202.700379
 30
0.0
 10
77.555841
 20
202.489288
 30
0.0
 10
78.204935
 20
201.832365
 30
0.0
 10
77.944782
 20
200.726720
 30
0.0
 10
77.668857
 20
200.128705
 30
0.0
 10
77.579006
 20
199.709258
 30
0.0
 10
77.675286
 20
199.462156
 30
0.0
 10
77.957765
 20
199.381172
 30
0.0
 10
78.638307
 20
198.555333
 30
0.0
 10
78.333448
 20
196.669403
 30
0.0
 10
77.336134
 20
194.610747
 30
0.0
 10
75.939297
 20
193.266740
 30
0.0
 10
75.080345
 20
193.030777
 30
0.0
 10
73.586837
 20
192.777880
 30
0.0
 10
71.668860
 20
192.538370
 30
0.0
 10
69.536510
 20
192.342572
 30
0.0
 10
68.221657
 20
192.243281
 30
0.0
 10
66.906803
 20
192.143987
 30
0.0
 10
65.591952
 20
192.044695
 30
0.0
 10
64.277099
 20
191.945401
 30
0.0
 10
65.176310
 20
191.388080
 30
0.0
 10
66.075518
 20
190.830759
 30
0.0
 10
66.974728
 20
190.273438
 30
0.0
 10
67.873939
 20
189.716116
 30
0.0
 10
69.682030
 20
188.414688
 30
0.0
 10
71.495739
 20
186.746337
 30
0.0
 10
73.322056
 20
184.703932
 30
0.0
 10
75.167975
 20
182.280346
 30
0.0
 10
78.306495
 20
177.538233
 30
0.0
 10
80.615127
 20
173.142656
 30
0.0
 10
82.417799
 20
168.371348
 30
0.0
 10
84.038446
 20
162.502043
 30
0.0
 10
84.838678
 20
159.538927
 30
0.0
 10
85.675637
 20
156.927615
 30
0.0
 10
86.450077
 20
154.950668
 30
0.0
 10
87.062770
 20
153.890653
 30
0.0
 10
88.131994
 20
153.109707
 30
0.0
 10
90.149468
 20
151.892610
 30
0.0
 10
92.826109
 20
150.405871
 30
0.0
 10
95.872836
 20
148.816006
 30
0.0
 10
100.216837
 20
146.646996
 30
0.0
 10
102.418428
 20
145.715459
 30
0.0
 10
103.115054
 20
145.845002
 30
0.0
 10
102.944171
 20
146.859227
 30
0.0
 10
102.588354
 20
149.927073
 30
0.0
 10
102.579351
 20
154.501243
 30
0.0
 10
102.881410
 20
159.423930
 30
0.0
 10
103.458817
 20
163.537319
 30
0.0
 10
104.028680
 20
165.502534
 30
0.0
 10
105.013647
 20
168.175728
 30
0.0
 10
106.275355
 20
171.205686
 30
0.0
 10
107.675451
 20
174.241186
 30
0.0
 10
109.563035
 20
177.927539
 30
0.0
 10
111.179822
 20
180.546688
 30
0.0
 10
112.840270
 20
182.541339
 30
0.0
 10
114.858834
 20
184.354193
 30
0.0
 10
116.463185
 20
185.578067
 30
0.0
 10
117.730476
 20
186.379084
 30
0.0
 10
118.614548
 20
186.732480
 30
0.0
 10
119.069242
 20
186.613487
 30
0.0
 10
119.349856
 20
186.416752
 30
0.0
 10
119.734632
 20
186.531687
 30
0.0
 10
120.200510
 20
186.944000
 30
0.0
 10
120.724439
 20
187.639398
 30
0.0
 10
122.074415
 20
189.099554
 30
0.0
 10
123.898031
 20
190.430983
 30
0.0
 10
125.621229
 20
191.280672
 30
0.0
 10
126.669947
 20
191.295601
 30
0.0
 10
126.909398
 20
191.209589
 30
0.0
 10
127.265560
 20
191.271206
 30
0.0
 10
127.690338
 20
191.464751
 30
0.0
 10
128.135637
 20
191.774510
 30
0.0
 10
128.668580
 20
192.163469
 30
0.0
 10
129.042214
 20
192.294883
 30
0.0
 10
129.301898
 20
192.169158
 30
0.0
 10
129.492990
 20
191.786702
 30
0.0
 10
129.708075
 20
191.422336
 30
0.0
 10
130.052566
 20
191.321961
 30
0.0
 10
130.575349
 20
191.489353
 30
0.0
 10
131.325293
 20
191.928284
 30
0.0
 10
133.654320
 20
192.591710
 30
0.0
 10
137.148420
 20
192.906596
 30
0.0
 10
140.329102
 20
192.821941
 30
0.0
 10
141.717880
 20
192.286752
 30
0.0
 10
141.911016
 20
192.082646
 30
0.0
 10
142.436878
 20
191.975170
 30
0.0
 10
143.215154
 20
191.971191
 30
0.0
 10
144.165532
 20
192.077569
 30
0.0
 10
145.216141
 20
192.190604
 30
0.0
 10
146.267320
 20
192.204744
 30
0.0
 10
147.197078
 20
192.124093
 30
0.0
 10
147.883417
 20
191.952745
 30
0.0
 10
148.422896
 20
191.653609
 30
0.0
 10
148.436838
 20
191.359322
 30
0.0
 10
147.871990
 20
191.007379
 30
0.0
 10
146.675049
 20
190.535278
 30
0.0
 10
145.445946
 20
190.037658
 30
0.0
 10
145.463472
 20
189.764360
 30
0.0
 10
147.018677
 20
189.642194
 30
0.0
 10
150.402626
 20
189.597970
 30
0.0
 10
154.672888
 20
189.482499
 30
0.0
 10
157.455444
 20
189.176321
 30
0.0
 10
158.966459
 20
188.636859
 30
0.0
 10
159.422095
 20
187.821539
 30
0.0
 10
159.592431
 20
187.419341
 30
0.0
 10
160.056215
 20
186.946430
 30
0.0
 10
160.742616
 20
186.461775
 30
0.0
 10
161.580799
 20
186.024345
 30
0.0
 10
163.791654
 20
184.802478
 30
0.0
 10
165.835203
 20
183.272368
 30
0.0
 10
167.336380
 20
181.756329
 30
0.0
 10
167.920120
 20
180.576669
 30
0.0
 10
168.036212
 20
180.136202
 30
0.0
 10
168.352303
 20
179.657211
 30
0.0
 10
168.820118
 20
179.197505
 30
0.0
 10
169.391384
 20
178.814888
 30
0.0
 10
169.933803
 20
178.432260
 30
0.0
 10
170.321470
 20
177.973222
 30
0.0
 10
170.518627
 20
177.495079
 30
0.0
 10
170.489519
 20
177.055131
 30
0.0
 10
170.502840
 20
176.556935
 30
0.0
 10
170.850278
 20
175.962242
 30
0.0
 10
171.493496
 20
175.318973
 30
0.0
 10
172.394141
 20
174.675046
 30
0.0
 10
174.627896
 20
173.073966
 30
0.0
 10
176.397471
 20
171.432223
 30
0.0
 10
177.335025
 20
170.147463
 30
0.0
 10
177.072722
 20
169.617331
 30
0.0
 10
176.833877
 20
169.455044
 30
0.0
 10
176.988701
 20
169.017521
 30
0.0
 10
177.508761
 20
168.351271
 30
0.0
 10
178.365616
 20
167.502806
 30
0.0
 10
179.842089
 20
166.060961
 30
0.0
 10
180.552225
 20
165.130901
 30
0.0
 10
180.480439
 20
164.744741
 30
0.0
 10
179.611158
 20
164.934604
 30
0.0
 10
179.275401
 20
164.928818
 30
0.0
 10
179.297528
 20
164.522483
 30
0.0
 10
179.674142
 20
163.725877
 30
0.0
 10
180.401818
 20
162.549307
 30
0.0
 10
181.085772
 20
161.379614
 30
0.0
 10
181.582901
 20
160.257642
 30
0.0
 10
181.846367
 20
159.310798
 30
0.0
 10
181.829321
 20
158.666488
 30
0.0
 10
181.762981
 20
158.038758
 30
0.0
 10
181.892214
 20
157.137058
 30
0.0
 10
182.190678
 20
156.081902
 30
0.0
 10
182.632031
 20
154.993800
 30
0.0
 10
183.133272
 20
153.819375
 30
0.0
 10
183.367539
 20
152.966939
 30
0.0
 10
183.337999
 20
152.414732
 30
0.0
 10
183.047823
 20
152.140999
 30
0.0
 10
182.726996
 20
151.838970
 30
0.0
 10
182.647508
 20
151.189526
 30
0.0
 10
182.812436
 20
150.131043
 30
0.0
 10
183.224867
 20
148.601910
 30
0.0
 10
183.896254
 20
145.925210
 30
0.0
 10
184.173715
 20
143.817281
 30
0.0
 10
184.045490
 20
142.544583
 30
0.0
 10
183.499819
 20
142.373581
 30
0.0
 10
183.222138
 20
142.470375
 30
0.0
 10
182.989576
 20
142.410378
 30
0.0
 10
182.826496
 20
142.209650
 30
0.0
 10
182.757264
 20
141.884248
 30
0.0
 10
182.409236
 20
136.209109
 30
0.0
 10
181.844374
 20
131.268986
 30
0.0
 10
181.124598
 20
127.484497
 30
0.0
 10
180.311829
 20
125.276263
 30
0.0
 10
179.295555
 20
124.057582
 30
0.0
 10
178.774248
 20
124.267064
 30
0.0
 10
178.745442
 20
125.913038
 30
0.0
 10
179.206669
 20
129.003817
 30
0.0
 10
179.748482
 20
141.474763
 30
0.0
 10
177.428714
 20
154.022614
 30
0.0
 10
172.850336
 20
164.623900
 30
0.0
 10
166.616321
 20
171.255142
 30
0.0
 10
166.070895
 20
171.570887
 30
0.0
 10
165.525470
 20
171.886632
 30
0.0
 10
164.980047
 20
172.202379
 30
0.0
 10
164.434622
 20
172.518124
 30
0.0
 10
165.225109
 20
171.317166
 30
0.0
 10
166.015597
 20
170.116209
 30
0.0
 10
166.806087
 20
168.915255
 30
0.0
 10
167.596574
 20
167.714298
 30
0.0
 10
169.045249
 20
165.421231
 30
0.0
 10
169.843092
 20
163.901950
 30
0.0
 10
170.042532
 20
163.030769
 30
0.0
 10
169.696011
 20
162.682005
 30
0.0
 10
169.213440
 20
162.505768
 30
0.0
 10
169.008179
 20
162.209635
 30
0.0
 10
169.070124
 20
161.739572
 30
0.0
 10
169.389168
 20
161.041532
 30
0.0
 10
170.736624
 20
154.884174
 30
0.0
 10
170.497226
 20
146.602650
 30
0.0
 10
168.971928
 20
138.919616
 30
0.0
 10
166.461691
 20
134.557722
 30
0.0
 10
165.739493
 20
134.272531
 30
0.0
 10
165.399562
 20
134.576335
 30
0.0
 10
165.432057
 20
135.508706
 30
0.0
 10
165.827131
 20
137.109217
 30
0.0
 10
166.691587
 20
143.282382
 30
0.0
 10
166.291246
 20
150.574742
 30
0.0
 10
164.769583
 20
157.895462
 30
0.0
 10
162.270056
 20
164.153703
 30
0.0
 10
160.291721
 20
167.291803
 30
0.0
 10
157.905148
 20
170.499611
 30
0.0
 10
155.806151
 20
172.906196
 30
0.0
 10
154.690561
 20
173.640631
 30
0.0
 10
154.902400
 20
172.845693
 30
0.0
 10
155.728046
 20
170.930107
 30
0.0
 10
157.036095
 20
168.181139
 30
0.0
 10
158.695150
 20
164.886045
 30
0.0
 10
160.914644
 20
160.431996
 30
0.0
 10
162.292174
 20
157.189416
 30
0.0
 10
163.048956
 20
154.548499
 30
0.0
 10
163.406212
 20
151.899428
 30
0.0
 10
163.654695
 20
147.817160
 30
0.0
 10
163.662089
 20
144.576800
 30
0.0
 10
163.423967
 20
142.067379
 30
0.0
 10
162.935864
 20
140.177924
 30
0.0
 10
162.643574
 20
139.315681
 30
0.0
 10
162.345796
 20
138.277964
 30
0.0
 10
162.077389
 20
137.195351
 30
0.0
 10
161.873229
 20
136.198421
 30
0.0
 10
160.985649
 20
133.486006
 30
0.0
 10
159.461798
 20
130.399381
 30
0.0
 10
157.845687
 20
127.905400
 30
0.0
 10
156.681325
 20
126.970911
 30
0.0
 10
156.370663
 20
126.988550
 30
0.0
 10
156.116257
 20
126.905698
 30
0.0
 10
155.944361
 20
126.737799
 30
0.0
 10
155.881228
 20
126.500292
 30
0.0
 10
155.116307
 20
123.724904
 30
0.0
 10
153.247993
 20
119.121022
 30
0.0
 10
150.915943
 20
114.147208
 30
0.0
 10
148.759827
 20
110.262032
 30
0.0
 10
146.851669
 20
107.451742
 30
0.0
 10
145.734721
 20
106.151299
 30
0.0
 10
145.333085
 20
106.303301
 30
0.0
 10
145.570860
 20
107.850356
 30
0.0
 10
145.608381
 20
108.464353
 30
0.0
 10
145.225053
 20
108.270633
 30
0.0
 10
144.402929
 20
107.251127
 30
0.0
 10
143.124053
 20
105.387778
 30
0.0
 10
140.974225
 20
102.430467
 30
0.0
 10
138.894391
 20
100.067641
 30
0.0
 10
137.203869
 20
98.621856
 30
0.0
 10
136.221978
 20
98.415673
 30
0.0
 10
136.292785
 20
98.865464
 30
0.0
 10
136.723958
 20
99.851763
 30
0.0
 10
137.444567
 20
101.229010
 30
0.0
 10
138.383685
 20
102.851650
 30
0.0
 10
140.556107
 20
106.688337
 30
0.0
 10
142.040802
 20
109.944857
 30
0.0
 10
142.964498
 20
112.950729
 30
0.0
 10
143.453922
 20
116.035478
 30
0.0
 10
143.641104
 20
118.062728
 30
0.0
 10
143.658996
 20
118.850497
 30
0.0
 10
143.472984
 20
118.486022
 30
0.0
 10
143.048406
 20
117.056549
 30
0.0
 10
142.183237
 20
114.804134
 30
0.0
 10
141.542894
 20
114.785902
 30
0.0
 10
141.144961
 20
116.965247
 30
0.0
 10
141.007025
 20
121.305571
 30
0.0
 10
140.947408
 20
124.856661
 30
0.0
 10
140.732575
 20
127.317082
 30
0.0
 10
140.303487
 20
129.073298
 30
0.0
 10
139.601095
 20
130.511764
 30
0.0
 10
138.452456
 20
132.238406
 30
0.0
 10
137.903554
 20
132.688968
 30
0.0
 10
137.968251
 20
131.873887
 30
0.0
 10
138.660406
 20
129.803596
 30
0.0
 10
139.814393
 20
124.261519
 30
0.0
 10
139.505961
 20
118.150600
 30
0.0
 10
137.813683
 20
111.954180
 30
0.0
 10
134.816136
 20
106.155597
 30
0.0
 10
132.432242
 20
103.037838
 30
0.0
 10
129.307567
 20
99.424507
 30
0.0
 10
126.591447
 20
96.585320
 30
0.0
 10
125.433218
 20
95.789984
 30
0.0
 10
125.604487
 20
96.441110
 30
0.0
 10
126.067851
 20
97.805449
 30
0.0
 10
126.752717
 20
99.683333
 30
0.0
 10
127.588493
 20
101.875093
 30
0.0
 10
128.467211
 20
104.416256
 30
0.0
 10
129.239874
 20
107.177053
 30
0.0
 10
129.830390
 20
109.853981
 30
0.0
 10
130.162673
 20
112.143540
 30
0.0
 10
130.330169
 20
115.316138
 30
0.0
 10
130.124118
 20
116.314863
 30
0.0
 10
129.622338
 20
115.157188
 30
0.0
 10
128.902643
 20
111.860590
 30
0.0
 10
128.120137
 20
108.509652
 30
0.0
 10
127.333333
 20
106.669840
 30
0.0
 10
126.640057
 20
106.475598
 30
0.0
 10
126.138130
 20
108.061365
 30
0.0
 10
125.877659
 20
109.308155
 30
0.0
 10
125.408721
 20
109.314279
 30
0.0
 10
124.419275
 20
107.745313
 30
0.0
 10
122.597285
 20
104.266876
 30
0.0
 10
121.235405
 20
101.713566
 30
0.0
 10
119.883067
 20
99.332268
 30
0.0
 10
118.696621
 20
97.389287
 30
0.0
 10
117.832415
 20
96.150930
 30
0.0
 10
117.437888
 20
95.667731
 30
0.0
 10
117.043361
 20
95.184530
 30
0.0
 10
116.648831
 20
94.701332
 30
0.0
 10
116.254304
 20
94.218133
 30
0.0
 10
116.364803
 20
94.837781
 30
0.0
 10
116.475298
 20
95.457428
 30
0.0
 10
116.585797
 20
96.077075
 30
0.0
 10
116.696292
 20
96.696722
 30
0.0
 10
116.971524
 20
97.926607
 30
0.0
 10
117.394188
 20
99.443046
 30
0.0
 10
117.906693
 20
101.053474
 30
0.0
 10
118.451447
 20
102.565330
 30
0.0
 10
119.388351
 20
105.115930
 30
0.0
 10
119.690264
 20
106.323034
 30
0.0
 10
119.355898
 20
106.231162
 30
0.0
 10
118.383959
 20
104.884838
 30
0.0
 10
117.879549
 20
104.031689
 30
0.0
 10
117.519890
 20
103.246609
 30
0.0
 10
117.338317
 20
102.616737
 30
0.0
 10
117.368162
 20
102.229206
 30
0.0
 10
117.421070
 20
102.005827
 30
0.0
 10
117.302283
 20
101.822899
 30
0.0
 10
117.035540
 20
101.699300
 30
0.0
 10
116.644589
 20
101.653904
 30
0.0
 10
116.166886
 20
101.544227
 30
0.0
 10
115.663935
 20
101.245602
 30
0.0
 10
115.195559
 20
100.803637
 30
0.0
 10
114.821572
 20
100.263937
 30
0.0
 10
114.462441
 20
99.751213
 30
0.0
 10
114.034514
 20
99.382693
 30
0.0
 10
113.591427
 20
99.192766
 30
0.0
 10
113.186828
 20
99.215823
 30
0.0
 10
112.770251
 20
99.191834
 30
0.0
 10
112.319867
 20
98.854387
 30
0.0
 10
111.878590
 20
98.248862
 30
0.0
 10
111.489332
 20
97.420636
 30
0.0
 10
111.081828
 20
96.554679
 30
0.0
 10
110.568585
 20
95.776641
 30
0.0
 10
110.015282
 20
95.171692
 30
0.0
 10
109.487603
 20
94.825002
 30
0.0
 10
108.891996
 20
94.515361
 30
0.0
 10
108.153739
 20
94.011284
 30
0.0
 10
107.366762
 20
93.382536
 30
0.0
 10
106.624992
 20
92.698880
 30
0.0
 10
105.082893
 20
91.481515
 30
0.0
 10
103.806732
 20
91.032728
 30
0.0
 10
103.029899
 20
91.365688
 30
0.0
 10
102.985779
 20
92.493567
 30
0.0
 10
103.161431
 20
93.285541
 30
0.0
 10
103.069500
 20
93.587641
 30
0.0
 10
102.602273
 20
93.427144
 30
0.0
 10
101.652033
 20
92.831322
 30
0.0
 10
100.926372
 20
92.409775
 30
0.0
 10
100.387294
 20
92.213120
 30
0.0
 10
100.051554
 20
92.244520
 30
0.0
 10
99.935916
 20
92.507144
 30
0.0
 10
99.850315
 20
92.785020
 30
0.0
 10
99.617242
 20
92.950038
 30
0.0
 10
99.272293
 20
92.989600
 30
0.0
 10
98.851071
 20
92.891105
 30
0.0
 10
98.310172
 20
92.807728
 30
0.0
 10
98.048685
 20
93.195558
 30
0.0
 10
98.035082
 20
94.215929
 30
0.0
 10
98.237858
 20
96.030184
 30
0.0
 10
98.355768
 20
96.919026
 30
0.0
 10
98.473675
 20
97.807867
 30
0.0
 10
98.591584
 20
98.696709
 30
0.0
 10
98.709491
 20
99.585551
 30
0.0
 10
98.262093
 20
99.381702
 30
0.0
 10
97.814697
 20
99.177856
 30
0.0
 10
97.367299
 20
98.974007
 30
0.0
 10
96.919900
 20
98.770158
 30
0.0
 10
95.948760
 20
98.174706
 30
0.0
 10
95.342529
 20
97.221946
 30
0.0
 10
94.953780
 20
95.518244
 30
0.0
 10
94.635077
 20
92.669972
 30
0.0
 10
94.471273
 20
90.589504
 30
0.0
 10
94.391356
 20
88.831555
 30
0.0
 10
94.399738
 20
87.581376
 30
0.0
 10
94.500810
 20
87.024218
 30
0.0
 10
94.869756
 20
86.853381
 30
0.0
 10
95.607480
 20
86.655055
 30
0.0
 10
96.606995
 20
86.453842
 30
0.0
 10
97.761318
 20
86.274351
 30
0.0
 10
99.172025
 20
86.039683
 30
0.0
 10
99.935058
 20
85.771953
 30
0.0
 10
100.135295
 20
85.416223
 30
0.0
 10
99.857605
 20
84.917559
 30
0.0
 10
99.356954
 20
84.541747
 30
0.0
 10
98.587650
 20
84.233992
 30
0.0
 10
97.654528
 20
84.026048
 30
0.0
 10
96.662423
 20
83.949675
 30
0.0
 10
95.378885
 20
83.890324
 30
0.0
 10
94.657765
 20
83.623506
 30
0.0
 10
94.341005
 20
83.016087
 30
0.0
 10
94.270542
 20
81.934928
 30
0.0
 10
94.381582
 20
81.049083
 30
0.0
 10
94.684675
 20
80.134502
 30
0.0
 10
95.134786
 20
79.296003
 30
0.0
 10
95.686880
 20
78.638411
 30
0.0
 10
96.236818
 20
78.031202
 30
0.0
 10
96.687169
 20
77.325429
 30
0.0
 10
96.991461
 20
76.608700
 30
0.0
 10
97.103218
 20
75.968614
 30
0.0
 10
97.062589
 20
75.224643
 30
0.0
 10
96.849415
 20
74.948711
 30
0.0
 10
96.326765
 20
75.121649
 30
0.0
 10
95.357710
 20
75.724289
 30
0.0
 10
93.717621
 20
76.579643
 30
0.0
 10
92.243806
 20
76.774833
 30
0.0
 10
90.711596
 20
76.288073
 30
0.0
 10
88.896328
 20
75.097567
 30
0.0
 10
87.910822
 20
74.410144
 30
0.0
 10
86.943382
 20
73.847206
 30
0.0
 10
86.105201
 20
73.466841
 30
0.0
 10
85.507477
 20
73.327144
 30
0.0
 10
85.057807
 20
73.270356
 30
0.0
 10
84.622744
 20
73.115729
 30
0.0
 10
84.251919
 20
72.886880
 30
0.0
 10
83.994958
 20
72.607427
 30
0.0
 10
83.354997
 20
72.083072
 30
0.0
 10
82.809441
 20
72.421950
 30
0.0
 10
82.506098
 20
73.395555
 30
0.0
 10
82.592762
 20
74.775365
 30
0.0
 10
82.802490
 20
75.908781
 30
0.0
 10
82.685966
 20
76.440132
 30
0.0
 10
82.096364
 20
76.490342
 30
0.0
 10
80.886862
 20
76.180335
 30
0.0
 10
78.438567
 20
75.316574
 30
0.0
 10
77.367455
 20
74.482935
 30
0.0
 10
77.639819
 20
73.607292
 30
0.0
 10
79.221957
 20
72.617519
 30
0.0
 10
79.708824
 20
72.383277
 30
0.0
 10
80.195691
 20
72.149033
 30
0.0
 10
80.682555
 20
71.914791
 30
0.0
 10
81.169423
 20
71.680547
 30
0.0
 10
80.429089
 20
71.543585
 30
0.0
 10
79.688758
 20
71.406622
 30
0.0
 10
78.948424
 20
71.269657
 30
0.0
 10
78.208090
 20
71.132694
 30
0.0
 10
75.106547
 20
69.921318
 30
0.0
 10
71.585791
 20
67.680933
 30
0.0
 10
68.523098
 20
65.059405
 30
0.0
 10
66.795749
 20
62.704616
 30
0.0
 10
66.626415
 20
62.262010
 30
0.0
 10
66.457085
 20
61.819406
 30
0.0
 10
66.287752
 20
61.376800
 30
0.0
 10
66.118418
 20
60.934194
 30
0.0
 10
65.987086
 20
61.428193
 30
0.0
 10
65.855754
 20
61.922192
 30
0.0
 10
65.724422
 20
62.416190
 30
0.0
 10
65.593090
 20
62.910189
 30
0.0
 10
65.593087
 20
62.910189
 30
0.0
 10
65.593084
 20
62.910192
 30
0.0
 10
65.593079
 20
62.910192
 30
0.0
 10
65.593081
 20
62.910192
 30
0.0
  0
LWPOLYLINE
  5
101
100
AcDbEntity
  8
Layer_1
 62
7
100
AcDbPolyline
 90
41
 70
0
 10
81.523496
 20
79.721013
 30
0.0
 10
81.752923
 20
79.978504
 30
0.0
 10
82.377599
 20
80.263162
 30
0.0
 10
83.302117
 20
80.540386
 30
0.0
 10
84.431076
 20
80.775573
 30
0.0
 10
87.079526
 20
81.515577
 30
0.0
 10
88.788799
 20
82.866368
 30
0.0
 10
89.795875
 20
85.144542
 30
0.0
 10
90.337725
 20
88.666690
 30
0.0
 10
90.534784
 20
90.704456
 30
0.0
 10
90.744249
 20
92.672521
 30
0.0
 10
90.941102
 20
94.346593
 30
0.0
 10
91.100312
 20
95.502374
 30
0.0
 10
91.223933
 20
96.553483
 30
0.0
 10
91.109111
 20
97.089762
 30
0.0
 10
90.673753
 20
97.209023
 30
0.0
 10
89.835770
 20
97.009080
 30
0.0
 10
88.394255
 20
96.442197
 30
0.0
 10
87.342861
 20
95.751500
 30
0.0
 10
86.699149
 20
94.952416
 30
0.0
 10
86.480678
 20
94.060380
 30
0.0
 10
86.173344
 20
93.106435
 30
0.0
 10
85.336544
 20
91.282723
 30
0.0
 10
84.098076
 20
88.851288
 30
0.0
 10
82.585749
 20
86.074185
 30
0.0
 10
81.073422
 20
83.351347
 30
0.0
 10
79.834957
 20
81.067676
 30
0.0
 10
78.998157
 20
79.462647
 30
0.0
 10
78.690823
 20
78.775749
 30
0.0
 10
78.802580
 20
78.665649
 30
0.0
 10
79.106872
 20
78.631127
 30
0.0
 10
79.557222
 20
78.671801
 30
0.0
 10
80.107161
 20
78.787292
 30
0.0
 10
80.657096
 20
78.975554
 30
0.0
 10
81.107447
 20
79.214351
 30
0.0
 10
81.411739
 20
79.473044
 30
0.0
 10
81.523496
 20
79.720999
 30
0.0
 10
81.523496
 20
79.721002
 30
0.0
 10
81.523496
 20
79.721004
 30
0.0
 10
81.523496
 20
79.721010
 30
0.0
 10
81.523496
 20
79.721013
 30
0.0
  0
LWPOLYLINE
  5
102
100
AcDbEntity
  8
Layer_1
 62
7
100
AcDbPolyline
 90
25
 70
0
 10
149.859839
 20
127.502051
 30
0.0
 10
149.245989
 20
131.246942
 30
0.0
 10
148.212635
 20
134.794619
 30
0.0
 10
147.013840
 20
137.440168
 30
0.0
 10
145.903673
 20
138.478666
 30
0.0
 10
145.423041
 20
138.328186
 30
0.0
 10
145.365442
 20
137.605276
 30
0.0
 10
145.792994
 20
135.902723
 30
0.0
 10
146.767804
 20
132.813318
 30
0.0
 10
147.416387
 20
130.447855
 30
0.0
 10
147.901203
 20
127.878436
 30
0.0
 10
148.215381
 20
125.150626
 30
0.0
 10
148.352047
 20
122.310000
 30
0.0
 10
148.375387
 20
120.834946
 30
0.0
 10
148.398727
 20
119.359889
 30
0.0
 10
148.422066
 20
117.884835
 30
0.0
 10
148.445406
 20
116.409780
 30
0.0
 10
148.677054
 20
117.176666
 30
0.0
 10
148.908699
 20
117.943551
 30
0.0
 10
149.140347
 20
118.710439
 30
0.0
 10
149.371995
 20
119.477324
 30
0.0
 10
149.745432
 20
121.123233
 30
0.0
 10
149.952126
 20
123.024364
 30
0.0
 10
149.990708
 20
125.158159
 30
0.0
 10
149.859839
 20
127.502051
 30
0.0
  0
LWPOLYLINE
  5
103
100
AcDbEntity
  8
Layer_1
 62
7
100
AcDbPolyline
 90
17
 70
0
 10
109.625833
 20
172.603544
 30
0.0
 10
109.468392
 20
172.891035
 30
0.0
 10
109.339880
 20
172.910847
 30
0.0
 10
109.247384
 20
172.670038
 30
0.0
 10
109.197987
 20
172.175706
 30
0.0
 10
109.210038
 20
171.682444
 30
0.0
 10
109.284180
 20
171.342781
 30
0.0
 10
109.408206
 20
171.187212
 30
0.0
 10
109.569922
 20
171.246236
 30
0.0
 10
109.706701
 20
171.485704
 30
0.0
 10
109.762829
 20
171.821438
 30
0.0
 10
109.736469
 20
172.208901
 30
0.0
 10
109.625793
 20
172.603558
 30
0.0
 10
109.625799
 20
172.603558
 30
0.0
 10
109.625807
 20
172.603558
 30
0.0
 10
109.625816
 20
172.603558
 30
0.0
 10
109.625833
 20
172.603544
 30
0.0
  0
LWPOLYLINE
  5
104
100
AcDbEntity
  8
Layer_1
 62
7
100
AcDbPolyline
 90
17
 70
0
 10
117.629260
 20
183.312130
 30
0.0
 10
117.577588
 20
183.500051
 30
0.0
 10
117.428891
 20
183.588189
 30
0.0
 10
117.206045
 20
183.572102
 30
0.0
 10
116.931934
 20
183.447368
 30
0.0
 10
116.657820
 20
183.182937
 30
0.0
 10
116.434974
 20
182.786497
 30
0.0
 10
116.286274
 20
182.311698
 30
0.0
 10
116.234605
 20
181.812195
 30
0.0
 10
116.264309
 20
181.226957
 30
0.0
 10
116.364918
 20
181.014283
 30
0.0
 10
116.574705
 20
181.166756
 30
0.0
 10
116.931934
 20
181.676949
 30
0.0
 10
117.199337
 20
182.134609
 30
0.0
 10
117.419947
 20
182.595458
 30
0.0
 10
117.570882
 20
183.005849
 30
0.0
 10
117.629260
 20
183.312130
 30
0.0
  0
LWPOLYLINE
  5
105
100
AcDbEntity
  8
Layer_1
 62
7
100
AcDbPolyline
 90
13
 70
0
 10
116.292274
 20
181.658054
 30
0.0
 10
116.383421
 20
182.409829
 30
0.0
 10
116.633727
 20
183.000579
 30
0.0
 10
117.008498
 20
183.376638
 30
0.0
 10
117.473033
 20
183.484337
 30
0.0
 10
117.509823
 20
183.110118
 30
0.0
 10
117.208184
 20
182.318409
 30
0.0
 10
116.767466
 20
181.532767
 30
0.0
 10
116.387008
 20
181.176761
 30
0.0
 10
116.350223
 20
181.214736
 30
0.0
 10
116.320102
 20
181.318140
 30
0.0
 10
116.299753
 20
181.471178
 30
0.0
 10
116.292274
 20
181.658054
 30
0.0
  0
LWPOLYLINE
  5
106
100
AcDbEntity
  8
Layer_1
 62
7
100
AcDbPolyline
 90
13
 70
0
 10
109.339651
 20
171.419816
 30
0.0
 10
109.288137
 20
171.664108
 30
0.0
 10
109.271824
 20
172.062902
 30
0.0
 10
109.290254
 20
172.451130
 30
0.0
 10
109.343001
 20
172.663725
 30
0.0
 10
109.494216
 20
172.640780
 30
0.0
 10
109.623496
 20
172.360161
 30
0.0
 10
109.692988
 20
171.952897
 30
0.0
 10
109.664822
 20
171.550008
 30
0.0
 10
109.602103
 20
171.385382
 30
0.0
 10
109.522379
 20
171.306961
 30
0.0
 10
109.432578
 20
171.317516
 30
0.0
 10
109.339651
 20
171.419816
 30
0.0
  0
ENDSEC
  0
SECTION
  2
OBJECTS
  0
DICTIONARY
  5
C
330
0
100
AcDbDictionary
  3
ACAD_GROUP
350
D
  3
ACAD_MLINESTYLE
350
17
  0
DICTIONARY
  5
D
330
C
100
AcDbDictionary
  0
DICTIONARY
  5
1A
330
C
100
AcDbDictionary
  0
DICTIONARY
  5
17
330
C
100
AcDbDictionary
  3
STANDARD
350
18
  0
DICTIONARY
  5
19
330
C
100
AcDbDictionary
  0
ENDSEC
  0
EOF
