999
DXF created by Inkscape
  0
SECTION
  2
HEADER
  9
$ACADVER
  1
AC1014
  9
$HANDSEED
  5
FFFF
  9
$MEASUREMENT
 70
     1
  0
ENDSEC
  0
SECTION
  2
TABLES
  0
TABLE
  2
VPORT
  5
8
330
0
100
AcDbSymbolTable
 70
     4
  0
VPORT
  5
2E
330
8
100
AcDbSymbolTableRecord
100
AcDbViewportTableRecord
  2
*ACTIVE
 70
     0
 10
0.0
 20
0.0
 11
1.0
 21
1.0
 12
210.0
 22
148.5
 13
0.0
 23
0.0
 14
10.0
 24
10.0
 15
10.0
 25
10.0
 16
0.0
 26
0.0
 36
1.0
 17
0.0
 27
0.0
 37
0.0
 40
341.0
 41
1.24
 42
50.0
 43
0.0
 44
0.0
 50
0.0
 51
0.0
 71
     0
 72
   100
 73
     1
 74
     3
 75
     0
 76
     0
 77
     0
 78
     0
  0
ENDTAB
  0
TABLE
  2
LTYPE
  5
5
330
0
100
AcDbSymbolTable
 70
     1
  0
LTYPE
  5
14
330
5
100
AcDbSymbolTableRecord
100
AcDbLinetypeTableRecord
  2
BYBLOCK
 70
     0
  3

 72
    65
 73
     0
 40
0.0
  0
LTYPE
  5
15
330
5
100
AcDbSymbolTableRecord
100
AcDbLinetypeTableRecord
  2
BYLAYER
 70
     0
  3

 72
    65
 73
     0
 40
0.0
  0
LTYPE
  5
16
330
5
100
AcDbSymbolTableRecord
100
AcDbLinetypeTableRecord
  2
CONTINUOUS
 70
     0
  3
Solid line
 72
    65
 73
     0
 40
0.0
  0
ENDTAB
  0
TABLE
  2
LAYER
  5
2
100
AcDbSymbolTable
 70
2
  0
LAYER
  5
50
100
AcDbSymbolTableRecord
100
AcDbLayerTableRecord
  2
0
 70
0
  6
CONTINUOUS
  0
LAYER
  5
51
100
AcDbSymbolTableRecord
100
AcDbLayerTableRecord
  2
Layer_1
 70
0
  6
CONTINUOUS
  0
ENDTAB
  0
TABLE
  2
STYLE
  5
3
330
0
100
AcDbSymbolTable
 70
     1
  0
STYLE
  5
11
330
3
100
AcDbSymbolTableRecord
100
AcDbTextStyleTableRecord
  2
STANDARD
 70
     0
 40
0.0
 41
1.0
 50
0.0
 71
     0
 42
2.5
  3
txt
  4

  0
ENDTAB
  0
TABLE
  2
VIEW
  5
6
330
0
100
AcDbSymbolTable
 70
     0
  0
ENDTAB
  0
TABLE
  2
UCS
  5
7
330
0
100
AcDbSymbolTable
 70
     0
  0
ENDTAB
  0
TABLE
  2
APPID
  5
9
330
0
100
AcDbSymbolTable
 70
     2
  0
APPID
  5
12
330
9
100
AcDbSymbolTableRecord
100
AcDbRegAppTableRecord
  2
ACAD
 70
     0
  0
ENDTAB
  0
TABLE
  2
DIMSTYLE
  5
A
330
0
100
AcDbSymbolTable
 70
     1
  0
DIMSTYLE
105
27
330
A
100
AcDbSymbolTableRecord
100
AcDbDimStyleTableRecord
  2
ISO-25
 70
     0
  3

  4

  5

  6

  7

 40
1.0
 41
2.5
 42
0.625
 43
3.75
 44
1.25
 45
0.0
 46
0.0
 47
0.0
 48
0.0
140
2.5
141
2.5
142
0.0
143
0.03937007874016
144
1.0
145
0.0
146
1.0
147
0.625
 71
     0
 72
     0
 73
     0
 74
     0
 75
     0
 76
     0
 77
     1
 78
     8
170
     0
171
     3
172
     1
173
     0
174
     0
175
     0
176
     0
177
     0
178
     0
270
     2
271
     2
272
     2
273
     2
274
     3
340
11
275
     0
280
     0
281
     0
282
     0
283
     0
284
     8
285
     0
286
     0
287
     3
288
     0
  0
ENDTAB
  0
TABLE
  2
BLOCK_RECORD
  5
1
330
0
100
AcDbSymbolTable
 70
     1
  0
BLOCK_RECORD
  5
1F
330
1
100
AcDbSymbolTableRecord
100
AcDbBlockTableRecord
  2
*MODEL_SPACE
  0
BLOCK_RECORD
  5
1B
330
1
100
AcDbSymbolTableRecord
100
AcDbBlockTableRecord
  2
*PAPER_SPACE
  0
ENDTAB
  0
ENDSEC
  0
SECTION
  2
BLOCKS
  0
BLOCK
  5
20
330
1F
100
AcDbEntity
  8
0
100
AcDbBlockBegin
  2
*MODEL_SPACE
 70
     0
 10
0.0
 20
0.0
 30
0.0
  3
*MODEL_SPACE
  1

  0
ENDBLK
  5
21
330
1F
100
AcDbEntity
  8
0
100
AcDbBlockEnd
  0
BLOCK
  5
1C
330
1B
100
AcDbEntity
 67
     1
  8
0
100
AcDbBlockBegin
  2
*PAPER_SPACE
  1

  0
ENDBLK
  5
1D
330
1B
100
AcDbEntity
 67
     1
  8
0
100
AcDbBlockEnd
  0
ENDSEC
  0
SECTION
  2
ENTITIES
  0
LWPOLYLINE
  5
100
100
AcDbEntity
  8
Layer_1
 62
7
100
AcDbPolyline
 90
169
 70
0
 10
114.392326
 20
81.959811
 30
0.0
 10
112.799550
 20
81.288294
 30
0.0
 10
111.178302
 20
80.674596
 30
0.0
 10
109.529674
 20
80.119748
 30
0.0
 10
107.854736
 20
79.624778
 30
0.0
 10
106.154563
 20
79.190722
 30
0.0
 10
104.430247
 20
78.818615
 30
0.0
 10
102.682859
 20
78.509487
 30
0.0
 10
100.913478
 20
78.264367
 30
0.0
 10
102.675887
 20
79.431375
 30
0.0
 10
104.323119
 20
80.747733
 30
0.0
 10
105.845252
 20
82.203913
 30
0.0
 10
107.232367
 20
83.790374
 30
0.0
 10
108.474542
 20
85.497594
 30
0.0
 10
109.561859
 20
87.316037
 30
0.0
 10
110.484398
 20
89.236170
 30
0.0
 10
111.232238
 20
91.248468
 30
0.0
 10
109.509061
 20
90.274617
 30
0.0
 10
107.742111
 20
89.371799
 30
0.0
 10
105.933311
 20
88.541917
 30
0.0
 10
104.084577
 20
87.786887
 30
0.0
 10
102.197824
 20
87.108610
 30
0.0
 10
100.274975
 20
86.509005
 30
0.0
 10
98.317939
 20
85.989979
 30
0.0
 10
96.328634
 20
85.553446
 30
0.0
 10
94.640449
 20
87.181500
 30
0.0
 10
92.795432
 20
88.635736
 30
0.0
 10
90.807271
 20
89.902820
 30
0.0
 10
88.689657
 20
90.969425
 30
0.0
 10
86.456273
 20
91.822208
 30
0.0
 10
84.120811
 20
92.447843
 30
0.0
 10
81.696952
 20
92.833002
 30
0.0
 10
79.198383
 20
92.964353
 30
0.0
 10
74.468815
 20
92.487543
 30
0.0
 10
70.063550
 20
91.120045
 30
0.0
 10
66.076988
 20
88.956240
 30
0.0
 10
62.603546
 20
86.090518
 30
0.0
 10
59.737635
 20
82.617264
 30
0.0
 10
57.573663
 20
78.630869
 30
0.0
 10
56.206048
 20
74.225717
 30
0.0
 10
55.729196
 20
69.496195
 30
0.0
 10
55.738894
 20
68.808714
 30
0.0
 10
55.767872
 20
68.126032
 30
0.0
 10
55.815957
 20
67.448464
 30
0.0
 10
55.882975
 20
66.776306
 30
0.0
 10
55.968752
 20
66.109851
 30
0.0
 10
56.073115
 20
65.449412
 30
0.0
 10
56.195891
 20
64.795288
 30
0.0
 10
56.336905
 20
64.147782
 30
0.0
 10
49.133113
 20
64.900020
 30
0.0
 10
42.177742
 20
66.395339
 30
0.0
 10
35.511890
 20
68.592622
 30
0.0
 10
29.176657
 20
71.450731
 30
0.0
 10
23.213140
 20
74.928544
 30
0.0
 10
17.662439
 20
78.984930
 30
0.0
 10
12.565652
 20
83.578766
 30
0.0
 10
7.963879
 20
88.668921
 30
0.0
 10
7.247262
 20
87.343200
 30
0.0
 10
6.615005
 20
85.967924
 30
0.0
 10
6.070558
 20
84.546553
 30
0.0
 10
5.617370
 20
83.082572
 30
0.0
 10
5.258887
 20
81.579445
 30
0.0
 10
4.998558
 20
80.040645
 30
0.0
 10
4.839833
 20
78.469650
 30
0.0
 10
4.786158
 20
76.869924
 30
0.0
 10
4.976483
 20
73.865404
 30
0.0
 10
5.531923
 20
70.974430
 30
0.0
 10
6.429174
 20
68.220618
 30
0.0
 10
7.644931
 20
65.627590
 30
0.0
 10
9.155889
 20
63.218968
 30
0.0
 10
10.938746
 20
61.018368
 30
0.0
 10
12.970195
 20
59.049407
 30
0.0
 10
15.226934
 20
57.335719
 30
0.0
 10
13.795399
 20
57.424733
 30
0.0
 10
12.387912
 20
57.598587
 30
0.0
 10
11.007133
 20
57.854568
 30
0.0
 10
9.655721
 20
58.189944
 30
0.0
 10
8.336334
 20
58.602002
 30
0.0
 10
7.051633
 20
59.088015
 30
0.0
 10
5.804274
 20
59.645260
 30
0.0
 10
4.596919
 20
60.271026
 30
0.0
 10
4.596180
 20
60.234346
 30
0.0
 10
4.595625
 20
60.197643
 30
0.0
 10
4.595231
 20
60.160906
 30
0.0
 10
4.594962
 20
60.124106
 30
0.0
 10
4.594802
 20
60.087220
 30
0.0
 10
4.594716
 20
60.050237
 30
0.0
 10
4.594685
 20
60.013140
 30
0.0
 10
4.594681
 20
59.975894
 30
0.0
 10
4.963262
 20
55.810883
 30
0.0
 10
6.026474
 20
51.886445
 30
0.0
 10
7.720524
 20
48.266361
 30
0.0
 10
9.981616
 20
45.014407
 30
0.0
 10
12.745956
 20
42.194363
 30
0.0
 10
15.949748
 20
39.870007
 30
0.0
 10
19.529198
 20
38.105119
 30
0.0
 10
23.420512
 20
36.963475
 30
0.0
 10
22.677306
 20
36.774145
 30
0.0
 10
21.924757
 20
36.608613
 30
0.0
 10
21.163302
 20
36.467325
 30
0.0
 10
20.393377
 20
36.350726
 30
0.0
 10
19.615419
 20
36.259261
 30
0.0
 10
18.829866
 20
36.193378
 30
0.0
 10
18.037154
 20
36.153521
 30
0.0
 10
17.237721
 20
36.140136
 30
0.0
 10
16.672565
 20
36.147007
 30
0.0
 10
16.111301
 20
36.167453
 30
0.0
 10
15.553866
 20
36.201226
 30
0.0
 10
15.000200
 20
36.248080
 30
0.0
 10
14.450242
 20
36.307765
 30
0.0
 10
13.903931
 20
36.380033
 30
0.0
 10
13.361206
 20
36.464637
 30
0.0
 10
12.822006
 20
36.561329
 30
0.0
 10
14.200261
 20
33.191922
 30
0.0
 10
16.063294
 20
30.107991
 30
0.0
 10
18.363313
 20
27.357108
 30
0.0
 10
21.052526
 20
24.986849
 30
0.0
 10
24.083146
 20
23.044786
 30
0.0
 10
27.407379
 20
21.578493
 30
0.0
 10
30.977435
 20
20.635543
 30
0.0
 10
34.745524
 20
20.263511
 30
0.0
 10
31.638048
 20
18.024412
 30
0.0
 10
28.349081
 20
16.037900
 30
0.0
 10
24.892811
 20
14.318141
 30
0.0
 10
21.283426
 20
12.879300
 30
0.0
 10
17.535116
 20
11.735544
 30
0.0
 10
13.662069
 20
10.901037
 30
0.0
 10
9.678474
 20
10.389945
 30
0.0
 10
5.598519
 20
10.216433
 30
0.0
 10
4.889357
 20
10.221644
 30
0.0
 10
4.182719
 20
10.237234
 30
0.0
 10
3.478679
 20
10.263130
 30
0.0
 10
2.777309
 20
10.299258
 30
0.0
 10
2.078683
 20
10.345543
 30
0.0
 10
1.382873
 20
10.401914
 30
0.0
 10
0.689954
 20
10.468299
 30
0.0
 10
0.000000
 20
10.544625
 30
0.0
 10
3.984160
 20
8.179777
 30
0.0
 10
8.139049
 20
6.087913
 30
0.0
 10
12.452563
 20
4.282078
 30
0.0
 10
16.912591
 20
2.775321
 30
0.0
 10
21.507027
 20
1.580687
 30
0.0
 10
26.223762
 20
0.711224
 30
0.0
 10
31.050688
 20
0.179978
 30
0.0
 10
35.975700
 20
-0.000003
 30
0.0
 10
51.238783
 20
1.597185
 30
0.0
 10
64.620597
 20
6.072274
 30
0.0
 10
76.073734
 20
12.950551
 30
0.0
 10
85.550789
 20
21.757303
 30
0.0
 10
93.004353
 20
32.017817
 30
0.0
 10
98.387027
 20
43.257380
 30
0.0
 10
101.651389
 20
55.001279
 30
0.0
 10
102.750047
 20
66.774802
 30
0.0
 10
102.748960
 20
67.156106
 30
0.0
 10
102.745700
 20
67.536878
 30
0.0
 10
102.740267
 20
67.917129
 30
0.0
 10
102.732694
 20
68.296866
 30
0.0
 10
102.723011
 20
68.676088
 30
0.0
 10
102.711222
 20
69.054812
 30
0.0
 10
102.697358
 20
69.433039
 30
0.0
 10
102.681435
 20
69.810774
 30
0.0
 10
104.372268
 20
71.089909
 30
0.0
 10
106.003519
 20
72.443325
 30
0.0
 10
107.572559
 20
73.868104
 30
0.0
 10
109.076755
 20
75.361307
 30
0.0
 10
110.513460
 20
76.920005
 30
0.0
 10
111.880053
 20
78.541276
 30
0.0
 10
113.173893
 20
80.222186
 30
0.0
 10
114.392326
 20
81.959811
 30
0.0
  0
ENDSEC
  0
SECTION
  2
OBJECTS
  0
DICTIONARY
  5
C
330
0
100
AcDbDictionary
  3
ACAD_GROUP
350
D
  3
ACAD_MLINESTYLE
350
17
  0
DICTIONARY
  5
D
330
C
100
AcDbDictionary
  0
DICTIONARY
  5
1A
330
C
100
AcDbDictionary
  0
DICTIONARY
  5
17
330
C
100
AcDbDictionary
  3
STANDARD
350
18
  0
DICTIONARY
  5
19
330
C
100
AcDbDictionary
  0
ENDSEC
  0
EOF
