999
DXF created by Inkscape
  0
SECTION
  2
HEADER
  9
$ACADVER
  1
AC1014
  9
$HANDSEED
  5
FFFF
  9
$MEASUREMENT
 70
     1
  0
ENDSEC
  0
SECTION
  2
TABLES
  0
TABLE
  2
VPORT
  5
8
330
0
100
AcDbSymbolTable
 70
     4
  0
VPORT
  5
2E
330
8
100
AcDbSymbolTableRecord
100
AcDbViewportTableRecord
  2
*ACTIVE
 70
     0
 10
0.0
 20
0.0
 11
1.0
 21
1.0
 12
210.0
 22
148.5
 13
0.0
 23
0.0
 14
10.0
 24
10.0
 15
10.0
 25
10.0
 16
0.0
 26
0.0
 36
1.0
 17
0.0
 27
0.0
 37
0.0
 40
341.0
 41
1.24
 42
50.0
 43
0.0
 44
0.0
 50
0.0
 51
0.0
 71
     0
 72
   100
 73
     1
 74
     3
 75
     0
 76
     0
 77
     0
 78
     0
  0
ENDTAB
  0
TABLE
  2
LTYPE
  5
5
330
0
100
AcDbSymbolTable
 70
     1
  0
LTYPE
  5
14
330
5
100
AcDbSymbolTableRecord
100
AcDbLinetypeTableRecord
  2
BYBLOCK
 70
     0
  3

 72
    65
 73
     0
 40
0.0
  0
LTYPE
  5
15
330
5
100
AcDbSymbolTableRecord
100
AcDbLinetypeTableRecord
  2
BYLAYER
 70
     0
  3

 72
    65
 73
     0
 40
0.0
  0
LTYPE
  5
16
330
5
100
AcDbSymbolTableRecord
100
AcDbLinetypeTableRecord
  2
CONTINUOUS
 70
     0
  3
Solid line
 72
    65
 73
     0
 40
0.0
  0
ENDTAB
  0
TABLE
  2
LAYER
  5
2
100
AcDbSymbolTable
 70
2
  0
LAYER
  5
50
100
AcDbSymbolTableRecord
100
AcDbLayerTableRecord
  2
0
 70
0
  6
CONTINUOUS
  0
LAYER
  5
51
100
AcDbSymbolTableRecord
100
AcDbLayerTableRecord
  2
ink_ext_XXXXXX
 70
0
  6
CONTINUOUS
  0
ENDTAB
  0
TABLE
  2
STYLE
  5
3
330
0
100
AcDbSymbolTable
 70
     1
  0
STYLE
  5
11
330
3
100
AcDbSymbolTableRecord
100
AcDbTextStyleTableRecord
  2
STANDARD
 70
     0
 40
0.0
 41
1.0
 50
0.0
 71
     0
 42
2.5
  3
txt
  4

  0
ENDTAB
  0
TABLE
  2
VIEW
  5
6
330
0
100
AcDbSymbolTable
 70
     0
  0
ENDTAB
  0
TABLE
  2
UCS
  5
7
330
0
100
AcDbSymbolTable
 70
     0
  0
ENDTAB
  0
TABLE
  2
APPID
  5
9
330
0
100
AcDbSymbolTable
 70
     2
  0
APPID
  5
12
330
9
100
AcDbSymbolTableRecord
100
AcDbRegAppTableRecord
  2
ACAD
 70
     0
  0
ENDTAB
  0
TABLE
  2
DIMSTYLE
  5
A
330
0
100
AcDbSymbolTable
 70
     1
  0
DIMSTYLE
105
27
330
A
100
AcDbSymbolTableRecord
100
AcDbDimStyleTableRecord
  2
ISO-25
 70
     0
  3

  4

  5

  6

  7

 40
1.0
 41
2.5
 42
0.625
 43
3.75
 44
1.25
 45
0.0
 46
0.0
 47
0.0
 48
0.0
140
2.5
141
2.5
142
0.0
143
0.03937007874016
144
1.0
145
0.0
146
1.0
147
0.625
 71
     0
 72
     0
 73
     0
 74
     0
 75
     0
 76
     0
 77
     1
 78
     8
170
     0
171
     3
172
     1
173
     0
174
     0
175
     0
176
     0
177
     0
178
     0
270
     2
271
     2
272
     2
273
     2
274
     3
340
11
275
     0
280
     0
281
     0
282
     0
283
     0
284
     8
285
     0
286
     0
287
     3
288
     0
  0
ENDTAB
  0
TABLE
  2
BLOCK_RECORD
  5
1
330
0
100
AcDbSymbolTable
 70
     1
  0
BLOCK_RECORD
  5
1F
330
1
100
AcDbSymbolTableRecord
100
AcDbBlockTableRecord
  2
*MODEL_SPACE
  0
BLOCK_RECORD
  5
1B
330
1
100
AcDbSymbolTableRecord
100
AcDbBlockTableRecord
  2
*PAPER_SPACE
  0
ENDTAB
  0
ENDSEC
  0
SECTION
  2
BLOCKS
  0
BLOCK
  5
20
330
1F
100
AcDbEntity
  8
0
100
AcDbBlockBegin
  2
*MODEL_SPACE
 70
     0
 10
0.0
 20
0.0
 30
0.0
  3
*MODEL_SPACE
  1

  0
ENDBLK
  5
21
330
1F
100
AcDbEntity
  8
0
100
AcDbBlockEnd
  0
BLOCK
  5
1C
330
1B
100
AcDbEntity
 67
     1
  8
0
100
AcDbBlockBegin
  2
*PAPER_SPACE
  1

  0
ENDBLK
  5
1D
330
1B
100
AcDbEntity
 67
     1
  8
0
100
AcDbBlockEnd
  0
ENDSEC
  0
SECTION
  2
ENTITIES
  0
LWPOLYLINE
  5
100
100
AcDbEntity
  8
ink_ext_XXXXXX
 62
7
100
AcDbPolyline
 90
145
 70
0
 10
60.924722
 20
37.557781
 30
0.0
 10
57.447346
 20
37.868236
 30
0.0
 10
54.239358
 20
38.785966
 30
0.0
 10
51.360638
 20
40.290524
 30
0.0
 10
48.871057
 20
42.361467
 30
0.0
 10
46.830488
 20
44.978345
 30
0.0
 10
45.298812
 20
48.120709
 30
0.0
 10
44.335898
 20
51.768110
 30
0.0
 10
44.001619
 20
55.900108
 30
0.0
 10
44.102108
 20
57.906243
 30
0.0
 10
44.393513
 20
59.652673
 30
0.0
 10
44.860729
 20
61.136999
 30
0.0
 10
45.488666
 20
62.356824
 30
0.0
 10
46.262223
 20
63.309750
 30
0.0
 10
47.166301
 20
63.993381
 30
0.0
 10
48.185804
 20
64.405320
 30
0.0
 10
49.305633
 20
64.543164
 30
0.0
 10
50.371865
 20
64.418662
 30
0.0
 10
51.330832
 20
64.044431
 30
0.0
 10
52.171776
 20
63.419380
 30
0.0
 10
52.883947
 20
62.542431
 30
0.0
 10
53.456579
 20
61.412483
 30
0.0
 10
53.878924
 20
60.028462
 30
0.0
 10
54.140216
 20
58.389273
 30
0.0
 10
54.229706
 20
56.493833
 30
0.0
 10
54.194216
 20
55.328612
 30
0.0
 10
54.095276
 20
54.155404
 30
0.0
 10
53.944178
 20
52.993967
 30
0.0
 10
53.752221
 20
51.864066
 30
0.0
 10
53.530694
 20
50.785462
 30
0.0
 10
53.290897
 20
49.777915
 30
0.0
 10
53.044122
 20
48.861186
 30
0.0
 10
52.801661
 20
48.055036
 30
0.0
 10
52.944536
 20
47.837379
 30
0.0
 10
53.389967
 20
47.276995
 30
0.0
 10
54.163161
 20
46.512766
 30
0.0
 10
55.289316
 20
45.683576
 30
0.0
 10
56.793649
 20
44.928303
 30
0.0
 10
58.701358
 20
44.385826
 30
0.0
 10
61.037650
 20
44.195033
 30
0.0
 10
63.827731
 20
44.494803
 30
0.0
 10
64.428465
 20
45.970056
 30
0.0
 10
64.956510
 20
47.531193
 30
0.0
 10
65.409576
 20
49.157996
 30
0.0
 10
65.785383
 20
50.830251
 30
0.0
 10
66.081649
 20
52.527740
 30
0.0
 10
66.296095
 20
54.230245
 30
0.0
 10
66.426436
 20
55.917557
 30
0.0
 10
66.470389
 20
57.569453
 30
0.0
 10
66.194206
 20
61.698198
 30
0.0
 10
65.373698
 20
65.349102
 30
0.0
 10
64.020919
 20
68.499768
 30
0.0
 10
62.147937
 20
71.127803
 30
0.0
 10
59.766803
 20
73.210815
 30
0.0
 10
56.889579
 20
74.726408
 30
0.0
 10
53.528323
 20
75.652185
 30
0.0
 10
49.695100
 20
75.965756
 30
0.0
 10
45.727013
 20
75.574730
 30
0.0
 10
42.217848
 20
74.447262
 30
0.0
 10
39.189226
 20
72.651782
 30
0.0
 10
36.662773
 20
70.256707
 30
0.0
 10
34.660114
 20
67.330468
 30
0.0
 10
33.202870
 20
63.941484
 30
0.0
 10
32.312666
 20
60.158182
 30
0.0
 10
32.011126
 20
56.048981
 30
0.0
 10
32.253082
 20
51.916284
 30
0.0
 10
32.964387
 20
47.975848
 30
0.0
 10
34.123198
 20
44.270521
 30
0.0
 10
35.707673
 20
40.843136
 30
0.0
 10
37.695967
 20
37.736547
 30
0.0
 10
40.066239
 20
34.993591
 30
0.0
 10
42.796647
 20
32.657110
 30
0.0
 10
45.865344
 20
30.769948
 30
0.0
 10
44.460604
 20
28.080070
 30
0.0
 10
42.972260
 20
25.481375
 30
0.0
 10
41.409634
 20
22.981705
 30
0.0
 10
39.782051
 20
20.588900
 30
0.0
 10
38.098850
 20
18.310805
 30
0.0
 10
36.369346
 20
16.155259
 30
0.0
 10
34.602873
 20
14.130106
 30
0.0
 10
32.808757
 20
12.243188
 30
0.0
 10
29.575735
 20
16.396388
 30
0.0
 10
26.465522
 20
21.003564
 30
0.0
 10
23.523540
 20
26.178841
 30
0.0
 10
20.795209
 20
32.036341
 30
0.0
 10
18.325952
 20
38.690187
 30
0.0
 10
16.161190
 20
46.254501
 30
0.0
 10
14.346344
 20
54.843412
 30
0.0
 10
12.926836
 20
64.571033
 30
0.0
 10
11.310982
 20
64.571033
 30
0.0
 10
9.695127
 20
64.571033
 30
0.0
 10
8.079273
 20
64.571033
 30
0.0
 10
6.463418
 20
64.571033
 30
0.0
 10
4.847564
 20
64.571033
 30
0.0
 10
3.231709
 20
64.571033
 30
0.0
 10
1.615855
 20
64.571033
 30
0.0
 10
0.000000
 20
64.571033
 30
0.0
 10
2.738124
 20
48.783871
 30
0.0
 10
6.292671
 20
35.697015
 30
0.0
 10
10.371646
 20
25.083804
 30
0.0
 10
14.683052
 20
16.717587
 30
0.0
 10
18.934894
 20
10.371706
 30
0.0
 10
22.835175
 20
5.819506
 30
0.0
 10
26.091901
 20
2.834331
 30
0.0
 10
28.413075
 20
1.189524
 30
0.0
 10
29.400040
 20
0.668808
 30
0.0
 10
30.355267
 20
0.300028
 30
0.0
 10
31.285272
 20
0.078619
 30
0.0
 10
32.196573
 20
0.000018
 30
0.0
 10
33.095686
 20
0.059657
 30
0.0
 10
33.989129
 20
0.252972
 30
0.0
 10
34.883419
 20
0.575397
 30
0.0
 10
35.785072
 20
1.022368
 30
0.0
 10
37.552997
 20
2.269551
 30
0.0
 10
39.885006
 20
4.298955
 30
0.0
 10
42.632337
 20
7.025154
 30
0.0
 10
45.646227
 20
10.362723
 30
0.0
 10
48.777902
 20
14.226236
 30
0.0
 10
51.878600
 20
18.530268
 30
0.0
 10
54.799558
 20
23.189394
 30
0.0
 10
57.392006
 20
28.118188
 30
0.0
 10
58.408083
 20
28.138961
 30
0.0
 10
59.470258
 20
28.188267
 30
0.0
 10
60.572445
 20
28.266751
 30
0.0
 10
61.708552
 20
28.375054
 30
0.0
 10
62.872486
 20
28.513821
 30
0.0
 10
64.058165
 20
28.683695
 30
0.0
 10
65.259497
 20
28.885319
 30
0.0
 10
66.470389
 20
29.119336
 30
0.0
 10
66.470389
 20
30.248357
 30
0.0
 10
66.470389
 20
31.377378
 30
0.0
 10
66.470389
 20
32.506400
 30
0.0
 10
66.470389
 20
33.635421
 30
0.0
 10
66.470389
 20
34.764442
 30
0.0
 10
66.470389
 20
35.893463
 30
0.0
 10
66.470389
 20
37.022486
 30
0.0
 10
66.470389
 20
38.151506
 30
0.0
 10
65.739980
 20
38.003540
 30
0.0
 10
65.017149
 20
37.878801
 30
0.0
 10
64.303420
 20
37.776217
 30
0.0
 10
63.600323
 20
37.694704
 30
0.0
 10
62.909376
 20
37.633180
 30
0.0
 10
62.232110
 20
37.590571
 30
0.0
 10
61.570052
 20
37.565799
 30
0.0
 10
60.924722
 20
37.557781
 30
0.0
  0
ENDSEC
  0
SECTION
  2
OBJECTS
  0
DICTIONARY
  5
C
330
0
100
AcDbDictionary
  3
ACAD_GROUP
350
D
  3
ACAD_MLINESTYLE
350
17
  0
DICTIONARY
  5
D
330
C
100
AcDbDictionary
  0
DICTIONARY
  5
1A
330
C
100
AcDbDictionary
  0
DICTIONARY
  5
17
330
C
100
AcDbDictionary
  3
STANDARD
350
18
  0
DICTIONARY
  5
19
330
C
100
AcDbDictionary
  0
ENDSEC
  0
EOF
